<?xml version="1.0" encoding="UTF-8" standalone="no"?>
<!-- Created with Inkscape (http://www.inkscape.org/) -->

<svg
   xmlns:dc="http://purl.org/dc/elements/1.1/"
   xmlns:cc="http://creativecommons.org/ns#"
   xmlns:rdf="http://www.w3.org/1999/02/22-rdf-syntax-ns#"
   xmlns:svg="http://www.w3.org/2000/svg"
   xmlns="http://www.w3.org/2000/svg"
   xmlns:xlink="http://www.w3.org/1999/xlink"
   xmlns:sodipodi="http://sodipodi.sourceforge.net/DTD/sodipodi-0.dtd"
   xmlns:inkscape="http://www.inkscape.org/namespaces/inkscape"
   id="svg2"
   version="1.1"
   inkscape:version="0.91 r13725"
   width="2481"
   height="3503"
   sodipodi:docname="Pepper-and-Carrot_by-David-Revoy_E17P05.svg">
  <metadata
     id="metadata8">
    <rdf:RDF>
      <cc:Work
         rdf:about="">
        <dc:format>image/svg+xml</dc:format>
        <dc:type
           rdf:resource="http://purl.org/dc/dcmitype/StillImage" />
        <dc:title />
      </cc:Work>
    </rdf:RDF>
  </metadata>
  <defs
     id="defs6" />
  <sodipodi:namedview
     pagecolor="#ffffff"
     bordercolor="#666666"
     borderopacity="1"
     objecttolerance="10"
     gridtolerance="10"
     guidetolerance="10"
     inkscape:pageopacity="0"
     inkscape:pageshadow="2"
     inkscape:window-width="1680"
     inkscape:window-height="1033"
     id="namedview4"
     showgrid="false"
     inkscape:zoom="0.52900001"
     inkscape:cx="1243.323"
     inkscape:cy="2626.9713"
     inkscape:window-x="1920"
     inkscape:window-y="0"
     inkscape:window-maximized="1"
     inkscape:current-layer="layer1" />
  <g
     inkscape:groupmode="layer"
     id="layer2"
     inkscape:label="artwork"
     sodipodi:insensitive="true">
    <image
       sodipodi:absref="/home/deevad/peppercarrot/webcomics/New/lang/fr/../gfx_Pepper-and-Carrot_by-David-Revoy_E17P05.png"
       xlink:href="../gfx_Pepper-and-Carrot_by-David-Revoy_E17P05.png"
       width="2481"
       height="3503"
       id="image10"
       x="0"
       y="0" />
  </g>
  <g
     inkscape:groupmode="layer"
     id="layer3"
     inkscape:label="speechbubbles">
    <path
       style="color:#000000;display:inline;overflow:visible;visibility:visible;fill:#ffffff;fill-opacity:1;fill-rule:nonzero;stroke:none;stroke-width:1px;marker:none;enable-background:accumulate"
       d="m 919.24508,1664.9763 c -35.64918,-49.3972 -33.50702,-35.8127 -55.68754,-41.487 -22.18046,-5.6743 -56.10459,-8.1166 -75.67194,-38.067 -19.56734,-29.9502 -7.7227,-47.3089 -15.6982,-63.0744 -13.86786,-35.0758 -59.99843,-88.6875 -71.58061,-73.7216 -11.58231,14.9659 54.60585,-32.5999 54.60585,-32.5999 0,0 21.90128,40.5461 40.94902,72.5503 18.12887,30.4603 6.96358,61.2231 16.60124,83.4365 9.63759,22.2132 38.38994,25.2263 56.21411,34.8752 33.62888,18.2044 33.14678,10.7504 50.26807,58.0879 z"
       id="path4538"
       inkscape:connector-curvature="0"
       sodipodi:nodetypes="csscscsssc" />
    <path
       style="fill:#ffffff;stroke:none"
       d="m 546.36461,265.09363 c -17.34473,-110.62015 78.84832,-131.66895 118.20524,-134.08028 30.52239,-1.87006 117.01792,1.86499 200.19785,1.86499 83.18023,0 289.7473,6.60531 324.6702,7.72916 115.3218,3.71113 131.4782,54.10288 134.1613,100.47713 2.6833,46.37409 -12.5867,82.96373 -60.8847,111.30344 -48.2981,28.3399 -349.64874,35.54778 -368.43135,32.97138 -18.78241,-2.57638 -268.32236,-20.61055 -284.42162,-28.33973 -16.09934,-7.72896 -60.81367,-35.24665 -63.49692,-91.92609 z"
       id="path3278"
       inkscape:connector-curvature="0"
       sodipodi:nodetypes="csssssssc" />
    <path
       style="fill:#ffffff;stroke:none"
       d="m 1246.4227,507.4871 c -109.0954,0.40344 -156.5265,-152.84331 -111.3345,-221.76247 67.4415,-102.85047 -20.8346,-53.59943 -20.8346,-53.59943 -26.6344,23.3051 -76.0059,272.1805 132.1691,275.3619 z"
       id="path3067"
       inkscape:connector-curvature="0"
       sodipodi:nodetypes="cscc" />
    <path
       style="color:#000000;display:inline;overflow:visible;visibility:visible;fill:#ffffff;fill-opacity:1;fill-rule:nonzero;stroke:none;stroke-width:1px;marker:none;enable-background:accumulate"
       d="m 986.23692,386.95777 c 36.20118,-42.27037 282.80528,-52.84078 349.89628,58.40465 67.091,111.24544 -3.4529,219.01086 -57.7368,247.87669 -54.2838,28.86601 -202.3771,45.38289 -261.3934,2.66292 -59.01617,-42.71999 -101.11514,-98.72252 -87.84023,-196.44875 5.41802,-39.88597 20.87275,-70.22501 57.07415,-112.49551 z"
       id="path4040"
       inkscape:connector-curvature="0"
       sodipodi:nodetypes="zssssz" />
    <path
       style="fill:#ffffff;stroke:none"
       d="m 1395.4822,727.42692 c -89.6828,62.1206 -191.2677,-37.31472 -193.0563,-119.70991 -2.6689,-122.96118 -71.8273,-32.37406 -71.8273,-32.37406 -8.7516,34.29182 91.5137,267.36558 264.8836,152.08397 z"
       id="path3067-2"
       inkscape:connector-curvature="0"
       sodipodi:nodetypes="cscc" />
    <path
       style="fill:#ffffff;stroke:none"
       d="m 468.11326,1467.1573 c -19.37989,-111.5725 85.30011,-133.4109 128.15672,-136.086 33.23655,-2.0748 127.46344,1.167 218.06246,0.6584 90.59932,-0.5086 315.62006,4.8967 353.66266,5.8175 125.624,3.0414 143.4438,53.8166 146.571,100.618 3.1272,46.8015 -13.3433,83.8346 -65.8241,112.741 -52.481,28.9064 -380.67828,38.0259 -401.14754,35.54 -20.46905,-2.4863 -292.34595,-19.1669 -309.91525,-26.8714 -17.56941,-7.7048 -66.3933,-35.2121 -69.56595,-92.4175 z"
       id="path3278-7"
       inkscape:connector-curvature="0"
       sodipodi:nodetypes="csssssssc" />
    <path
       style="fill:#ffffff;stroke:none"
       d="m 1477.1252,1685.4693 c 8.8367,-58.0676 92.3822,-124.7193 288.3929,-115.1254 196.0108,9.5938 270.7198,50.9985 265.0966,130.2735 -5.6234,79.275 -111.6619,110.0761 -276.3431,105.5317 -164.6812,-4.5445 -286.7863,-36.8603 -277.1464,-120.6798 z"
       id="path3274"
       inkscape:connector-curvature="0" />
    <path
       style="display:inline;fill:#ffffff;stroke:none"
       d="m 1411.6015,1795.6346 c 57.5068,1.3894 122.8631,-20.9414 125.0027,-63.0529 1.2963,-25.5154 -2.7708,-40.7412 -2.7708,-40.7412 l 37.7777,11.7724 1.3061,28.7249 c 0,0 -26.5935,73.9821 -161.3157,63.2968 z"
       id="path3063-1"
       inkscape:connector-curvature="0"
       sodipodi:nodetypes="cscccc" />
    <path
       style="color:#000000;display:inline;overflow:visible;visibility:visible;fill:#ffffff;fill-opacity:1;fill-rule:nonzero;stroke:none;stroke-width:1px;marker:none;enable-background:accumulate"
       d="m 320.93917,2447.0715 c 5.48438,-55.6594 51.48492,-94.4725 167.27434,-78.6908 62.02304,8.4535 132.53967,15.3543 125.22718,96.9241 -7.31257,81.5698 -108.77395,74.8524 -129.79752,75.8121 -21.02358,0.9596 -129.90766,-12.5786 -148.07887,-41.2649 -11.37476,-17.9569 -15.53918,-35.5068 -14.62513,-52.7805 z"
       id="path4546-6"
       inkscape:connector-curvature="0"
       sodipodi:nodetypes="cssssc" />
    <path
       style="color:#000000;display:inline;overflow:visible;visibility:visible;fill:#ffffff;fill-opacity:1;fill-rule:nonzero;stroke:none;stroke-width:1px;marker:none;enable-background:accumulate"
       d="m 907.23639,2592.0266 c -23.62035,-34.1403 -42.50363,-36.5905 -55.96461,-39.6154 -1.87547,3.3952 -6.49852,8.7941 -6.49852,8.7941 0,0 -25.97688,-8.0908 -36.79234,-8.3139 -10.8154,-0.2233 -11.06323,11.4471 -11.06323,11.4471 0,0 50.13669,16.8309 59.91961,23.2139 4.71046,-9.5178 8.40315,-13.5624 8.49056,-17.6813 8.12621,-0.5191 33.14349,10.2991 41.90853,22.1555 z"
       id="path4456"
       inkscape:connector-curvature="0" />
    <path
       style="color:#000000;display:inline;overflow:visible;visibility:visible;fill:#ffffff;fill-opacity:1;fill-rule:nonzero;stroke:none;stroke-width:1px;marker:none;enable-background:accumulate"
       d="m 577.93323,2484.2098 c 24.11977,-45.323 155.30944,-41.4539 198.95869,-21.8178 43.64904,19.636 59.89059,53.4535 61.92076,65.4534 2.03007,11.9997 -3.04526,67.6351 -25.37741,78.5441 -22.33207,10.9089 -86.28301,16.3633 -108.61516,16.3633 -22.33207,0 -93.62104,-6.9434 -111.66061,-22.9088 -17.25664,-15.2724 -39.34615,-70.3114 -15.22627,-115.6342 z"
       id="path3330"
       inkscape:connector-curvature="0"
       sodipodi:nodetypes="zsssssz" />
  </g>
  <g
     inkscape:groupmode="layer"
     id="layer1"
     inkscape:label="txt">
    <text
       xml:space="preserve"
       style="font-style:normal;font-variant:normal;font-weight:normal;font-stretch:normal;font-size:12px;line-height:125%;font-family:Lavi;-inkscape-font-specification:Lavi;text-align:center;letter-spacing:0px;word-spacing:0px;text-anchor:middle;fill:#000000;fill-opacity:1;stroke:none"
       x="897.22949"
       y="243.68471"
       id="text4246"
       sodipodi:linespacing="125%"><tspan
         sodipodi:role="line"
         style="font-style:italic;font-variant:normal;font-weight:normal;font-stretch:normal;font-size:45px;font-family:Lavi;-inkscape-font-specification:'Lavi Italic'"
         x="897.22949"
         y="243.68471"
         id="tspan4148">&quot;Le monde des tubercules, c'est avant</tspan><tspan
         sodipodi:role="line"
         style="font-style:italic;font-variant:normal;font-weight:normal;font-stretch:normal;font-size:45px;font-family:Lavi;-inkscape-font-specification:'Lavi Italic'"
         x="897.22949"
         y="299.93472"
         id="tspan4152">tout de la gastronomie...&quot;</tspan></text>
    <text
       xml:space="preserve"
       style="font-style:normal;font-variant:normal;font-weight:normal;font-stretch:normal;font-size:12px;line-height:125%;font-family:Lavi;-inkscape-font-specification:Lavi;text-align:center;letter-spacing:0px;word-spacing:0px;text-anchor:middle;fill:#000000;fill-opacity:1;stroke:none"
       x="1139.7712"
       y="432.62137"
       id="text4246-2"
       sodipodi:linespacing="125%"><tspan
         sodipodi:role="line"
         style="font-size:45px"
         x="1139.7712"
         y="432.62137"
         id="tspan4252">Pff...</tspan><tspan
         sodipodi:role="line"
         style="font-size:45px"
         x="1139.7712"
         y="488.87137"
         id="tspan4225">...et des potions?</tspan><tspan
         sodipodi:role="line"
         style="font-size:45px"
         x="1139.7712"
         y="545.12134"
         id="tspan4227">m'en a t'elle</tspan><tspan
         sodipodi:role="line"
         style="font-size:45px"
         x="1139.7712"
         y="601.37134"
         id="tspan4229">appris au moins</tspan><tspan
         sodipodi:role="line"
         style="font-size:45px"
         x="1139.7712"
         y="657.62134"
         id="tspan4231">une seule?</tspan></text>
    <text
       xml:space="preserve"
       style="font-style:normal;font-variant:normal;font-weight:normal;font-stretch:normal;font-size:12px;line-height:125%;font-family:Lavi;-inkscape-font-specification:Lavi;text-align:center;letter-spacing:0px;word-spacing:0px;text-anchor:middle;fill:#000000;fill-opacity:1;stroke:none"
       x="1754.6532"
       y="1643.6052"
       id="text4246-2-5"
       sodipodi:linespacing="125%"><tspan
         sodipodi:role="line"
         style="font-size:45px"
         x="1754.6532"
         y="1643.6052"
         id="tspan4394">... moi j'aurai</tspan><tspan
         sodipodi:role="line"
         style="font-size:45px"
         x="1754.6532"
         y="1699.8552"
         id="tspan4404">préféré un vrai cours</tspan><tspan
         sodipodi:role="line"
         style="font-size:45px"
         x="1754.6532"
         y="1756.1052"
         id="tspan4406">de divination!</tspan></text>
    <text
       xml:space="preserve"
       style="font-style:normal;font-variant:normal;font-weight:normal;font-stretch:normal;font-size:12px;line-height:125%;font-family:Lavi;-inkscape-font-specification:Lavi;text-align:center;letter-spacing:0px;word-spacing:0px;text-anchor:middle;fill:#000000;fill-opacity:1;stroke:none"
       x="843.48944"
       y="1420.2212"
       id="text4246-1"
       sodipodi:linespacing="125%"><tspan
         sodipodi:role="line"
         style="font-style:italic;font-variant:normal;font-weight:normal;font-stretch:normal;font-size:45px;font-family:Lavi;-inkscape-font-specification:'Lavi Italic'"
         x="843.48944"
         y="1420.2212"
         id="tspan4325">&quot;Une vraie sorcière de Chaosah n'a</tspan><tspan
         sodipodi:role="line"
         style="font-style:italic;font-variant:normal;font-weight:normal;font-stretch:normal;font-size:45px;font-family:Lavi;-inkscape-font-specification:'Lavi Italic'"
         x="843.48944"
         y="1476.4712"
         id="tspan5929">besoin ni de cartes ni de boussoles</tspan><tspan
         sodipodi:role="line"
         style="font-style:italic;font-variant:normal;font-weight:normal;font-stretch:normal;font-size:45px;font-family:Lavi;-inkscape-font-specification:'Lavi Italic'"
         x="843.48944"
         y="1532.7212"
         id="tspan4329">sous un ciel étoilé&quot;</tspan></text>
    <text
       xml:space="preserve"
       style="font-style:normal;font-variant:normal;font-weight:normal;font-stretch:normal;font-size:12.30392742px;line-height:125%;font-family:Lavi;-inkscape-font-specification:Lavi;text-align:center;letter-spacing:0px;word-spacing:0px;text-anchor:middle;fill:#000000;fill-opacity:1;stroke:none"
       x="454.11227"
       y="2501.3633"
       id="text4246-2-5-8"
       sodipodi:linespacing="125%"
       transform="scale(1.0253273,0.97529834)"><tspan
         sodipodi:role="line"
         style="font-size:46.13972855px"
         x="462.22278"
         y="2501.3633"
         id="tspan4406-1">Courage </tspan><tspan
         sodipodi:role="line"
         style="font-size:46.13972855px"
         x="454.11227"
         y="2559.0378"
         id="tspan4487">Carrot!</tspan></text>
    <text
       xml:space="preserve"
       style="font-style:normal;font-variant:normal;font-weight:normal;font-stretch:normal;font-size:12px;line-height:125%;font-family:Lavi;-inkscape-font-specification:Lavi;text-align:center;letter-spacing:0px;word-spacing:0px;text-anchor:middle;fill:#000000;fill-opacity:1;stroke:none"
       x="710.54004"
       y="2524.0591"
       id="text4246-2-5-8-5"
       sodipodi:linespacing="125%"><tspan
         sodipodi:role="line"
         style="font-size:45px"
         x="718.4502"
         y="2524.0591"
         id="tspan4485-9">Regarde, </tspan><tspan
         sodipodi:role="line"
         style="font-size:45px"
         x="710.54004"
         y="2580.3091"
         id="tspan4487-4">on y est!</tspan></text>
  </g>
</svg>
