<?xml version="1.0" encoding="UTF-8" standalone="no"?>
<!-- Created with Inkscape (http://www.inkscape.org/) -->

<svg
   xmlns:dc="http://purl.org/dc/elements/1.1/"
   xmlns:cc="http://creativecommons.org/ns#"
   xmlns:rdf="http://www.w3.org/1999/02/22-rdf-syntax-ns#"
   xmlns:svg="http://www.w3.org/2000/svg"
   xmlns="http://www.w3.org/2000/svg"
   xmlns:xlink="http://www.w3.org/1999/xlink"
   xmlns:sodipodi="http://sodipodi.sourceforge.net/DTD/sodipodi-0.dtd"
   xmlns:inkscape="http://www.inkscape.org/namespaces/inkscape"
   id="svg2"
   version="1.1"
   inkscape:version="0.91 r13725"
   width="2481"
   height="3503"
   sodipodi:docname="Pepper-and-Carrot_by-David-Revoy_E17P05.svg">
  <metadata
     id="metadata8">
    <rdf:RDF>
      <cc:Work
         rdf:about="">
        <dc:format>image/svg+xml</dc:format>
        <dc:type
           rdf:resource="http://purl.org/dc/dcmitype/StillImage" />
        <dc:title />
      </cc:Work>
    </rdf:RDF>
  </metadata>
  <defs
     id="defs6">
    <filter
       inkscape:label="Ripple"
       inkscape:menu="Distort"
       inkscape:menu-tooltip="Horizontal rippling of edges"
       style="color-interpolation-filters:sRGB;"
       id="filter4163">
      <feTurbulence
         numOctaves="1"
         baseFrequency="0.014 0.017999999999999999"
         id="feTurbulence4165" />
      <feColorMatrix
         values="2 0 0 0 0 0 0 0 0 0 0 0 0 0 0 0 0 0 0.5 0.5"
         result="result91"
         id="feColorMatrix4167" />
      <feDisplacementMap
         yChannelSelector="A"
         xChannelSelector="R"
         scale="14.3"
         in="SourceGraphic"
         in2="result91"
         id="feDisplacementMap4169" />
    </filter>
  </defs>
  <sodipodi:namedview
     pagecolor="#ffffff"
     bordercolor="#666666"
     borderopacity="1"
     objecttolerance="10"
     gridtolerance="10"
     guidetolerance="10"
     inkscape:pageopacity="0"
     inkscape:pageshadow="2"
     inkscape:window-width="1228"
     inkscape:window-height="1028"
     id="namedview4"
     showgrid="false"
     inkscape:zoom="0.52601298"
     inkscape:cx="1247.3971"
     inkscape:cy="2506.8004"
     inkscape:window-x="684"
     inkscape:window-y="-8"
     inkscape:window-maximized="0"
     inkscape:current-layer="layer1" />
  <g
     inkscape:groupmode="layer"
     id="layer2"
     inkscape:label="artwork"
     sodipodi:insensitive="true">
    <image
       sodipodi:absref="C:\Users\Kari\Documents\Pepper and Carrot\Episode 17\fi\..\peppercarrot_ep17_translation-master\en\.\..\gfx_Pepper-and-Carrot_by-David-Revoy_E17P05.png"
       xlink:href="../gfx_Pepper-and-Carrot_by-David-Revoy_E17P05.png"
       y="0"
       x="0"
       id="image10"
       height="3503"
       width="2481" />
  </g>
  <g
     inkscape:groupmode="layer"
     id="layer3"
     inkscape:label="speechbubbles"
     style="opacity:1">
    <path
       style="fill:#ffffff;stroke:none"
       d="m 1715.8674,1095.7904 c -15.591,-116.27044 -82.2012,-166.98207 -46.8236,-169.51657 27.4363,-1.96558 221.8888,0.53088 296.6587,0.53088 74.77,0 261.2884,1.23111 291.8434,8.12396 86.9899,19.6239 118.1846,56.86648 120.5964,105.60943 2.4121,48.7428 -11.3141,87.2014 -54.7287,116.9888 -43.4148,29.7875 -299.1403,44.5104 -316.024,41.8024 -16.8832,-2.7079 -395.7854,6.9244 -410.2568,-1.1996 -14.4716,-8.1238 121.1464,-42.7646 118.7346,-102.3393 z"
       id="path3278"
       inkscape:connector-curvature="0"
       sodipodi:nodetypes="csssssssc" />
    <path
       style="fill:#ffffff;stroke:none"
       d="m 1884.008,1338.6573 c 89.8965,-16.1397 129.811,-146.0647 92.9439,-194.4569 -55.0179,-72.2175 44.7436,-42.6509 44.7436,-42.6509 21.8217,14.6506 33.8742,203.1448 -137.6875,237.1078 z"
       id="path3067"
       inkscape:connector-curvature="0"
       sodipodi:nodetypes="cscc" />
    <path
       style="color:#000000;display:inline;overflow:visible;visibility:visible;fill:#ffffff;fill-opacity:1;fill-rule:nonzero;stroke:none;stroke-width:1px;marker:none;enable-background:accumulate"
       d="m 789.2242,2496.8078 c 41.35513,-29.1586 323.068,-36.4503 399.7107,40.2886 76.6427,76.7388 -3.9444,151.0772 -65.9567,170.9893 -62.0121,19.9122 -231.18937,31.3059 -298.60776,1.8369 -67.41829,-29.4689 -115.51077,-68.1003 -100.34593,-135.5134 6.18935,-27.5141 23.84433,-48.4423 65.19969,-77.6014 z"
       id="path4040"
       inkscape:connector-curvature="0"
       sodipodi:nodetypes="zssssz" />
    <path
       style="fill:#ffffff;stroke:none"
       d="m 1141.1877,2779.5367 c -79.3654,55.1445 -173.31649,-51.1501 -152.54949,-133.1711 30.04439,-118.663 -56.8594,-37.4571 -56.8594,-37.4571 -7.25091,33.4378 70.53289,272.4536 209.40889,170.6282 z"
       id="path3067-2"
       inkscape:connector-curvature="0"
       sodipodi:nodetypes="cscc" />
    <path
       style="fill:#ffffff;fill-rule:evenodd;stroke:none;stroke-width:1px;stroke-linecap:butt;stroke-linejoin:miter;stroke-opacity:1"
       d="m 732.69842,1807.7666 c 10.43924,-45.5279 23.07213,-76.3119 53.66751,-99.3717 14.56019,-11.1329 31.20271,-19.2915 48.23297,-17.1455 16.91859,1.2824 33.44386,8.9378 50.54958,6.2787 20.80009,-0.8782 41.96534,-4.71 62.52661,0.7654 18.2782,5.9743 37.10998,9.0685 55.97181,9.248 13.3064,-3.7923 25.4827,6.3149 37.3663,12.3604 10.6682,6.5299 21.5649,13.3809 30.5256,23.4819 8.2555,14.1795 18.1406,26.5155 26.4926,40.5686 5.4649,7.6828 4.9397,18.295 4.6881,28.1161 -0.7099,20.1118 -1.9119,40.5412 -6.373,59.9173 -2.6697,12.3011 -12.5374,16.3719 -20.1195,22.0246 -17.9405,11.9326 -36.991,20.9816 -54.1131,35.0239 -16.9629,7.1901 -34.9898,3.8269 -52.38612,2.7404 -14.57693,-2.1404 -29.24054,-5.1251 -43.94277,-2.636 -18.71242,1.8214 -37.36802,6.5376 -56.14737,5.9335 -23.5254,-4.1454 -57.40757,-4.0139 -80.20567,-12.2016 -20.45401,-7.2167 -21.55331,-14.2082 -39.44093,-28.725 -9.55489,-8.2436 -26.89341,-28.1638 -30.2655,-43.3557 -2.76425,-10.461 13.0953,-32.0004 12.97288,-43.0233 z"
       id="path4365"
       inkscape:connector-curvature="0"
       sodipodi:nodetypes="cccccccccccccccccccc" />
    <path
       style="fill:#ffffff;fill-rule:evenodd;stroke:none;stroke-width:1px;stroke-linecap:butt;stroke-linejoin:miter;stroke-opacity:1"
       d="m 796.77566,2013.5106 c 12.13957,-45.3435 28.55727,-69.4086 64.13596,-92.3749 16.93171,-11.0879 36.28492,-19.2135 56.08901,-17.0761 19.67426,1.2772 38.89113,8.9016 58.78302,6.2533 24.1879,-0.8747 48.80045,-4.691 72.71065,0.7622 21.2553,5.9501 37.73,-0.3667 59.6641,-0.1879 15.4738,-3.7769 35.9617,6.2894 49.7806,12.3104 12.4058,6.5035 30.5018,18.9658 40.9221,29.0258 9.6001,14.1219 14.767,30.1674 24.4792,44.1636 6.355,7.6517 5.7444,18.2208 5.4516,28.0022 -0.8253,20.0303 -2.223,40.377 -7.4109,59.6745 -3.1046,12.2513 -14.5795,16.3057 -23.3966,21.9354 -20.8626,11.8843 -43.016,20.8967 -62.9269,34.8819 -19.7257,7.1611 -40.6888,3.8116 -60.9185,2.7293 -16.9512,-2.1317 -34.0034,-5.1042 -51.1001,-2.6252 -21.7603,1.8141 -43.45435,6.5111 -65.29252,5.9095 -27.35712,-4.1286 -53.55778,-14.2941 -80.06922,-22.4486 -23.78552,-7.1874 -27.38301,-20.703 -48.18412,-35.1609 -11.11118,-8.2103 -17.44937,-17.7533 -21.37068,-32.8836 -3.2145,-10.4186 -11.20433,-31.9127 -11.3467,-42.8909 z"
       id="path4365-3"
       inkscape:connector-curvature="0"
       sodipodi:nodetypes="cccccccccccccccccccc" />
    <g
       id="g5381"
       transform="matrix(0.78733775,0,0,0.96949033,-492.80698,-1135.7073)"
       style="fill:#ffffff">
      <path
         inkscape:connector-curvature="0"
         id="path5263"
         d="m 1225.2771,3157.962 c -4.7051,-6.6655 -4.7051,-15.2915 -4.7051,-16.8598 0,-1.5684 0.3921,-7.4497 0.3921,-7.4497 l -3.1367,-1.1763 2.7446,-5.0971 -3.1367,0.3921 c 0,0 7.4497,-9.0181 9.018,-11.7627 1.5684,-2.7446 4.313,-9.018 4.313,-9.018 0,0 14.5073,-1.9605 17.644,-3.1368 3.1367,-1.1762 12.5468,-11.3705 12.5468,-11.3705 0,0 11.3706,5.4892 15.6836,6.2734 4.3129,0.7842 24.3095,1.9604 27.8383,0 3.5288,-1.9605 7.0576,-4.7051 7.0576,-4.7051 0,0 9.018,-0.7841 11.3705,-1.9604 2.3526,-1.1763 6.6655,-3.9209 6.6655,-3.9209 0,0 7.4497,0.7842 10.5864,0.3921 3.1367,-0.3921 17.644,0 19.2124,0 1.5683,0 12.5468,6.6655 12.5468,6.6655 l 7.0576,6.6655 c 0,0 5.8813,-0.3921 8.626,-1.1763 2.7446,-0.7841 5.0971,3.1367 5.0971,3.1367 0,0 10.5864,23.9175 12.1548,28.6225 1.5683,4.7051 2.3525,14.1152 2.3525,14.1152 0,0 -4.313,7.4497 -6.6655,10.5864 -2.3525,3.1367 -9.018,10.5864 -12.5468,13.331 -3.5288,2.7446 -7.8418,7.0576 -12.1548,4.313 -4.313,-2.7446 -8.6259,-2.3525 -10.1943,-0.3921 -1.5684,1.9604 -12.9389,15.6836 -16.8598,14.1152 -3.9209,-1.5684 -17.2519,-3.9209 -21.1728,-7.4497 -3.9209,-3.5288 -10.1943,4.7051 -12.9389,2.3525 -2.7446,-2.3525 -6.6655,-6.6655 -9.4102,-6.6655 -2.7446,0 -35.68,9.8023 -39.6009,8.2339 -3.9209,-1.5684 -24.7016,-14.5073 -27.0541,-16.0756 -2.3526,-1.5684 -8.2339,-10.9785 -8.2339,-10.9785 z"
         style="color:#000000;display:inline;overflow:visible;visibility:visible;fill:#ffffff;fill-opacity:1;fill-rule:nonzero;stroke:none;stroke-width:1px;marker:none;enable-background:accumulate" />
      <path
         inkscape:connector-curvature="0"
         id="path5271"
         d="m 1236.8125,3095.4062 a 2.20022,2.20022 0 0 0 -0.1563,0.031 l -9.875,1.375 a 2.20022,2.20022 0 0 0 -1.4374,0.8125 l -12.9688,16.3438 a 2.2133161,2.2133161 0 1 0 3.4688,2.75 l 12.375,-15.6876 9.0312,-1.25 a 2.20022,2.20022 0 0 0 -0.4375,-4.375 z"
         style="color:#000000;font-style:normal;font-variant:normal;font-weight:normal;font-stretch:normal;font-size:medium;line-height:normal;font-family:Sans;-inkscape-font-specification:Sans;text-indent:0;text-align:start;text-decoration:none;text-decoration-line:none;letter-spacing:normal;word-spacing:normal;text-transform:none;direction:ltr;block-progression:tb;writing-mode:lr-tb;baseline-shift:baseline;text-anchor:start;display:inline;overflow:visible;visibility:visible;fill:#ffffff;fill-opacity:1;fill-rule:nonzero;stroke:none;stroke-width:1px;marker:none;enable-background:accumulate" />
      <path
         inkscape:connector-curvature="0"
         id="path5273"
         d="m 1252.1562,3077.3125 a 2.20022,2.20022 0 0 0 -1.625,0.9063 l -7.8124,10.5312 -11.3438,-5.0625 a 2.20022,2.20022 0 0 0 -2.3125,0.3125 l -14.6563,12.2812 a 2.20022,2.20022 0 1 0 2.8126,3.375 l 13.5937,-11.4062 11.7187,5.25 a 2.20022,2.20022 0 0 0 2.6563,-0.7188 l 8.875,-11.9374 a 2.20022,2.20022 0 0 0 -1.9063,-3.5313 z"
         style="color:#000000;font-style:normal;font-variant:normal;font-weight:normal;font-stretch:normal;font-size:medium;line-height:normal;font-family:Sans;-inkscape-font-specification:Sans;text-indent:0;text-align:start;text-decoration:none;text-decoration-line:none;letter-spacing:normal;word-spacing:normal;text-transform:none;direction:ltr;block-progression:tb;writing-mode:lr-tb;baseline-shift:baseline;text-anchor:start;display:inline;overflow:visible;visibility:visible;fill:#ffffff;fill-opacity:1;fill-rule:nonzero;stroke:none;stroke-width:1px;marker:none;enable-background:accumulate" />
      <path
         inkscape:connector-curvature="0"
         id="path5275"
         d="m 1267.9375,3079.7188 a 2.20022,2.20022 0 0 0 -1,0.2812 l -10.2187,5.4375 a 2.20022,2.20022 0 1 0 2.0624,3.875 l 8.8126,-4.6563 6.3437,6.3438 a 2.20022,2.20022 0 0 0 1.2187,0.625 l 2.4063,0.3125 a 2.20022,2.20022 0 1 0 0.625,-4.3437 l -1.6875,-0.25 -6.9688,-6.9688 a 2.20022,2.20022 0 0 0 -1.5937,-0.6562 z"
         style="color:#000000;font-style:normal;font-variant:normal;font-weight:normal;font-stretch:normal;font-size:medium;line-height:normal;font-family:Sans;-inkscape-font-specification:Sans;text-indent:0;text-align:start;text-decoration:none;text-decoration-line:none;letter-spacing:normal;word-spacing:normal;text-transform:none;direction:ltr;block-progression:tb;writing-mode:lr-tb;baseline-shift:baseline;text-anchor:start;display:inline;overflow:visible;visibility:visible;fill:#ffffff;fill-opacity:1;fill-rule:nonzero;stroke:none;stroke-width:1px;marker:none;enable-background:accumulate" />
      <path
         inkscape:connector-curvature="0"
         id="path5277"
         d="m 1265.2812,3072.9062 a 2.20022,2.20022 0 0 0 -0.25,4.3438 l 14.375,3.8438 4.6876,9.3124 a 2.2010735,2.2010735 0 0 0 3.9374,-1.9687 l -5.125,-10.2187 a 2.20022,2.20022 0 0 0 -1.4062,-1.1563 L 1266.1562,3073 a 2.20022,2.20022 0 0 0 -0.875,-0.094 z"
         style="color:#000000;font-style:normal;font-variant:normal;font-weight:normal;font-stretch:normal;font-size:medium;line-height:normal;font-family:Sans;-inkscape-font-specification:Sans;text-indent:0;text-align:start;text-decoration:none;text-decoration-line:none;letter-spacing:normal;word-spacing:normal;text-transform:none;direction:ltr;block-progression:tb;writing-mode:lr-tb;baseline-shift:baseline;text-anchor:start;display:inline;overflow:visible;visibility:visible;fill:#ffffff;fill-opacity:1;fill-rule:nonzero;stroke:none;stroke-width:1px;marker:none;enable-background:accumulate" />
      <path
         inkscape:connector-curvature="0"
         id="path5279"
         d="m 1343.875,3078.6875 a 2.20022,2.20022 0 0 0 -0.7812,0.2187 l -4.4376,2.0626 a 2.20022,2.20022 0 1 0 1.8438,3.9687 l 4.4375,-2.0313 a 2.20022,2.20022 0 0 0 -1.0625,-4.2187 z"
         style="color:#000000;font-style:normal;font-variant:normal;font-weight:normal;font-stretch:normal;font-size:medium;line-height:normal;font-family:Sans;-inkscape-font-specification:Sans;text-indent:0;text-align:start;text-decoration:none;text-decoration-line:none;letter-spacing:normal;word-spacing:normal;text-transform:none;direction:ltr;block-progression:tb;writing-mode:lr-tb;baseline-shift:baseline;text-anchor:start;display:inline;overflow:visible;visibility:visible;fill:#ffffff;fill-opacity:1;fill-rule:nonzero;stroke:none;stroke-width:1px;marker:none;enable-background:accumulate" />
      <path
         inkscape:connector-curvature="0"
         id="path5281"
         d="m 1353.5625,3079.375 a 2.2031,2.2031 0 1 0 0,4.4062 l 16.5313,0 8.9374,7.9688 a 2.2020313,2.2020313 0 1 0 2.9376,-3.2812 l -9.5626,-8.5313 a 2.20022,2.20022 0 0 0 -1.4687,-0.5625 l -17.375,0 z"
         style="color:#000000;font-style:normal;font-variant:normal;font-weight:normal;font-stretch:normal;font-size:medium;line-height:normal;font-family:Sans;-inkscape-font-specification:Sans;text-indent:0;text-align:start;text-decoration:none;text-decoration-line:none;letter-spacing:normal;word-spacing:normal;text-transform:none;direction:ltr;block-progression:tb;writing-mode:lr-tb;baseline-shift:baseline;text-anchor:start;display:inline;overflow:visible;visibility:visible;fill:#ffffff;fill-opacity:1;fill-rule:nonzero;stroke:none;stroke-width:1px;marker:none;enable-background:accumulate" />
      <path
         inkscape:connector-curvature="0"
         id="path5283"
         d="m 1365,3069.8438 a 2.2036013,2.2036013 0 1 0 0.094,4.4062 l 10,0.3125 4.8124,5.125 a 2.20022,2.20022 0 1 0 3.2188,-3 l -5.4688,-5.8125 a 2.20022,2.20022 0 0 0 -1.5312,-0.6875 l -10.9062,-0.3437 a 2.20022,2.20022 0 0 0 -0.2188,0 z"
         style="color:#000000;font-style:normal;font-variant:normal;font-weight:normal;font-stretch:normal;font-size:medium;line-height:normal;font-family:Sans;-inkscape-font-specification:Sans;text-indent:0;text-align:start;text-decoration:none;text-decoration-line:none;letter-spacing:normal;word-spacing:normal;text-transform:none;direction:ltr;block-progression:tb;writing-mode:lr-tb;baseline-shift:baseline;text-anchor:start;display:inline;overflow:visible;visibility:visible;fill:#ffffff;fill-opacity:1;fill-rule:nonzero;stroke:none;stroke-width:1px;marker:none;enable-background:accumulate" />
      <path
         inkscape:connector-curvature="0"
         id="path5285"
         d="m 1397.4375,3095.0625 a 2.20022,2.20022 0 0 0 -0.25,4.375 l 15.5,2.5 2.125,12.0937 a 2.2066945,2.2066945 0 0 0 4.3437,-0.7812 l -2.4062,-13.625 a 2.20022,2.20022 0 0 0 -1.8125,-1.7812 l -17.0625,-2.75 a 2.20022,2.20022 0 0 0 -0.4375,-0.031 z"
         style="color:#000000;font-style:normal;font-variant:normal;font-weight:normal;font-stretch:normal;font-size:medium;line-height:normal;font-family:Sans;-inkscape-font-specification:Sans;text-indent:0;text-align:start;text-decoration:none;text-decoration-line:none;letter-spacing:normal;word-spacing:normal;text-transform:none;direction:ltr;block-progression:tb;writing-mode:lr-tb;baseline-shift:baseline;text-anchor:start;display:inline;overflow:visible;visibility:visible;fill:#ffffff;fill-opacity:1;fill-rule:nonzero;stroke:none;stroke-width:1px;marker:none;enable-background:accumulate" />
      <path
         inkscape:connector-curvature="0"
         id="path5287"
         d="m 1397.875,3101.1875 a 2.20022,2.20022 0 0 0 -1.0312,4.1563 l 3.5937,1.9062 5.875,22.9688 a 2.2094076,2.2094076 0 1 0 4.2813,-1.0938 l -6.1563,-23.875 a 2.20022,2.20022 0 0 0 -1.0937,-1.375 l -4.4063,-2.4062 a 2.20022,2.20022 0 0 0 -1.0625,-0.2813 z"
         style="color:#000000;font-style:normal;font-variant:normal;font-weight:normal;font-stretch:normal;font-size:medium;line-height:normal;font-family:Sans;-inkscape-font-specification:Sans;text-indent:0;text-align:start;text-decoration:none;text-decoration-line:none;letter-spacing:normal;word-spacing:normal;text-transform:none;direction:ltr;block-progression:tb;writing-mode:lr-tb;baseline-shift:baseline;text-anchor:start;display:inline;overflow:visible;visibility:visible;fill:#ffffff;fill-opacity:1;fill-rule:nonzero;stroke:none;stroke-width:1px;marker:none;enable-background:accumulate" />
      <path
         inkscape:connector-curvature="0"
         id="path5289"
         d="m 1412.125,3144.4688 a 2.20022,2.20022 0 0 0 -2.0312,1.625 l -2.9688,10.1874 -3.875,5.5313 a 2.20022,2.20022 0 1 0 3.5938,2.5313 l 4.0937,-5.7813 a 2.20022,2.20022 0 0 0 0.3125,-0.6563 l 3.0625,-10.5937 a 2.20022,2.20022 0 0 0 -2.1875,-2.8437 z"
         style="color:#000000;font-style:normal;font-variant:normal;font-weight:normal;font-stretch:normal;font-size:medium;line-height:normal;font-family:Sans;-inkscape-font-specification:Sans;text-indent:0;text-align:start;text-decoration:none;text-decoration-line:none;letter-spacing:normal;word-spacing:normal;text-transform:none;direction:ltr;block-progression:tb;writing-mode:lr-tb;baseline-shift:baseline;text-anchor:start;display:inline;overflow:visible;visibility:visible;fill:#ffffff;fill-opacity:1;fill-rule:nonzero;stroke:none;stroke-width:1px;marker:none;enable-background:accumulate" />
      <path
         inkscape:connector-curvature="0"
         id="path5291"
         d="m 1417.4062,3142.0938 a 2.20022,2.20022 0 0 0 -1.9374,2 l -1,9.5624 -3.2813,7.9063 a 2.20022,2.20022 0 1 0 4.0625,1.6875 l 3.4062,-8.1875 a 2.20022,2.20022 0 0 0 0.1563,-0.625 l 1.0313,-9.875 a 2.20022,2.20022 0 0 0 -2.4376,-2.4687 z"
         style="color:#000000;font-style:normal;font-variant:normal;font-weight:normal;font-stretch:normal;font-size:medium;line-height:normal;font-family:Sans;-inkscape-font-specification:Sans;text-indent:0;text-align:start;text-decoration:none;text-decoration-line:none;letter-spacing:normal;word-spacing:normal;text-transform:none;direction:ltr;block-progression:tb;writing-mode:lr-tb;baseline-shift:baseline;text-anchor:start;display:inline;overflow:visible;visibility:visible;fill:#ffffff;fill-opacity:1;fill-rule:nonzero;stroke:none;stroke-width:1px;marker:none;enable-background:accumulate" />
      <path
         inkscape:connector-curvature="0"
         id="path5293"
         d="m 1390.3125,3173.8125 a 2.20022,2.20022 0 0 0 -1,0.2813 l -7.125,3.875 -7.3437,0.6562 a 2.20022,2.20022 0 1 0 0.375,4.375 l 7.8437,-0.6875 a 2.20022,2.20022 0 0 0 0.875,-0.25 l 7.5,-4.0937 a 2.20022,2.20022 0 0 0 -1.125,-4.1563 z"
         style="color:#000000;font-style:normal;font-variant:normal;font-weight:normal;font-stretch:normal;font-size:medium;line-height:normal;font-family:Sans;-inkscape-font-specification:Sans;text-indent:0;text-align:start;text-decoration:none;text-decoration-line:none;letter-spacing:normal;word-spacing:normal;text-transform:none;direction:ltr;block-progression:tb;writing-mode:lr-tb;baseline-shift:baseline;text-anchor:start;display:inline;overflow:visible;visibility:visible;fill:#ffffff;fill-opacity:1;fill-rule:nonzero;stroke:none;stroke-width:1px;marker:none;enable-background:accumulate" />
      <path
         inkscape:connector-curvature="0"
         id="path5295"
         d="m 1360.875,3185.4062 a 2.20022,2.20022 0 0 0 -1.4688,0.75 l -6.7812,7.6876 -12.2812,-1.1876 -8.0626,-5.5 a 2.205845,2.205845 0 1 0 -2.4687,3.6563 l 8.5313,5.7813 a 2.20022,2.20022 0 0 0 1.0312,0.375 l 13.9688,1.375 a 2.20022,2.20022 0 0 0 1.875,-0.75 l 7.5,-8.5313 a 2.20022,2.20022 0 0 0 -1.8438,-3.6563 z"
         style="color:#000000;font-style:normal;font-variant:normal;font-weight:normal;font-stretch:normal;font-size:medium;line-height:normal;font-family:Sans;-inkscape-font-specification:Sans;text-indent:0;text-align:start;text-decoration:none;text-decoration-line:none;letter-spacing:normal;word-spacing:normal;text-transform:none;direction:ltr;block-progression:tb;writing-mode:lr-tb;baseline-shift:baseline;text-anchor:start;display:inline;overflow:visible;visibility:visible;fill:#ffffff;fill-opacity:1;fill-rule:nonzero;stroke:none;stroke-width:1px;marker:none;enable-background:accumulate" />
      <path
         inkscape:connector-curvature="0"
         id="path5297"
         d="m 1299.0938,3181.6562 a 2.20022,2.20022 0 0 0 -1.125,3.9376 l 11.9374,9.5312 a 2.20022,2.20022 0 0 0 1.5,0.5 l 5.4688,-0.3438 a 2.20022,2.20022 0 0 0 1.5312,-0.75 l 2.375,-2.7187 a 2.2033255,2.2033255 0 1 0 -3.3124,-2.9063 l -1.7813,2.0313 -3.6875,0.2187 -11.2812,-9 a 2.20022,2.20022 0 0 0 -1.625,-0.5 z"
         style="color:#000000;font-style:normal;font-variant:normal;font-weight:normal;font-stretch:normal;font-size:medium;line-height:normal;font-family:Sans;-inkscape-font-specification:Sans;text-indent:0;text-align:start;text-decoration:none;text-decoration-line:none;letter-spacing:normal;word-spacing:normal;text-transform:none;direction:ltr;block-progression:tb;writing-mode:lr-tb;baseline-shift:baseline;text-anchor:start;display:inline;overflow:visible;visibility:visible;fill:#ffffff;fill-opacity:1;fill-rule:nonzero;stroke:none;stroke-width:1px;marker:none;enable-background:accumulate" />
      <path
         inkscape:connector-curvature="0"
         id="path5299"
         d="m 1243.5,3178.25 a 2.20022,2.20022 0 0 0 -0.75,4.1562 l 16.375,8.5313 a 2.20022,2.20022 0 0 0 0.2812,0.125 l 8.875,3.0625 a 2.20022,2.20022 0 0 0 1.5,0 l 8.5938,-3.3438 0.094,-0.031 7.0624,-1.6562 a 2.20022,2.20022 0 1 0 -1,-4.2813 l -7.1874,1.6875 a 2.20022,2.20022 0 0 0 -0.25,0.094 l -8.125,3.125 -7.8126,-2.6876 -0.094,-0.062 -16.2813,-8.4688 a 2.20022,2.20022 0 0 0 -1.2812,-0.25 z"
         style="color:#000000;font-style:normal;font-variant:normal;font-weight:normal;font-stretch:normal;font-size:medium;line-height:normal;font-family:Sans;-inkscape-font-specification:Sans;text-indent:0;text-align:start;text-decoration:none;text-decoration-line:none;letter-spacing:normal;word-spacing:normal;text-transform:none;direction:ltr;block-progression:tb;writing-mode:lr-tb;baseline-shift:baseline;text-anchor:start;display:inline;overflow:visible;visibility:visible;fill:#ffffff;fill-opacity:1;fill-rule:nonzero;stroke:none;stroke-width:1px;marker:none;enable-background:accumulate" />
      <path
         inkscape:connector-curvature="0"
         id="path5301"
         d="m 1229.0625,3164.9375 a 2.20022,2.20022 0 0 0 -1.3125,3.9375 l 3.4062,2.75 a 2.201074,2.201074 0 1 0 2.75,-3.4375 l -3.4062,-2.75 a 2.20022,2.20022 0 0 0 -1.4375,-0.5 z"
         style="color:#000000;font-style:normal;font-variant:normal;font-weight:normal;font-stretch:normal;font-size:medium;line-height:normal;font-family:Sans;-inkscape-font-specification:Sans;text-indent:0;text-align:start;text-decoration:none;text-decoration-line:none;letter-spacing:normal;word-spacing:normal;text-transform:none;direction:ltr;block-progression:tb;writing-mode:lr-tb;baseline-shift:baseline;text-anchor:start;display:inline;overflow:visible;visibility:visible;fill:#ffffff;fill-opacity:1;fill-rule:nonzero;stroke:none;stroke-width:1px;marker:none;enable-background:accumulate" />
    </g>
    <path
       style="color:#000000;display:inline;overflow:visible;visibility:visible;fill:#ffffff;fill-opacity:1;fill-rule:nonzero;stroke:none;stroke-width:1px;marker:none;enable-background:accumulate"
       d="m 479.13908,1907.2289 c -0.78413,0.291 -55.47626,32.5954 -71.9427,36.0878 37.24551,-0.8731 80.17595,-25.0286 80.17595,-25.0286 z"
       id="path5303"
       inkscape:connector-curvature="0" />
    <path
       style="color:#000000;display:inline;overflow:visible;visibility:visible;fill:#ffffff;fill-opacity:1;fill-rule:nonzero;stroke:none;stroke-width:1px;marker:none;enable-background:accumulate"
       d="m 353.80453,2447.1743 c -0.13151,-63.6072 95.12118,-92.5721 256.82738,-95.7642 161.70598,-3.1922 276.565,32.8233 280.203,81.3995 5.28244,70.533 -108.98477,94.1683 -249.28864,95.7643 -140.30382,1.5959 -282.45948,-8.5077 -287.74174,-81.3996 z"
       id="path3565"
       inkscape:connector-curvature="0"
       sodipodi:nodetypes="csssc" />
  </g>
  <g
     inkscape:groupmode="layer"
     id="layer1"
     inkscape:label="txt">
    <text
       xml:space="preserve"
       style="font-style:normal;font-variant:normal;font-weight:normal;font-stretch:normal;font-size:12px;line-height:125%;font-family:Lavi;-inkscape-font-specification:Lavi;text-align:center;letter-spacing:0px;word-spacing:0px;text-anchor:middle;fill:#000000;fill-opacity:1;stroke:none"
       x="1988.2058"
       y="986.58441"
       id="text4246"
       sodipodi:linespacing="125%"><tspan
         sodipodi:role="line"
         style="font-style:italic;font-variant:normal;font-weight:normal;font-stretch:normal;font-size:45px;font-family:Lavi;-inkscape-font-specification:'Lavi Italic'"
         x="1988.2058"
         y="986.58441"
         id="tspan4393">&quot;Kun tuntee syötävät</tspan><tspan
         sodipodi:role="line"
         style="font-style:italic;font-variant:normal;font-weight:normal;font-stretch:normal;font-size:45px;font-family:Lavi;-inkscape-font-specification:'Lavi Italic'"
         x="1988.2058"
         y="1042.8345"
         id="tspan3423">kasvit, tietää, mistä</tspan><tspan
         sodipodi:role="line"
         style="font-style:italic;font-variant:normal;font-weight:normal;font-stretch:normal;font-size:45px;font-family:Lavi;-inkscape-font-specification:'Lavi Italic'"
         x="1988.2058"
         y="1099.0845"
         id="tspan4192">löytää valmisannoksia</tspan><tspan
         sodipodi:role="line"
         style="font-style:italic;font-variant:normal;font-weight:normal;font-stretch:normal;font-size:45px;font-family:Lavi;-inkscape-font-specification:'Lavi Italic'"
         x="1996.116"
         y="1155.3345"
         id="tspan3418">nälän torjumiseen!&quot; </tspan></text>
    <text
       xml:space="preserve"
       style="font-style:normal;font-variant:normal;font-weight:normal;font-stretch:normal;font-size:12px;line-height:125%;font-family:Lavi;-inkscape-font-specification:Lavi;text-align:center;letter-spacing:0px;word-spacing:0px;text-anchor:middle;fill:#000000;fill-opacity:1;stroke:none"
       x="969.76697"
       y="2564.8853"
       id="text4246-2"
       sodipodi:linespacing="125%"><tspan
         sodipodi:role="line"
         style="font-size:45px"
         x="969.76697"
         y="2564.8853"
         id="tspan3448">Olisi hän voinut</tspan><tspan
         sodipodi:role="line"
         style="font-size:45px"
         x="969.76697"
         y="2621.1353"
         id="tspan3434">opettaa minulle</tspan><tspan
         sodipodi:role="line"
         style="font-size:45px"
         x="969.76697"
         y="2677.3853"
         id="tspan3454">edes yhden!</tspan></text>
    <text
       xml:space="preserve"
       style="font-style:normal;font-variant:normal;font-weight:normal;font-stretch:normal;font-size:12px;line-height:125%;font-family:Lavi;-inkscape-font-specification:Lavi;text-align:center;letter-spacing:0px;word-spacing:0px;text-anchor:middle;fill:#000000;fill-opacity:1;stroke:none"
       x="916.27588"
       y="1772.6576"
       id="text4246-1"
       sodipodi:linespacing="125%"><tspan
         sodipodi:role="line"
         style="font-size:45px"
         x="916.27588"
         y="1772.6576"
         id="tspan3406">Minäkin olen</tspan><tspan
         sodipodi:role="line"
         style="font-size:45px"
         x="916.27588"
         y="1828.9076"
         id="tspan3404">aivan nääntynyt,</tspan><tspan
         sodipodi:role="line"
         style="font-size:45px"
         x="916.27588"
         y="1885.1576"
         id="tspan3396">Carrot...</tspan></text>
    <text
       xml:space="preserve"
       style="font-style:normal;font-variant:normal;font-weight:normal;font-stretch:normal;font-size:12px;line-height:125%;font-family:Lavi;-inkscape-font-specification:Lavi;text-align:center;letter-spacing:0px;word-spacing:0px;text-anchor:middle;fill:#000000;fill-opacity:1;stroke:none"
       x="1016.1475"
       y="1981.6696"
       id="text4246-1-3"
       sodipodi:linespacing="125%"><tspan
         sodipodi:role="line"
         style="font-size:45px"
         x="1016.1475"
         y="1981.6696"
         id="tspan3398">Emme ole</tspan><tspan
         sodipodi:role="line"
         style="font-size:45px"
         x="1016.1475"
         y="2037.9196"
         id="tspan3408">syöneet mitään</tspan><tspan
         sodipodi:role="line"
         style="font-size:45px"
         x="1016.1475"
         y="2094.1694"
         id="tspan3405">pariin päivään.</tspan></text>
    <path
       style="fill:#ffffff;stroke:none"
       d="m 895.82485,1600.0624 c 21.55989,22.9922 18.24044,32.1943 13.58315,42.3773 -4.65713,10.1831 -10.03352,18.9288 -7.28323,25.6442 2.75014,6.7151 9.98323,13.2537 16.01769,17.3966 6.03443,4.143 -1.01568,10.4266 -2.75149,17.9213 -1.73575,7.4949 3.84933,48.8396 3.84933,48.8396 0,0 19.75368,-24.4746 23.31609,-33.8003 3.56256,-9.3255 4.913,-12.7174 5.29836,-16.8203 0.38522,-4.103 -0.16581,-14.3412 -5.22225,-20.1838 -5.05644,-5.8427 -12.67159,-8.8811 -17.49774,-12.4365 -4.82629,-3.5553 -2.3259,-12.0013 -0.46383,-20.4619 1.86215,-8.4605 1.83118,-14.9098 -5.9524,-27.296 -6.67188,-10.6173 -22.89368,-21.1802 -22.89368,-21.1802 z"
       id="path3023-2"
       inkscape:connector-curvature="0"
       sodipodi:nodetypes="csssscssssssc" />
    <text
       xml:space="preserve"
       style="color:#000000;font-style:normal;font-variant:normal;font-weight:normal;font-stretch:normal;font-size:45.57519913px;line-height:125%;font-family:Arial;-inkscape-font-specification:Arial;letter-spacing:0px;word-spacing:0px;display:inline;overflow:visible;visibility:visible;opacity:1;fill:#000000;fill-opacity:1;fill-rule:nonzero;stroke:#000000;stroke-width:1;stroke-miterlimit:4;stroke-dasharray:none;stroke-opacity:1;marker:none;enable-background:accumulate"
       x="984.55341"
       y="1771.2749"
       id="text4190-8"
       sodipodi:linespacing="125%"
       transform="matrix(0.8940102,-0.10429749,-0.1924975,1.1410127,0,0)"><tspan
         sodipodi:role="line"
         id="tspan4192-5"
         x="986.36328"
         y="1771.2749"
         style="font-style:normal;font-variant:normal;font-weight:normal;font-stretch:normal;font-family:Lavi;-inkscape-font-specification:Lavi;text-align:center;letter-spacing:3.61974597px;text-anchor:middle;fill:#000000;stroke:#000000;stroke-width:1;stroke-miterlimit:4;stroke-dasharray:none">Murr</tspan></text>
    <text
       sodipodi:linespacing="125%"
       id="text4395"
       y="2424.6458"
       x="624.64093"
       style="font-style:normal;font-variant:normal;font-weight:normal;font-stretch:normal;font-size:12px;line-height:125%;font-family:Lavi;-inkscape-font-specification:Lavi;text-align:center;letter-spacing:0px;word-spacing:0px;text-anchor:middle;fill:#000000;fill-opacity:1;stroke:none"
       xml:space="preserve"><tspan
         y="2424.6458"
         x="624.64093"
         style="font-size:45px"
         sodipodi:role="line"
         id="tspan3437">Mutta entä</tspan><tspan
         y="2480.8958"
         x="624.64093"
         style="font-size:45px"
         sodipodi:role="line"
         id="tspan4188">taikajuoma-annokset?...</tspan></text>
  </g>
</svg>
