<?xml version="1.0" encoding="UTF-8" standalone="no"?>
<!-- Created with Inkscape (http://www.inkscape.org/) -->

<svg
   xmlns:dc="http://purl.org/dc/elements/1.1/"
   xmlns:cc="http://creativecommons.org/ns#"
   xmlns:rdf="http://www.w3.org/1999/02/22-rdf-syntax-ns#"
   xmlns:svg="http://www.w3.org/2000/svg"
   xmlns="http://www.w3.org/2000/svg"
   xmlns:xlink="http://www.w3.org/1999/xlink"
   xmlns:sodipodi="http://sodipodi.sourceforge.net/DTD/sodipodi-0.dtd"
   xmlns:inkscape="http://www.inkscape.org/namespaces/inkscape"
   id="svg2"
   version="1.1"
   inkscape:version="0.91 r13725"
   width="2481"
   height="3503"
   sodipodi:docname="Pepper-and-Carrot_by-David-Revoy_E17P05.svg">
  <metadata
     id="metadata8">
    <rdf:RDF>
      <cc:Work
         rdf:about="">
        <dc:format>image/svg+xml</dc:format>
        <dc:type
           rdf:resource="http://purl.org/dc/dcmitype/StillImage" />
        <dc:title />
      </cc:Work>
    </rdf:RDF>
  </metadata>
  <defs
     id="defs6">
    <filter
       inkscape:label="Ripple"
       inkscape:menu="Distort"
       inkscape:menu-tooltip="Horizontal rippling of edges"
       style="color-interpolation-filters:sRGB;"
       id="filter4163">
      <feTurbulence
         numOctaves="1"
         baseFrequency="0.014 0.017999999999999999"
         id="feTurbulence4165" />
      <feColorMatrix
         values="2 0 0 0 0 0 0 0 0 0 0 0 0 0 0 0 0 0 0.5 0.5"
         result="result91"
         id="feColorMatrix4167" />
      <feDisplacementMap
         yChannelSelector="A"
         xChannelSelector="R"
         scale="14.3"
         in="SourceGraphic"
         in2="result91"
         id="feDisplacementMap4169" />
    </filter>
  </defs>
  <sodipodi:namedview
     pagecolor="#ffffff"
     bordercolor="#666666"
     borderopacity="1"
     objecttolerance="10"
     gridtolerance="10"
     guidetolerance="10"
     inkscape:pageopacity="0"
     inkscape:pageshadow="2"
     inkscape:window-width="1920"
     inkscape:window-height="1017"
     id="namedview4"
     showgrid="false"
     inkscape:zoom="0.37194735"
     inkscape:cx="1433.2462"
     inkscape:cy="907.13378"
     inkscape:window-x="-8"
     inkscape:window-y="-8"
     inkscape:window-maximized="1"
     inkscape:current-layer="layer1" />
  <g
     inkscape:groupmode="layer"
     id="layer2"
     inkscape:label="artwork"
     sodipodi:insensitive="true">
    <image
       sodipodi:absref="H:\Pepper And Carrot\Translation\peppercarrot_ep17_translation-master\el\..\gfx_Pepper-and-Carrot_by-David-Revoy_E17P05.png"
       xlink:href="../gfx_Pepper-and-Carrot_by-David-Revoy_E17P05.png"
       y="0"
       x="0"
       id="image10"
       height="3503"
       width="2481" />
  </g>
  <g
     inkscape:groupmode="layer"
     id="layer3"
     inkscape:label="speechbubbles"
     style="opacity:1">
    <path
       style="fill:#ffffff;stroke:none"
       d="m 1715.8674,1095.7904 c -15.591,-116.27044 -82.2012,-166.98207 -46.8236,-169.51657 27.4363,-1.96558 221.8888,0.53088 296.6587,0.53088 74.77,0 261.2884,1.23111 291.8434,8.12396 86.9899,19.6239 118.1846,56.86648 120.5964,105.60943 2.4121,48.7428 -11.3141,87.2014 -54.7287,116.9888 -43.4148,29.7875 -299.1403,44.5104 -316.024,41.8024 -16.8832,-2.7079 -395.7854,6.9244 -410.2568,-1.1996 -14.4716,-8.1238 121.1464,-42.7646 118.7346,-102.3393 z"
       id="path3278"
       inkscape:connector-curvature="0"
       sodipodi:nodetypes="csssssssc" />
    <path
       style="fill:#ffffff;stroke:none"
       d="m 1884.008,1338.6573 c 89.8965,-16.1397 129.811,-146.0647 92.9439,-194.4569 -55.0179,-72.2175 44.7436,-42.6509 44.7436,-42.6509 21.8217,14.6506 33.8742,203.1448 -137.6875,237.1078 z"
       id="path3067"
       inkscape:connector-curvature="0"
       sodipodi:nodetypes="cscc" />
    <path
       style="color:#000000;display:inline;overflow:visible;visibility:visible;fill:#ffffff;fill-opacity:1;fill-rule:nonzero;stroke:none;stroke-width:1px;marker:none;enable-background:accumulate"
       d="m 778.2551,2483.6556 c 35.84088,-29.379 279.9904,-36.7258 346.4137,40.5929 66.4232,77.3187 -3.4185,152.2188 -57.1621,172.2814 -53.7435,20.0626 -200.36283,31.5424 -258.79172,1.8507 -58.4288,-29.6915 -100.10868,-68.6148 -86.96591,-136.5373 5.36407,-27.722 20.66495,-48.8084 56.50603,-78.1877 z"
       id="path4040"
       inkscape:connector-curvature="0"
       sodipodi:nodetypes="zssssz" />
    <path
       style="fill:#ffffff;stroke:none"
       d="m 1141.1877,2779.5367 c -79.3654,55.1445 -173.31649,-51.1501 -152.54949,-133.1711 30.04439,-118.663 -56.8594,-37.4571 -56.8594,-37.4571 -7.25091,33.4378 70.53289,272.4536 209.40889,170.6282 z"
       id="path3067-2"
       inkscape:connector-curvature="0"
       sodipodi:nodetypes="cscc" />
    <path
       style="fill:#ffffff;fill-rule:evenodd;stroke:none;stroke-width:1px;stroke-linecap:butt;stroke-linejoin:miter;stroke-opacity:1"
       d="m 731.89445,1799.7009 c 10.53234,-45.5279 23.2779,-76.3119 54.14616,-99.3717 14.69005,-11.1329 31.481,-19.2915 48.66315,-17.1455 17.06948,1.2824 33.74214,8.9378 51.00043,6.2787 20.9856,-0.8782 42.33963,-4.71 63.08429,0.7654 18.44121,5.9743 37.4409,9.0685 56.47102,9.248 13.4251,-3.7923 25.71,6.3149 37.6995,12.3604 10.7634,6.5299 21.7573,13.3809 30.7979,23.4819 8.3292,14.1795 18.3024,26.5155 26.7289,40.5686 5.5136,7.6828 4.9838,18.295 4.7299,28.1161 -0.7162,20.1118 -1.9289,40.5412 -6.4298,59.9173 -2.6935,12.3011 -12.6492,16.3719 -20.299,22.0246 -18.1005,11.9326 -37.3208,20.9816 -54.5957,35.0239 -17.1142,7.1901 -35.30192,3.8269 -52.85335,2.7404 -14.70695,-2.1404 -29.50134,-5.1251 -44.3347,-2.636 -18.87931,1.8214 -37.7013,6.5376 -56.64815,5.9335 -23.73521,-4.1454 -57.91957,-4.0139 -80.92101,-12.2016 -20.63644,-7.2167 -21.74554,-14.2082 -39.7927,-28.725 -9.64011,-8.2436 -27.13327,-28.1638 -30.53543,-43.3557 -2.78891,-10.461 13.21209,-32.0004 13.08859,-43.0233 z"
       id="path4365"
       inkscape:connector-curvature="0"
       sodipodi:nodetypes="cccccccccccccccccccc" />
    <path
       style="fill:#ffffff;fill-rule:evenodd;stroke:none;stroke-width:1px;stroke-linecap:butt;stroke-linejoin:miter;stroke-opacity:1"
       d="m 779.66582,2013.5106 c 12.62017,-45.3435 29.68783,-69.4086 66.67506,-92.3749 17.60203,-11.0879 37.72143,-19.2135 58.30955,-17.0761 20.45315,1.2772 40.43081,8.9016 61.11021,6.2533 25.14548,-0.8747 50.73246,-4.691 75.58926,0.7622 22.0968,5.9501 39.2237,-0.3667 62.0261,-0.1879 16.0864,-3.7769 37.3854,6.2894 51.7514,12.3104 12.897,6.5035 31.7094,18.9658 42.5422,29.0258 9.9802,14.1219 15.3516,30.1674 25.4483,44.1636 6.6066,7.6517 5.9718,18.2208 5.6675,28.0022 -0.858,20.0303 -2.3111,40.377 -7.7043,59.6745 -3.2275,12.2513 -15.1567,16.3057 -24.3229,21.9354 -21.6885,11.8843 -44.719,20.8967 -65.4181,34.8819 -20.5067,7.1611 -42.2997,3.8116 -63.3303,2.7293 -17.6223,-2.1317 -35.3495,-5.1042 -53.1231,-2.6252 -22.62173,1.8141 -45.17469,6.5111 -67.87742,5.9095 -28.44017,-4.1286 -55.6781,-14.2941 -83.23912,-22.4486 -24.72717,-7.1874 -28.46709,-20.703 -50.0917,-35.1609 -11.55107,-8.2103 -18.14018,-17.7533 -22.21673,-32.8836 -3.34176,-10.4186 -11.64791,-31.9127 -11.79591,-42.8909 z"
       id="path4365-3"
       inkscape:connector-curvature="0"
       sodipodi:nodetypes="cccccccccccccccccccc" />
    <g
       id="g5381"
       transform="matrix(0.78733775,0,0,0.96949033,-492.80698,-1135.7073)"
       style="fill:#ffffff">
      <path
         inkscape:connector-curvature="0"
         id="path5263"
         d="m 1225.2771,3157.962 c -4.7051,-6.6655 -4.7051,-15.2915 -4.7051,-16.8598 0,-1.5684 0.3921,-7.4497 0.3921,-7.4497 l -3.1367,-1.1763 2.7446,-5.0971 -3.1367,0.3921 c 0,0 7.4497,-9.0181 9.018,-11.7627 1.5684,-2.7446 4.313,-9.018 4.313,-9.018 0,0 14.5073,-1.9605 17.644,-3.1368 3.1367,-1.1762 12.5468,-11.3705 12.5468,-11.3705 0,0 11.3706,5.4892 15.6836,6.2734 4.3129,0.7842 24.3095,1.9604 27.8383,0 3.5288,-1.9605 7.0576,-4.7051 7.0576,-4.7051 0,0 9.018,-0.7841 11.3705,-1.9604 2.3526,-1.1763 6.6655,-3.9209 6.6655,-3.9209 0,0 7.4497,0.7842 10.5864,0.3921 3.1367,-0.3921 17.644,0 19.2124,0 1.5683,0 12.5468,6.6655 12.5468,6.6655 l 7.0576,6.6655 c 0,0 5.8813,-0.3921 8.626,-1.1763 2.7446,-0.7841 5.0971,3.1367 5.0971,3.1367 0,0 10.5864,23.9175 12.1548,28.6225 1.5683,4.7051 2.3525,14.1152 2.3525,14.1152 0,0 -4.313,7.4497 -6.6655,10.5864 -2.3525,3.1367 -9.018,10.5864 -12.5468,13.331 -3.5288,2.7446 -7.8418,7.0576 -12.1548,4.313 -4.313,-2.7446 -8.6259,-2.3525 -10.1943,-0.3921 -1.5684,1.9604 -12.9389,15.6836 -16.8598,14.1152 -3.9209,-1.5684 -17.2519,-3.9209 -21.1728,-7.4497 -3.9209,-3.5288 -10.1943,4.7051 -12.9389,2.3525 -2.7446,-2.3525 -6.6655,-6.6655 -9.4102,-6.6655 -2.7446,0 -35.68,9.8023 -39.6009,8.2339 -3.9209,-1.5684 -24.7016,-14.5073 -27.0541,-16.0756 -2.3526,-1.5684 -8.2339,-10.9785 -8.2339,-10.9785 z"
         style="color:#000000;display:inline;overflow:visible;visibility:visible;fill:#ffffff;fill-opacity:1;fill-rule:nonzero;stroke:none;stroke-width:1px;marker:none;enable-background:accumulate" />
      <path
         inkscape:connector-curvature="0"
         id="path5271"
         d="m 1236.8125,3095.4062 a 2.20022,2.20022 0 0 0 -0.1563,0.031 l -9.875,1.375 a 2.20022,2.20022 0 0 0 -1.4374,0.8125 l -12.9688,16.3438 a 2.2133161,2.2133161 0 1 0 3.4688,2.75 l 12.375,-15.6876 9.0312,-1.25 a 2.20022,2.20022 0 0 0 -0.4375,-4.375 z"
         style="color:#000000;font-style:normal;font-variant:normal;font-weight:normal;font-stretch:normal;font-size:medium;line-height:normal;font-family:Sans;-inkscape-font-specification:Sans;text-indent:0;text-align:start;text-decoration:none;text-decoration-line:none;letter-spacing:normal;word-spacing:normal;text-transform:none;direction:ltr;block-progression:tb;writing-mode:lr-tb;baseline-shift:baseline;text-anchor:start;display:inline;overflow:visible;visibility:visible;fill:#ffffff;fill-opacity:1;fill-rule:nonzero;stroke:none;stroke-width:1px;marker:none;enable-background:accumulate" />
      <path
         inkscape:connector-curvature="0"
         id="path5273"
         d="m 1252.1562,3077.3125 a 2.20022,2.20022 0 0 0 -1.625,0.9063 l -7.8124,10.5312 -11.3438,-5.0625 a 2.20022,2.20022 0 0 0 -2.3125,0.3125 l -14.6563,12.2812 a 2.20022,2.20022 0 1 0 2.8126,3.375 l 13.5937,-11.4062 11.7187,5.25 a 2.20022,2.20022 0 0 0 2.6563,-0.7188 l 8.875,-11.9374 a 2.20022,2.20022 0 0 0 -1.9063,-3.5313 z"
         style="color:#000000;font-style:normal;font-variant:normal;font-weight:normal;font-stretch:normal;font-size:medium;line-height:normal;font-family:Sans;-inkscape-font-specification:Sans;text-indent:0;text-align:start;text-decoration:none;text-decoration-line:none;letter-spacing:normal;word-spacing:normal;text-transform:none;direction:ltr;block-progression:tb;writing-mode:lr-tb;baseline-shift:baseline;text-anchor:start;display:inline;overflow:visible;visibility:visible;fill:#ffffff;fill-opacity:1;fill-rule:nonzero;stroke:none;stroke-width:1px;marker:none;enable-background:accumulate" />
      <path
         inkscape:connector-curvature="0"
         id="path5275"
         d="m 1267.9375,3079.7188 a 2.20022,2.20022 0 0 0 -1,0.2812 l -10.2187,5.4375 a 2.20022,2.20022 0 1 0 2.0624,3.875 l 8.8126,-4.6563 6.3437,6.3438 a 2.20022,2.20022 0 0 0 1.2187,0.625 l 2.4063,0.3125 a 2.20022,2.20022 0 1 0 0.625,-4.3437 l -1.6875,-0.25 -6.9688,-6.9688 a 2.20022,2.20022 0 0 0 -1.5937,-0.6562 z"
         style="color:#000000;font-style:normal;font-variant:normal;font-weight:normal;font-stretch:normal;font-size:medium;line-height:normal;font-family:Sans;-inkscape-font-specification:Sans;text-indent:0;text-align:start;text-decoration:none;text-decoration-line:none;letter-spacing:normal;word-spacing:normal;text-transform:none;direction:ltr;block-progression:tb;writing-mode:lr-tb;baseline-shift:baseline;text-anchor:start;display:inline;overflow:visible;visibility:visible;fill:#ffffff;fill-opacity:1;fill-rule:nonzero;stroke:none;stroke-width:1px;marker:none;enable-background:accumulate" />
      <path
         inkscape:connector-curvature="0"
         id="path5277"
         d="m 1265.2812,3072.9062 a 2.20022,2.20022 0 0 0 -0.25,4.3438 l 14.375,3.8438 4.6876,9.3124 a 2.2010735,2.2010735 0 0 0 3.9374,-1.9687 l -5.125,-10.2187 a 2.20022,2.20022 0 0 0 -1.4062,-1.1563 L 1266.1562,3073 a 2.20022,2.20022 0 0 0 -0.875,-0.094 z"
         style="color:#000000;font-style:normal;font-variant:normal;font-weight:normal;font-stretch:normal;font-size:medium;line-height:normal;font-family:Sans;-inkscape-font-specification:Sans;text-indent:0;text-align:start;text-decoration:none;text-decoration-line:none;letter-spacing:normal;word-spacing:normal;text-transform:none;direction:ltr;block-progression:tb;writing-mode:lr-tb;baseline-shift:baseline;text-anchor:start;display:inline;overflow:visible;visibility:visible;fill:#ffffff;fill-opacity:1;fill-rule:nonzero;stroke:none;stroke-width:1px;marker:none;enable-background:accumulate" />
      <path
         inkscape:connector-curvature="0"
         id="path5279"
         d="m 1343.875,3078.6875 a 2.20022,2.20022 0 0 0 -0.7812,0.2187 l -4.4376,2.0626 a 2.20022,2.20022 0 1 0 1.8438,3.9687 l 4.4375,-2.0313 a 2.20022,2.20022 0 0 0 -1.0625,-4.2187 z"
         style="color:#000000;font-style:normal;font-variant:normal;font-weight:normal;font-stretch:normal;font-size:medium;line-height:normal;font-family:Sans;-inkscape-font-specification:Sans;text-indent:0;text-align:start;text-decoration:none;text-decoration-line:none;letter-spacing:normal;word-spacing:normal;text-transform:none;direction:ltr;block-progression:tb;writing-mode:lr-tb;baseline-shift:baseline;text-anchor:start;display:inline;overflow:visible;visibility:visible;fill:#ffffff;fill-opacity:1;fill-rule:nonzero;stroke:none;stroke-width:1px;marker:none;enable-background:accumulate" />
      <path
         inkscape:connector-curvature="0"
         id="path5281"
         d="m 1353.5625,3079.375 a 2.2031,2.2031 0 1 0 0,4.4062 l 16.5313,0 8.9374,7.9688 a 2.2020313,2.2020313 0 1 0 2.9376,-3.2812 l -9.5626,-8.5313 a 2.20022,2.20022 0 0 0 -1.4687,-0.5625 l -17.375,0 z"
         style="color:#000000;font-style:normal;font-variant:normal;font-weight:normal;font-stretch:normal;font-size:medium;line-height:normal;font-family:Sans;-inkscape-font-specification:Sans;text-indent:0;text-align:start;text-decoration:none;text-decoration-line:none;letter-spacing:normal;word-spacing:normal;text-transform:none;direction:ltr;block-progression:tb;writing-mode:lr-tb;baseline-shift:baseline;text-anchor:start;display:inline;overflow:visible;visibility:visible;fill:#ffffff;fill-opacity:1;fill-rule:nonzero;stroke:none;stroke-width:1px;marker:none;enable-background:accumulate" />
      <path
         inkscape:connector-curvature="0"
         id="path5283"
         d="m 1365,3069.8438 a 2.2036013,2.2036013 0 1 0 0.094,4.4062 l 10,0.3125 4.8124,5.125 a 2.20022,2.20022 0 1 0 3.2188,-3 l -5.4688,-5.8125 a 2.20022,2.20022 0 0 0 -1.5312,-0.6875 l -10.9062,-0.3437 a 2.20022,2.20022 0 0 0 -0.2188,0 z"
         style="color:#000000;font-style:normal;font-variant:normal;font-weight:normal;font-stretch:normal;font-size:medium;line-height:normal;font-family:Sans;-inkscape-font-specification:Sans;text-indent:0;text-align:start;text-decoration:none;text-decoration-line:none;letter-spacing:normal;word-spacing:normal;text-transform:none;direction:ltr;block-progression:tb;writing-mode:lr-tb;baseline-shift:baseline;text-anchor:start;display:inline;overflow:visible;visibility:visible;fill:#ffffff;fill-opacity:1;fill-rule:nonzero;stroke:none;stroke-width:1px;marker:none;enable-background:accumulate" />
      <path
         inkscape:connector-curvature="0"
         id="path5285"
         d="m 1397.4375,3095.0625 a 2.20022,2.20022 0 0 0 -0.25,4.375 l 15.5,2.5 2.125,12.0937 a 2.2066945,2.2066945 0 0 0 4.3437,-0.7812 l -2.4062,-13.625 a 2.20022,2.20022 0 0 0 -1.8125,-1.7812 l -17.0625,-2.75 a 2.20022,2.20022 0 0 0 -0.4375,-0.031 z"
         style="color:#000000;font-style:normal;font-variant:normal;font-weight:normal;font-stretch:normal;font-size:medium;line-height:normal;font-family:Sans;-inkscape-font-specification:Sans;text-indent:0;text-align:start;text-decoration:none;text-decoration-line:none;letter-spacing:normal;word-spacing:normal;text-transform:none;direction:ltr;block-progression:tb;writing-mode:lr-tb;baseline-shift:baseline;text-anchor:start;display:inline;overflow:visible;visibility:visible;fill:#ffffff;fill-opacity:1;fill-rule:nonzero;stroke:none;stroke-width:1px;marker:none;enable-background:accumulate" />
      <path
         inkscape:connector-curvature="0"
         id="path5287"
         d="m 1397.875,3101.1875 a 2.20022,2.20022 0 0 0 -1.0312,4.1563 l 3.5937,1.9062 5.875,22.9688 a 2.2094076,2.2094076 0 1 0 4.2813,-1.0938 l -6.1563,-23.875 a 2.20022,2.20022 0 0 0 -1.0937,-1.375 l -4.4063,-2.4062 a 2.20022,2.20022 0 0 0 -1.0625,-0.2813 z"
         style="color:#000000;font-style:normal;font-variant:normal;font-weight:normal;font-stretch:normal;font-size:medium;line-height:normal;font-family:Sans;-inkscape-font-specification:Sans;text-indent:0;text-align:start;text-decoration:none;text-decoration-line:none;letter-spacing:normal;word-spacing:normal;text-transform:none;direction:ltr;block-progression:tb;writing-mode:lr-tb;baseline-shift:baseline;text-anchor:start;display:inline;overflow:visible;visibility:visible;fill:#ffffff;fill-opacity:1;fill-rule:nonzero;stroke:none;stroke-width:1px;marker:none;enable-background:accumulate" />
      <path
         inkscape:connector-curvature="0"
         id="path5289"
         d="m 1412.125,3144.4688 a 2.20022,2.20022 0 0 0 -2.0312,1.625 l -2.9688,10.1874 -3.875,5.5313 a 2.20022,2.20022 0 1 0 3.5938,2.5313 l 4.0937,-5.7813 a 2.20022,2.20022 0 0 0 0.3125,-0.6563 l 3.0625,-10.5937 a 2.20022,2.20022 0 0 0 -2.1875,-2.8437 z"
         style="color:#000000;font-style:normal;font-variant:normal;font-weight:normal;font-stretch:normal;font-size:medium;line-height:normal;font-family:Sans;-inkscape-font-specification:Sans;text-indent:0;text-align:start;text-decoration:none;text-decoration-line:none;letter-spacing:normal;word-spacing:normal;text-transform:none;direction:ltr;block-progression:tb;writing-mode:lr-tb;baseline-shift:baseline;text-anchor:start;display:inline;overflow:visible;visibility:visible;fill:#ffffff;fill-opacity:1;fill-rule:nonzero;stroke:none;stroke-width:1px;marker:none;enable-background:accumulate" />
      <path
         inkscape:connector-curvature="0"
         id="path5291"
         d="m 1417.4062,3142.0938 a 2.20022,2.20022 0 0 0 -1.9374,2 l -1,9.5624 -3.2813,7.9063 a 2.20022,2.20022 0 1 0 4.0625,1.6875 l 3.4062,-8.1875 a 2.20022,2.20022 0 0 0 0.1563,-0.625 l 1.0313,-9.875 a 2.20022,2.20022 0 0 0 -2.4376,-2.4687 z"
         style="color:#000000;font-style:normal;font-variant:normal;font-weight:normal;font-stretch:normal;font-size:medium;line-height:normal;font-family:Sans;-inkscape-font-specification:Sans;text-indent:0;text-align:start;text-decoration:none;text-decoration-line:none;letter-spacing:normal;word-spacing:normal;text-transform:none;direction:ltr;block-progression:tb;writing-mode:lr-tb;baseline-shift:baseline;text-anchor:start;display:inline;overflow:visible;visibility:visible;fill:#ffffff;fill-opacity:1;fill-rule:nonzero;stroke:none;stroke-width:1px;marker:none;enable-background:accumulate" />
      <path
         inkscape:connector-curvature="0"
         id="path5293"
         d="m 1390.3125,3173.8125 a 2.20022,2.20022 0 0 0 -1,0.2813 l -7.125,3.875 -7.3437,0.6562 a 2.20022,2.20022 0 1 0 0.375,4.375 l 7.8437,-0.6875 a 2.20022,2.20022 0 0 0 0.875,-0.25 l 7.5,-4.0937 a 2.20022,2.20022 0 0 0 -1.125,-4.1563 z"
         style="color:#000000;font-style:normal;font-variant:normal;font-weight:normal;font-stretch:normal;font-size:medium;line-height:normal;font-family:Sans;-inkscape-font-specification:Sans;text-indent:0;text-align:start;text-decoration:none;text-decoration-line:none;letter-spacing:normal;word-spacing:normal;text-transform:none;direction:ltr;block-progression:tb;writing-mode:lr-tb;baseline-shift:baseline;text-anchor:start;display:inline;overflow:visible;visibility:visible;fill:#ffffff;fill-opacity:1;fill-rule:nonzero;stroke:none;stroke-width:1px;marker:none;enable-background:accumulate" />
      <path
         inkscape:connector-curvature="0"
         id="path5295"
         d="m 1360.875,3185.4062 a 2.20022,2.20022 0 0 0 -1.4688,0.75 l -6.7812,7.6876 -12.2812,-1.1876 -8.0626,-5.5 a 2.205845,2.205845 0 1 0 -2.4687,3.6563 l 8.5313,5.7813 a 2.20022,2.20022 0 0 0 1.0312,0.375 l 13.9688,1.375 a 2.20022,2.20022 0 0 0 1.875,-0.75 l 7.5,-8.5313 a 2.20022,2.20022 0 0 0 -1.8438,-3.6563 z"
         style="color:#000000;font-style:normal;font-variant:normal;font-weight:normal;font-stretch:normal;font-size:medium;line-height:normal;font-family:Sans;-inkscape-font-specification:Sans;text-indent:0;text-align:start;text-decoration:none;text-decoration-line:none;letter-spacing:normal;word-spacing:normal;text-transform:none;direction:ltr;block-progression:tb;writing-mode:lr-tb;baseline-shift:baseline;text-anchor:start;display:inline;overflow:visible;visibility:visible;fill:#ffffff;fill-opacity:1;fill-rule:nonzero;stroke:none;stroke-width:1px;marker:none;enable-background:accumulate" />
      <path
         inkscape:connector-curvature="0"
         id="path5297"
         d="m 1299.0938,3181.6562 a 2.20022,2.20022 0 0 0 -1.125,3.9376 l 11.9374,9.5312 a 2.20022,2.20022 0 0 0 1.5,0.5 l 5.4688,-0.3438 a 2.20022,2.20022 0 0 0 1.5312,-0.75 l 2.375,-2.7187 a 2.2033255,2.2033255 0 1 0 -3.3124,-2.9063 l -1.7813,2.0313 -3.6875,0.2187 -11.2812,-9 a 2.20022,2.20022 0 0 0 -1.625,-0.5 z"
         style="color:#000000;font-style:normal;font-variant:normal;font-weight:normal;font-stretch:normal;font-size:medium;line-height:normal;font-family:Sans;-inkscape-font-specification:Sans;text-indent:0;text-align:start;text-decoration:none;text-decoration-line:none;letter-spacing:normal;word-spacing:normal;text-transform:none;direction:ltr;block-progression:tb;writing-mode:lr-tb;baseline-shift:baseline;text-anchor:start;display:inline;overflow:visible;visibility:visible;fill:#ffffff;fill-opacity:1;fill-rule:nonzero;stroke:none;stroke-width:1px;marker:none;enable-background:accumulate" />
      <path
         inkscape:connector-curvature="0"
         id="path5299"
         d="m 1243.5,3178.25 a 2.20022,2.20022 0 0 0 -0.75,4.1562 l 16.375,8.5313 a 2.20022,2.20022 0 0 0 0.2812,0.125 l 8.875,3.0625 a 2.20022,2.20022 0 0 0 1.5,0 l 8.5938,-3.3438 0.094,-0.031 7.0624,-1.6562 a 2.20022,2.20022 0 1 0 -1,-4.2813 l -7.1874,1.6875 a 2.20022,2.20022 0 0 0 -0.25,0.094 l -8.125,3.125 -7.8126,-2.6876 -0.094,-0.062 -16.2813,-8.4688 a 2.20022,2.20022 0 0 0 -1.2812,-0.25 z"
         style="color:#000000;font-style:normal;font-variant:normal;font-weight:normal;font-stretch:normal;font-size:medium;line-height:normal;font-family:Sans;-inkscape-font-specification:Sans;text-indent:0;text-align:start;text-decoration:none;text-decoration-line:none;letter-spacing:normal;word-spacing:normal;text-transform:none;direction:ltr;block-progression:tb;writing-mode:lr-tb;baseline-shift:baseline;text-anchor:start;display:inline;overflow:visible;visibility:visible;fill:#ffffff;fill-opacity:1;fill-rule:nonzero;stroke:none;stroke-width:1px;marker:none;enable-background:accumulate" />
      <path
         inkscape:connector-curvature="0"
         id="path5301"
         d="m 1229.0625,3164.9375 a 2.20022,2.20022 0 0 0 -1.3125,3.9375 l 3.4062,2.75 a 2.201074,2.201074 0 1 0 2.75,-3.4375 l -3.4062,-2.75 a 2.20022,2.20022 0 0 0 -1.4375,-0.5 z"
         style="color:#000000;font-style:normal;font-variant:normal;font-weight:normal;font-stretch:normal;font-size:medium;line-height:normal;font-family:Sans;-inkscape-font-specification:Sans;text-indent:0;text-align:start;text-decoration:none;text-decoration-line:none;letter-spacing:normal;word-spacing:normal;text-transform:none;direction:ltr;block-progression:tb;writing-mode:lr-tb;baseline-shift:baseline;text-anchor:start;display:inline;overflow:visible;visibility:visible;fill:#ffffff;fill-opacity:1;fill-rule:nonzero;stroke:none;stroke-width:1px;marker:none;enable-background:accumulate" />
    </g>
    <path
       style="color:#000000;display:inline;overflow:visible;visibility:visible;fill:#ffffff;fill-opacity:1;fill-rule:nonzero;stroke:none;stroke-width:1px;marker:none;enable-background:accumulate"
       d="m 479.13908,1907.2289 c -0.78413,0.291 -55.47626,32.5954 -71.9427,36.0878 37.24551,-0.8731 80.17595,-25.0286 80.17595,-25.0286 z"
       id="path5303"
       inkscape:connector-curvature="0" />
    <path
       style="color:#000000;display:inline;overflow:visible;visibility:visible;fill:#ffffff;fill-opacity:1;fill-rule:nonzero;stroke:none;stroke-width:1px;marker:none;enable-background:accumulate"
       d="m 494.48541,2474.5086 c -0.0752,-61.5635 54.39021,-89.5978 146.85366,-92.6873 92.46334,-3.0896 158.13962,31.7687 160.21983,78.7842 3.02049,68.2668 -62.31739,91.1427 -142.54302,92.6874 -80.2256,1.5447 -161.51008,-8.2343 -164.53047,-78.7843 z"
       id="path3565"
       inkscape:connector-curvature="0"
       sodipodi:nodetypes="csssc" />
  </g>
  <g
     inkscape:groupmode="layer"
     id="layer1"
     inkscape:label="txt">
    <text
       xml:space="preserve"
       style="font-style:normal;font-variant:normal;font-weight:normal;font-stretch:expanded;font-size:12px;line-height:125%;font-family:pecita;-inkscape-font-specification:'pecita Expanded';text-align:center;letter-spacing:0px;word-spacing:0px;text-anchor:middle;fill:#000000;fill-opacity:1;stroke:none;"
       x="1988.2058"
       y="986.58441"
       id="text4246"
       sodipodi:linespacing="125%"><tspan
         sodipodi:role="line"
         style="font-style:normal;font-variant:normal;font-weight:normal;font-stretch:expanded;font-size:45px;font-family:pecita;-inkscape-font-specification:'pecita Expanded';"
         x="1988.2058"
         y="986.58441"
         id="tspan4192">&quot;Το να ξέρεις που να βρείς</tspan><tspan
         sodipodi:role="line"
         style="font-style:normal;font-variant:normal;font-weight:normal;font-stretch:expanded;font-size:45px;font-family:pecita;-inkscape-font-specification:'pecita Expanded';"
         x="1995.3689"
         y="1042.8345"
         id="tspan3413">φαγώσιμα φυτά είναι το ίδιο </tspan><tspan
         sodipodi:role="line"
         style="font-style:normal;font-variant:normal;font-weight:normal;font-stretch:expanded;font-size:45px;font-family:pecita;-inkscape-font-specification:'pecita Expanded';"
         x="1988.2058"
         y="1099.0845"
         id="tspan3417">σημαντικό με το να ξέρεις</tspan><tspan
         sodipodi:role="line"
         style="font-style:normal;font-variant:normal;font-weight:normal;font-stretch:expanded;font-size:45px;font-family:pecita;-inkscape-font-specification:'pecita Expanded';"
         x="1988.2058"
         y="1155.3345"
         id="tspan3421"> τα πιο δύσκολα φίλτρα&quot;</tspan></text>
    <text
       xml:space="preserve"
       style="font-style:normal;font-variant:normal;font-weight:normal;font-stretch:expanded;font-size:12px;line-height:125%;font-family:pecita;-inkscape-font-specification:'pecita Expanded';text-align:center;letter-spacing:0px;word-spacing:0px;text-anchor:middle;fill:#000000;fill-opacity:1;stroke:none"
       x="933.64618"
       y="2513.938"
       id="text4246-2"
       sodipodi:linespacing="125%"><tspan
         sodipodi:role="line"
         style="font-style:normal;font-variant:normal;font-weight:normal;font-stretch:expanded;font-size:45px;font-family:pecita;-inkscape-font-specification:'pecita Expanded'"
         x="944.237"
         y="2513.938"
         id="tspan3454">Μακάρι να με </tspan><tspan
         sodipodi:role="line"
         style="font-style:normal;font-variant:normal;font-weight:normal;font-stretch:expanded;font-size:45px;font-family:pecita;-inkscape-font-specification:'pecita Expanded'"
         x="944.237"
         y="2570.188"
         id="tspan3427">είχε διδάξει πώς </tspan><tspan
         sodipodi:role="line"
         style="font-style:normal;font-variant:normal;font-weight:normal;font-stretch:expanded;font-size:45px;font-family:pecita;-inkscape-font-specification:'pecita Expanded'"
         x="944.237"
         y="2626.438"
         id="tspan3429">να φτιάχνω </tspan><tspan
         sodipodi:role="line"
         style="font-style:normal;font-variant:normal;font-weight:normal;font-stretch:expanded;font-size:45px;font-family:pecita;-inkscape-font-specification:'pecita Expanded'"
         x="933.64618"
         y="2682.688"
         id="tspan3431">σωστά φίλτρα.</tspan></text>
    <text
       xml:space="preserve"
       style="font-style:normal;font-variant:normal;font-weight:normal;font-stretch:expanded;font-size:12px;line-height:125%;font-family:pecita;-inkscape-font-specification:'pecita Expanded';text-align:center;letter-spacing:0px;word-spacing:0px;text-anchor:middle;fill:#000000;fill-opacity:1;stroke:none;"
       x="916.27588"
       y="1772.6576"
       id="text4246-1"
       sodipodi:linespacing="125%"><tspan
         sodipodi:role="line"
         style="font-size:45px;-inkscape-font-specification:'pecita Expanded';font-family:pecita;font-weight:normal;font-style:normal;font-stretch:expanded;font-variant:normal;"
         x="923.43896"
         y="1772.6576"
         id="tspan3404">Και εγώ </tspan><tspan
         sodipodi:role="line"
         style="font-size:45px;-inkscape-font-specification:'pecita Expanded';font-family:pecita;font-weight:normal;font-style:normal;font-stretch:expanded;font-variant:normal;"
         x="916.27588"
         y="1828.9076"
         id="tspan3394">είμαι εξουθενωμένη</tspan><tspan
         sodipodi:role="line"
         style="font-size:45px;-inkscape-font-specification:'pecita Expanded';font-family:pecita;font-weight:normal;font-style:normal;font-stretch:expanded;font-variant:normal;"
         x="916.27588"
         y="1885.1576"
         id="tspan3396">Καροτούλη...</tspan></text>
    <text
       xml:space="preserve"
       style="font-style:normal;font-variant:normal;font-weight:normal;font-stretch:expanded;font-size:12px;line-height:125%;font-family:pecita;-inkscape-font-specification:'pecita Expanded';text-align:center;letter-spacing:0px;word-spacing:0px;text-anchor:middle;fill:#000000;fill-opacity:1;stroke:none;"
       x="1002.8398"
       y="1991.175"
       id="text4246-1-3"
       sodipodi:linespacing="125%"><tspan
         sodipodi:role="line"
         style="font-size:45px;-inkscape-font-specification:'pecita Expanded';font-family:pecita;font-weight:normal;font-style:normal;font-stretch:expanded;font-variant:normal;"
         x="1002.8398"
         y="1991.175"
         id="tspan3408">Και πάνε μέρες</tspan><tspan
         sodipodi:role="line"
         style="font-size:45px;-inkscape-font-specification:'pecita Expanded';font-family:pecita;font-weight:normal;font-style:normal;font-stretch:expanded;font-variant:normal;"
         x="1010.0029"
         y="2047.425"
         id="tspan3403">από τότε που </tspan><tspan
         sodipodi:role="line"
         style="font-size:45px;-inkscape-font-specification:'pecita Expanded';font-family:pecita;font-weight:normal;font-style:normal;font-stretch:expanded;font-variant:normal;"
         x="1002.8398"
         y="2103.675"
         id="tspan3405">φάγαμε κάτι.</tspan></text>
    <path
       style="fill:#ffffff;stroke:none"
       d="m 895.82485,1600.0624 c 21.55989,22.9922 18.24044,32.1943 13.58315,42.3773 -4.65713,10.1831 -10.03352,18.9288 -7.28323,25.6442 2.75014,6.7151 9.98323,13.2537 16.01769,17.3966 6.03443,4.143 -1.01568,10.4266 -2.75149,17.9213 -1.73575,7.4949 3.84933,48.8396 3.84933,48.8396 0,0 19.75368,-24.4746 23.31609,-33.8003 3.56256,-9.3255 4.913,-12.7174 5.29836,-16.8203 0.38522,-4.103 -0.16581,-14.3412 -5.22225,-20.1838 -5.05644,-5.8427 -12.67159,-8.8811 -17.49774,-12.4365 -4.82629,-3.5553 -2.3259,-12.0013 -0.46383,-20.4619 1.86215,-8.4605 1.83118,-14.9098 -5.9524,-27.296 -6.67188,-10.6173 -22.89368,-21.1802 -22.89368,-21.1802 z"
       id="path3023-2"
       inkscape:connector-curvature="0"
       sodipodi:nodetypes="csssscssssssc" />
    <text
       xml:space="preserve"
       style="color:#000000;font-style:normal;font-variant:normal;font-weight:normal;font-stretch:expanded;font-size:45.57519913px;line-height:125%;font-family:pecita;-inkscape-font-specification:'pecita Expanded';letter-spacing:0px;word-spacing:0px;display:inline;overflow:visible;visibility:visible;opacity:1;fill:#000000;fill-opacity:1;fill-rule:nonzero;stroke:#000000;stroke-width:1;stroke-miterlimit:4;stroke-dasharray:none;stroke-opacity:1;marker:none;enable-background:accumulate;"
       x="984.55341"
       y="1771.2749"
       id="text4190-8"
       sodipodi:linespacing="125%"
       transform="matrix(0.8940102,-0.10429749,-0.1924975,1.1410127,0,0)"><tspan
         sodipodi:role="line"
         id="tspan4192-5"
         x="986.36328"
         y="1771.2749"
         style="font-style:normal;font-variant:normal;font-weight:normal;font-stretch:expanded;font-family:pecita;-inkscape-font-specification:'pecita Expanded';text-align:center;letter-spacing:3.61974597px;text-anchor:middle;fill:#000000;stroke:#000000;stroke-width:1;stroke-miterlimit:4;stroke-dasharray:none;">Γκρρρ</tspan></text>
    <text
       sodipodi:linespacing="125%"
       id="text4395"
       y="2451.2612"
       x="655.05847"
       style="font-style:normal;font-variant:normal;font-weight:normal;font-stretch:expanded;font-size:12px;line-height:125%;font-family:pecita;-inkscape-font-specification:'pecita Expanded';text-align:center;letter-spacing:0px;word-spacing:0px;text-anchor:middle;fill:#000000;fill-opacity:1;stroke:none"
       xml:space="preserve"><tspan
         y="2451.2612"
         x="665.64929"
         style="font-style:normal;font-variant:normal;font-weight:normal;font-stretch:expanded;font-size:45px;font-family:pecita;-inkscape-font-specification:'pecita Expanded'"
         sodipodi:role="line"
         id="tspan3437">Αλλά, </tspan><tspan
         y="2507.5112"
         x="655.05847"
         style="font-style:normal;font-variant:normal;font-weight:normal;font-stretch:expanded;font-size:45px;font-family:pecita;-inkscape-font-specification:'pecita Expanded'"
         sodipodi:role="line"
         id="tspan4188">φίλτρα...;</tspan></text>
  </g>
</svg>
