<?xml version="1.0" encoding="UTF-8" standalone="no"?>
<!-- Created with Inkscape (http://www.inkscape.org/) -->

<svg
   xmlns:dc="http://purl.org/dc/elements/1.1/"
   xmlns:cc="http://creativecommons.org/ns#"
   xmlns:rdf="http://www.w3.org/1999/02/22-rdf-syntax-ns#"
   xmlns:svg="http://www.w3.org/2000/svg"
   xmlns="http://www.w3.org/2000/svg"
   xmlns:xlink="http://www.w3.org/1999/xlink"
   xmlns:sodipodi="http://sodipodi.sourceforge.net/DTD/sodipodi-0.dtd"
   xmlns:inkscape="http://www.inkscape.org/namespaces/inkscape"
   id="svg2"
   version="1.1"
   inkscape:version="0.91 r13725"
   width="2481"
   height="3503"
   sodipodi:docname="Pepper-and-Carrot_by-David-Revoy_E17P06.svg">
  <metadata
     id="metadata8">
    <rdf:RDF>
      <cc:Work
         rdf:about="">
        <dc:format>image/svg+xml</dc:format>
        <dc:type
           rdf:resource="http://purl.org/dc/dcmitype/StillImage" />
        <dc:title />
      </cc:Work>
    </rdf:RDF>
  </metadata>
  <defs
     id="defs6" />
  <sodipodi:namedview
     pagecolor="#ffffff"
     bordercolor="#666666"
     borderopacity="1"
     objecttolerance="10"
     gridtolerance="10"
     guidetolerance="10"
     inkscape:pageopacity="0"
     inkscape:pageshadow="2"
     inkscape:window-width="1304"
     inkscape:window-height="745"
     id="namedview4"
     showgrid="false"
     inkscape:zoom="0.4574026"
     inkscape:cx="1267.6953"
     inkscape:cy="597.31839"
     inkscape:window-x="-8"
     inkscape:window-y="-8"
     inkscape:window-maximized="1"
     inkscape:current-layer="layer3" />
  <g
     inkscape:groupmode="layer"
     id="layer2"
     inkscape:label="artwork"
     sodipodi:insensitive="true"
     style="display:inline">
    <image
       sodipodi:absref="E:\Projects\Pepper&amp;Carrot\peppercarrot_ep17_translation\hu\..\gfx_Pepper-and-Carrot_by-David-Revoy_E17P06.png"
       xlink:href="..\gfx_Pepper-and-Carrot_by-David-Revoy_E17P06.png"
       y="0"
       x="0"
       id="image10"
       height="3503"
       width="2481" />
  </g>
  <g
     inkscape:groupmode="layer"
     id="layer3"
     inkscape:label="speechbubbles">
    <path
       style="fill:#ffffff;stroke:none"
       d="m 1192.3139,1451.4835 c -26.4301,-91.5539 -179.7111,-114.3577 -138.6052,-117.2114 31.879,-2.2134 291.3006,-2.2635 378.5565,-4.0593 87.256,-1.796 311.9998,2.6477 385.5342,7.1499 78.7653,4.8223 102.3121,48.229 108.1277,97.486 7.6332,64.6552 -26.757,77.8073 -82.3057,99.6199 -56.3574,22.13 -346.5797,30.52 -366.4744,28.7848 -19.8946,-1.7356 -432.2493,5.2809 -449.7127,-0.7946 -17.4637,-6.0755 171.9142,-63.9311 164.8796,-110.9753 z"
       id="path3278-7"
       inkscape:connector-curvature="0"
       sodipodi:nodetypes="csssssssc" />
    <path
       style="color:#000000;display:inline;overflow:visible;visibility:visible;fill:#ffffff;fill-opacity:1;fill-rule:nonzero;stroke:none;stroke-width:1px;marker:none;enable-background:accumulate"
       d="m 214.92459,2448.5057 c 2.59912,-57.048 47.06668,-99.0445 165.00688,-89.032 63.17512,5.3632 134.85807,8.6969 131.78221,92.2637 -3.07593,83.5668 -106.04537,82.0452 -127.25687,84.1281 -21.21154,2.0827 -132.04917,-6.0046 -151.9459,-34.3037 -12.45489,-17.7147 -17.59599,-35.3928 -17.58632,-53.0561 z"
       id="path4546-6"
       inkscape:connector-curvature="0"
       sodipodi:nodetypes="cssssc" />
    <path
       style="color:#000000;display:inline;overflow:visible;visibility:visible;fill:#ffffff;fill-opacity:1;fill-rule:nonzero;stroke:none;stroke-width:1px;marker:none;enable-background:accumulate"
       d="m 870.07243,2590.5972 c -23.62035,-34.1403 -42.50363,-36.5905 -55.96461,-39.6154 -1.87547,3.3952 -6.49852,8.7941 -6.49852,8.7941 0,0 -25.97688,-8.0908 -36.79234,-8.3139 -10.8154,-0.2233 -11.06323,11.4471 -11.06323,11.4471 0,0 50.13669,16.8309 59.91961,23.2139 4.71046,-9.5178 8.40315,-13.5624 8.49056,-17.6813 8.12621,-0.5191 33.14349,10.2991 41.90853,22.1555 z"
       id="path4456"
       inkscape:connector-curvature="0" />
    <path
       style="color:#000000;display:inline;overflow:visible;visibility:visible;fill:#ffffff;fill-opacity:1;fill-rule:nonzero;stroke:none;stroke-width:1px;marker:none;enable-background:accumulate"
       d="m 472.30499,2488.6542 c 27.60235,-42.3494 177.73407,-38.7341 227.6857,-20.3864 49.95139,18.3477 68.538,49.9464 70.86129,61.159 2.3232,11.2124 -3.48494,63.1976 -29.04156,73.3908 -25.55653,10.1932 -98.74114,15.2897 -124.29776,15.2897 -25.55653,0 -107.13868,-6.4878 -127.78292,-21.4057 -19.74828,-14.2704 -45.02722,-65.6983 -17.42475,-108.0474 z"
       id="path3330"
       inkscape:connector-curvature="0"
       sodipodi:nodetypes="zsssssz" />
    <path
       style="fill:#ffffff;stroke:none"
       d="m 1305.4599,1686.9052 c -61.4509,-16.3887 -30.8533,-65.2702 -45.5225,-67.9315 -14.6694,-2.6615 -27.8562,-6.807 -33.7712,-15.0125 -5.9149,-8.2051 -17.4337,-18.7558 -18.2822,-28.6243 -0.8487,-9.8684 -23.7836,-10.6121 -33.4878,-14.4455 -9.7043,-3.8334 -11.9428,-27.0084 -31.3844,-32.284 5.3237,-14.6209 97.6313,-19.5261 101.1522,-6.625 3.0581,11.2046 -31.3327,8.8903 -26.385,11.6146 4.9478,2.7247 15.8223,5.1341 19.2489,15.2244 3.4267,10.0904 1.9896,20.862 2.9452,28.9403 0.9559,8.0785 12.0525,14.9191 22.8341,19.6159 10.8918,4.7448 13.7129,2.9923 22.8729,15.641 10.2162,14.1071 -25.9903,41.4407 19.7798,73.8866 z"
       id="path3023-2"
       inkscape:connector-curvature="0"
       sodipodi:nodetypes="csssscssssssc" />
    <path
       style="color:#000000;display:inline;overflow:visible;visibility:visible;fill:#ffffff;fill-opacity:1;fill-rule:nonzero;stroke:none;stroke-width:1px;marker:none;enable-background:accumulate"
       d="m 1776.2545,1697.7749 c -2.4091,-40.7837 67.4735,-79.9126 272.3173,-72.2807 237.2388,8.8388 247.2253,12.961 247.9468,90.6132 0.5475,58.9272 -69.4913,75.6491 -99.6544,82.3597 -30.1635,6.7106 -78.7462,10.6213 -166.9958,10.9011 -87.3593,0.277 -165.606,-15.5697 -201.8733,-32.4494 -29.4005,-13.6838 -51.6198,-32.4193 -51.7406,-79.1439 z"
       id="path3365"
       inkscape:connector-curvature="0"
       sodipodi:nodetypes="csssssc" />
    <path
       style="color:#000000;display:inline;overflow:visible;visibility:visible;fill:#ffffff;fill-opacity:1;fill-rule:nonzero;stroke:none;stroke-width:1px;marker:none;enable-background:accumulate"
       d="m 1773.6345,1852.6935 c 20.6585,1.8503 42.0221,4.0502 66.635,-2.9295 7.0191,-2.1076 14.3439,-4.6924 21.2622,-8.6072 6.8497,-5.1792 10.0657,-12.467 9.831,-17.98 0.3909,-8.2705 -3.5388,-15.3573 1.1997,-24.9485 3.6243,-6.9865 12.0808,-11.4315 19.0666,-15.6028 17.8952,-10.396 36.4648,-19.1971 53.5972,-31.4906 19.8044,-13.0719 40.1589,-27.7498 54.2823,-45.8251 5.4819,-7.1824 10.3168,-14.933 11.2221,-21.9705 3.3226,-18.3701 -5.898,-33.4735 -24.721,-35.5762 -12.7554,-0.1579 -31.116,10.8278 -37.1785,23.8071 -3.3077,6.857 -1.2679,12.4236 2.5712,15.9087 4.8396,8.3144 1.708,21.3756 -6.8119,33.2872 -6.8835,9.8609 -16.573,19.0871 -27.2529,26.4949 -13.0662,12.4722 -29.8055,18.2178 -44.9671,25.8816 -6.9126,3.5757 -14.194,7.7145 -19.8565,13.2749 -6.6316,8.8458 -4.9747,16.822 -2.4875,23.0116 2.3193,6.5328 6.0945,13.475 0.9017,22.8012 -2.7306,6.501 -11.3267,8.4182 -17.2848,11.3996 -19.5136,7.7854 -38.7819,10.7385 -55.5968,9.9195 -1.533,-0.1984 -2.9725,-0.5244 -4.412,-0.8559 z"
       id="path4496"
       inkscape:connector-curvature="0" />
  </g>
  <g
     inkscape:groupmode="layer"
     id="layer1"
     inkscape:label="txt">
    <text
       xml:space="preserve"
       style="font-style:normal;font-variant:normal;font-weight:normal;font-stretch:normal;font-size:12px;line-height:125%;font-family:Lavi;-inkscape-font-specification:Lavi;text-align:center;letter-spacing:0px;word-spacing:0px;text-anchor:middle;fill:#000000;fill-opacity:1;stroke:none"
       x="1463.4856"
       y="1404.2015"
       id="text4246-1"
       sodipodi:linespacing="125%"><tspan
         sodipodi:role="line"
         style="font-style:italic;font-variant:normal;font-weight:normal;font-stretch:normal;font-size:45px;font-family:Lavi;-inkscape-font-specification:'Lavi Italic'"
         x="1463.4856"
         y="1404.2015"
         id="tspan3380">„Egy igai Káoszah-boszorkánynak nincs</tspan><tspan
         sodipodi:role="line"
         style="font-style:italic;font-variant:normal;font-weight:normal;font-stretch:normal;font-size:45px;font-family:Lavi;-inkscape-font-specification:'Lavi Italic'"
         x="1463.4856"
         y="1460.4515"
         id="tspan3363">szüksége sem iránytűre, sem térképre.</tspan><tspan
         sodipodi:role="line"
         style="font-style:italic;font-variant:normal;font-weight:normal;font-stretch:normal;font-size:45px;font-family:Lavi;-inkscape-font-specification:'Lavi Italic'"
         x="1463.4856"
         y="1516.7015"
         id="tspan3365">A csillagos éggel is beéri!”</tspan><tspan
         sodipodi:role="line"
         style="font-style:italic;font-variant:normal;font-weight:normal;font-stretch:normal;font-size:45px;font-family:Lavi;-inkscape-font-specification:'Lavi Italic'"
         x="1463.4856"
         y="1572.9515"
         id="tspan3367" /></text>
    <text
       xml:space="preserve"
       style="font-style:normal;font-variant:normal;font-weight:normal;font-stretch:normal;font-size:12.30392742px;line-height:125%;font-family:Lavi;-inkscape-font-specification:Lavi;text-align:center;letter-spacing:0px;word-spacing:0px;text-anchor:middle;fill:#000000;fill-opacity:1;stroke:none"
       x="357.15213"
       y="2501.3582"
       id="text4246-2-5-8"
       sodipodi:linespacing="125%"
       transform="scale(1.0253273,0.97529833)"><tspan
         sodipodi:role="line"
         style="font-size:46.13972855px"
         x="357.15213"
         y="2501.3582"
         id="tspan4487">Fel a fejjel,</tspan><tspan
         sodipodi:role="line"
         style="font-size:46.13972855px"
         x="357.15213"
         y="2559.0327"
         id="tspan3381">Répa!</tspan></text>
    <text
       xml:space="preserve"
       style="font-style:normal;font-variant:normal;font-weight:normal;font-stretch:normal;font-size:12px;line-height:125%;font-family:Lavi;-inkscape-font-specification:Lavi;text-align:center;letter-spacing:0px;word-spacing:0px;text-anchor:middle;fill:#000000;fill-opacity:1;stroke:none"
       x="623.36475"
       y="2519.2002"
       id="text4246-2-5-8-5"
       sodipodi:linespacing="125%"><tspan
         sodipodi:role="line"
         style="font-size:45px"
         x="623.36475"
         y="2519.2002"
         id="tspan3479">Nézd,</tspan><tspan
         sodipodi:role="line"
         style="font-size:45px"
         x="623.36475"
         y="2575.4502"
         id="tspan3385">ideértünk!</tspan></text>
    <text
       xml:space="preserve"
       style="font-style:normal;font-variant:normal;font-weight:normal;font-stretch:normal;font-size:12px;line-height:125%;font-family:Lavi;-inkscape-font-specification:Lavi;text-align:center;letter-spacing:0px;word-spacing:0px;text-anchor:middle;fill:#000000;fill-opacity:1;stroke:none"
       x="2043.9636"
       y="1698.4164"
       id="text4246-2-5-7"
       sodipodi:linespacing="125%"><tspan
         sodipodi:role="line"
         style="font-size:45px"
         x="2043.9636"
         y="1698.4164"
         id="tspan3475">Inkább tanultam</tspan><tspan
         sodipodi:role="line"
         style="font-size:45px"
         x="2043.9636"
         y="1754.6664"
         id="tspan3375">volna <tspan
   style="font-style:italic;font-variant:normal;font-weight:normal;font-stretch:normal;font-family:Lavi;-inkscape-font-specification:'Lavi Italic'"
   id="tspan3377">valódi</tspan> jóslást...</tspan></text>
  </g>
</svg>
