<?xml version="1.0" encoding="UTF-8" standalone="no"?>
<!-- Created with Inkscape (http://www.inkscape.org/) -->

<svg
   xmlns:dc="http://purl.org/dc/elements/1.1/"
   xmlns:cc="http://creativecommons.org/ns#"
   xmlns:rdf="http://www.w3.org/1999/02/22-rdf-syntax-ns#"
   xmlns:svg="http://www.w3.org/2000/svg"
   xmlns="http://www.w3.org/2000/svg"
   xmlns:xlink="http://www.w3.org/1999/xlink"
   xmlns:sodipodi="http://sodipodi.sourceforge.net/DTD/sodipodi-0.dtd"
   xmlns:inkscape="http://www.inkscape.org/namespaces/inkscape"
   id="svg2"
   version="1.1"
   inkscape:version="0.48.5 r10040"
   width="2481"
   height="3503"
   sodipodi:docname="Pepper-and-Carrot_by-David-Revoy_E17P01.svg">
  <metadata
     id="metadata8">
    <rdf:RDF>
      <cc:Work
         rdf:about="">
        <dc:format>image/svg+xml</dc:format>
        <dc:type
           rdf:resource="http://purl.org/dc/dcmitype/StillImage" />
        <dc:title />
      </cc:Work>
    </rdf:RDF>
  </metadata>
  <defs
     id="defs6">
    <filter
       style="color-interpolation-filters:sRGB"
       id="filter4375-4-1-1-1"
       inkscape:label="deevad outline effect">
      <feFlood
         id="feFlood4377-7-9-0-8"
         flood-opacity="1"
         flood-color="rgb(0,0,0)"
         result="flood" />
      <feComposite
         id="feComposite4379-3-8-8-2"
         in2="SourceGraphic"
         in="flood"
         operator="in"
         result="composite1" />
      <feMorphology
         id="feMorphology4393-1-0-49-8"
         operator="dilate"
         radius="4"
         result="result3" />
      <feComposite
         id="feComposite4385-9-5-7-0"
         in2="result3"
         in="SourceGraphic"
         operator="over"
         result="composite2" />
    </filter>
  </defs>
  <sodipodi:namedview
     pagecolor="#ffffff"
     bordercolor="#666666"
     borderopacity="1"
     objecttolerance="10"
     gridtolerance="10"
     guidetolerance="10"
     inkscape:pageopacity="0"
     inkscape:pageshadow="2"
     inkscape:window-width="1680"
     inkscape:window-height="980"
     id="namedview4"
     showgrid="false"
     inkscape:zoom="0.44190693"
     inkscape:cx="1174.6477"
     inkscape:cy="1291.4901"
     inkscape:window-x="0"
     inkscape:window-y="1"
     inkscape:window-maximized="1"
     inkscape:current-layer="layer1" />
  <g
     inkscape:groupmode="layer"
     id="layer2"
     inkscape:label="artwork"
     sodipodi:insensitive="true">
    <image
       sodipodi:absref="/Users/gand/Documents/Pepper&amp;Carrot/peppercarrot_ep17_translation/it/../gfx_Pepper-and-Carrot_by-David-Revoy_E17P01.png"
       xlink:href="../gfx_Pepper-and-Carrot_by-David-Revoy_E17P01.png"
       width="2481"
       height="3503"
       id="image10"
       x="0"
       y="0" />
  </g>
  <g
     inkscape:groupmode="layer"
     id="layer3"
     inkscape:label="speechbubbles">
    <path
       style="fill:#ffffff;stroke:none"
       d="m 1854.484,2417.8139 c 5.6688,-58.8046 24.4127,-93.5377 75.7069,-129.28 44.0654,-30.7052 279.3306,-28.1439 345.8179,-16.6931 48.657,8.38 144.7244,32.4751 148.6404,85.3615 3.7214,50.2583 16.0359,159.3093 -24.0872,191.7058 -42.3366,34.184 -301.7939,24.0832 -398.408,13.3469 -129.1346,-14.35 -142.9125,-99.5929 -147.67,-144.4411 z"
       id="path3021"
       inkscape:connector-curvature="0"
       sodipodi:nodetypes="csssssc" />
    <path
       style="color:#000000;display:inline;overflow:visible;visibility:visible;fill:#ffffff;fill-opacity:1;fill-rule:nonzero;stroke:none;stroke-width:1px;marker:none;enable-background:accumulate"
       d="m 1781.9829,2275.3363 c 43.0673,8.2854 66.1639,39.6775 70.6387,48.3686 4.4748,8.691 18.2521,35.9003 53.2109,40.6343 34.9589,4.7342 34.6065,23.736 34.6065,23.736 l -43.5145,10.2041 c 0,0 -39.462,-19.6878 -54.101,-39.0809 -14.6389,-19.3932 -22.7941,-50.3705 -31.7823,-59.1151 -8.9881,-8.7446 -15.6524,-19.837 -29.0583,-24.747 z"
       id="path4018"
       inkscape:connector-curvature="0"
       sodipodi:nodetypes="cssccssc" />
    <path
       style="fill:#ffffff;fill-rule:evenodd;stroke:none"
       d="m 921.44165,1792.1323 c 33.51413,13.1186 63.80856,21.2748 53.50905,-33.1369 59.3222,73.872 50.8126,23.2797 60.1977,5.5228 35.2692,52.1829 65.6155,44.7464 91.9687,-11.0455 14.8979,80.4772 46.0733,41.4854 73.5749,29.455 -0.067,22.6314 -7.5761,48.5824 73.575,34.9778 -23.2031,20.44 -31.8581,38.9958 20.0658,49.7053 -36.0686,16.4344 -55.8771,33.922 -16.7215,55.2281 -20.8011,31.038 -6.8885,49.4837 21.7381,62.5919 -67.0267,1.8152 -50.8852,18.8909 -40.1319,34.9778 -57.066,-33.0746 -65.0501,-19.8328 -60.1976,5.5228 -26.561,-14.5452 -46.1929,-48.9242 -93.6409,-3.6818 -14.1114,-15.0152 -27.1192,-33.9796 -58.5254,12.8865 -2.2155,-40.88 -25.1774,-39.3422 -58.52563,-16.5684 -8.7958,-38.338 -41.82416,-18.8725 -76.91926,5.5229 28.64563,-37.4186 11.90154,-51.2033 -26.42665,-89.2127 40.63577,-30.8161 17.34578,-30.6069 11.31173,-52.5396 20.57057,-15.568 47.42559,-32.5267 -6.62313,-62.5919 31.60094,4.6741 65.24859,10.7001 31.77099,-27.6141 z"
       id="path4582"
       inkscape:connector-curvature="0"
       sodipodi:nodetypes="ccccccccccccccccccc" />
    <path
       style="color:#000000;display:inline;overflow:visible;visibility:visible;fill:#ffffff;fill-opacity:1;fill-rule:nonzero;stroke:none;stroke-width:1px;marker:none;enable-background:accumulate"
       d="m 1196.0761,1952.9058 c 23.7239,14.2255 61.9488,43.044 76.2655,59.624 3.0955,-13.8639 8.4416,-25.7793 12.4353,-35.1298 16.784,12.1296 90.9257,73.1169 100.8209,94.759 -22.0361,-54.5674 -74.3748,-104.9506 -103.7006,-122.6017 -7.5332,11.6229 -10.4968,19.4636 -14.6173,25.5024 -25.4071,-2.5419 -56.6177,-44.4327 -56.8452,-44.9452 z"
       id="path5066"
       inkscape:connector-curvature="0"
       sodipodi:nodetypes="cccccccc" />
    <path
       style="color:#000000;fill:#ffffff;fill-opacity:1;fill-rule:nonzero;stroke:none;stroke-width:1px;marker:none;visibility:visible;display:inline;overflow:visible;enable-background:accumulate"
       d="m 580.8868,2287.2044 c -30.11408,-19.4817 -40.65397,-37.5718 -37.64245,-48.7044 3.01138,-11.1324 30.11393,-68.1861 63.23924,-75.144 33.12545,-6.9578 118.95024,-15.3071 138.52442,-8.3493 19.57418,6.9577 75.28504,52.8791 75.28504,76.5355 0,23.6565 -10.53989,69.5778 -40.65397,83.4933 -30.11393,13.9157 -162.6156,22.265 -198.75228,-27.8311 z"
       id="path3349"
       inkscape:connector-curvature="0" />
    <path
       style="fill:#ffffff;stroke:none"
       d="m 535.22534,2378.8129 c -0.83455,-20.4204 26.09865,-76.9153 141.53506,-70.4155 115.4364,6.4999 151.05972,29.761 153.5806,66.0823 3.98796,57.4595 -57.15687,71.3819 -144.53147,73.619 -90.07378,2.3063 -145.65816,-17.6356 -150.58419,-69.2858 z"
       id="path3280"
       inkscape:connector-curvature="0"
       sodipodi:nodetypes="csssc" />
    <path
       style="fill:#ffffff;stroke:none"
       d="m 462.7487,2323.4218 c 19.54312,23.3799 27.8615,17.4813 37.10761,9.6978 9.24609,-7.7835 17.24434,-16.2258 23.0997,-13.9259 5.85539,2.3001 11.36723,10.3556 14.79931,17.3132 3.4321,6.9575 9.3438,2.994 16.07856,-0.5744 6.73479,-3.5684 43.2244,-10.0681 43.2244,-10.0681 0,0 -22.57858,29.6369 -31.0169,35.8681 -8.43834,6.2309 -11.50973,8.5673 -15.17309,9.7994 -3.66342,1.232 -12.74208,2.3755 -17.72582,-3.0266 -4.98374,-5.4019 -7.3681,-14.5768 -10.32818,-20.0976 -2.95996,-5.5207 -11.05253,-6.3898 -18.65118,-2.486 -7.59863,3.9039 -25.24054,9.1542 -32.47234,-0.9969 -7.2318,-10.1511 -8.94207,-21.503 -8.94207,-21.503 z"
       id="path3023"
       inkscape:connector-curvature="0"
       sodipodi:nodetypes="csssscssssssc" />
  </g>
  <g
     inkscape:groupmode="layer"
     id="layer1"
     inkscape:label="txt">
    <text
       xml:space="preserve"
       style="font-size:12px;font-style:normal;font-variant:normal;font-weight:normal;font-stretch:normal;text-align:center;line-height:125%;letter-spacing:0px;word-spacing:0px;text-anchor:middle;fill:#000000;fill-opacity:1;stroke:none;font-family:Lavi;-inkscape-font-specification:Lavi"
       x="684.38007"
       y="2212.8169"
       id="text4246"
       sodipodi:linespacing="125%"><tspan
         sodipodi:role="line"
         style="font-size:45px"
         x="684.38007"
         y="2212.8169"
         id="tspan4252">Ma</tspan><tspan
         sodipodi:role="line"
         style="font-size:45px"
         x="684.38007"
         y="2269.0669"
         id="tspan3016">Pepper...</tspan><tspan
         sodipodi:role="line"
         style="font-size:28px"
         x="684.38007"
         y="2325.3169"
         id="tspan3083" /><tspan
         sodipodi:role="line"
         style="font-size:45px"
         x="684.38007"
         y="2381.5669"
         id="tspan3087" /></text>
    <text
       xml:space="preserve"
       style="font-size:13.27773571px;font-style:normal;font-variant:normal;font-weight:normal;font-stretch:normal;text-align:center;line-height:125%;letter-spacing:0px;word-spacing:0px;text-anchor:middle;fill:#000000;fill-opacity:1;stroke:#000000;stroke-width:2.65554738;stroke-miterlimit:4;stroke-opacity:1;stroke-dasharray:none;font-family:Lavi;-inkscape-font-specification:Lavi"
       x="1086.8938"
       y="1890.3174"
       id="text4246-7"
       sodipodi:linespacing="125%"><tspan
         sodipodi:role="line"
         style="font-size:65px;font-style:normal;font-variant:normal;font-weight:bold;font-stretch:normal;stroke:#000000;stroke-width:2.65554738;stroke-miterlimit:4;stroke-opacity:1;stroke-dasharray:none;font-family:Lavi;-inkscape-font-specification:Lavi Bold"
         x="1086.8938"
         y="1890.3174"
         id="tspan4150-5">NO!</tspan><tspan
         sodipodi:role="line"
         style="font-size:49.79151154px;font-style:normal;font-variant:normal;font-weight:bold;font-stretch:normal;stroke:#000000;stroke-width:2.65554738;stroke-miterlimit:4;stroke-opacity:1;stroke-dasharray:none;font-family:Lavi;-inkscape-font-specification:Lavi Bold"
         x="1086.8938"
         y="1957.4141"
         id="tspan4190">ME NE VADO!!</tspan></text>
    <text
       xml:space="preserve"
       style="font-size:12px;font-style:normal;font-variant:normal;font-weight:normal;font-stretch:normal;text-align:center;line-height:125%;letter-spacing:0px;word-spacing:0px;text-anchor:middle;fill:#000000;fill-opacity:1;stroke:none;font-family:Lavi;-inkscape-font-specification:Lavi"
       x="2134.7527"
       y="2348.5093"
       id="text4246-9"
       sodipodi:linespacing="125%"><tspan
         sodipodi:role="line"
         style="font-size:45px"
         x="2134.7527"
         y="2348.5093"
         id="tspan4228">Non mi insegnate</tspan><tspan
         sodipodi:role="line"
         style="font-size:45px"
         x="2134.7527"
         y="2404.7593"
         id="tspan3336">la vera stregoneria!</tspan><tspan
         sodipodi:role="line"
         style="font-size:45px"
         x="2134.7527"
         y="2461.0093"
         id="tspan4232">Vado dalle</tspan><tspan
         sodipodi:role="line"
         style="font-size:45px"
         x="2134.7527"
         y="2517.2593"
         id="tspan3342">streghe di Ah!</tspan></text>
    <text
       xml:space="preserve"
       style="font-size:17.80657005px;font-style:normal;font-variant:normal;font-weight:normal;font-stretch:normal;line-height:125%;letter-spacing:0px;word-spacing:0px;fill:#000000;fill-opacity:1;stroke:#000000;stroke-width:0.99236238;stroke-miterlimit:4;stroke-opacity:1;stroke-dasharray:none;filter:url(#filter4375-4-1-1-1);font-family:Lavi;-inkscape-font-specification:Lavi"
       x="787.65729"
       y="1584.5073"
       id="text4580"
       sodipodi:linespacing="125%"
       transform="matrix(0.64545612,-0.14502854,-0.28870948,0.70997447,753.86791,2340.5307)"><tspan
         sodipodi:role="line"
         id="tspan4582"
         x="787.65729"
         y="1584.5073"
         style="font-size:70px;fill:#ffffff"><tspan
           id="tspan4938"
           style="font-size:62.03222656px">Swo</tspan><tspan
           style="font-size:80.40014648px"
           id="tspan4617">oo</tspan><tspan
           id="tspan4942"
           style="font-size:100.29872894px">sh</tspan><tspan
           id="tspan4940"
           style="font-size:123.25863647px"> !</tspan></tspan></text>
    <flowRoot
       xml:space="preserve"
       id="flowRoot3051"
       style="fill:black;stroke:none;stroke-opacity:1;stroke-width:1px;stroke-linejoin:miter;stroke-linecap:butt;fill-opacity:1;font-family:Sans;font-style:normal;font-weight:normal;font-size:40px;line-height:125%;letter-spacing:0px;word-spacing:0px;-inkscape-font-specification:Sans"><flowRegion
         id="flowRegion3053"><rect
           id="rect3055"
           width="15.84044"
           height="205.9257"
           x="-178.77068"
           y="2115.8301" /></flowRegion><flowPara
         id="flowPara3057" /></flowRoot>    <flowRoot
       xml:space="preserve"
       id="flowRoot3607"
       style="font-size:40px;font-style:normal;font-weight:normal;text-align:center;line-height:125%;letter-spacing:0px;word-spacing:0px;text-anchor:middle;fill:#000000;fill-opacity:1;stroke:none;font-family:Sans;-inkscape-font-specification:Sans"
       transform="translate(728.13437,156.40439)"><flowRegion
         id="flowRegion3609"><rect
           id="rect3611"
           width="276.07623"
           height="479.73901"
           x="-183.29651"
           y="2161.0884"
           style="text-align:center;text-anchor:middle" /></flowRegion><flowPara
         id="flowPara3619"
         style="font-size:45px;font-style:normal;font-variant:normal;font-weight:normal;font-stretch:normal;text-align:center;text-anchor:middle;font-family:Lavi;-inkscape-font-specification:Lavi">Torna</flowPara><flowPara
         id="flowPara3621"
         style="font-size:45px;font-style:normal;font-variant:normal;font-weight:normal;font-stretch:normal;text-align:center;text-anchor:middle;font-family:Lavi;-inkscape-font-specification:Lavi">indietro...</flowPara></flowRoot>    <flowRoot
       xml:space="preserve"
       id="flowRoot3630"
       style="fill:black;stroke:none;stroke-opacity:1;stroke-width:1px;stroke-linejoin:miter;stroke-linecap:butt;fill-opacity:1;font-family:Sans;font-style:normal;font-weight:normal;font-size:40px;line-height:125%;letter-spacing:0px;word-spacing:0px;-inkscape-font-specification:Sans"><flowRegion
         id="flowRegion3632"><rect
           id="rect3634"
           width="131.24936"
           height="183.29651"
           x="676.61304"
           y="2299.1267" /></flowRegion><flowPara
         id="flowPara3636"></flowPara></flowRoot>  </g>
</svg>
