<?xml version="1.0" encoding="UTF-8" standalone="no"?>
<!-- Created with Inkscape (http://www.inkscape.org/) -->

<svg
   xmlns:dc="http://purl.org/dc/elements/1.1/"
   xmlns:cc="http://creativecommons.org/ns#"
   xmlns:rdf="http://www.w3.org/1999/02/22-rdf-syntax-ns#"
   xmlns:svg="http://www.w3.org/2000/svg"
   xmlns="http://www.w3.org/2000/svg"
   xmlns:xlink="http://www.w3.org/1999/xlink"
   xmlns:sodipodi="http://sodipodi.sourceforge.net/DTD/sodipodi-0.dtd"
   xmlns:inkscape="http://www.inkscape.org/namespaces/inkscape"
   id="svg2"
   version="1.1"
   inkscape:version="0.48.5 r10040"
   width="2481"
   height="3503"
   sodipodi:docname="Pepper-and-Carrot_by-David-Revoy_E16P06.svg">
  <metadata
     id="metadata8">
    <rdf:RDF>
      <cc:Work
         rdf:about="">
        <dc:format>image/svg+xml</dc:format>
        <dc:type
           rdf:resource="http://purl.org/dc/dcmitype/StillImage" />
        <dc:title />
      </cc:Work>
    </rdf:RDF>
  </metadata>
  <defs
     id="defs6">
    <filter
       style="color-interpolation-filters:sRGB"
       id="filter3018"
       inkscape:label="Lapping"
       inkscape:menu="Distort"
       inkscape:menu-tooltip="Something like a water noise"
       height="1.3"
       y="-0.15000001"
       width="1.3"
       x="-0.15000001">
      <feTurbulence
         id="feTurbulence3020"
         numOctaves="5"
         seed="0"
         type="fractalNoise"
         baseFrequency="0.045999999999999999"
         result="result1" />
      <feGaussianBlur
         id="feGaussianBlur3022"
         stdDeviation="2"
         result="result2" />
      <feDisplacementMap
         id="feDisplacementMap3024"
         in2="result2"
         scale="50"
         yChannelSelector="B"
         xChannelSelector="R"
         in="SourceGraphic" />
    </filter>
    <filter
       style="color-interpolation-filters:sRGB"
       id="filter3018-5"
       inkscape:label="Lapping"
       inkscape:menu="Distort"
       inkscape:menu-tooltip="Something like a water noise"
       height="1.3"
       y="-0.15000001"
       width="1.3"
       x="-0.15000001">
      <feTurbulence
         id="feTurbulence3020-9"
         numOctaves="2"
         seed="0"
         type="fractalNoise"
         baseFrequency="0.02802547770700637"
         result="result1" />
      <feGaussianBlur
         id="feGaussianBlur3022-7"
         stdDeviation="0.01"
         result="result2"
         baseFrequency="0.028000000000000001" />
      <feDisplacementMap
         id="feDisplacementMap3024-8"
         in2="result2"
         scale="50"
         yChannelSelector="B"
         xChannelSelector="R"
         in="SourceGraphic" />
    </filter>
    <filter
       inkscape:label="Ripple"
       inkscape:menu="Distort"
       inkscape:menu-tooltip="Horizontal rippling of edges"
       style="color-interpolation-filters:sRGB;"
       id="filter4265"
       y="-0.10000000000000001">
      <feTurbulence
         numOctaves="1"
         baseFrequency="0.002 0.107"
         id="feTurbulence4267" />
      <feColorMatrix
         values="5 0 0 0 0 0 0 0 0 0 0 0 0 0 0 0 0 0 4 0 "
         result="result91"
         id="feColorMatrix4269" />
      <feDisplacementMap
         yChannelSelector="A"
         xChannelSelector="R"
         scale="14.3"
         in="SourceGraphic"
         in2="result91"
         id="feDisplacementMap4271" />
    </filter>
    <filter
       style="color-interpolation-filters:sRGB"
       id="filter4375-4-1-1-1-9"
       inkscape:label="deevad outline effect">
      <feFlood
         id="feFlood4377-7-9-0-8-1"
         flood-opacity="1"
         flood-color="rgb(105,130,141)"
         result="flood" />
      <feComposite
         id="feComposite4379-3-8-8-2-77"
         in2="SourceGraphic"
         in="flood"
         operator="in"
         result="composite1" />
      <feMorphology
         id="feMorphology4393-1-0-49-8-9"
         operator="dilate"
         radius="4"
         result="result3" />
      <feComposite
         id="feComposite4385-9-5-7-0-8"
         in2="result3"
         in="SourceGraphic"
         operator="over"
         result="composite2" />
    </filter>
    <filter
       style="color-interpolation-filters:sRGB"
       id="filter3018-9"
       inkscape:label="Lapping"
       inkscape:menu="Distort"
       inkscape:menu-tooltip="Something like a water noise"
       height="1.3"
       y="-0.15000001"
       width="1.3"
       x="-0.15000001">
      <feTurbulence
         id="feTurbulence3020-3"
         numOctaves="5"
         seed="0"
         type="fractalNoise"
         baseFrequency="0.045999999999999999"
         result="result1" />
      <feGaussianBlur
         id="feGaussianBlur3022-77"
         stdDeviation="2"
         result="result2" />
      <feDisplacementMap
         id="feDisplacementMap3024-6"
         in2="result2"
         scale="50"
         yChannelSelector="B"
         xChannelSelector="R"
         in="SourceGraphic" />
    </filter>
    <filter
       inkscape:label="Ripple"
       inkscape:menu="Distort"
       inkscape:menu-tooltip="Horizontal rippling of edges"
       style="color-interpolation-filters:sRGB"
       id="filter4265-7"
       y="-0.1">
      <feTurbulence
         numOctaves="1"
         baseFrequency="0.002 0.107"
         id="feTurbulence4267-7" />
      <feColorMatrix
         values="5 0 0 0 0 0 0 0 0 0 0 0 0 0 0 0 0 0 4 0 "
         result="result91"
         id="feColorMatrix4269-1" />
      <feDisplacementMap
         yChannelSelector="A"
         xChannelSelector="R"
         scale="14.3"
         in="SourceGraphic"
         in2="result91"
         id="feDisplacementMap4271-2" />
    </filter>
  </defs>
  <sodipodi:namedview
     pagecolor="#ffffff"
     bordercolor="#666666"
     borderopacity="1"
     objecttolerance="10"
     gridtolerance="10"
     guidetolerance="10"
     inkscape:pageopacity="0"
     inkscape:pageshadow="2"
     inkscape:window-width="1536"
     inkscape:window-height="803"
     id="namedview4"
     showgrid="false"
     inkscape:zoom="0.56568544"
     inkscape:cx="1184.207"
     inkscape:cy="3063.8243"
     inkscape:window-x="-8"
     inkscape:window-y="-8"
     inkscape:window-maximized="1"
     inkscape:current-layer="layer1" />
  <g
     inkscape:groupmode="layer"
     id="layer2"
     inkscape:label="artwork"
     sodipodi:insensitive="true">
    <image
       sodipodi:absref="C:\Users\Lludriga\Documents\pepper\peppercarrot_ep16_translation-master\ca\../gfx_Pepper-and-Carrot_by-David-Revoy_E16P06.png"
       xlink:href="../gfx_Pepper-and-Carrot_by-David-Revoy_E16P06.png"
       width="2481"
       height="3503"
       id="image10"
       x="0"
       y="0" />
  </g>
  <g
     inkscape:groupmode="layer"
     id="layer3"
     inkscape:label="speechbubbles">
    <path
       style="color:#000000;display:inline;overflow:visible;visibility:visible;fill:#0f0f0f;fill-opacity:1;fill-rule:nonzero;stroke:none;stroke-width:1px;marker:none;filter:url(#filter3018-9);enable-background:accumulate"
       d="m 168.28312,242.56886 c 0,-59.7361 29.8086,-90.5375 118.2404,-96.1379 88.4319,-5.6002 342.7586,-13.9748 381.5097,5.6261 38.751,19.601 38.7901,48.5099 40.7774,87.7117 1.9872,39.2018 -86.4447,99.8714 -174.8765,97.0713 -88.4319,-2.8002 -223.7312,5.5744 -271.4248,-8.4263 -47.6936,-14.0007 -90.2517,-38.2427 -94.2262,-85.8449 z"
       id="path3986"
       inkscape:connector-curvature="0"
       sodipodi:nodetypes="csssssc"
       transform="matrix(0.93497009,0,0,0.90016842,-52.108178,503.94598)" />
    <path
       style="color:#000000;display:inline;overflow:visible;visibility:visible;fill:#000000;fill-opacity:1;fill-rule:nonzero;stroke:none;stroke-width:1px;marker:none;enable-background:accumulate"
       d="m 678.07237,662.24549 c -17.09062,58.38926 -35.17677,61.96629 -52.88086,73.40862 -4.31685,-3.47698 -2.14346,-34.60622 -2.14346,-34.60622 0,0 -39.29405,58.68551 -54.58859,64.94605 -15.29463,6.2606 -27.5297,-21.752 -27.5297,-21.752 0,0 75.79585,-58.26928 86.63428,-72.14534 11.32175,10.04939 7.21526,27.97609 9.33626,33.40093 11.82429,-3.79121 34.43647,-22.66451 41.17207,-43.25204 z"
       id="path4456"
       inkscape:connector-curvature="0"
       sodipodi:nodetypes="cccscccc" />
    <path
       style="color:#000000;display:inline;overflow:visible;visibility:visible;fill:#d40000;fill-opacity:1;fill-rule:nonzero;stroke:none;stroke-width:1px;marker:none;filter:url(#filter4265-7);enable-background:accumulate"
       d="m 168.28312,242.56886 c 0,-59.7361 29.8086,-90.5375 118.2404,-96.1379 88.4319,-5.6002 342.7586,-13.9748 381.5097,5.6261 38.751,19.601 38.7901,48.5099 40.7774,87.7117 1.9872,39.2018 -86.4447,99.8714 -174.8765,97.0713 -88.4319,-2.8002 -223.7312,5.5744 -271.4248,-8.4263 -47.6936,-14.0007 -90.2517,-38.2427 -94.2262,-85.8449 z"
       id="path3986-3"
       inkscape:connector-curvature="0"
       sodipodi:nodetypes="csssssc"
       transform="matrix(0.06698198,-0.32487181,2.9224041,0.0069021,1172.2264,687.59367)" />
    <path
       style="fill:#d40000;fill-rule:evenodd;stroke:none;stroke-width:1px;stroke-linecap:butt;stroke-linejoin:miter;stroke-opacity:1"
       d="m 1705.3161,593.27326 c -12.5093,15.78328 -24.9092,31.67522 -37.4867,47.39062 -6.2386,4.93164 -12.3818,10.02377 -18.68,14.85513 -7.7939,3.28163 -15.5877,6.56325 -23.3815,9.84487 10.7721,-1.24294 21.5443,-2.48588 32.3164,-3.72882 -5.3861,12.84373 -10.7721,25.68746 -16.1582,38.53119 -11.6871,7.0588 -23.3188,14.23165 -35.0405,21.21929 -9.9542,3.67563 -19.8656,7.56392 -29.8466,11.10697 -10.6874,0.41106 -21.3749,0.82211 -32.0624,1.23317 17.4012,2.48588 34.8024,4.97177 52.2036,7.45765 14.5657,-5.44583 29.1905,-10.77073 43.7192,-16.29207 8.6285,-5.34147 17.257,-10.68294 25.8855,-16.02441 6.8382,-12.6115 13.4205,-25.36555 20.4276,-37.88287 3.963,-6.84514 7.9259,-13.69027 11.8889,-20.5354 -7.4576,1.65726 -14.9153,3.31451 -22.3729,4.97177 11.6008,-4.97177 23.2015,-9.94353 34.8023,-14.9153 7.906,-7.95314 15.9156,-15.82134 23.7569,-23.82745 4.9248,-7.38713 9.8495,-14.77427 14.7743,-22.1614 -14.9155,-0.38269 -29.8277,-1.0463 -44.7459,-1.24294 z"
       id="path4345"
       inkscape:connector-curvature="0" />
    <path
       style="color:#000000;display:inline;overflow:visible;visibility:visible;fill:#ffffff;fill-opacity:1;fill-rule:nonzero;stroke:none;stroke-width:1px;marker:none;enable-background:accumulate"
       d="m 133.93104,1756.1562 c 10.37143,-91.7038 86.19899,-156.9388 274.10751,-134.5171 100.65385,12.0104 262.91288,-2.9873 248.35132,164.4897 -11.70587,134.6333 -168.32471,104.0671 -269.96237,103.2346 -34.27765,-0.2808 -201.28114,-0.2286 -230.0867,-46.8512 -18.03158,-29.1845 -24.34689,-57.92 -22.40976,-86.356 z"
       id="path4546"
       inkscape:connector-curvature="0"
       sodipodi:nodetypes="cssssc" />
    <path
       style="color:#000000;display:inline;overflow:visible;visibility:visible;fill:#ffffff;fill-opacity:1;fill-rule:nonzero;stroke:none;stroke-width:1px;marker:none;enable-background:accumulate"
       d="m 228.48554,1953.6843 c -1.88474,-41.6558 18.23362,-69.5163 66.78001,-86.6545 48.54641,-17.1382 125.52086,-23.554 237.34835,-22.3203 111.14274,1.2262 242.91213,-5.414 241.31321,115.9241 1.91069,97.0306 -229.57335,89.9558 -364.25686,87.8057 -134.6835,-2.15 -175.74369,-16.6114 -181.18471,-94.755 z"
       id="path4546-5"
       inkscape:connector-curvature="0"
       sodipodi:nodetypes="csscsc" />
    <path
       style="color:#000000;display:inline;overflow:visible;visibility:visible;fill:#ffffff;fill-opacity:1;fill-rule:nonzero;stroke:none;stroke-width:1px;marker:none;enable-background:accumulate"
       d="m 679.97273,2281.8967 c 11.76656,19.546 26.86609,27.4975 33.13322,28.2362 6.26697,0.7387 51.18576,-0.6571 58.36292,1.5443 5.92112,1.8497 15.29748,2.7049 12.68306,7.5596 -2.61437,4.8547 -30.31277,28.7137 -23.60938,42.4405 6.70329,13.7271 16.09268,13.647 30.77839,10.9866 14.68587,-2.6603 33.90454,-5.9139 40.10008,3.7772 6.19554,9.6912 -0.42141,21.5514 -5.69542,26.508 -5.274,4.9567 -41.33402,31.0899 -47.18733,40.9631 -5.8532,9.8731 -17.44702,41.5015 -3.13364,49.0636 0.28218,-19.728 1.44033,-29.3734 8.56505,-37.1977 7.12485,-7.8243 18.87702,-23.0057 30.88068,-27.9405 12.00374,-4.9348 33.12277,-16.3399 37.1026,-25.7219 3.97999,-9.3818 5.27237,-21.4478 -3.42104,-30.4838 -8.69327,-9.036 -15.57713,-19.1753 -37.4328,-13.4434 -14.68576,2.6603 -24.93162,-0.8492 -26.52665,-4.0043 -1.59491,-3.1552 5.02205,-15.0154 16.84133,-22.8798 11.81942,-7.8643 18.29714,-17.9013 13.85836,-23.8842 -4.43886,-5.9827 -54.92421,-9.5087 -60.28852,-14.0577 -5.3642,-4.549 -39.32337,-27.3766 -39.32337,-27.3766 z"
       id="path5058"
       inkscape:connector-curvature="0"
       sodipodi:nodetypes="cscsssssscssssccscccc" />
    <path
       style="fill:#ffffff;stroke:none"
       d="m 1986.1697,2308.6767 c -0.1096,-39.1674 41.3094,-96.8999 131.6072,-92.8219 114.6729,5.1788 139.0459,40.2274 140.0434,89.5136 1.691,83.5466 -59.7431,104.6931 -151.279,104.3145 -106.2708,-0.4395 -119.2869,-61.0566 -120.3716,-101.0062 z"
       id="path3280-8"
       inkscape:connector-curvature="0"
       sodipodi:nodetypes="csssc" />
    <path
       style="color:#000000;display:inline;overflow:visible;visibility:visible;fill:#ffffff;fill-opacity:1;fill-rule:nonzero;stroke:none;stroke-width:1px;marker:none;enable-background:accumulate"
       d="m 2114.3141,2514.2406 c 14.2538,-10.9964 29.2494,-22.2742 38.0444,-38.39 2.4037,-4.6343 4.5686,-9.597 5.2999,-14.7679 -0.4379,-5.5474 -4.9724,-9.7458 -10.0301,-11.4235 -7.1343,-2.9342 -15.8493,-3.0529 -21.5082,-8.8625 -4.0169,-4.3289 -2.8198,-10.5378 -2.276,-15.8307 1.6508,-13.4639 5.1349,-26.783 4.629,-40.4411 0.4302,-15.4146 -0.2355,-31.6652 -7.7317,-45.5309 -3.058,-5.4366 -7.0173,-10.6962 -12.7384,-13.5146 -14.3488,-7.8958 -33.4384,-7.6739 -46.7972,2.2087 -7.9232,7.1128 -9.3323,21.0317 -1.4609,28.6971 4.0945,4.1085 10.3014,4.7898 15.7505,3.7773 10.3645,0.011 20.0973,6.0565 25.5175,14.7518 4.5906,7.103 6.9036,15.5737 6.9911,24.004 3.1462,11.4329 -1.9449,22.721 -4.3637,33.7526 -1.03,5.0564 -1.783,10.5048 -0.2812,15.5104 3.8395,6.6283 11.9608,8.3156 18.996,8.9502 7.2388,0.8414 15.7307,0.9995 20.8762,6.9773 4.1293,3.6675 0.5936,9.1252 -0.3839,13.4504 -4.9654,13.5159 -14.0889,25.3081 -25.0784,34.4841 -1.1122,0.796 -2.2811,1.4976 -3.4549,2.1973 z"
       id="path4496"
       inkscape:connector-curvature="0" />
    <text
       xml:space="preserve"
       style="font-style:normal;font-variant:normal;font-weight:normal;font-stretch:normal;font-size:9.79592609px;line-height:125%;font-family:Lavi;-inkscape-font-specification:Lavi;text-align:center;letter-spacing:0px;word-spacing:0px;text-anchor:middle;opacity:1;fill:#000000;fill-opacity:1;stroke:none"
       x="1232.4392"
       y="3440.9868"
       id="text4246-42-8"
       sodipodi:linespacing="125%"><tspan
         sodipodi:role="line"
         style="font-size:36.73472214px;fill:#000000"
         x="1232.4392"
         y="3440.9868"
         id="tspan4252-9-8" /></text>
    <path
       style="color:#000000;display:inline;overflow:visible;visibility:visible;fill:#ffffff;fill-opacity:1;fill-rule:nonzero;stroke:none;stroke-width:1px;marker:none;enable-background:accumulate"
       d="m 461.74273,2034.6 c 90.56506,-82.1404 518.11435,-61.8359 564.49807,-0.1538 46.3837,61.6821 72.8611,212.9023 -7.6804,262.6461 -80.54143,49.7433 -542.56284,69.6409 -582.87011,-3.9795 C 395.38311,2219.4921 371.17755,2116.74 461.74273,2034.6 Z"
       id="path4008-8"
       inkscape:connector-curvature="0"
       sodipodi:nodetypes="zsssz" />
  </g>
  <g
     inkscape:groupmode="layer"
     id="layer1"
     inkscape:label="txt"
     style="opacity:1">
    <text
       xml:space="preserve"
       style="font-style:normal;font-variant:normal;font-weight:normal;font-stretch:normal;font-size:51.64495087px;line-height:125%;font-family:Lavi;-inkscape-font-specification:Lavi;text-align:center;letter-spacing:0px;word-spacing:0px;text-anchor:middle;fill:#ffffff;fill-opacity:1;stroke:none"
       x="368.0184"
       y="728.71765"
       id="text4180"
       sodipodi:linespacing="125%"
       transform="scale(0.99830099,1.0017019)"><tspan
         sodipodi:role="line"
         id="tspan4182"
         x="368.0184"
         y="728.71765"
         style="font-style:normal;font-variant:normal;font-weight:normal;font-stretch:normal;font-size:50.4467392px;font-family:'Drukaatie burti';-inkscape-font-specification:'Drukaatie burti'">GRAVITAS SPIRALIS !</tspan></text>
    <text
       xml:space="preserve"
       style="font-style:normal;font-variant:normal;font-weight:normal;font-stretch:normal;font-size:51.64495087px;line-height:125%;font-family:Lavi;-inkscape-font-specification:Lavi;text-align:center;letter-spacing:0px;word-spacing:0px;text-anchor:middle;fill:#ffffff;fill-opacity:1;stroke:none"
       x="1915.5634"
       y="560.59735"
       id="text4180-1"
       sodipodi:linespacing="125%"
       transform="scale(0.99830099,1.0017019)"><tspan
         sodipodi:role="line"
         id="tspan4182-2"
         x="1915.5634"
         y="560.59735"
         style="font-style:normal;font-variant:normal;font-weight:normal;font-stretch:normal;font-size:50.4467392px;font-family:'Drukaatie burti';-inkscape-font-specification:'Drukaatie burti'">BRASERO INTENSIA !</tspan></text>
    <text
       xml:space="preserve"
       style="font-style:normal;font-variant:normal;font-weight:normal;font-stretch:normal;font-size:17.80657005px;line-height:125%;font-family:Lavi;-inkscape-font-specification:Lavi;letter-spacing:0px;word-spacing:0px;fill:#000000;fill-opacity:1;stroke:none;stroke-width:0.99236238;stroke-miterlimit:4;stroke-dasharray:none;stroke-opacity:1;filter:url(#filter4375-4-1-1-1-9)"
       x="787.65729"
       y="1584.5073"
       id="text4580"
       sodipodi:linespacing="125%"
       transform="matrix(1.1015253,-0.87314706,0.0870639,1.7091559,1073.6546,-517.49001)"><tspan
         sodipodi:role="line"
         id="tspan4582"
         x="787.65729"
         y="1584.5073"
         style="font-size:70px;fill:#ffffff;stroke:none">Plouf<tspan
   style="font-size:80.40014648px;stroke:none"
   id="tspan4617">!</tspan></tspan></text>
    <text
       xml:space="preserve"
       style="font-size:12px;font-style:normal;font-variant:normal;font-weight:normal;font-stretch:normal;text-align:center;line-height:125%;letter-spacing:0px;word-spacing:0px;text-anchor:middle;fill:#000000;fill-opacity:1;stroke:none;font-family:Lavi;-inkscape-font-specification:Lavi"
       x="403.34961"
       y="1717.0811"
       id="text4246-2"
       sodipodi:linespacing="125%"><tspan
         sodipodi:role="line"
         style="font-size:45px"
         x="403.34961"
         y="1717.0811"
         id="tspan3628">Aquestes jovenetes,</tspan><tspan
         sodipodi:role="line"
         style="font-size:45px"
         x="403.34961"
         y="1773.3311"
         id="tspan3063">sempre volent atacar</tspan><tspan
         sodipodi:role="line"
         style="font-size:45px"
         x="403.34961"
         y="1829.5811"
         id="tspan3065">tothom!</tspan></text>
    <text
       xml:space="preserve"
       style="font-size:10.80389404px;font-style:normal;font-variant:normal;font-weight:normal;font-stretch:normal;text-align:center;line-height:125%;letter-spacing:0px;word-spacing:0px;text-anchor:middle;fill:#000000;fill-opacity:1;stroke:none;font-family:Lavi;-inkscape-font-specification:Lavi"
       x="2122.3184"
       y="2304.2585"
       id="text4246-2-0"
       sodipodi:linespacing="125%"><tspan
         sodipodi:role="line"
         style="font-size:36.0129776px"
         x="2122.3184"
         y="2304.2585"
         id="tspan3664">Però què</tspan><tspan
         sodipodi:role="line"
         style="font-size:36.0129776px"
         x="2122.3184"
         y="2349.2747"
         id="tspan3092">s'empatolla!</tspan></text>
    <text
       xml:space="preserve"
       style="font-size:9.72782516px;font-style:normal;font-variant:normal;font-weight:normal;font-stretch:normal;text-align:center;line-height:125%;letter-spacing:0px;word-spacing:0px;text-anchor:middle;opacity:0.85500004;fill:#000000;fill-opacity:1;stroke:none;display:inline;font-family:Arial;-inkscape-font-specification:Arial"
       x="1240.6475"
       y="3381.4036"
       id="text4229"
       sodipodi:linespacing="125%"><tspan
         sodipodi:role="line"
         x="1240.6475"
         y="3381.4036"
         style="font-size:28.75px;font-style:normal;font-variant:normal;font-weight:normal;font-stretch:normal;fill:#000000;font-family:Lavi;-inkscape-font-specification:Lavi"
         id="tspan4169">Llicència: Creative Commons Attribution 4.0, Software: Krita, Inkscape en Ubuntu</tspan></text>
    <text
       xml:space="preserve"
       style="font-size:28.75px;font-style:normal;font-variant:normal;font-weight:normal;font-stretch:normal;text-indent:0;text-align:center;text-decoration:none;line-height:125%;letter-spacing:0px;word-spacing:0px;text-transform:none;direction:ltr;block-progression:tb;writing-mode:lr-tb;text-anchor:middle;baseline-shift:baseline;opacity:0.85500004;color:#000000;fill:#000000;fill-opacity:1;fill-rule:nonzero;stroke:none;visibility:visible;display:inline;overflow:visible;enable-background:accumulate;font-family:Lavi;-inkscape-font-specification:Lavi"
       x="1242.353"
       y="3340.7739"
       id="text4246-42-4"
       sodipodi:linespacing="125%"><tspan
         sodipodi:role="line"
         style="font-size:28.75px;font-style:normal;font-variant:normal;font-weight:normal;font-stretch:normal;text-indent:0;text-align:center;text-decoration:none;line-height:125%;letter-spacing:0px;word-spacing:0px;text-transform:none;direction:ltr;block-progression:tb;writing-mode:lr-tb;text-anchor:middle;baseline-shift:baseline;color:#000000;fill:#000000;fill-opacity:1;fill-rule:nonzero;stroke:none;visibility:visible;display:inline;overflow:visible;enable-background:accumulate;font-family:Lavi;-inkscape-font-specification:Lavi"
         x="1242.353"
         y="3340.7739"
         id="tspan4252-9-9">Basat en l'Univers d'Hereva creat per David Revoy amb contribucions de Craig Maloney. Correccions per Willem Sonke, Moini, Hali, Cgand i Alex Gryson.</tspan></text>
    <text
       xml:space="preserve"
       style="font-size:63.55184174px;font-style:normal;font-variant:normal;font-weight:normal;font-stretch:normal;text-align:center;line-height:125%;letter-spacing:0px;word-spacing:0px;text-anchor:middle;fill:#000000;fill-opacity:1;stroke:#000000;stroke-width:3.82200003;stroke-miterlimit:4;stroke-opacity:1;stroke-dasharray:none;font-family:Lavi;-inkscape-font-specification:Lavi"
       x="2028.7821"
       y="2443.6147"
       id="text4213"
       sodipodi:linespacing="125%"
       transform="matrix(0.75304346,0,-0.11971288,1.3279446,0,0)"><tspan
         sodipodi:role="line"
         id="tspan4215"
         x="2028.7821"
         y="2443.6147"
         style="fill:#000000;stroke:#000000;stroke-width:3.82200003;stroke-miterlimit:4;stroke-dasharray:none">- FI -</tspan></text>
    <text
       xml:space="preserve"
       style="font-size:9.79592609px;font-style:normal;font-variant:normal;font-weight:normal;font-stretch:normal;text-align:center;line-height:125%;letter-spacing:0px;word-spacing:0px;text-anchor:middle;fill:#000000;fill-opacity:1;stroke:none;font-family:Lavi;-inkscape-font-specification:Lavi"
       x="1240.0964"
       y="3300.3928"
       id="text4246-42"
       sodipodi:linespacing="125%"><tspan
         sodipodi:role="line"
         style="font-size:36.73472214px;fill:#000000"
         x="1240.0964"
         y="3300.3928"
         id="tspan4252-9">04/2016 - www.peppercarrot.com - Dibuix i guió : David Revoy - Traducció al català: Juan José Segura</tspan></text>
    <text
       xml:space="preserve"
       style="font-size:12px;font-style:normal;font-variant:normal;font-weight:normal;font-stretch:normal;text-align:center;line-height:125%;letter-spacing:0px;word-spacing:0px;text-anchor:middle;fill:#000000;fill-opacity:1;stroke:none;font-family:Lavi;-inkscape-font-specification:Lavi"
       x="745.25122"
       y="2073.8423"
       id="text4246-2-7-2"
       sodipodi:linespacing="125%"><tspan
         sodipodi:role="line"
         style="font-size:45px"
         x="745.25122"
         y="2073.8423"
         id="tspan3634">Quan res rutlla com una</tspan><tspan
         sodipodi:role="line"
         style="font-size:45px"
         x="745.25122"
         y="2130.0923"
         id="tspan3076">voldria... no hi ha res com</tspan><tspan
         sodipodi:role="line"
         style="font-size:45px"
         x="745.25122"
         y="2186.3423"
         id="tspan3641">un bon bany! És el millor</tspan><tspan
         sodipodi:role="line"
         style="font-size:45px"
         x="745.25122"
         y="2242.5923"
         id="tspan3082">pel nostre reumatisme i</tspan><tspan
         sodipodi:role="line"
         style="font-size:45px"
         x="745.25122"
         y="2298.8423"
         id="tspan3080">pels vostres nervis!</tspan><tspan
         sodipodi:role="line"
         style="font-size:45px"
         x="745.25122"
         y="2355.0923"
         id="tspan4245-8" /><tspan
         sodipodi:role="line"
         style="font-size:45px"
         x="745.25122"
         y="2411.3423"
         id="tspan4241-5" /></text>
    <text
       xml:space="preserve"
       style="font-size:12px;font-style:normal;font-variant:normal;font-weight:normal;font-stretch:normal;text-align:center;line-height:125%;letter-spacing:0px;word-spacing:0px;text-anchor:middle;fill:#000000;fill-opacity:1;stroke:none;font-family:Lavi;-inkscape-font-specification:Lavi"
       x="511.79395"
       y="1920.0356"
       id="text4246-2-5-1-3"
       sodipodi:linespacing="125%"><tspan
         sodipodi:role="line"
         style="font-size:45px"
         x="511.79395"
         y="1920.0356"
         id="tspan4346">La lliçó del Savi</tspan><tspan
         sodipodi:role="line"
         style="font-size:45px"
         x="511.79395"
         y="1976.2856"
         id="tspan3072">és imitar-lo!</tspan></text>
    <text
       xml:space="preserve"
       style="font-size:40px;font-style:normal;font-weight:normal;line-height:125%;letter-spacing:0px;word-spacing:0px;fill:#000000;fill-opacity:1;stroke:none;font-family:Sans"
       x="2762.5"
       y="2540.5"
       id="text3656"
       sodipodi:linespacing="125%"><tspan
         sodipodi:role="line"
         id="tspan3658"
         x="2762.5"
         y="2540.5">œ</tspan></text>
  </g>
</svg>
