<?xml version="1.0" encoding="UTF-8" standalone="no"?>
<!-- Created with Inkscape (http://www.inkscape.org/) -->

<svg
   xmlns:dc="http://purl.org/dc/elements/1.1/"
   xmlns:cc="http://creativecommons.org/ns#"
   xmlns:rdf="http://www.w3.org/1999/02/22-rdf-syntax-ns#"
   xmlns:svg="http://www.w3.org/2000/svg"
   xmlns="http://www.w3.org/2000/svg"
   xmlns:xlink="http://www.w3.org/1999/xlink"
   xmlns:sodipodi="http://sodipodi.sourceforge.net/DTD/sodipodi-0.dtd"
   xmlns:inkscape="http://www.inkscape.org/namespaces/inkscape"
   id="svg2"
   version="1.1"
   inkscape:version="0.91 r13725"
   width="2481"
   height="3503"
   sodipodi:docname="Pepper-and-Carrot_by-David-Revoy_E17P05.svg">
  <metadata
     id="metadata8">
    <rdf:RDF>
      <cc:Work
         rdf:about="">
        <dc:format>image/svg+xml</dc:format>
        <dc:type
           rdf:resource="http://purl.org/dc/dcmitype/StillImage" />
        <dc:title />
      </cc:Work>
    </rdf:RDF>
  </metadata>
  <defs
     id="defs6">
    <filter
       inkscape:label="Ripple"
       inkscape:menu="Distort"
       inkscape:menu-tooltip="Horizontal rippling of edges"
       style="color-interpolation-filters:sRGB;"
       id="filter4163">
      <feTurbulence
         numOctaves="1"
         baseFrequency="0.014 0.017999999999999999"
         id="feTurbulence4165" />
      <feColorMatrix
         values="2 0 0 0 0 0 0 0 0 0 0 0 0 0 0 0 0 0 0.5 0.5"
         result="result91"
         id="feColorMatrix4167" />
      <feDisplacementMap
         yChannelSelector="A"
         xChannelSelector="R"
         scale="14.3"
         in="SourceGraphic"
         in2="result91"
         id="feDisplacementMap4169" />
    </filter>
  </defs>
  <sodipodi:namedview
     pagecolor="#ffffff"
     bordercolor="#666666"
     borderopacity="1"
     objecttolerance="10"
     gridtolerance="10"
     guidetolerance="10"
     inkscape:pageopacity="0"
     inkscape:pageshadow="2"
     inkscape:window-width="1366"
     inkscape:window-height="715"
     id="namedview4"
     showgrid="false"
     inkscape:zoom="0.50383782"
     inkscape:cx="1292.0767"
     inkscape:cy="621.18691"
     inkscape:window-x="-8"
     inkscape:window-y="-8"
     inkscape:window-maximized="1"
     inkscape:current-layer="layer1" />
  <g
     inkscape:groupmode="layer"
     id="layer2"
     inkscape:label="artwork"
     sodipodi:insensitive="true">
    <image
       sodipodi:absref="D:\GitHub\peppercarrot_ep17_translation\cn\..\gfx_Pepper-and-Carrot_by-David-Revoy_E17P05.png"
       xlink:href="..\gfx_Pepper-and-Carrot_by-David-Revoy_E17P05.png"
       y="0"
       x="0"
       id="image10"
       height="3503"
       width="2481" />
  </g>
  <g
     inkscape:groupmode="layer"
     id="layer3"
     inkscape:label="speechbubbles"
     style="opacity:1">
    <path
       style="fill:#ffffff;stroke:none"
       d="m 1713.2618,1095.7904 c -15.2519,-116.27044 -80.4136,-166.98207 -45.8053,-169.51657 26.8397,-1.96558 217.0636,0.53088 290.2075,0.53088 73.144,0 255.6064,1.23111 285.4969,8.12396 85.0983,19.6239 115.6146,56.86648 117.9739,105.60943 2.3596,48.7428 -11.068,87.2014 -53.5385,116.9888 -42.4707,29.7875 -292.6352,44.5104 -309.1517,41.8024 -16.5161,-2.7079 -387.1786,6.9244 -401.3353,-1.1996 -14.1569,-8.1238 118.512,-42.7646 116.1525,-102.3393 z"
       id="path3278"
       inkscape:connector-curvature="0"
       sodipodi:nodetypes="csssssssc" />
    <path
       style="fill:#ffffff;stroke:none"
       d="m 1884.008,1338.6573 c 89.8965,-16.1397 129.811,-146.0647 92.9439,-194.4569 -55.0179,-72.2175 44.7436,-42.6509 44.7436,-42.6509 21.8217,14.6506 33.8742,203.1448 -137.6875,237.1078 z"
       id="path3067"
       inkscape:connector-curvature="0"
       sodipodi:nodetypes="cscc" />
    <path
       style="color:#000000;display:inline;overflow:visible;visibility:visible;fill:#ffffff;fill-opacity:1;fill-rule:nonzero;stroke:none;stroke-width:1px;marker:none;enable-background:accumulate"
       d="m 762.8466,2467.8158 c 38.72343,-32.4823 302.509,-40.6051 374.2744,44.8808 71.7654,85.4859 -3.6934,168.2976 -61.7594,190.4794 -58.0659,22.1819 -216.47723,34.8743 -279.60535,2.0463 -63.12801,-32.8279 -108.16005,-75.8627 -93.96026,-150.9599 5.79549,-30.6502 22.32696,-53.964 61.05061,-86.4466 z"
       id="path4040"
       inkscape:connector-curvature="0"
       sodipodi:nodetypes="zssssz" />
    <path
       style="fill:#ffffff;stroke:none"
       d="m 1141.1877,2779.5367 c -71.8604,55.1445 -151.82289,-51.1501 -152.54949,-133.1711 -1.084,-122.4026 -56.8594,-37.4571 -56.8594,-37.4571 -7.25091,33.4378 70.53289,272.4536 209.40889,170.6282 z"
       id="path3067-2"
       inkscape:connector-curvature="0"
       sodipodi:nodetypes="cscc" />
    <path
       style="fill:#ffffff;fill-rule:evenodd;stroke:none;stroke-width:1px;stroke-linecap:butt;stroke-linejoin:miter;stroke-opacity:1"
       d="m 719.75852,1813.6962 c 10.97356,-44.7285 40.52426,-78.6653 72.68562,-101.3202 15.30542,-10.9375 32.79976,-18.9528 50.70169,-16.8445 17.78452,1.2599 35.15561,8.7809 53.13686,6.1685 21.8647,-0.8628 44.11326,-4.6273 65.72693,0.7519 19.21372,5.8694 39.00938,8.9093 58.83658,9.0856 13.9876,-3.7257 26.787,6.2041 39.2787,12.1434 11.2143,6.4153 22.6688,13.146 32.0882,23.0696 8.6781,13.9305 19.0691,26.0499 27.8486,39.8563 5.7445,7.5479 5.1925,17.9737 4.9279,27.6224 -0.7461,19.7587 -2.0096,39.8294 -6.6991,58.8652 -2.8064,12.0851 -13.1791,16.0845 -21.1493,21.6379 -18.8588,11.7231 -38.8843,20.6132 -56.8827,34.4089 -17.8312,7.0639 -36.7807,3.7598 -55.06747,2.6923 -15.32303,-2.1028 -30.73718,-5.0351 -46.1919,-2.5897 -19.67018,1.7894 -39.28063,6.4228 -59.02119,5.8293 -24.72949,-4.0726 -48.41362,-14.1002 -72.37859,-22.1441 -21.50091,-7.09 -41.09723,-20.4221 -59.90039,-34.684 -10.04395,-8.0989 -20.67666,-17.5125 -24.22133,-32.4377 -2.90575,-10.2773 -3.59042,-21.2817 -3.71911,-32.1111 z"
       id="path4365"
       inkscape:connector-curvature="0" />
    <path
       style="fill:#ffffff;fill-rule:evenodd;stroke:none;stroke-width:1px;stroke-linecap:butt;stroke-linejoin:miter;stroke-opacity:1"
       d="m 780.60566,2023.8489 c 12.13678,-45.3435 44.81991,-79.7469 80.39043,-102.7132 16.92782,-11.0879 36.2766,-19.2135 56.07614,-17.0761 19.66974,1.2772 38.8822,8.9016 58.76953,6.2533 24.18234,-0.8747 48.78924,-4.691 72.69404,0.7622 21.2504,5.9501 43.1444,9.0317 65.0734,9.2105 15.4702,-3.7769 29.6265,6.2894 43.4423,12.3104 12.403,6.5035 25.0717,13.3268 35.4896,23.3868 9.5979,14.1219 21.0905,26.408 30.8005,40.4042 6.3535,7.6517 5.743,18.2208 5.4504,28.0022 -0.8252,20.0303 -2.2226,40.377 -7.4092,59.6745 -3.1039,12.2513 -14.5762,16.3057 -23.3913,21.9354 -20.8578,11.8843 -43.0061,20.8967 -62.9124,34.8819 -19.7212,7.1611 -40.6795,3.8116 -60.9046,2.7293 -16.9473,-2.1317 -33.9955,-5.1042 -51.0883,-2.6252 -21.7553,1.8141 -43.44442,6.5111 -65.27757,5.9095 -27.35084,-4.1286 -53.54549,-14.2941 -80.05085,-22.4486 -23.78005,-7.1874 -45.45361,-20.703 -66.24994,-35.1609 -11.10863,-8.2103 -22.86843,-17.7533 -26.78884,-32.8836 -3.21376,-10.4186 -3.97101,-21.5744 -4.11334,-32.5526 z"
       id="path4365-3"
       inkscape:connector-curvature="0" />
    <g
       id="g5381"
       transform="matrix(0.78733775,0,0,0.96949033,-492.80698,-1135.7073)"
       style="fill:#ffffff">
      <path
         inkscape:connector-curvature="0"
         id="path5263"
         d="m 1225.2771,3157.962 c -4.7051,-6.6655 -4.7051,-15.2915 -4.7051,-16.8598 0,-1.5684 0.3921,-7.4497 0.3921,-7.4497 l -3.1367,-1.1763 2.7446,-5.0971 -3.1367,0.3921 c 0,0 7.4497,-9.0181 9.018,-11.7627 1.5684,-2.7446 4.313,-9.018 4.313,-9.018 0,0 14.5073,-1.9605 17.644,-3.1368 3.1367,-1.1762 12.5468,-11.3705 12.5468,-11.3705 0,0 11.3706,5.4892 15.6836,6.2734 4.3129,0.7842 24.3095,1.9604 27.8383,0 3.5288,-1.9605 7.0576,-4.7051 7.0576,-4.7051 0,0 9.018,-0.7841 11.3705,-1.9604 2.3526,-1.1763 6.6655,-3.9209 6.6655,-3.9209 0,0 7.4497,0.7842 10.5864,0.3921 3.1367,-0.3921 17.644,0 19.2124,0 1.5683,0 12.5468,6.6655 12.5468,6.6655 l 7.0576,6.6655 c 0,0 5.8813,-0.3921 8.626,-1.1763 2.7446,-0.7841 5.0971,3.1367 5.0971,3.1367 0,0 10.5864,23.9175 12.1548,28.6225 1.5683,4.7051 2.3525,14.1152 2.3525,14.1152 0,0 -4.313,7.4497 -6.6655,10.5864 -2.3525,3.1367 -9.018,10.5864 -12.5468,13.331 -3.5288,2.7446 -7.8418,7.0576 -12.1548,4.313 -4.313,-2.7446 -8.6259,-2.3525 -10.1943,-0.3921 -1.5684,1.9604 -12.9389,15.6836 -16.8598,14.1152 -3.9209,-1.5684 -17.2519,-3.9209 -21.1728,-7.4497 -3.9209,-3.5288 -10.1943,4.7051 -12.9389,2.3525 -2.7446,-2.3525 -6.6655,-6.6655 -9.4102,-6.6655 -2.7446,0 -35.68,9.8023 -39.6009,8.2339 -3.9209,-1.5684 -24.7016,-14.5073 -27.0541,-16.0756 -2.3526,-1.5684 -8.2339,-10.9785 -8.2339,-10.9785 z"
         style="color:#000000;display:inline;overflow:visible;visibility:visible;fill:#ffffff;fill-opacity:1;fill-rule:nonzero;stroke:none;stroke-width:1px;marker:none;enable-background:accumulate" />
      <path
         inkscape:connector-curvature="0"
         id="path5271"
         d="m 1236.8125,3095.4062 a 2.20022,2.20022 0 0 0 -0.1563,0.031 l -9.875,1.375 a 2.20022,2.20022 0 0 0 -1.4374,0.8125 l -12.9688,16.3438 a 2.2133161,2.2133161 0 1 0 3.4688,2.75 l 12.375,-15.6876 9.0312,-1.25 a 2.20022,2.20022 0 0 0 -0.4375,-4.375 z"
         style="color:#000000;font-style:normal;font-variant:normal;font-weight:normal;font-stretch:normal;font-size:medium;line-height:normal;font-family:Sans;-inkscape-font-specification:Sans;text-indent:0;text-align:start;text-decoration:none;text-decoration-line:none;letter-spacing:normal;word-spacing:normal;text-transform:none;direction:ltr;block-progression:tb;writing-mode:lr-tb;baseline-shift:baseline;text-anchor:start;display:inline;overflow:visible;visibility:visible;fill:#ffffff;fill-opacity:1;fill-rule:nonzero;stroke:none;stroke-width:1px;marker:none;enable-background:accumulate" />
      <path
         inkscape:connector-curvature="0"
         id="path5273"
         d="m 1252.1562,3077.3125 a 2.20022,2.20022 0 0 0 -1.625,0.9063 l -7.8124,10.5312 -11.3438,-5.0625 a 2.20022,2.20022 0 0 0 -2.3125,0.3125 l -14.6563,12.2812 a 2.20022,2.20022 0 1 0 2.8126,3.375 l 13.5937,-11.4062 11.7187,5.25 a 2.20022,2.20022 0 0 0 2.6563,-0.7188 l 8.875,-11.9374 a 2.20022,2.20022 0 0 0 -1.9063,-3.5313 z"
         style="color:#000000;font-style:normal;font-variant:normal;font-weight:normal;font-stretch:normal;font-size:medium;line-height:normal;font-family:Sans;-inkscape-font-specification:Sans;text-indent:0;text-align:start;text-decoration:none;text-decoration-line:none;letter-spacing:normal;word-spacing:normal;text-transform:none;direction:ltr;block-progression:tb;writing-mode:lr-tb;baseline-shift:baseline;text-anchor:start;display:inline;overflow:visible;visibility:visible;fill:#ffffff;fill-opacity:1;fill-rule:nonzero;stroke:none;stroke-width:1px;marker:none;enable-background:accumulate" />
      <path
         inkscape:connector-curvature="0"
         id="path5275"
         d="m 1267.9375,3079.7188 a 2.20022,2.20022 0 0 0 -1,0.2812 l -10.2187,5.4375 a 2.20022,2.20022 0 1 0 2.0624,3.875 l 8.8126,-4.6563 6.3437,6.3438 a 2.20022,2.20022 0 0 0 1.2187,0.625 l 2.4063,0.3125 a 2.20022,2.20022 0 1 0 0.625,-4.3437 l -1.6875,-0.25 -6.9688,-6.9688 a 2.20022,2.20022 0 0 0 -1.5937,-0.6562 z"
         style="color:#000000;font-style:normal;font-variant:normal;font-weight:normal;font-stretch:normal;font-size:medium;line-height:normal;font-family:Sans;-inkscape-font-specification:Sans;text-indent:0;text-align:start;text-decoration:none;text-decoration-line:none;letter-spacing:normal;word-spacing:normal;text-transform:none;direction:ltr;block-progression:tb;writing-mode:lr-tb;baseline-shift:baseline;text-anchor:start;display:inline;overflow:visible;visibility:visible;fill:#ffffff;fill-opacity:1;fill-rule:nonzero;stroke:none;stroke-width:1px;marker:none;enable-background:accumulate" />
      <path
         inkscape:connector-curvature="0"
         id="path5277"
         d="m 1265.2812,3072.9062 a 2.20022,2.20022 0 0 0 -0.25,4.3438 l 14.375,3.8438 4.6876,9.3124 a 2.2010735,2.2010735 0 0 0 3.9374,-1.9687 l -5.125,-10.2187 a 2.20022,2.20022 0 0 0 -1.4062,-1.1563 L 1266.1562,3073 a 2.20022,2.20022 0 0 0 -0.875,-0.094 z"
         style="color:#000000;font-style:normal;font-variant:normal;font-weight:normal;font-stretch:normal;font-size:medium;line-height:normal;font-family:Sans;-inkscape-font-specification:Sans;text-indent:0;text-align:start;text-decoration:none;text-decoration-line:none;letter-spacing:normal;word-spacing:normal;text-transform:none;direction:ltr;block-progression:tb;writing-mode:lr-tb;baseline-shift:baseline;text-anchor:start;display:inline;overflow:visible;visibility:visible;fill:#ffffff;fill-opacity:1;fill-rule:nonzero;stroke:none;stroke-width:1px;marker:none;enable-background:accumulate" />
      <path
         inkscape:connector-curvature="0"
         id="path5279"
         d="m 1343.875,3078.6875 a 2.20022,2.20022 0 0 0 -0.7812,0.2187 l -4.4376,2.0626 a 2.20022,2.20022 0 1 0 1.8438,3.9687 l 4.4375,-2.0313 a 2.20022,2.20022 0 0 0 -1.0625,-4.2187 z"
         style="color:#000000;font-style:normal;font-variant:normal;font-weight:normal;font-stretch:normal;font-size:medium;line-height:normal;font-family:Sans;-inkscape-font-specification:Sans;text-indent:0;text-align:start;text-decoration:none;text-decoration-line:none;letter-spacing:normal;word-spacing:normal;text-transform:none;direction:ltr;block-progression:tb;writing-mode:lr-tb;baseline-shift:baseline;text-anchor:start;display:inline;overflow:visible;visibility:visible;fill:#ffffff;fill-opacity:1;fill-rule:nonzero;stroke:none;stroke-width:1px;marker:none;enable-background:accumulate" />
      <path
         inkscape:connector-curvature="0"
         id="path5281"
         d="m 1353.5625,3079.375 a 2.2031,2.2031 0 1 0 0,4.4062 l 16.5313,0 8.9374,7.9688 a 2.2020313,2.2020313 0 1 0 2.9376,-3.2812 l -9.5626,-8.5313 a 2.20022,2.20022 0 0 0 -1.4687,-0.5625 l -17.375,0 z"
         style="color:#000000;font-style:normal;font-variant:normal;font-weight:normal;font-stretch:normal;font-size:medium;line-height:normal;font-family:Sans;-inkscape-font-specification:Sans;text-indent:0;text-align:start;text-decoration:none;text-decoration-line:none;letter-spacing:normal;word-spacing:normal;text-transform:none;direction:ltr;block-progression:tb;writing-mode:lr-tb;baseline-shift:baseline;text-anchor:start;display:inline;overflow:visible;visibility:visible;fill:#ffffff;fill-opacity:1;fill-rule:nonzero;stroke:none;stroke-width:1px;marker:none;enable-background:accumulate" />
      <path
         inkscape:connector-curvature="0"
         id="path5283"
         d="m 1365,3069.8438 a 2.2036013,2.2036013 0 1 0 0.094,4.4062 l 10,0.3125 4.8124,5.125 a 2.20022,2.20022 0 1 0 3.2188,-3 l -5.4688,-5.8125 a 2.20022,2.20022 0 0 0 -1.5312,-0.6875 l -10.9062,-0.3437 a 2.20022,2.20022 0 0 0 -0.2188,0 z"
         style="color:#000000;font-style:normal;font-variant:normal;font-weight:normal;font-stretch:normal;font-size:medium;line-height:normal;font-family:Sans;-inkscape-font-specification:Sans;text-indent:0;text-align:start;text-decoration:none;text-decoration-line:none;letter-spacing:normal;word-spacing:normal;text-transform:none;direction:ltr;block-progression:tb;writing-mode:lr-tb;baseline-shift:baseline;text-anchor:start;display:inline;overflow:visible;visibility:visible;fill:#ffffff;fill-opacity:1;fill-rule:nonzero;stroke:none;stroke-width:1px;marker:none;enable-background:accumulate" />
      <path
         inkscape:connector-curvature="0"
         id="path5285"
         d="m 1397.4375,3095.0625 a 2.20022,2.20022 0 0 0 -0.25,4.375 l 15.5,2.5 2.125,12.0937 a 2.2066945,2.2066945 0 0 0 4.3437,-0.7812 l -2.4062,-13.625 a 2.20022,2.20022 0 0 0 -1.8125,-1.7812 l -17.0625,-2.75 a 2.20022,2.20022 0 0 0 -0.4375,-0.031 z"
         style="color:#000000;font-style:normal;font-variant:normal;font-weight:normal;font-stretch:normal;font-size:medium;line-height:normal;font-family:Sans;-inkscape-font-specification:Sans;text-indent:0;text-align:start;text-decoration:none;text-decoration-line:none;letter-spacing:normal;word-spacing:normal;text-transform:none;direction:ltr;block-progression:tb;writing-mode:lr-tb;baseline-shift:baseline;text-anchor:start;display:inline;overflow:visible;visibility:visible;fill:#ffffff;fill-opacity:1;fill-rule:nonzero;stroke:none;stroke-width:1px;marker:none;enable-background:accumulate" />
      <path
         inkscape:connector-curvature="0"
         id="path5287"
         d="m 1397.875,3101.1875 a 2.20022,2.20022 0 0 0 -1.0312,4.1563 l 3.5937,1.9062 5.875,22.9688 a 2.2094076,2.2094076 0 1 0 4.2813,-1.0938 l -6.1563,-23.875 a 2.20022,2.20022 0 0 0 -1.0937,-1.375 l -4.4063,-2.4062 a 2.20022,2.20022 0 0 0 -1.0625,-0.2813 z"
         style="color:#000000;font-style:normal;font-variant:normal;font-weight:normal;font-stretch:normal;font-size:medium;line-height:normal;font-family:Sans;-inkscape-font-specification:Sans;text-indent:0;text-align:start;text-decoration:none;text-decoration-line:none;letter-spacing:normal;word-spacing:normal;text-transform:none;direction:ltr;block-progression:tb;writing-mode:lr-tb;baseline-shift:baseline;text-anchor:start;display:inline;overflow:visible;visibility:visible;fill:#ffffff;fill-opacity:1;fill-rule:nonzero;stroke:none;stroke-width:1px;marker:none;enable-background:accumulate" />
      <path
         inkscape:connector-curvature="0"
         id="path5289"
         d="m 1412.125,3144.4688 a 2.20022,2.20022 0 0 0 -2.0312,1.625 l -2.9688,10.1874 -3.875,5.5313 a 2.20022,2.20022 0 1 0 3.5938,2.5313 l 4.0937,-5.7813 a 2.20022,2.20022 0 0 0 0.3125,-0.6563 l 3.0625,-10.5937 a 2.20022,2.20022 0 0 0 -2.1875,-2.8437 z"
         style="color:#000000;font-style:normal;font-variant:normal;font-weight:normal;font-stretch:normal;font-size:medium;line-height:normal;font-family:Sans;-inkscape-font-specification:Sans;text-indent:0;text-align:start;text-decoration:none;text-decoration-line:none;letter-spacing:normal;word-spacing:normal;text-transform:none;direction:ltr;block-progression:tb;writing-mode:lr-tb;baseline-shift:baseline;text-anchor:start;display:inline;overflow:visible;visibility:visible;fill:#ffffff;fill-opacity:1;fill-rule:nonzero;stroke:none;stroke-width:1px;marker:none;enable-background:accumulate" />
      <path
         inkscape:connector-curvature="0"
         id="path5291"
         d="m 1417.4062,3142.0938 a 2.20022,2.20022 0 0 0 -1.9374,2 l -1,9.5624 -3.2813,7.9063 a 2.20022,2.20022 0 1 0 4.0625,1.6875 l 3.4062,-8.1875 a 2.20022,2.20022 0 0 0 0.1563,-0.625 l 1.0313,-9.875 a 2.20022,2.20022 0 0 0 -2.4376,-2.4687 z"
         style="color:#000000;font-style:normal;font-variant:normal;font-weight:normal;font-stretch:normal;font-size:medium;line-height:normal;font-family:Sans;-inkscape-font-specification:Sans;text-indent:0;text-align:start;text-decoration:none;text-decoration-line:none;letter-spacing:normal;word-spacing:normal;text-transform:none;direction:ltr;block-progression:tb;writing-mode:lr-tb;baseline-shift:baseline;text-anchor:start;display:inline;overflow:visible;visibility:visible;fill:#ffffff;fill-opacity:1;fill-rule:nonzero;stroke:none;stroke-width:1px;marker:none;enable-background:accumulate" />
      <path
         inkscape:connector-curvature="0"
         id="path5293"
         d="m 1390.3125,3173.8125 a 2.20022,2.20022 0 0 0 -1,0.2813 l -7.125,3.875 -7.3437,0.6562 a 2.20022,2.20022 0 1 0 0.375,4.375 l 7.8437,-0.6875 a 2.20022,2.20022 0 0 0 0.875,-0.25 l 7.5,-4.0937 a 2.20022,2.20022 0 0 0 -1.125,-4.1563 z"
         style="color:#000000;font-style:normal;font-variant:normal;font-weight:normal;font-stretch:normal;font-size:medium;line-height:normal;font-family:Sans;-inkscape-font-specification:Sans;text-indent:0;text-align:start;text-decoration:none;text-decoration-line:none;letter-spacing:normal;word-spacing:normal;text-transform:none;direction:ltr;block-progression:tb;writing-mode:lr-tb;baseline-shift:baseline;text-anchor:start;display:inline;overflow:visible;visibility:visible;fill:#ffffff;fill-opacity:1;fill-rule:nonzero;stroke:none;stroke-width:1px;marker:none;enable-background:accumulate" />
      <path
         inkscape:connector-curvature="0"
         id="path5295"
         d="m 1360.875,3185.4062 a 2.20022,2.20022 0 0 0 -1.4688,0.75 l -6.7812,7.6876 -12.2812,-1.1876 -8.0626,-5.5 a 2.205845,2.205845 0 1 0 -2.4687,3.6563 l 8.5313,5.7813 a 2.20022,2.20022 0 0 0 1.0312,0.375 l 13.9688,1.375 a 2.20022,2.20022 0 0 0 1.875,-0.75 l 7.5,-8.5313 a 2.20022,2.20022 0 0 0 -1.8438,-3.6563 z"
         style="color:#000000;font-style:normal;font-variant:normal;font-weight:normal;font-stretch:normal;font-size:medium;line-height:normal;font-family:Sans;-inkscape-font-specification:Sans;text-indent:0;text-align:start;text-decoration:none;text-decoration-line:none;letter-spacing:normal;word-spacing:normal;text-transform:none;direction:ltr;block-progression:tb;writing-mode:lr-tb;baseline-shift:baseline;text-anchor:start;display:inline;overflow:visible;visibility:visible;fill:#ffffff;fill-opacity:1;fill-rule:nonzero;stroke:none;stroke-width:1px;marker:none;enable-background:accumulate" />
      <path
         inkscape:connector-curvature="0"
         id="path5297"
         d="m 1299.0938,3181.6562 a 2.20022,2.20022 0 0 0 -1.125,3.9376 l 11.9374,9.5312 a 2.20022,2.20022 0 0 0 1.5,0.5 l 5.4688,-0.3438 a 2.20022,2.20022 0 0 0 1.5312,-0.75 l 2.375,-2.7187 a 2.2033255,2.2033255 0 1 0 -3.3124,-2.9063 l -1.7813,2.0313 -3.6875,0.2187 -11.2812,-9 a 2.20022,2.20022 0 0 0 -1.625,-0.5 z"
         style="color:#000000;font-style:normal;font-variant:normal;font-weight:normal;font-stretch:normal;font-size:medium;line-height:normal;font-family:Sans;-inkscape-font-specification:Sans;text-indent:0;text-align:start;text-decoration:none;text-decoration-line:none;letter-spacing:normal;word-spacing:normal;text-transform:none;direction:ltr;block-progression:tb;writing-mode:lr-tb;baseline-shift:baseline;text-anchor:start;display:inline;overflow:visible;visibility:visible;fill:#ffffff;fill-opacity:1;fill-rule:nonzero;stroke:none;stroke-width:1px;marker:none;enable-background:accumulate" />
      <path
         inkscape:connector-curvature="0"
         id="path5299"
         d="m 1243.5,3178.25 a 2.20022,2.20022 0 0 0 -0.75,4.1562 l 16.375,8.5313 a 2.20022,2.20022 0 0 0 0.2812,0.125 l 8.875,3.0625 a 2.20022,2.20022 0 0 0 1.5,0 l 8.5938,-3.3438 0.094,-0.031 7.0624,-1.6562 a 2.20022,2.20022 0 1 0 -1,-4.2813 l -7.1874,1.6875 a 2.20022,2.20022 0 0 0 -0.25,0.094 l -8.125,3.125 -7.8126,-2.6876 -0.094,-0.062 -16.2813,-8.4688 a 2.20022,2.20022 0 0 0 -1.2812,-0.25 z"
         style="color:#000000;font-style:normal;font-variant:normal;font-weight:normal;font-stretch:normal;font-size:medium;line-height:normal;font-family:Sans;-inkscape-font-specification:Sans;text-indent:0;text-align:start;text-decoration:none;text-decoration-line:none;letter-spacing:normal;word-spacing:normal;text-transform:none;direction:ltr;block-progression:tb;writing-mode:lr-tb;baseline-shift:baseline;text-anchor:start;display:inline;overflow:visible;visibility:visible;fill:#ffffff;fill-opacity:1;fill-rule:nonzero;stroke:none;stroke-width:1px;marker:none;enable-background:accumulate" />
      <path
         inkscape:connector-curvature="0"
         id="path5301"
         d="m 1229.0625,3164.9375 a 2.20022,2.20022 0 0 0 -1.3125,3.9375 l 3.4062,2.75 a 2.201074,2.201074 0 1 0 2.75,-3.4375 l -3.4062,-2.75 a 2.20022,2.20022 0 0 0 -1.4375,-0.5 z"
         style="color:#000000;font-style:normal;font-variant:normal;font-weight:normal;font-stretch:normal;font-size:medium;line-height:normal;font-family:Sans;-inkscape-font-specification:Sans;text-indent:0;text-align:start;text-decoration:none;text-decoration-line:none;letter-spacing:normal;word-spacing:normal;text-transform:none;direction:ltr;block-progression:tb;writing-mode:lr-tb;baseline-shift:baseline;text-anchor:start;display:inline;overflow:visible;visibility:visible;fill:#ffffff;fill-opacity:1;fill-rule:nonzero;stroke:none;stroke-width:1px;marker:none;enable-background:accumulate" />
    </g>
    <path
       style="color:#000000;display:inline;overflow:visible;visibility:visible;fill:#ffffff;fill-opacity:1;fill-rule:nonzero;stroke:none;stroke-width:1px;marker:none;enable-background:accumulate"
       d="m 479.13908,1907.2289 c -0.78413,0.291 -55.47626,32.5954 -71.9427,36.0878 37.24551,-0.8731 80.17595,-25.0286 80.17595,-25.0286 z"
       id="path5303"
       inkscape:connector-curvature="0" />
    <path
       style="color:#000000;display:inline;overflow:visible;visibility:visible;fill:#ffffff;fill-opacity:1;fill-rule:nonzero;stroke:none;stroke-width:1px;marker:none;enable-background:accumulate"
       d="m 473.3615,2456.2684 c -1.65696,-53.0381 66.27922,-106.0763 178.954,-109.7341 112.67465,-3.6578 208.7796,38.407 218.72142,93.274 9.94193,54.8671 -99.41875,107.9053 -197.18067,109.7341 -97.76191,1.8289 -190.55293,-12.8023 -200.49475,-93.274 z"
       id="path3565"
       inkscape:connector-curvature="0" />
  </g>
  <g
     inkscape:groupmode="layer"
     id="layer1"
     inkscape:label="txt">
    <text
       xml:space="preserve"
       style="font-style:normal;font-variant:normal;font-weight:normal;font-stretch:normal;font-size:12px;line-height:125%;font-family:Lavi;-inkscape-font-specification:Lavi;text-align:center;letter-spacing:0px;word-spacing:0px;text-anchor:middle;fill:#000000;fill-opacity:1;stroke:none"
       x="1998.2058"
       y="1016.4471"
       id="text4246"
       sodipodi:linespacing="125%"><tspan
         sodipodi:role="line"
         style="font-style:normal;font-variant:normal;font-weight:normal;font-stretch:normal;font-size:45px;font-family:'WenQuanYi Micro Hei';-inkscape-font-specification:'WenQuanYi Micro Hei'"
         x="1998.2058"
         y="1016.4471"
         id="tspan4393">&quot;认识可食用植物？</tspan><tspan
         sodipodi:role="line"
         style="font-style:normal;font-variant:normal;font-weight:normal;font-stretch:normal;font-size:45px;font-family:'WenQuanYi Micro Hei';-inkscape-font-specification:'WenQuanYi Micro Hei'"
         x="1998.2058"
         y="1072.697"
         id="tspan3410">那就相当于会做</tspan><tspan
         sodipodi:role="line"
         style="font-style:normal;font-variant:normal;font-weight:normal;font-stretch:normal;font-size:45px;font-family:'WenQuanYi Micro Hei';-inkscape-font-specification:'WenQuanYi Micro Hei'"
         x="1998.2058"
         y="1128.947"
         id="tspan3412">一种治疗饥饿的魔药。&quot;</tspan></text>
    <text
       xml:space="preserve"
       style="font-style:normal;font-variant:normal;font-weight:normal;font-stretch:normal;font-size:12px;line-height:125%;font-family:Lavi;-inkscape-font-specification:Lavi;text-align:center;letter-spacing:0px;word-spacing:0px;text-anchor:middle;fill:#000000;fill-opacity:1;stroke:none"
       x="943.64618"
       y="2579.5776"
       id="text4246-2"
       sodipodi:linespacing="125%"><tspan
         sodipodi:role="line"
         style="font-style:normal;font-variant:normal;font-weight:normal;font-stretch:normal;font-size:45px;font-family:'WenQuanYi Micro Hei';-inkscape-font-specification:'WenQuanYi Micro Hei'"
         x="943.64618"
         y="2579.5776"
         id="tspan4231">她哪怕教我</tspan><tspan
         sodipodi:role="line"
         style="font-style:normal;font-variant:normal;font-weight:normal;font-stretch:normal;font-size:45px;font-family:'WenQuanYi Micro Hei';-inkscape-font-specification:'WenQuanYi Micro Hei'"
         x="943.64618"
         y="2635.8276"
         id="tspan3423">做过一种也好啊！</tspan></text>
    <text
       xml:space="preserve"
       style="font-style:normal;font-variant:normal;font-weight:normal;font-stretch:normal;font-size:12px;line-height:125%;font-family:Lavi;-inkscape-font-specification:Lavi;text-align:center;letter-spacing:0px;word-spacing:0px;text-anchor:middle;fill:#000000;fill-opacity:1;stroke:none"
       x="920.27588"
       y="1798.6576"
       id="text4246-1"
       sodipodi:linespacing="125%"><tspan
         sodipodi:role="line"
         style="font-style:normal;font-variant:normal;font-weight:normal;font-stretch:normal;font-size:45px;font-family:'WenQuanYi Micro Hei';-inkscape-font-specification:'WenQuanYi Micro Hei'"
         x="920.27588"
         y="1798.6576"
         id="tspan4202">和你一样，</tspan><tspan
         sodipodi:role="line"
         style="font-style:normal;font-variant:normal;font-weight:normal;font-stretch:normal;font-size:45px;font-family:'WenQuanYi Micro Hei';-inkscape-font-specification:'WenQuanYi Micro Hei'"
         x="920.27588"
         y="1854.9076"
         id="tspan3394">我也精疲力尽了…</tspan></text>
    <text
       xml:space="preserve"
       style="font-style:normal;font-variant:normal;font-weight:normal;font-stretch:normal;font-size:12px;line-height:125%;font-family:Lavi;-inkscape-font-specification:Lavi;text-align:center;letter-spacing:0px;word-spacing:0px;text-anchor:middle;fill:#000000;fill-opacity:1;stroke:none"
       x="1008.8398"
       y="1991.175"
       id="text4246-1-3"
       sodipodi:linespacing="125%"><tspan
         sodipodi:role="line"
         style="font-style:normal;font-variant:normal;font-weight:normal;font-stretch:normal;font-size:45px;font-family:'WenQuanYi Micro Hei';-inkscape-font-specification:'WenQuanYi Micro Hei'"
         x="1008.8398"
         y="1991.175"
         id="tspan4202-4">而且咱们</tspan><tspan
         sodipodi:role="line"
         style="font-style:normal;font-variant:normal;font-weight:normal;font-stretch:normal;font-size:45px;font-family:'WenQuanYi Micro Hei';-inkscape-font-specification:'WenQuanYi Micro Hei'"
         x="1008.8398"
         y="2047.425"
         id="tspan3400">好几天没有</tspan><tspan
         sodipodi:role="line"
         style="font-style:normal;font-variant:normal;font-weight:normal;font-stretch:normal;font-size:45px;font-family:'WenQuanYi Micro Hei';-inkscape-font-specification:'WenQuanYi Micro Hei'"
         x="1008.8398"
         y="2103.675"
         id="tspan3402">吃东西了。</tspan></text>
    <path
       style="fill:#ffffff;stroke:none"
       d="m 895.82485,1600.0624 c 21.55989,22.9922 18.24044,32.1943 13.58315,42.3773 -4.65713,10.1831 -10.03352,18.9288 -7.28323,25.6442 2.75014,6.7151 9.98323,13.2537 16.01769,17.3966 6.03443,4.143 -1.01568,10.4266 -2.75149,17.9213 -1.73575,7.4949 3.84933,48.8396 3.84933,48.8396 0,0 19.75368,-24.4746 23.31609,-33.8003 3.56256,-9.3255 4.913,-12.7174 5.29836,-16.8203 0.38522,-4.103 -0.16581,-14.3412 -5.22225,-20.1838 -5.05644,-5.8427 -12.67159,-8.8811 -17.49774,-12.4365 -4.82629,-3.5553 -2.3259,-12.0013 -0.46383,-20.4619 1.86215,-8.4605 1.83118,-14.9098 -5.9524,-27.296 -6.67188,-10.6173 -22.89368,-21.1802 -22.89368,-21.1802 z"
       id="path3023-2"
       inkscape:connector-curvature="0"
       sodipodi:nodetypes="csssscssssssc" />
    <text
       xml:space="preserve"
       style="color:#000000;font-style:normal;font-variant:normal;font-weight:normal;font-stretch:normal;font-size:45.57519913px;line-height:125%;font-family:Arial;-inkscape-font-specification:Arial;letter-spacing:0px;word-spacing:0px;display:inline;overflow:visible;visibility:visible;opacity:1;fill:#000000;fill-opacity:1;fill-rule:nonzero;stroke:#000000;stroke-width:1;stroke-miterlimit:4;stroke-dasharray:none;stroke-opacity:1;marker:none;enable-background:accumulate"
       x="985.70844"
       y="1776.6388"
       id="text4190-8"
       sodipodi:linespacing="125%"
       transform="matrix(0.89401021,-0.10429749,-0.1924975,1.1410127,0,0)"><tspan
         sodipodi:role="line"
         id="tspan4192-5"
         x="987.51831"
         y="1776.6388"
         style="font-style:normal;font-variant:normal;font-weight:normal;font-stretch:normal;font-family:'WenQuanYi Micro Hei';-inkscape-font-specification:'WenQuanYi Micro Hei';text-align:center;letter-spacing:3.61974597px;text-anchor:middle;fill:#000000;stroke:#000000;stroke-width:1;stroke-miterlimit:4;stroke-dasharray:none">咕噜</tspan></text>
    <text
       sodipodi:linespacing="125%"
       id="text4395"
       y="2441.5776"
       x="673.64618"
       style="font-style:normal;font-variant:normal;font-weight:normal;font-stretch:normal;font-size:12px;line-height:125%;font-family:Lavi;-inkscape-font-specification:Lavi;text-align:center;letter-spacing:0px;word-spacing:0px;text-anchor:middle;fill:#000000;fill-opacity:1;stroke:none"
       xml:space="preserve"><tspan
         id="tspan4405"
         y="2441.5776"
         x="673.64618"
         style="font-size:45px;-inkscape-font-specification:'WenQuanYi Micro Hei';font-family:'WenQuanYi Micro Hei';font-weight:normal;font-style:normal;font-stretch:normal;font-variant:normal"
         sodipodi:role="line">可是真正的</tspan><tspan
         y="2497.8276"
         x="673.64618"
         style="font-size:45px;-inkscape-font-specification:'WenQuanYi Micro Hei';font-family:'WenQuanYi Micro Hei';font-weight:normal;font-style:normal;font-stretch:normal;font-variant:normal"
         sodipodi:role="line"
         id="tspan3417">魔药呢？</tspan></text>
  </g>
</svg>
