<?xml version="1.0" encoding="UTF-8" standalone="no"?>
<!-- Created with Inkscape (http://www.inkscape.org/) -->

<svg
   xmlns:dc="http://purl.org/dc/elements/1.1/"
   xmlns:cc="http://creativecommons.org/ns#"
   xmlns:rdf="http://www.w3.org/1999/02/22-rdf-syntax-ns#"
   xmlns:svg="http://www.w3.org/2000/svg"
   xmlns="http://www.w3.org/2000/svg"
   xmlns:xlink="http://www.w3.org/1999/xlink"
   xmlns:sodipodi="http://sodipodi.sourceforge.net/DTD/sodipodi-0.dtd"
   xmlns:inkscape="http://www.inkscape.org/namespaces/inkscape"
   id="svg2"
   version="1.1"
   inkscape:version="0.91 r13725"
   width="2481"
   height="3503"
   sodipodi:docname="Pepper-and-Carrot_by-David-Revoy_E17P06.svg">
  <metadata
     id="metadata8">
    <rdf:RDF>
      <cc:Work
         rdf:about="">
        <dc:format>image/svg+xml</dc:format>
        <dc:type
           rdf:resource="http://purl.org/dc/dcmitype/StillImage" />
        <dc:title />
      </cc:Work>
    </rdf:RDF>
  </metadata>
  <defs
     id="defs6" />
  <sodipodi:namedview
     pagecolor="#ffffff"
     bordercolor="#666666"
     borderopacity="1"
     objecttolerance="10"
     gridtolerance="10"
     guidetolerance="10"
     inkscape:pageopacity="0"
     inkscape:pageshadow="2"
     inkscape:window-width="1366"
     inkscape:window-height="744"
     id="namedview4"
     showgrid="false"
     inkscape:zoom="0.4"
     inkscape:cx="1476.0121"
     inkscape:cy="481.7946"
     inkscape:window-x="0"
     inkscape:window-y="24"
     inkscape:window-maximized="1"
     inkscape:current-layer="layer3" />
  <g
     inkscape:groupmode="layer"
     id="layer2"
     inkscape:label="artwork"
     sodipodi:insensitive="true"
     style="display:inline">
    <image
       sodipodi:absref="/home/juanjo/Imágenes/Comics-Revoy/peppercarrot_ep17_translation-master/fr/../gfx_Pepper-and-Carrot_by-David-Revoy_E17P06.png"
       xlink:href="../gfx_Pepper-and-Carrot_by-David-Revoy_E17P06.png"
       width="2481"
       height="3503"
       id="image10"
       x="0"
       y="0" />
  </g>
  <g
     inkscape:groupmode="layer"
     id="layer3"
     inkscape:label="speechbubbles">
    <path
       style="fill:#ffffff;stroke:none"
       d="m 1177.5412,1451.4835 c -24.0782,-91.5539 -163.7199,-114.3577 -126.2718,-117.2114 29.0423,-2.2134 265.3799,-2.2635 344.8715,-4.0593 79.4917,-1.796 284.2372,2.6477 351.2283,7.1499 71.7566,4.8223 93.2082,48.229 98.5062,97.486 6.954,64.6552 -24.3761,77.8073 -74.9819,99.6199 -51.3426,22.13 -315.74,30.52 -333.8645,28.7848 -18.1243,-1.7356 -393.7865,5.2809 -409.696,-0.7946 -15.9097,-6.0755 156.6168,-63.9311 150.2082,-110.9753 z"
       id="path3278-7"
       inkscape:connector-curvature="0"
       sodipodi:nodetypes="csssssssc" />
    <path
       style="color:#000000;display:inline;overflow:visible;visibility:visible;fill:#ffffff;fill-opacity:1;fill-rule:nonzero;stroke:none;stroke-width:1px;marker:none;enable-background:accumulate"
       d="m 318.34046,2456.5103 c 2.59912,-57.048 47.06668,-99.0445 165.00688,-89.032 63.17512,5.3632 134.85807,8.6969 131.78221,92.2637 -3.07593,83.5668 -106.04537,82.0452 -127.25687,84.1281 -21.21154,2.0827 -132.04917,-6.0046 -151.9459,-34.3037 -12.45489,-17.7147 -17.59599,-35.3928 -17.58632,-53.0561 z"
       id="path4546-6"
       inkscape:connector-curvature="0"
       sodipodi:nodetypes="cssssc" />
    <path
       style="color:#000000;display:inline;overflow:visible;visibility:visible;fill:#ffffff;fill-opacity:1;fill-rule:nonzero;stroke:none;stroke-width:1px;marker:none;enable-background:accumulate"
       d="m 907.23639,2592.0266 c -23.62035,-34.1403 -42.50363,-36.5905 -55.96461,-39.6154 -1.87547,3.3952 -6.49852,8.7941 -6.49852,8.7941 0,0 -25.97688,-8.0908 -36.79234,-8.3139 -10.8154,-0.2233 -11.06323,11.4471 -11.06323,11.4471 0,0 50.13669,16.8309 59.91961,23.2139 4.71046,-9.5178 8.40315,-13.5624 8.49056,-17.6813 8.12621,-0.5191 33.14349,10.2991 41.90853,22.1555 z"
       id="path4456"
       inkscape:connector-curvature="0" />
    <path
       style="color:#000000;display:inline;overflow:visible;visibility:visible;fill:#ffffff;fill-opacity:1;fill-rule:nonzero;stroke:none;stroke-width:1px;marker:none;enable-background:accumulate"
       d="m 557.48622,2484.2098 c 28.77658,-45.323 185.29505,-41.4539 237.37165,-21.8178 52.07637,19.636 71.45367,53.4535 73.87581,65.4534 2.42201,11.9997 -3.63322,67.6351 -30.27703,78.5441 -26.64373,10.9089 -102.94167,16.3633 -129.58549,16.3633 -26.64373,0 -111.69646,-6.9434 -133.21893,-22.9088 -20.58839,-15.2724 -46.94271,-70.3114 -18.16601,-115.6342 z"
       id="path3330"
       inkscape:connector-curvature="0"
       sodipodi:nodetypes="zsssssz" />
    <path
       style="fill:#ffffff;stroke:none"
       d="m 1305.4599,1686.9052 c -61.4509,-16.3887 -30.8533,-65.2702 -45.5225,-67.9315 -14.6694,-2.6615 -27.8562,-6.807 -33.7712,-15.0125 -5.9149,-8.2051 -17.4337,-18.7558 -18.2822,-28.6243 -0.8487,-9.8684 -23.7836,-10.6121 -33.4878,-14.4455 -9.7043,-3.8334 -11.9428,-27.0084 -31.3844,-32.284 5.3237,-14.6209 97.6313,-19.5261 101.1522,-6.625 3.0581,11.2046 -31.3327,8.8903 -26.385,11.6146 4.9478,2.7247 15.8223,5.1341 19.2489,15.2244 3.4267,10.0904 1.9896,20.862 2.9452,28.9403 0.9559,8.0785 12.0525,14.9191 22.8341,19.6159 10.8918,4.7448 13.7129,2.9923 22.8729,15.641 10.2162,14.1071 -25.9903,41.4407 19.7798,73.8866 z"
       id="path3023-2"
       inkscape:connector-curvature="0"
       sodipodi:nodetypes="csssscssssssc" />
    <path
       style="color:#000000;display:inline;overflow:visible;visibility:visible;fill:#ffffff;fill-opacity:1;fill-rule:nonzero;stroke:none;stroke-width:1px;marker:none;enable-background:accumulate"
       d="m 1804.8627,1671.6902 c 0.6878,-23.1273 48.2085,-127.4206 267.251,-110.6658 219.0425,16.755 256.4278,48.0976 257.4848,132.7347 0.4187,33.5321 -55.6581,85.4495 -87.9758,93.8269 -32.318,8.3775 -99.0815,21.432 -193.6347,21.7813 -93.5992,0.3458 -183.1579,-22.6096 -215.4756,-52.7683 -32.3178,-30.1587 -28.3375,-64.1721 -27.6497,-84.9088 z"
       id="path3365"
       inkscape:connector-curvature="0"
       sodipodi:nodetypes="csssssc" />
    <path
       style="color:#000000;display:inline;overflow:visible;visibility:visible;fill:#ffffff;fill-opacity:1;fill-rule:nonzero;stroke:none;stroke-width:1px;marker:none;enable-background:accumulate"
       d="m 1773.6345,1852.6935 c 20.6585,1.8503 42.0221,4.0502 66.635,-2.9295 7.0191,-2.1076 14.3439,-4.6924 21.2622,-8.6072 6.8497,-5.1792 10.0657,-12.467 9.831,-17.98 0.3909,-8.2705 -3.5388,-15.3573 1.1997,-24.9485 3.6243,-6.9865 12.0808,-11.4315 19.0666,-15.6028 17.8952,-10.396 36.4648,-19.1971 53.5972,-31.4906 19.8044,-13.0719 40.1589,-27.7498 54.2823,-45.8251 5.4819,-7.1824 10.3168,-14.933 11.2221,-21.9705 3.3226,-18.3701 -5.898,-33.4735 -24.721,-35.5762 -12.7554,-0.1579 -31.116,10.8278 -37.1785,23.8071 -3.3077,6.857 -1.2679,12.4236 2.5712,15.9087 4.8396,8.3144 1.708,21.3756 -6.8119,33.2872 -6.8835,9.8609 -16.573,19.0871 -27.2529,26.4949 -13.0662,12.4722 -29.8055,18.2178 -44.9671,25.8816 -6.9126,3.5757 -14.194,7.7145 -19.8565,13.2749 -6.6316,8.8458 -4.9747,16.822 -2.4875,23.0116 2.3193,6.5328 6.0945,13.475 0.9017,22.8012 -2.7306,6.501 -11.3267,8.4182 -17.2848,11.3996 -19.5136,7.7854 -38.7819,10.7385 -55.5968,9.9195 -1.533,-0.1984 -2.9725,-0.5244 -4.412,-0.8559 z"
       id="path4496"
       inkscape:connector-curvature="0" />
  </g>
  <g
     inkscape:groupmode="layer"
     id="layer1"
     inkscape:label="txt">
    <text
       xml:space="preserve"
       style="font-style:normal;font-variant:normal;font-weight:normal;font-stretch:normal;font-size:12px;line-height:125%;font-family:Lavi;-inkscape-font-specification:Lavi;text-align:center;letter-spacing:0px;word-spacing:0px;text-anchor:middle;fill:#000000;fill-opacity:1;stroke:none"
       x="1413.4856"
       y="1404.2015"
       id="text4246-1"
       sodipodi:linespacing="125%"><tspan
         sodipodi:role="line"
         style="font-style:italic;font-variant:normal;font-weight:normal;font-stretch:normal;font-size:45px;font-family:Lavi;-inkscape-font-specification:'Lavi Italic'"
         x="1413.4856"
         y="1404.2015"
         id="tspan5929">&quot;Una verdadera bruja de Chaosah no</tspan><tspan
         sodipodi:role="line"
         style="font-style:italic;font-variant:normal;font-weight:normal;font-stretch:normal;font-size:45px;font-family:Lavi;-inkscape-font-specification:'Lavi Italic'"
         x="1413.4856"
         y="1460.4515"
         id="tspan4176">necesita ni mapas ni brújula.</tspan><tspan
         sodipodi:role="line"
         style="font-style:italic;font-variant:normal;font-weight:normal;font-stretch:normal;font-size:45px;font-family:Lavi;-inkscape-font-specification:'Lavi Italic'"
         x="1413.4856"
         y="1516.7015"
         id="tspan4329">Le basta con un cielo estrellado.&quot;</tspan></text>
    <text
       xml:space="preserve"
       style="font-style:normal;font-variant:normal;font-weight:normal;font-stretch:normal;font-size:12.30392742px;line-height:125%;font-family:Lavi;-inkscape-font-specification:Lavi;text-align:center;letter-spacing:0px;word-spacing:0px;text-anchor:middle;fill:#000000;fill-opacity:1;stroke:none"
       x="454.11227"
       y="2501.3633"
       id="text4246-2-5-8"
       sodipodi:linespacing="125%"
       transform="scale(1.0253273,0.97529834)"><tspan
         sodipodi:role="line"
         style="font-size:46.13972855px"
         x="454.11227"
         y="2501.3633"
         id="tspan4406-1">¡Ánimo,</tspan><tspan
         sodipodi:role="line"
         style="font-size:46.13972855px"
         x="454.11227"
         y="2559.0378"
         id="tspan4487">Carrot!</tspan></text>
    <text
       xml:space="preserve"
       style="font-style:normal;font-variant:normal;font-weight:normal;font-stretch:normal;font-size:12px;line-height:125%;font-family:Lavi;-inkscape-font-specification:Lavi;text-align:center;letter-spacing:0px;word-spacing:0px;text-anchor:middle;fill:#000000;fill-opacity:1;stroke:none"
       x="710.54004"
       y="2524.0591"
       id="text4246-2-5-8-5"
       sodipodi:linespacing="125%"><tspan
         sodipodi:role="line"
         style="font-size:45px"
         x="710.54004"
         y="2524.0591"
         id="tspan4485-9">¡Mira,</tspan><tspan
         sodipodi:role="line"
         style="font-size:45px"
         x="710.54004"
         y="2580.3091"
         id="tspan4487-4">hemos llegado!</tspan></text>
    <text
       xml:space="preserve"
       style="font-style:normal;font-variant:normal;font-weight:normal;font-stretch:normal;font-size:12px;line-height:125%;font-family:Lavi;-inkscape-font-specification:Lavi;text-align:center;letter-spacing:0px;word-spacing:0px;text-anchor:middle;fill:#000000;fill-opacity:1;stroke:none"
       x="2067.9636"
       y="1638.4164"
       id="text4246-2-5-7"
       sodipodi:linespacing="125%"><tspan
         sodipodi:role="line"
         style="font-size:45px"
         x="2067.9636"
         y="1638.4164"
         id="tspan4238-2">... ¡yo habría</tspan><tspan
         sodipodi:role="line"
         style="font-size:45px"
         x="2067.9636"
         y="1694.6664"
         id="tspan4406-9">preferido un<tspan
   style="font-style:italic;font-variant:normal;font-weight:normal;font-stretch:normal;font-family:Lavi;-inkscape-font-specification:'Lavi Italic'"
   id="tspan4157"> verdadero</tspan></tspan><tspan
         sodipodi:role="line"
         style="font-size:45px"
         x="2067.9636"
         y="1750.9164"
         id="tspan4300">curso de adivinación!</tspan></text>
  </g>
</svg>
