<?xml version="1.0" encoding="UTF-8" standalone="no"?>
<!-- Created with Inkscape (http://www.inkscape.org/) -->

<svg
   xmlns:dc="http://purl.org/dc/elements/1.1/"
   xmlns:cc="http://creativecommons.org/ns#"
   xmlns:rdf="http://www.w3.org/1999/02/22-rdf-syntax-ns#"
   xmlns:svg="http://www.w3.org/2000/svg"
   xmlns="http://www.w3.org/2000/svg"
   xmlns:xlink="http://www.w3.org/1999/xlink"
   xmlns:sodipodi="http://sodipodi.sourceforge.net/DTD/sodipodi-0.dtd"
   xmlns:inkscape="http://www.inkscape.org/namespaces/inkscape"
   id="svg2"
   version="1.1"
   inkscape:version="0.91 r"
   width="2481"
   height="3503"
   sodipodi:docname="Pepper-and-Carrot_by-David-Revoy_E17P02.svg">
  <metadata
     id="metadata8">
    <rdf:RDF>
      <cc:Work
         rdf:about="">
        <dc:format>image/svg+xml</dc:format>
        <dc:type
           rdf:resource="http://purl.org/dc/dcmitype/StillImage" />
        <dc:title></dc:title>
      </cc:Work>
    </rdf:RDF>
  </metadata>
  <defs
     id="defs6">
    <filter
       style="color-interpolation-filters:sRGB;"
       id="filter4375-4-1-1-1-9-5"
       inkscape:label="Drop Shadow">
      <feFlood
         id="feFlood4377-7-9-0-8-1-7"
         flood-opacity="1"
         flood-color="rgb(108,125,133)"
         result="flood" />
      <feComposite
         id="feComposite4379-3-8-8-2-77-4"
         in2="SourceGraphic"
         in="flood"
         operator="in"
         result="composite1" />
      <feMorphology
         id="feMorphology4393-1-0-49-8-9-3"
         operator="dilate"
         radius="6.2000000000000002"
         result="result3" />
      <feComposite
         id="feComposite4385-9-5-7-0-8-8"
         in2="result3"
         in="SourceGraphic"
         operator="over"
         result="fbSourceGraphic" />
      <feColorMatrix
         result="fbSourceGraphicAlpha"
         in="fbSourceGraphic"
         values="0 0 0 -1 0 0 0 0 -1 0 0 0 0 -1 0 0 0 0 1 0"
         id="feColorMatrix4544" />
      <feTurbulence
         id="feTurbulence4546"
         type="fractalNoise"
         numOctaves="3"
         seed="37"
         baseFrequency="0.129 0.0050000000000000001"
         result="turbulence"
         in="fbSourceGraphic" />
      <feDisplacementMap
         id="feDisplacementMap4548"
         in2="turbulence"
         in="fbSourceGraphic"
         scale="6.6"
         yChannelSelector="G"
         xChannelSelector="R"
         result="fbSourceGraphic" />
      <feColorMatrix
         result="fbSourceGraphicAlpha"
         in="fbSourceGraphic"
         values="0 0 0 -1 0 0 0 0 -1 0 0 0 0 -1 0 0 0 0 1 0"
         id="feColorMatrix4670" />
      <feFlood
         id="feFlood4672"
         flood-opacity="1"
         flood-color="rgb(17,52,65)"
         result="flood"
         in="fbSourceGraphic" />
      <feComposite
         id="feComposite4674"
         in2="fbSourceGraphic"
         in="flood"
         operator="in"
         result="composite1" />
      <feGaussianBlur
         id="feGaussianBlur4676"
         in="composite1"
         stdDeviation="0"
         result="blur" />
      <feOffset
         id="feOffset4678"
         dx="6"
         dy="6"
         result="offset" />
      <feComposite
         id="feComposite4680"
         in2="offset"
         in="fbSourceGraphic"
         operator="over"
         result="composite2" />
    </filter>
  </defs>
  <sodipodi:namedview
     pagecolor="#ffffff"
     bordercolor="#666666"
     borderopacity="1"
     objecttolerance="10"
     gridtolerance="10"
     guidetolerance="10"
     inkscape:pageopacity="0"
     inkscape:pageshadow="2"
     inkscape:window-width="1920"
     inkscape:window-height="997"
     id="namedview4"
     showgrid="false"
     inkscape:zoom="0.40529713"
     inkscape:cx="1511.5572"
     inkscape:cy="920.62669"
     inkscape:window-x="-5"
     inkscape:window-y="-10"
     inkscape:window-maximized="1"
     inkscape:current-layer="layer1" />
  <g
     inkscape:groupmode="layer"
     id="layer2"
     inkscape:label="artwork"
     sodipodi:insensitive="true">
    <image
       sodipodi:absref="/home/ruben/Documents/pepperandcarrot/translations/peppercarrot_ep17_translation/nl/../gfx_Pepper-and-Carrot_by-David-Revoy_E17P02.png"
       xlink:href="../gfx_Pepper-and-Carrot_by-David-Revoy_E17P02.png"
       width="2481"
       height="3503"
       id="image10"
       x="0"
       y="0" />
  </g>
  <g
     inkscape:groupmode="layer"
     id="layer3"
     inkscape:label="speechbubbles">
    <path
       style="color:#000000;display:inline;overflow:visible;visibility:visible;fill:#ffffff;fill-opacity:1;fill-rule:nonzero;stroke:none;stroke-width:1px;marker:none;enable-background:accumulate"
       d="M 88.503999,1097.2719 C 78.221314,950.25112 273.57845,965.336 372.50585,967.20483 c 112.23165,6.51845 242.07975,2.08048 231.63299,140.47677 -9.02416,32.5535 -18.04851,67.0225 -50.53598,78.5119 -32.48765,11.4897 -263.51,26.8091 -301.41213,19.1493 -37.9021,-7.6596 -99.26754,-9.5747 -131.75485,-32.5537 -32.935796,-23.2963 -30.127101,-28.6014 -31.931881,-75.5172 z"
       id="path3373"
       inkscape:connector-curvature="0"
       sodipodi:nodetypes="cccsssc" />
    <path
       style="color:#000000;display:inline;overflow:visible;visibility:visible;fill:#ffffff;fill-opacity:1;fill-rule:nonzero;stroke:none;stroke-width:1px;marker:none;enable-background:accumulate"
       d="m 147.30877,1298.4744 c 4.92829,-73.3963 80.60502,-128.016 280.19764,-116.7707 106.91255,6.0235 228.24854,9.3198 222.26779,116.8245 -5.98086,107.5044 -180.30492,106.971 -216.23755,109.9424 -35.9326,2.9717 -223.51765,-5.8963 -256.94314,-42.0123 -20.92358,-22.6077 -29.46451,-45.2698 -29.28474,-67.9839 z"
       id="path4546-6"
       inkscape:connector-curvature="0"
       sodipodi:nodetypes="cssssc" />
    <path
       style="color:#000000;display:inline;overflow:visible;visibility:visible;fill:#ffffff;fill-opacity:1;fill-rule:nonzero;stroke:none;stroke-width:1px;marker:none;enable-background:accumulate"
       d="m 609.91648,1196.871 c 51.27116,-41.1633 127.19718,-107.8809 242.30492,-41.1646 117.45563,-13.9265 159.1674,-5.368 226.1925,56.8954 -72.139,-47.9191 -116.24059,-67.2081 -241.86362,-37.1297 -45.09623,-48.2708 -141.04392,-23.7385 -183.42517,33.3137 -42.38126,57.0523 -17.46921,58.1114 -17.46921,58.1114 l -39.32225,-53.5754 z"
       id="path5074"
       inkscape:connector-curvature="0"
       sodipodi:nodetypes="ccccsccc" />
    <path
       style="color:#000000;display:inline;overflow:visible;visibility:visible;fill:#ffffff;fill-opacity:1;fill-rule:nonzero;stroke:none;stroke-width:1px;marker:none;enable-background:accumulate"
       d="m 1816.7607,1696.8077 c -11.0647,-70.301 -11.6472,-239.7754 215.6602,-235.4911 226.8268,4.2752 267.4103,41.5711 272.9426,67.934 5.5323,26.3629 79.3865,212.7623 -97.6491,252.3067 -177.0357,39.5441 -335.63,16.3079 -390.9537,-84.7496 z"
       id="path3525"
       inkscape:connector-curvature="0"
       sodipodi:nodetypes="csssc" />
    <path
       style="color:#000000;display:inline;overflow:visible;visibility:visible;fill:#ffffff;fill-opacity:1;fill-rule:nonzero;stroke:none;stroke-width:1px;marker:none;enable-background:accumulate"
       d="m 1598.781,1488.4356 c 103.1765,71.0884 211.139,127.9333 303.5843,70.4763 92.7461,-57.644 107.3574,-10.2915 107.3574,-10.2915 l -114.9117,66.5528 c -85.3574,-3.2446 -142.9698,20.7038 -296.03,-126.7376 z"
       id="path3072-1"
       inkscape:connector-curvature="0"
       sodipodi:nodetypes="csccc" />
    <path
       style="fill:#ffffff;fill-rule:evenodd;stroke:none;stroke-width:1px;stroke-linecap:butt;stroke-linejoin:miter;stroke-opacity:1"
       d="m 2030.9983,3027.9635 c -33.5231,-8.8446 -36.6118,-19.1954 -7.9661,-31.117 -31.63,-0.3537 -26.6086,-7.5288 -13.0384,-16.2951 -48.7814,-33.3859 -44.8466,-63.6391 -39.6718,-93.8186 -37.7987,23.0691 -45.339,-0.5425 -59.5058,-13.9312 -1.3462,34.3429 -10.7829,14.9738 -22.4772,-19.3825 0.6836,43.7411 -4.9525,48.6783 -16.3515,18.2301 -2.5044,28.4283 -11.466,41.3998 -27.8494,36.6044 -21.2683,31.3586 -39.4626,0.5515 -58.6507,-10.1626 -0.1259,29.0887 -12.3134,33.0944 -28.3465,29.1034 -4.1842,13.367 -5.5738,31.6068 -29.0722,11.3022 0.8401,23.773 -11.7542,10.0336 -20.2199,7.8218 12.024,10.5007 -3.1632,18.257 -49.6505,22.8565 18.8597,2.253 19.4374,11.4876 -1.5623,28.9626 28.7597,5.1995 31.5456,19.2875 20.6865,38.0447 34.7874,14.8671 9.585,44.3373 -0.6484,70.1638 28.0588,-18.2808 52.3366,-24.2698 64.9862,7.5432 40.4487,-37.8172 36.651,-21.8438 34.8706,-8.3228 21.8397,-38.5885 26.0714,-10.7477 35.5465,-2.6881 70.0598,-58.7628 75.6409,-18.7362 96.3058,-1.8206 -3.1596,-46.7053 16.996,-33.6847 37.2481,-20.4173 -8.7043,-37.8936 3.6157,-29.4619 15.4961,-21.9985 -2.2396,-16.7495 6.424,-24.0969 29.7885,-18.7673 -17.8911,-9.4802 -9.101,-14.2565 40.0824,-11.9111 z"
       id="path4289"
       inkscape:connector-curvature="0"
       sodipodi:nodetypes="cccccccccccccccccccccccc" />
    <path
       style="display:inline;fill:#ffffff;fill-rule:evenodd;stroke:none;stroke-width:1px;stroke-linecap:butt;stroke-linejoin:miter;stroke-opacity:1"
       d="m 995.213,2945.1398 c 45.6511,29.1744 71.6545,17.3104 70.8709,-50.5046 21.7798,73.2824 36.8941,89.6722 45.8578,53.5655 28.835,31.0352 46.8449,22.3296 61.1435,0 5.3295,28.7174 16.7586,17.1289 26.6499,15.7025 3.2577,6.4971 -7.9313,22.6388 37.2729,1.1324 2.9281,8.5996 6.8726,16.0053 33.351,-3.0609 6.8597,34.9048 28.8689,-1.9345 51.4163,-41.322 -14.0476,48.4236 -8.2227,55.2631 9.7274,36.7306 -8.2067,19.9412 -13.1151,35.378 18.0651,1.5305 -10.6745,36.8074 17.33,11.543 62.5332,-41.3219 -22.6114,39.0774 -82.5715,104.9393 -43.0784,99.4787 -5.5076,11.5201 -25.1527,21.5573 33.351,39.7915 -10.9218,7.8173 -44.266,-3.6061 -16.4509,29.4926 3.7265,3.869 -8.7493,6.2317 15.0613,16.4206 -14.0556,-0.6931 -22.6757,1.7832 -9.7274,16.8349 -25.6568,-0.8139 -16.0572,15.0132 2.7793,35.2001 -37.1546,-25.894 -39.1993,-16.483 -40.2993,-6.1217 -46.5655,-35.3024 -49.299,-24.1877 -55.585,-16.8349 -22.6972,0.2754 -45.3945,-4.1702 -68.0918,35.2002 -5.9442,-24.4874 -17.8613,-43.3362 -68.0917,-26.0175 22.055,-31.1522 -9.321,-11.305 -33.3509,1.5304 13.1592,-38.9168 -20.2372,-13.3758 -62.5333,24.4871 23.6856,-42.975 -3.2157,-27.4515 -43.0784,3.0609 15.0613,-42.2187 -9.4676,-62.6362 -68.09175,-64.2786 28.05931,-15.2288 44.42195,-34.3938 15.28596,-68.8699 32.84459,10.1516 42.64159,0.7222 19.45472,-36.7306 35.82457,30.7409 19.53657,-13.8473 5.55857,-55.0959 z"
       id="path4508"
       inkscape:connector-curvature="0"
       sodipodi:nodetypes="cccccccccccccccccccccccccccc" />
    <path
       style="color:#000000;display:inline;overflow:visible;visibility:visible;fill:#ffffff;fill-opacity:1;fill-rule:nonzero;stroke:none;stroke-width:1px;marker:none;enable-background:accumulate"
       d="m 1073.8555,3024.7311 c 2.4624,-33.5618 13.4992,-33.2742 51.5007,-2.9174 -10.0277,-59.8527 40.993,-62.6826 88.5437,-68.7536 -5.4538,-16.8173 -26.5075,-36.1317 7.6231,-46.6133 -18.3324,-10.0236 -18.3917,-23.3587 -2.1465,-39.6483 -37.952,7.762 -52.2273,2.9834 -7.3397,-33.1325 -42.3658,20.5177 -82.9366,38.7833 -66.9587,-13.9022 -16.0426,7.1709 -24.9929,48.8823 -87.8258,-27.4155 -0.7114,35.132 -63.7589,64.0361 -94.72103,18.6848 15.67468,37.7877 -35.70616,81.1515 -59.79918,50.8124 14.31258,21.1842 2.4832,41.9008 -15.55267,45.371 51.20732,5.6051 40.93453,18.4458 5.48789,39.7483 105.47121,3.3251 47.4278,24.4881 47.94468,38.814 64.20711,-13.1758 60.08071,13.592 69.27331,33.4355 61.1454,-60.5277 42.5691,-49.7164 63.9702,5.5168 z"
       id="path3549-3"
       inkscape:connector-curvature="0"
       sodipodi:nodetypes="ccccccccccccccc" />
    <path
       style="color:#000000;display:inline;overflow:visible;visibility:visible;fill:#ffffff;fill-opacity:1;fill-rule:nonzero;stroke:none;stroke-width:1px;marker:none;enable-background:accumulate"
       d="m 1311.6702,2747.3567 c -17.4178,41.7404 -28.5727,86.6841 -53.2672,124.7025 l 36.0436,-18.2217 c -1.4821,18.2761 -13.6499,33.4918 -22.1892,49.7468 l 24.2011,-7.4893 c -4.0333,43.0855 -24.5728,77.293 -37.1342,115.7914 l 41.0895,-16.4803 c 8.0587,-40.4823 9.3656,-81.854 25.0187,-121.3357 l -24.4214,4.8583 c 3.463,-14.4124 7.5149,-28.7038 14.1968,-42.4551 l -30.0747,8.869 z"
       id="path4032"
       inkscape:connector-curvature="0"
       sodipodi:nodetypes="cccccccccccc" />
  </g>
  <g
     inkscape:groupmode="layer"
     id="layer1"
     inkscape:label="txt">
    <text
       xml:space="preserve"
       style="font-style:normal;font-variant:normal;font-weight:normal;font-stretch:normal;font-size:12px;line-height:125%;font-family:Lavi;-inkscape-font-specification:Lavi;text-align:center;letter-spacing:0px;word-spacing:0px;text-anchor:middle;fill:#000000;fill-opacity:1;stroke:none"
       x="343.70044"
       y="1039.3605"
       id="text4246"
       sodipodi:linespacing="125%"><tspan
         sodipodi:role="line"
         style="font-size:45px"
         x="343.70044"
         y="1039.3605"
         id="tspan4153">Goed, we vliegen</tspan><tspan
         sodipodi:role="line"
         style="font-size:45px"
         x="343.70044"
         y="1095.6105"
         id="tspan4159">naar het land van de</tspan><tspan
         sodipodi:role="line"
         style="font-size:45px"
         x="343.70044"
         y="1151.8605"
         id="tspan4175">ondergaande manen.</tspan></text>
    <text
       xml:space="preserve"
       style="font-style:normal;font-variant:normal;font-weight:normal;font-stretch:normal;font-size:12px;line-height:125%;font-family:Lavi;-inkscape-font-specification:Lavi;text-align:center;letter-spacing:0px;word-spacing:0px;text-anchor:middle;fill:#000000;fill-opacity:1;stroke:none"
       x="398.66898"
       y="1250.7809"
       id="text4246-6"
       sodipodi:linespacing="125%"><tspan
         sodipodi:role="line"
         style="font-size:45px"
         x="398.66898"
         y="1250.7809"
         id="tspan4216">Shichimi kan ons</tspan><tspan
         sodipodi:role="line"
         style="font-size:45px"
         x="398.66898"
         y="1307.0309"
         id="tspan4218">vertellen hoe je een</tspan><tspan
         sodipodi:role="line"
         style="font-size:45px"
         x="398.66898"
         y="1363.2809"
         id="tspan4220">heks van Ah wordt.</tspan></text>
    <text
       xml:space="preserve"
       style="font-style:normal;font-variant:normal;font-weight:normal;font-stretch:normal;font-size:12px;line-height:125%;font-family:Lavi;-inkscape-font-specification:Lavi;text-align:center;letter-spacing:0px;word-spacing:0px;text-anchor:middle;fill:#000000;fill-opacity:1;stroke:none"
       x="2074.5127"
       y="1539.0598"
       id="text4246-6-9"
       sodipodi:linespacing="125%"><tspan
         sodipodi:role="line"
         style="font-size:45px"
         x="2074.5127"
         y="1539.0598"
         id="tspan4220-5">Carrot, pak de</tspan><tspan
         sodipodi:role="line"
         style="font-size:45px"
         x="2074.5127"
         y="1595.3098"
         id="tspan4270">kaart en het kompas:</tspan><tspan
         sodipodi:role="line"
         style="font-size:45px"
         x="2074.5127"
         y="1651.5598"
         id="tspan4301">door al die wolken heb</tspan><tspan
         sodipodi:role="line"
         style="font-size:45px"
         x="2074.5127"
         y="1707.8098"
         id="tspan4303">ik geen idee waar we</tspan><tspan
         sodipodi:role="line"
         style="font-size:45px"
         x="2074.5127"
         y="1764.0598"
         id="tspan4305">naartoe gaan.</tspan></text>
    <text
       xml:space="preserve"
       style="font-style:normal;font-variant:normal;font-weight:normal;font-stretch:normal;font-size:12px;line-height:125%;font-family:Lavi;-inkscape-font-specification:Lavi;text-align:center;letter-spacing:0px;word-spacing:0px;text-anchor:middle;fill:#000000;fill-opacity:1;stroke:none"
       x="1949.7035"
       y="1557.4618"
       id="text4246-6-9-6"
       sodipodi:linespacing="125%"><tspan
         sodipodi:role="line"
         style="font-size:45px"
         x="1949.7035"
         y="1557.4618"
         id="tspan4297" /></text>
    <text
       xml:space="preserve"
       style="font-style:normal;font-variant:normal;font-weight:normal;font-stretch:normal;font-size:15.92187119px;line-height:125%;font-family:Lavi;-inkscape-font-specification:Lavi;text-align:center;letter-spacing:0px;word-spacing:0px;text-anchor:middle;fill:#000000;fill-opacity:1;stroke:#000000;stroke-width:2.4000001;stroke-miterlimit:4;stroke-dasharray:none;stroke-opacity:1"
       x="1314.0442"
       y="2718.4683"
       id="text4246-6-9-0"
       sodipodi:linespacing="125%"
       transform="matrix(0.92763131,0,-0.05816983,1.0780145,0,0)"><tspan
         sodipodi:role="line"
         style="font-size:59.70701599px;stroke:#000000;stroke-width:2.4000001;stroke-miterlimit:4;stroke-dasharray:none;stroke-opacity:1"
         x="1314.0442"
         y="2718.4683"
         id="tspan4305-5">Verdorie!</tspan></text>
    <text
       xml:space="preserve"
       style="font-style:normal;font-variant:normal;font-weight:normal;font-stretch:normal;font-size:12px;line-height:125%;font-family:Lavi;-inkscape-font-specification:Lavi;text-align:center;letter-spacing:0px;word-spacing:0px;text-anchor:middle;fill:#000000;fill-opacity:1;stroke:none"
       x="1187.7719"
       y="3037.1514"
       id="text4246-6-9-8"
       sodipodi:linespacing="125%"><tspan
         sodipodi:role="line"
         style="font-size:45px"
         x="1187.7719"
         y="3037.1514"
         id="tspan4395">Turbulentie!</tspan></text>
    <text
       xml:space="preserve"
       style="font-style:normal;font-variant:normal;font-weight:normal;font-stretch:normal;font-size:11.45282078px;line-height:125%;font-family:Lavi;-inkscape-font-specification:Lavi;text-align:center;letter-spacing:0px;word-spacing:0px;text-anchor:middle;fill:#000000;fill-opacity:1;stroke:#000000;stroke-width:2.4000001;stroke-miterlimit:4;stroke-dasharray:none;stroke-opacity:1"
       x="2031.4183"
       y="2948.9512"
       id="text4246-6-9-8-8"
       sodipodi:linespacing="125%"
       transform="matrix(0.95440174,0,-0.25660426,1.0477768,0,0)"><tspan
         sodipodi:role="line"
         style="font-size:42.94808197px;stroke:#000000;stroke-width:2.4000001;stroke-miterlimit:4;stroke-dasharray:none;stroke-opacity:1"
         x="2031.4183"
         y="2948.9512"
         id="tspan4395-0">HOU JE VAST!</tspan></text>
    <text
       xml:space="preserve"
       style="font-style:normal;font-variant:normal;font-weight:normal;font-stretch:normal;font-size:15.92187119px;line-height:125%;font-family:Lavi;-inkscape-font-specification:Lavi;text-align:center;letter-spacing:0px;word-spacing:0px;text-anchor:middle;fill:#000000;fill-opacity:1;stroke:none;stroke-width:3.20000005;stroke-miterlimit:4;stroke-dasharray:none"
       x="1720.8666"
       y="3392.7578"
       id="text4246-6-9-0-4"
       sodipodi:linespacing="125%"
       transform="matrix(0.95609098,-0.27508698,0.05700764,1.0295233,0,0)"><tspan
         sodipodi:role="line"
         style="font-size:59.70701599px;stroke:#000000;stroke-width:2.4;stroke-miterlimit:4;stroke-dasharray:none;stroke-opacity:1"
         x="1720.8666"
         y="3392.7578"
         id="tspan4305-5-1">O nee!!!</tspan></text>
    <path
       style="color:#000000;display:inline;overflow:visible;visibility:visible;fill:#ffffff;fill-opacity:1;fill-rule:nonzero;stroke:none;stroke-width:1px;marker:none;enable-background:accumulate"
       d="m 1981.554,2965.8845 c -2.8344,-2.7596 17.6625,-50.4745 17.6625,-50.4745 0,0 0.362,-14.576 1.0191,-17.668 7.9691,-5.303 20.5629,-9.8345 20.5629,-9.8345 l -1.9493,-38.8861 -7.2418,31.926 -20.2953,2.7706 -1.7964,23.9372 -36.789,19.3605 z"
       id="path4448"
       inkscape:connector-curvature="0"
       sodipodi:nodetypes="cccccccccc" />
    <text
       xml:space="preserve"
       style="font-style:normal;font-variant:normal;font-weight:normal;font-stretch:normal;font-size:17.80657005px;line-height:125%;font-family:Lavi;-inkscape-font-specification:Lavi;letter-spacing:0px;word-spacing:0px;fill:#ffffff;fill-opacity:1;stroke:#98b9ca;stroke-width:0.99236238;stroke-miterlimit:4;stroke-dasharray:none;stroke-opacity:1;filter:url(#filter4375-4-1-1-1-9-5)"
       x="787.65729"
       y="1584.5073"
       id="text4580-6"
       sodipodi:linespacing="125%"
       transform="matrix(1.1343276,-0.33045224,-0.48810103,1.5185556,1532.754,67.643285)"><tspan
         sodipodi:role="line"
         id="tspan4582-1"
         x="787.65729"
         y="1584.5073"
         style="font-size:70px;fill:#ffffff;fill-opacity:1;stroke:#98b9ca;stroke-opacity:1"><tspan
           style="font-size:93.14950562px;fill:#ffffff;fill-opacity:1;stroke:#98b9ca;stroke-opacity:1"
           id="tspan4315">BrrOeeeOee!!</tspan><tspan
           style="font-size:114.73223114px;fill:#ffffff;fill-opacity:1;stroke:#98b9ca;stroke-opacity:1"
           id="tspan4313">!</tspan></tspan></text>
  </g>
</svg>
