<?xml version="1.0" encoding="UTF-8" standalone="no"?>
<!-- Created with Inkscape (http://www.inkscape.org/) -->

<svg
   xmlns:dc="http://purl.org/dc/elements/1.1/"
   xmlns:cc="http://creativecommons.org/ns#"
   xmlns:rdf="http://www.w3.org/1999/02/22-rdf-syntax-ns#"
   xmlns:svg="http://www.w3.org/2000/svg"
   xmlns="http://www.w3.org/2000/svg"
   xmlns:xlink="http://www.w3.org/1999/xlink"
   xmlns:sodipodi="http://sodipodi.sourceforge.net/DTD/sodipodi-0.dtd"
   xmlns:inkscape="http://www.inkscape.org/namespaces/inkscape"
   id="svg2"
   version="1.1"
   inkscape:version="0.91 r13725"
   width="2481"
   height="3503"
   sodipodi:docname="Pepper-and-Carrot_by-David-Revoy_E17P02.svg">
  <metadata
     id="metadata8">
    <rdf:RDF>
      <cc:Work
         rdf:about="">
        <dc:format>image/svg+xml</dc:format>
        <dc:type
           rdf:resource="http://purl.org/dc/dcmitype/StillImage" />
        <dc:title />
      </cc:Work>
    </rdf:RDF>
  </metadata>
  <defs
     id="defs6">
    <filter
       style="color-interpolation-filters:sRGB;"
       id="filter4375-4-1-1-1-9-5"
       inkscape:label="Drop Shadow">
      <feFlood
         id="feFlood4377-7-9-0-8-1-7"
         flood-opacity="1"
         flood-color="rgb(108,125,133)"
         result="flood" />
      <feComposite
         id="feComposite4379-3-8-8-2-77-4"
         in2="SourceGraphic"
         in="flood"
         operator="in"
         result="composite1" />
      <feMorphology
         id="feMorphology4393-1-0-49-8-9-3"
         operator="dilate"
         radius="6.2000000000000002"
         result="result3" />
      <feComposite
         id="feComposite4385-9-5-7-0-8-8"
         in2="result3"
         in="SourceGraphic"
         operator="over"
         result="fbSourceGraphic" />
      <feColorMatrix
         result="fbSourceGraphicAlpha"
         in="fbSourceGraphic"
         values="0 0 0 -1 0 0 0 0 -1 0 0 0 0 -1 0 0 0 0 1 0"
         id="feColorMatrix4544" />
      <feTurbulence
         id="feTurbulence4546"
         type="fractalNoise"
         numOctaves="3"
         seed="37"
         baseFrequency="0.129 0.0050000000000000001"
         result="turbulence"
         in="fbSourceGraphic" />
      <feDisplacementMap
         id="feDisplacementMap4548"
         in2="turbulence"
         in="fbSourceGraphic"
         scale="6.6"
         yChannelSelector="G"
         xChannelSelector="R"
         result="fbSourceGraphic" />
      <feColorMatrix
         result="fbSourceGraphicAlpha"
         in="fbSourceGraphic"
         values="0 0 0 -1 0 0 0 0 -1 0 0 0 0 -1 0 0 0 0 1 0"
         id="feColorMatrix4670" />
      <feFlood
         id="feFlood4672"
         flood-opacity="1"
         flood-color="rgb(17,52,65)"
         result="flood"
         in="fbSourceGraphic" />
      <feComposite
         id="feComposite4674"
         in2="fbSourceGraphic"
         in="flood"
         operator="in"
         result="composite1" />
      <feGaussianBlur
         id="feGaussianBlur4676"
         in="composite1"
         stdDeviation="0"
         result="blur" />
      <feOffset
         id="feOffset4678"
         dx="6"
         dy="6"
         result="offset" />
      <feComposite
         id="feComposite4680"
         in2="offset"
         in="fbSourceGraphic"
         operator="over"
         result="composite2" />
    </filter>
  </defs>
  <sodipodi:namedview
     pagecolor="#ffffff"
     bordercolor="#666666"
     borderopacity="1"
     objecttolerance="10"
     gridtolerance="10"
     guidetolerance="10"
     inkscape:pageopacity="0"
     inkscape:pageshadow="2"
     inkscape:window-width="1680"
     inkscape:window-height="1033"
     id="namedview4"
     showgrid="false"
     inkscape:zoom="0.2630065"
     inkscape:cx="1355.771"
     inkscape:cy="2279.7119"
     inkscape:window-x="1920"
     inkscape:window-y="0"
     inkscape:window-maximized="1"
     inkscape:current-layer="layer3" />
  <g
     inkscape:groupmode="layer"
     id="layer2"
     inkscape:label="artwork"
     sodipodi:insensitive="true">
    <image
       sodipodi:absref="/home/deevad/peppercarrot/webcomics/New/lang/fr/../gfx_Pepper-and-Carrot_by-David-Revoy_E17P02.png"
       xlink:href="../gfx_Pepper-and-Carrot_by-David-Revoy_E17P02.png"
       y="0"
       x="0"
       id="image10"
       height="3503"
       width="2481" />
  </g>
  <g
     inkscape:groupmode="layer"
     id="layer3"
     inkscape:label="speechbubbles">
    <path
       style="color:#000000;display:inline;overflow:visible;visibility:visible;fill:#ffffff;fill-opacity:1;fill-rule:nonzero;stroke:none;stroke-width:1px;marker:none;enable-background:accumulate"
       d="m 121.73886,1061.9996 c -8.28587,-124.94381 153.11084,-91.15581 232.82731,-89.56761 90.43715,5.53963 195.06977,1.76807 186.65169,119.38251 -7.27174,27.6653 -14.54362,56.9583 -40.72229,66.7225 -26.1788,9.7644 -212.33844,22.7834 -242.88026,16.2739 -30.54182,-6.5095 -79.99057,-8.137 -106.1691,-27.6655 -26.53993,-19.798 -28.25305,-45.2749 -29.70735,-85.1458 z"
       id="path3373"
       inkscape:connector-curvature="0"
       sodipodi:nodetypes="cccsssc" />
    <path
       style="color:#000000;display:inline;overflow:visible;visibility:visible;fill:#ffffff;fill-opacity:1;fill-rule:nonzero;stroke:none;stroke-width:1px;marker:none;enable-background:accumulate"
       d="m 137.43952,1281.1894 c 5.02505,-84.8744 82.18757,-148.0358 285.69886,-135.0319 109.0116,6.9655 232.72982,10.7773 226.63165,135.0941 -6.09829,124.3165 -183.84491,123.6997 -220.48302,127.1358 -36.63808,3.4364 -227.90605,-6.8184 -261.98779,-48.5824 -21.33438,-26.1432 -30.043,-52.3494 -29.8597,-78.6156 z"
       id="path4546-6"
       inkscape:connector-curvature="0"
       sodipodi:nodetypes="cssssc" />
    <path
       style="color:#000000;display:inline;overflow:visible;visibility:visible;fill:#ffffff;fill-opacity:1;fill-rule:nonzero;stroke:none;stroke-width:1px;marker:none;enable-background:accumulate"
       d="m 587.23586,1174.1904 c 51.27116,-41.1633 149.8778,-85.2003 264.98554,-18.484 117.45563,-13.9265 159.1674,-5.368 226.1925,56.8954 -72.139,-47.9191 -116.24059,-67.2081 -241.86362,-37.1297 -45.09623,-48.2708 -163.72454,-46.4191 -206.10579,10.6331 -42.38126,57.0523 -17.46921,58.1114 -17.46921,58.1114 l -39.32225,-53.5754 z"
       id="path5074"
       inkscape:connector-curvature="0"
       sodipodi:nodetypes="ccccsccc" />
    <path
       style="color:#000000;display:inline;overflow:visible;visibility:visible;fill:#ffffff;fill-opacity:1;fill-rule:nonzero;stroke:none;stroke-width:1px;marker:none;enable-background:accumulate"
       d="m 1815.527,1685.7047 c -11.0647,-70.301 18.4411,-257.0377 245.2681,-241.6594 226.8268,15.3782 263.7094,103.2543 269.2417,129.6172 5.5323,26.3629 53.4795,175.7524 -123.5561,215.2968 -177.0357,39.5441 -335.63,-2.1971 -390.9537,-103.2546 z"
       id="path3525"
       inkscape:connector-curvature="0" />
    <path
       style="color:#000000;display:inline;overflow:visible;visibility:visible;fill:#ffffff;fill-opacity:1;fill-rule:nonzero;stroke:none;stroke-width:1px;marker:none;enable-background:accumulate"
       d="m 1598.781,1488.4356 c 103.1765,71.0884 211.139,127.9333 303.5843,70.4763 92.7461,-57.644 107.3574,-10.2915 107.3574,-10.2915 l -114.9117,66.5528 c -85.3574,-3.2446 -142.9698,20.7038 -296.03,-126.7376 z"
       id="path3072-1"
       inkscape:connector-curvature="0"
       sodipodi:nodetypes="csccc" />
    <path
       style="fill:#ffffff;fill-rule:evenodd;stroke:none;stroke-width:1px;stroke-linecap:butt;stroke-linejoin:miter;stroke-opacity:1"
       d="m 2030.9983,3027.9635 c -33.5231,-8.8446 -36.6118,-19.1954 -7.9661,-31.117 -31.63,-0.3537 -26.6086,-7.5288 -13.0384,-16.2951 -48.7814,-33.3859 -44.8466,-63.6391 -39.6718,-93.8186 -37.7987,23.0691 -45.339,-0.5425 -59.5058,-13.9312 -1.3462,34.3429 -10.7829,14.9738 -22.4772,-19.3825 0.6836,43.7411 -4.9525,48.6783 -16.3515,18.2301 -2.5044,28.4283 -11.466,41.3998 -27.8494,36.6044 -21.2683,31.3586 -39.4626,0.5515 -58.6507,-10.1626 -0.1259,29.0887 -12.3134,33.0944 -28.3465,29.1034 -4.1842,13.367 -5.5738,31.6068 -29.0722,11.3022 0.8401,23.773 -11.7542,10.0336 -20.2199,7.8218 12.024,10.5007 -3.1632,18.257 -49.6505,22.8565 18.8597,2.253 19.4374,11.4876 -1.5623,28.9626 28.7597,5.1995 31.5456,19.2875 20.6865,38.0447 34.7874,14.8671 9.585,44.3373 -0.6484,70.1638 28.0588,-18.2808 52.3366,-24.2698 64.9862,7.5432 40.4487,-37.8172 36.651,-21.8438 34.8706,-8.3228 21.8397,-38.5885 26.0714,-10.7477 35.5465,-2.6881 70.0598,-58.7628 75.6409,-18.7362 96.3058,-1.8206 -3.1596,-46.7053 16.996,-33.6847 37.2481,-20.4173 -8.7043,-37.8936 3.6157,-29.4619 15.4961,-21.9985 -2.2396,-16.7495 6.424,-24.0969 29.7885,-18.7673 -17.8911,-9.4802 -9.101,-14.2565 40.0824,-11.9111 z"
       id="path4289"
       inkscape:connector-curvature="0"
       sodipodi:nodetypes="cccccccccccccccccccccccc" />
    <path
       style="display:inline;fill:#ffffff;fill-rule:evenodd;stroke:none;stroke-width:1px;stroke-linecap:butt;stroke-linejoin:miter;stroke-opacity:1"
       d="m 944.59158,2945.1398 c 51.19432,29.1744 80.35532,17.3104 79.47652,-50.5046 24.4245,73.2824 41.374,89.6722 51.4261,53.5655 32.3364,31.0352 52.5332,22.3296 68.5681,0 5.9766,28.7174 18.7935,17.1289 29.8858,15.7025 3.6534,6.4971 -8.8944,22.6388 41.7989,1.1324 3.2837,8.5996 7.7071,16.0053 37.4007,-3.0609 7.6927,34.9048 32.3744,-1.9345 57.6596,-41.322 -15.7534,48.4236 -9.2211,55.2631 10.9086,36.7306 -9.2032,19.9412 -14.7076,35.378 20.2586,1.5305 -11.9706,36.8074 19.4344,11.543 70.1265,-41.3219 -25.357,39.0774 -92.5979,104.9393 -48.3093,99.4787 -6.1763,11.5201 -28.2069,21.5573 37.4007,39.7915 -12.248,7.8173 -49.641,-3.6061 -18.4485,29.4926 4.1791,3.869 -9.8117,6.2317 16.8902,16.4206 -15.7624,-0.6931 -25.4291,1.7832 -10.9086,16.8349 -28.7722,-0.8139 -18.0069,15.0132 3.1168,35.2001 -41.6662,-25.894 -43.9592,-16.483 -45.1927,-6.1217 -52.2199,-35.3024 -55.2853,-24.1877 -62.3345,-16.8349 -25.4533,0.2754 -50.9066,-4.1702 -76.36,35.2002 -6.6659,-24.4874 -20.0302,-43.3362 -76.3598,-26.0175 24.733,-31.1522 -10.4529,-11.305 -37.4007,1.5304 14.7571,-38.9168 -22.6945,-13.3758 -70.1265,24.4871 26.5617,-42.975 -3.6061,-27.4515 -48.3093,3.0609 16.8902,-42.2187 -10.61718,-62.6362 -76.35988,-64.2786 31.46647,-15.2288 49.81597,-34.3938 17.1421,-68.8699 36.83278,10.1516 47.81948,0.7222 21.81704,-36.7306 40.17474,30.7409 21.90881,-13.8473 6.23352,-55.0959 z"
       id="path4508"
       inkscape:connector-curvature="0"
       sodipodi:nodetypes="cccccccccccccccccccccccccccc" />
    <path
       style="color:#000000;display:inline;overflow:visible;visibility:visible;fill:#ffffff;fill-opacity:1;fill-rule:nonzero;stroke:none;stroke-width:1px;marker:none;enable-background:accumulate"
       d="m 1030.8419,3024.7311 c 1.895,-33.5618 10.3888,-33.2742 39.6341,-2.9174 -7.7172,-59.8527 31.5474,-62.6826 68.1415,-68.7536 -4.197,-16.8173 -20.3996,-36.1317 5.8667,-46.6133 -14.1083,-10.0236 -14.1539,-23.3587 -1.6519,-39.6483 -29.2072,7.762 -40.1932,2.9834 -5.6486,-33.1325 -32.6039,20.5177 -63.8264,38.7833 -51.5301,-13.9022 -12.3461,7.1709 -19.2341,48.8823 -67.5892,-27.4155 -0.5475,35.132 -49.06766,64.0361 -72.89556,18.6848 12.06295,37.7877 -27.47881,81.1515 -46.02037,50.8124 11.0147,21.1842 1.91103,41.9008 -11.96905,45.371 39.40822,5.6051 31.50248,18.4458 4.22339,39.7483 81.16873,3.3251 36.49956,24.4881 36.89735,38.814 49.41267,-13.1758 46.23703,13.592 53.3114,33.4355 47.05654,-60.5277 32.76044,-49.7164 49.23034,5.5168 z"
       id="path3549-3"
       inkscape:connector-curvature="0"
       sodipodi:nodetypes="ccccccccccccccc" />
    <path
       style="color:#000000;display:inline;overflow:visible;visibility:visible;fill:#ffffff;fill-opacity:1;fill-rule:nonzero;stroke:none;stroke-width:1px;marker:none;enable-background:accumulate"
       d="m 1269.3957,2763.3018 c -26.1522,36.9012 -46.8971,78.302 -79.3319,109.9753 l 39.1635,-9.8688 c -5.4563,17.5055 -20.6662,29.6804 -32.5642,43.6655 l 25.2547,-1.9964 c -13.3891,41.1505 -40.934,70.0174 -61.6368,104.8213 l 43.7044,-7.0626 c 16.7451,-37.7274 27.0981,-77.8041 51.033,-112.8889 l -24.8923,-0.6188 c 6.5411,-13.3013 13.6301,-26.3553 23.1666,-38.3053 l -31.2879,2.0537 z"
       id="path4032"
       inkscape:connector-curvature="0"
       sodipodi:nodetypes="cccccccccccc" />
  </g>
  <g
     inkscape:groupmode="layer"
     id="layer1"
     inkscape:label="txt">
    <text
       xml:space="preserve"
       style="font-style:normal;font-variant:normal;font-weight:normal;font-stretch:normal;font-size:12px;line-height:125%;font-family:Lavi;-inkscape-font-specification:Lavi;text-align:center;letter-spacing:0px;word-spacing:0px;text-anchor:middle;fill:#000000;fill-opacity:1;stroke:none"
       x="332.59747"
       y="1039.3605"
       id="text4246"
       sodipodi:linespacing="125%"><tspan
         sodipodi:role="line"
         style="font-size:45px"
         x="332.59747"
         y="1039.3605"
         id="tspan4153">Bon, rejoignons</tspan><tspan
         sodipodi:role="line"
         style="font-size:45px"
         x="332.59747"
         y="1095.6105"
         id="tspan4159">le pays des lunes</tspan><tspan
         sodipodi:role="line"
         style="font-size:45px"
         x="340.50763"
         y="1151.8605"
         id="tspan4175">couchantes.</tspan></text>
    <text
       xml:space="preserve"
       style="font-style:normal;font-variant:normal;font-weight:normal;font-stretch:normal;font-size:12px;line-height:125%;font-family:Lavi;-inkscape-font-specification:Lavi;text-align:center;letter-spacing:0px;word-spacing:0px;text-anchor:middle;fill:#000000;fill-opacity:1;stroke:none"
       x="398.66898"
       y="1221.173"
       id="text4246-6"
       sodipodi:linespacing="125%"><tspan
         sodipodi:role="line"
         style="font-size:45px"
         x="398.66898"
         y="1221.173"
         id="tspan4175-7">Shichimi nous</tspan><tspan
         sodipodi:role="line"
         style="font-size:45px"
         x="398.66898"
         y="1277.423"
         id="tspan4216">conseillera pour entrer</tspan><tspan
         sodipodi:role="line"
         style="font-size:45px"
         x="398.66898"
         y="1333.673"
         id="tspan4218">chez les sorcières</tspan><tspan
         sodipodi:role="line"
         style="font-size:45px"
         x="406.57913"
         y="1389.923"
         id="tspan4220">de Ah.</tspan></text>
    <text
       xml:space="preserve"
       style="font-style:normal;font-variant:normal;font-weight:normal;font-stretch:normal;font-size:12px;line-height:125%;font-family:Lavi;-inkscape-font-specification:Lavi;text-align:center;letter-spacing:0px;word-spacing:0px;text-anchor:middle;fill:#000000;fill-opacity:1;stroke:none"
       x="2074.5127"
       y="1539.0598"
       id="text4246-6-9"
       sodipodi:linespacing="125%"><tspan
         sodipodi:role="line"
         style="font-size:45px"
         x="2074.5127"
         y="1539.0598"
         id="tspan4220-5">Carrot, sors la</tspan><tspan
         sodipodi:role="line"
         style="font-size:45px"
         x="2074.5127"
         y="1595.3098"
         id="tspan4270">carte et la boussole :</tspan><tspan
         sodipodi:role="line"
         style="font-size:45px"
         x="2074.5127"
         y="1651.5598"
         id="tspan4301">il y a trop de nuages</tspan><tspan
         sodipodi:role="line"
         style="font-size:45px"
         x="2074.5127"
         y="1707.8098"
         id="tspan4303">et je ne sais pas où</tspan><tspan
         sodipodi:role="line"
         style="font-size:45px"
         x="2074.5127"
         y="1764.0598"
         id="tspan4305">je vais.</tspan></text>
    <text
       xml:space="preserve"
       style="font-style:normal;font-variant:normal;font-weight:normal;font-stretch:normal;font-size:12px;line-height:125%;font-family:Lavi;-inkscape-font-specification:Lavi;text-align:center;letter-spacing:0px;word-spacing:0px;text-anchor:middle;fill:#000000;fill-opacity:1;stroke:none"
       x="1949.7035"
       y="1557.4618"
       id="text4246-6-9-6"
       sodipodi:linespacing="125%"><tspan
         sodipodi:role="line"
         style="font-size:45px"
         x="1949.7035"
         y="1557.4618"
         id="tspan4297" /></text>
    <text
       xml:space="preserve"
       style="font-style:normal;font-variant:normal;font-weight:normal;font-stretch:normal;font-size:15.92187119px;line-height:125%;font-family:Lavi;-inkscape-font-specification:Lavi;text-align:center;letter-spacing:0px;word-spacing:0px;text-anchor:middle;fill:#000000;fill-opacity:1;stroke:#000000;stroke-width:2.4000001;stroke-miterlimit:4;stroke-dasharray:none;stroke-opacity:1"
       x="1274.8707"
       y="2718.4683"
       id="text4246-6-9-0"
       sodipodi:linespacing="125%"
       transform="matrix(0.92763131,0,-0.05816983,1.0780145,0,0)"><tspan
         sodipodi:role="line"
         style="font-size:59.70701599px;stroke:#000000;stroke-width:2.4000001;stroke-miterlimit:4;stroke-dasharray:none;stroke-opacity:1"
         x="1274.8707"
         y="2718.4683"
         id="tspan4305-5">ZUT !</tspan></text>
    <text
       xml:space="preserve"
       style="font-style:normal;font-variant:normal;font-weight:normal;font-stretch:normal;font-size:12px;line-height:125%;font-family:Lavi;-inkscape-font-specification:Lavi;text-align:center;letter-spacing:0px;word-spacing:0px;text-anchor:middle;fill:#000000;fill-opacity:1;stroke:none"
       x="1159.3977"
       y="3033.4504"
       id="text4246-6-9-8"
       sodipodi:linespacing="125%"><tspan
         sodipodi:role="line"
         style="font-size:45px"
         x="1159.3977"
         y="3033.4504"
         id="tspan4395">Des turbulences !</tspan></text>
    <text
       xml:space="preserve"
       style="font-style:normal;font-variant:normal;font-weight:normal;font-stretch:normal;font-size:11.45282078px;line-height:125%;font-family:Lavi;-inkscape-font-specification:Lavi;text-align:center;letter-spacing:0px;word-spacing:0px;text-anchor:middle;fill:#000000;fill-opacity:1;stroke:#000000;stroke-width:2.4000001;stroke-miterlimit:4;stroke-dasharray:none;stroke-opacity:1"
       x="2000.7388"
       y="2945.4189"
       id="text4246-6-9-8-8"
       sodipodi:linespacing="125%"
       transform="matrix(0.95440174,0,-0.25660426,1.0477768,0,0)"><tspan
         sodipodi:role="line"
         style="font-size:42.94808197px;stroke:#000000;stroke-width:2.4000001;stroke-miterlimit:4;stroke-dasharray:none;stroke-opacity:1"
         x="2000.7388"
         y="2945.4189"
         id="tspan4395-0">ACCROCHE-TOI !</tspan></text>
    <text
       xml:space="preserve"
       style="font-style:normal;font-variant:normal;font-weight:normal;font-stretch:normal;font-size:15.92187119px;line-height:125%;font-family:Lavi;-inkscape-font-specification:Lavi;text-align:center;letter-spacing:0px;word-spacing:0px;text-anchor:middle;fill:#000000;fill-opacity:1;stroke:none;stroke-width:3.20000005;stroke-miterlimit:4;stroke-dasharray:none"
       x="1720.8666"
       y="3392.7578"
       id="text4246-6-9-0-4"
       sodipodi:linespacing="125%"
       transform="matrix(0.95609098,-0.27508698,0.05700764,1.0295233,0,0)"><tspan
         sodipodi:role="line"
         style="font-size:59.70701599px;stroke:#000000;stroke-width:4.24583244;stroke-miterlimit:4;stroke-dasharray:none;stroke-opacity:1"
         x="1720.8666"
         y="3392.7578"
         id="tspan4305-5-1">Oh non !!!</tspan></text>
    <path
       style="color:#000000;display:inline;overflow:visible;visibility:visible;fill:#ffffff;fill-opacity:1;fill-rule:nonzero;stroke:none;stroke-width:1px;marker:none;enable-background:accumulate"
       d="m 1981.554,2965.8845 c -2.8344,-2.7596 17.6625,-50.4745 17.6625,-50.4745 0,0 0.362,-14.576 1.0191,-17.668 7.9691,-5.303 20.5629,-9.8345 20.5629,-9.8345 l -1.9493,-38.8861 -7.2418,31.926 -20.2953,2.7706 -1.7964,23.9372 -36.789,19.3605 z"
       id="path4448"
       inkscape:connector-curvature="0"
       sodipodi:nodetypes="cccccccccc" />
    <text
       xml:space="preserve"
       style="font-style:normal;font-variant:normal;font-weight:normal;font-stretch:normal;font-size:17.80657005px;line-height:125%;font-family:Lavi;-inkscape-font-specification:Lavi;letter-spacing:0px;word-spacing:0px;fill:#ffffff;fill-opacity:1;stroke:#98b9ca;stroke-width:0.99236238;stroke-miterlimit:4;stroke-dasharray:none;stroke-opacity:1;filter:url(#filter4375-4-1-1-1-9-5)"
       x="787.65729"
       y="1584.5073"
       id="text4580-6"
       sodipodi:linespacing="125%"
       transform="matrix(1.1343276,-0.33045224,-0.48810103,1.5185556,1532.754,67.643285)"><tspan
         sodipodi:role="line"
         id="tspan4582-1"
         x="787.65729"
         y="1584.5073"
         style="font-size:70px;fill:#ffffff;fill-opacity:1;stroke:#98b9ca;stroke-opacity:1"><tspan
           style="font-size:93.14950562px;fill:#ffffff;fill-opacity:1;stroke:#98b9ca;stroke-opacity:1"
           id="tspan4315">BrrOoooOoo !</tspan><tspan
           style="font-size:114.73223114px;fill:#ffffff;fill-opacity:1;stroke:#98b9ca;stroke-opacity:1"
           id="tspan4313">!</tspan></tspan></text>
  </g>
</svg>
