<?xml version="1.0" encoding="UTF-8" standalone="no"?>
<!-- Created with Inkscape (http://www.inkscape.org/) -->

<svg
   xmlns:dc="http://purl.org/dc/elements/1.1/"
   xmlns:cc="http://creativecommons.org/ns#"
   xmlns:rdf="http://www.w3.org/1999/02/22-rdf-syntax-ns#"
   xmlns:svg="http://www.w3.org/2000/svg"
   xmlns="http://www.w3.org/2000/svg"
   xmlns:xlink="http://www.w3.org/1999/xlink"
   xmlns:sodipodi="http://sodipodi.sourceforge.net/DTD/sodipodi-0.dtd"
   xmlns:inkscape="http://www.inkscape.org/namespaces/inkscape"
   id="svg2"
   version="1.1"
   inkscape:version="0.91 r"
   width="2481"
   height="3503"
   sodipodi:docname="Pepper-and-Carrot_by-David-Revoy_E17P05.svg">
  <metadata
     id="metadata8">
    <rdf:RDF>
      <cc:Work
         rdf:about="">
        <dc:format>image/svg+xml</dc:format>
        <dc:type
           rdf:resource="http://purl.org/dc/dcmitype/StillImage" />
        <dc:title></dc:title>
      </cc:Work>
    </rdf:RDF>
  </metadata>
  <defs
     id="defs6">
    <filter
       inkscape:label="Ripple"
       inkscape:menu="Distort"
       inkscape:menu-tooltip="Horizontal rippling of edges"
       style="color-interpolation-filters:sRGB;"
       id="filter4163">
      <feTurbulence
         numOctaves="1"
         baseFrequency="0.014 0.017999999999999999"
         id="feTurbulence4165" />
      <feColorMatrix
         values="2 0 0 0 0 0 0 0 0 0 0 0 0 0 0 0 0 0 0.5 0.5"
         result="result91"
         id="feColorMatrix4167" />
      <feDisplacementMap
         yChannelSelector="A"
         xChannelSelector="R"
         scale="14.3"
         in="SourceGraphic"
         in2="result91"
         id="feDisplacementMap4169" />
    </filter>
  </defs>
  <sodipodi:namedview
     pagecolor="#ffffff"
     bordercolor="#666666"
     borderopacity="1"
     objecttolerance="10"
     gridtolerance="10"
     guidetolerance="10"
     inkscape:pageopacity="0"
     inkscape:pageshadow="2"
     inkscape:window-width="1920"
     inkscape:window-height="997"
     id="namedview4"
     showgrid="false"
     inkscape:zoom="0.5764315"
     inkscape:cx="529.83308"
     inkscape:cy="1606.0718"
     inkscape:window-x="-5"
     inkscape:window-y="-10"
     inkscape:window-maximized="1"
     inkscape:current-layer="layer1" />
  <g
     inkscape:groupmode="layer"
     id="layer2"
     inkscape:label="artwork"
     sodipodi:insensitive="true">
    <image
       sodipodi:absref="/home/ruben/Documents/pepperandcarrot/translations/peppercarrot_ep17_translation/nl/../gfx_Pepper-and-Carrot_by-David-Revoy_E17P05.png"
       xlink:href="../gfx_Pepper-and-Carrot_by-David-Revoy_E17P05.png"
       width="2481"
       height="3503"
       id="image10"
       x="0"
       y="0" />
  </g>
  <g
     inkscape:groupmode="layer"
     id="layer3"
     inkscape:label="speechbubbles"
     style="opacity:1">
    <path
       style="fill:#ffffff;stroke:none"
       d="m 1737.8365,1124.6293 c -15.2519,-128.21819 -116.8318,-195.25859 -82.2235,-198.05353 26.8397,-2.16756 238.3589,-10.03597 311.5028,-10.03597 73.144,0 241.4287,4.19316 271.3192,11.79431 85.0983,21.64041 120.3405,70.27141 122.6998,124.02309 2.3596,53.7515 -11.068,96.1621 -53.5385,129.0103 -42.4707,32.8485 -292.3688,45.8805 -309.1517,46.098 -353,4.5752 -488.3128,-17.5497 -502.4695,-26.5085 -14.1569,-8.9586 244.2209,-10.6312 241.8614,-76.3277 z"
       id="path3278"
       inkscape:connector-curvature="0"
       sodipodi:nodetypes="csssssssc" />
    <path
       style="fill:#ffffff;stroke:none"
       d="m 1882.1176,1359.4513 c 89.8965,-16.1397 129.811,-146.0647 92.9439,-194.4569 -55.0179,-72.2175 44.7436,-42.6509 44.7436,-42.6509 21.8217,14.6506 33.8742,203.1448 -137.6875,237.1078 z"
       id="path3067"
       inkscape:connector-curvature="0"
       sodipodi:nodetypes="cscc" />
    <path
       style="color:#000000;display:inline;overflow:visible;visibility:visible;fill:#ffffff;fill-opacity:1;fill-rule:nonzero;stroke:none;stroke-width:1px;marker:none;enable-background:accumulate"
       d="m 791.13231,2491.1372 c 36.00943,-29.539 281.30709,-36.9258 348.04269,40.814 66.7356,77.7397 -3.4345,153.0475 -57.4309,173.2194 -53.9962,20.1719 -201.305,31.7142 -260.00867,1.8609 -58.70357,-29.8533 -100.57945,-68.9886 -87.37488,-137.2809 5.3893,-27.8729 20.76213,-49.0742 56.77176,-78.6134 z"
       id="path4040"
       inkscape:connector-curvature="0"
       sodipodi:nodetypes="zssssz" />
    <path
       style="fill:#ffffff;stroke:none"
       d="m 1141.1877,2779.5367 c -71.8604,55.1445 -151.82289,-51.1501 -152.54949,-133.1711 -1.084,-122.4026 -56.8594,-37.4571 -56.8594,-37.4571 -7.25091,33.4378 70.53289,272.4536 209.40889,170.6282 z"
       id="path3067-2"
       inkscape:connector-curvature="0"
       sodipodi:nodetypes="cscc" />
    <path
       style="fill:#ffffff;fill-rule:evenodd;stroke:none;stroke-width:1px;stroke-linecap:butt;stroke-linejoin:miter;stroke-opacity:1"
       d="m 761.34642,1792.2006 c 9.11069,-34.1149 33.64485,-59.9988 60.34646,-77.278 12.70717,-8.342 27.23166,-14.4554 42.09455,-12.8474 14.76541,0.961 29.18756,6.6972 44.11631,4.7048 18.15293,-0.6581 36.62457,-3.5293 54.56908,0.5735 15.95199,4.4766 32.38712,6.7952 48.84848,6.9297 11.613,-2.8416 22.2396,4.7319 32.6107,9.2618 9.3105,4.893 18.8206,10.0267 26.6408,17.5955 7.205,10.6249 15.832,19.8685 23.121,30.3988 4.7695,5.7569 4.3111,13.7086 4.0914,21.0678 -0.6194,15.0702 -1.6684,30.3783 -5.5618,44.8971 -2.3299,9.2174 -10.9419,12.2678 -17.559,16.5034 -15.6573,8.9414 -32.2834,15.7219 -47.2262,26.244 -14.8042,5.3877 -30.53692,2.8677 -45.71925,2.0534 -12.72179,-1.6037 -25.51923,-3.8402 -38.35033,-1.9751 -16.33097,1.3647 -32.61233,4.8987 -49.00173,4.4461 -20.53139,-3.1063 -40.19489,-10.7544 -60.09156,-16.8896 -17.85089,-5.4075 -34.12053,-15.5761 -49.73166,-26.4538 -8.33888,-6.1771 -17.16657,-13.357 -20.1095,-24.7406 -2.41246,-7.8385 -2.9809,-16.2317 -3.08775,-24.4914 z"
       id="path4365"
       inkscape:connector-curvature="0" />
    <path
       style="fill:#ffffff;fill-rule:evenodd;stroke:none;stroke-width:1px;stroke-linecap:butt;stroke-linejoin:miter;stroke-opacity:1"
       d="m 792.60801,1959.835 c 11.48547,-45.3435 42.41469,-79.7469 76.07636,-102.7132 16.0194,-11.0879 34.32985,-19.2135 53.06687,-17.0761 18.61418,1.2772 36.79562,8.9016 55.61572,6.2533 22.88464,-0.8747 46.17094,-4.691 68.79294,0.7622 20.11,5.9501 40.8291,9.0317 61.5813,9.2105 14.64,-3.7769 28.0366,6.2894 41.111,12.3104 11.7374,6.5035 23.7263,13.3268 33.5851,23.3868 9.0828,14.1219 19.9587,26.408 29.1476,40.4042 6.0126,7.6517 5.4348,18.2208 5.1579,28.0022 -0.7809,20.0303 -2.1033,40.377 -7.0116,59.6745 -2.9373,12.2513 -13.7939,16.3057 -22.136,21.9354 -19.7385,11.8843 -40.6982,20.8967 -59.5363,34.8819 -18.6628,7.1611 -38.4964,3.8116 -57.6362,2.7293 -16.0378,-2.1317 -32.1711,-5.1042 -48.3467,-2.6252 -20.5877,1.8141 -41.11295,6.5111 -61.77444,5.9095 -25.88309,-4.1286 -50.67203,-14.2941 -75.755,-22.4486 -22.50392,-7.1874 -43.01439,-20.703 -62.6947,-35.1609 -10.5125,-8.2103 -21.64122,-17.7533 -25.35125,-32.8836 -3.0413,-10.4186 -3.75791,-21.5744 -3.8926,-32.5526 z"
       id="path4365-3"
       inkscape:connector-curvature="0" />
    <g
       id="g5381"
       transform="matrix(0.90027698,-0.12766824,0.18341717,0.92179071,-1218.8165,-823.29704)"
       style="fill:#ffffff">
      <path
         inkscape:connector-curvature="0"
         id="path5263"
         d="m 1225.2771,3157.962 c -4.7051,-6.6655 -4.7051,-15.2915 -4.7051,-16.8598 0,-1.5684 0.3921,-7.4497 0.3921,-7.4497 l -3.1367,-1.1763 2.7446,-5.0971 -3.1367,0.3921 c 0,0 7.4497,-9.0181 9.018,-11.7627 1.5684,-2.7446 4.313,-9.018 4.313,-9.018 0,0 14.5073,-1.9605 17.644,-3.1368 3.1367,-1.1762 12.5468,-11.3705 12.5468,-11.3705 0,0 11.3706,5.4892 15.6836,6.2734 4.3129,0.7842 24.3095,1.9604 27.8383,0 3.5288,-1.9605 7.0576,-4.7051 7.0576,-4.7051 0,0 9.018,-0.7841 11.3705,-1.9604 2.3526,-1.1763 6.6655,-3.9209 6.6655,-3.9209 0,0 7.4497,0.7842 10.5864,0.3921 3.1367,-0.3921 17.644,0 19.2124,0 1.5683,0 12.5468,6.6655 12.5468,6.6655 l 7.0576,6.6655 c 0,0 5.8813,-0.3921 8.626,-1.1763 2.7446,-0.7841 5.0971,3.1367 5.0971,3.1367 0,0 10.5864,23.9175 12.1548,28.6225 1.5683,4.7051 2.3525,14.1152 2.3525,14.1152 0,0 -4.313,7.4497 -6.6655,10.5864 -2.3525,3.1367 -9.018,10.5864 -12.5468,13.331 -3.5288,2.7446 -7.8418,7.0576 -12.1548,4.313 -4.313,-2.7446 -8.6259,-2.3525 -10.1943,-0.3921 -1.5684,1.9604 -12.9389,15.6836 -16.8598,14.1152 -3.9209,-1.5684 -17.2519,-3.9209 -21.1728,-7.4497 -3.9209,-3.5288 -10.1943,4.7051 -12.9389,2.3525 -2.7446,-2.3525 -6.6655,-6.6655 -9.4102,-6.6655 -2.7446,0 -35.68,9.8023 -39.6009,8.2339 -3.9209,-1.5684 -24.7016,-14.5073 -27.0541,-16.0756 -2.3526,-1.5684 -8.2339,-10.9785 -8.2339,-10.9785 z"
         style="color:#000000;display:inline;overflow:visible;visibility:visible;fill:#ffffff;fill-opacity:1;fill-rule:nonzero;stroke:none;stroke-width:1px;marker:none;enable-background:accumulate" />
      <path
         inkscape:connector-curvature="0"
         id="path5271"
         d="m 1236.8125,3095.4062 a 2.20022,2.20022 0 0 0 -0.1563,0.031 l -9.875,1.375 a 2.20022,2.20022 0 0 0 -1.4374,0.8125 l -12.9688,16.3438 a 2.2133161,2.2133161 0 1 0 3.4688,2.75 l 12.375,-15.6876 9.0312,-1.25 a 2.20022,2.20022 0 0 0 -0.4375,-4.375 z"
         style="color:#000000;font-style:normal;font-variant:normal;font-weight:normal;font-stretch:normal;font-size:medium;line-height:normal;font-family:Sans;-inkscape-font-specification:Sans;text-indent:0;text-align:start;text-decoration:none;text-decoration-line:none;letter-spacing:normal;word-spacing:normal;text-transform:none;direction:ltr;block-progression:tb;writing-mode:lr-tb;baseline-shift:baseline;text-anchor:start;display:inline;overflow:visible;visibility:visible;fill:#ffffff;fill-opacity:1;fill-rule:nonzero;stroke:none;stroke-width:1px;marker:none;enable-background:accumulate" />
      <path
         inkscape:connector-curvature="0"
         id="path5273"
         d="m 1252.1562,3077.3125 a 2.20022,2.20022 0 0 0 -1.625,0.9063 l -7.8124,10.5312 -11.3438,-5.0625 a 2.20022,2.20022 0 0 0 -2.3125,0.3125 l -14.6563,12.2812 a 2.20022,2.20022 0 1 0 2.8126,3.375 l 13.5937,-11.4062 11.7187,5.25 a 2.20022,2.20022 0 0 0 2.6563,-0.7188 l 8.875,-11.9374 a 2.20022,2.20022 0 0 0 -1.9063,-3.5313 z"
         style="color:#000000;font-style:normal;font-variant:normal;font-weight:normal;font-stretch:normal;font-size:medium;line-height:normal;font-family:Sans;-inkscape-font-specification:Sans;text-indent:0;text-align:start;text-decoration:none;text-decoration-line:none;letter-spacing:normal;word-spacing:normal;text-transform:none;direction:ltr;block-progression:tb;writing-mode:lr-tb;baseline-shift:baseline;text-anchor:start;display:inline;overflow:visible;visibility:visible;fill:#ffffff;fill-opacity:1;fill-rule:nonzero;stroke:none;stroke-width:1px;marker:none;enable-background:accumulate" />
      <path
         inkscape:connector-curvature="0"
         id="path5275"
         d="m 1267.9375,3079.7188 a 2.20022,2.20022 0 0 0 -1,0.2812 l -10.2187,5.4375 a 2.20022,2.20022 0 1 0 2.0624,3.875 l 8.8126,-4.6563 6.3437,6.3438 a 2.20022,2.20022 0 0 0 1.2187,0.625 l 2.4063,0.3125 a 2.20022,2.20022 0 1 0 0.625,-4.3437 l -1.6875,-0.25 -6.9688,-6.9688 a 2.20022,2.20022 0 0 0 -1.5937,-0.6562 z"
         style="color:#000000;font-style:normal;font-variant:normal;font-weight:normal;font-stretch:normal;font-size:medium;line-height:normal;font-family:Sans;-inkscape-font-specification:Sans;text-indent:0;text-align:start;text-decoration:none;text-decoration-line:none;letter-spacing:normal;word-spacing:normal;text-transform:none;direction:ltr;block-progression:tb;writing-mode:lr-tb;baseline-shift:baseline;text-anchor:start;display:inline;overflow:visible;visibility:visible;fill:#ffffff;fill-opacity:1;fill-rule:nonzero;stroke:none;stroke-width:1px;marker:none;enable-background:accumulate" />
      <path
         inkscape:connector-curvature="0"
         id="path5277"
         d="m 1265.2812,3072.9062 a 2.20022,2.20022 0 0 0 -0.25,4.3438 l 14.375,3.8438 4.6876,9.3124 a 2.2010735,2.2010735 0 0 0 3.9374,-1.9687 l -5.125,-10.2187 a 2.20022,2.20022 0 0 0 -1.4062,-1.1563 L 1266.1562,3073 a 2.20022,2.20022 0 0 0 -0.875,-0.094 z"
         style="color:#000000;font-style:normal;font-variant:normal;font-weight:normal;font-stretch:normal;font-size:medium;line-height:normal;font-family:Sans;-inkscape-font-specification:Sans;text-indent:0;text-align:start;text-decoration:none;text-decoration-line:none;letter-spacing:normal;word-spacing:normal;text-transform:none;direction:ltr;block-progression:tb;writing-mode:lr-tb;baseline-shift:baseline;text-anchor:start;display:inline;overflow:visible;visibility:visible;fill:#ffffff;fill-opacity:1;fill-rule:nonzero;stroke:none;stroke-width:1px;marker:none;enable-background:accumulate" />
      <path
         inkscape:connector-curvature="0"
         id="path5279"
         d="m 1343.875,3078.6875 a 2.20022,2.20022 0 0 0 -0.7812,0.2187 l -4.4376,2.0626 a 2.20022,2.20022 0 1 0 1.8438,3.9687 l 4.4375,-2.0313 a 2.20022,2.20022 0 0 0 -1.0625,-4.2187 z"
         style="color:#000000;font-style:normal;font-variant:normal;font-weight:normal;font-stretch:normal;font-size:medium;line-height:normal;font-family:Sans;-inkscape-font-specification:Sans;text-indent:0;text-align:start;text-decoration:none;text-decoration-line:none;letter-spacing:normal;word-spacing:normal;text-transform:none;direction:ltr;block-progression:tb;writing-mode:lr-tb;baseline-shift:baseline;text-anchor:start;display:inline;overflow:visible;visibility:visible;fill:#ffffff;fill-opacity:1;fill-rule:nonzero;stroke:none;stroke-width:1px;marker:none;enable-background:accumulate" />
      <path
         inkscape:connector-curvature="0"
         id="path5281"
         d="m 1353.5625,3079.375 a 2.2031,2.2031 0 1 0 0,4.4062 l 16.5313,0 8.9374,7.9688 a 2.2020313,2.2020313 0 1 0 2.9376,-3.2812 l -9.5626,-8.5313 a 2.20022,2.20022 0 0 0 -1.4687,-0.5625 l -17.375,0 z"
         style="color:#000000;font-style:normal;font-variant:normal;font-weight:normal;font-stretch:normal;font-size:medium;line-height:normal;font-family:Sans;-inkscape-font-specification:Sans;text-indent:0;text-align:start;text-decoration:none;text-decoration-line:none;letter-spacing:normal;word-spacing:normal;text-transform:none;direction:ltr;block-progression:tb;writing-mode:lr-tb;baseline-shift:baseline;text-anchor:start;display:inline;overflow:visible;visibility:visible;fill:#ffffff;fill-opacity:1;fill-rule:nonzero;stroke:none;stroke-width:1px;marker:none;enable-background:accumulate" />
      <path
         inkscape:connector-curvature="0"
         id="path5283"
         d="m 1365,3069.8438 a 2.2036013,2.2036013 0 1 0 0.094,4.4062 l 10,0.3125 4.8124,5.125 a 2.20022,2.20022 0 1 0 3.2188,-3 l -5.4688,-5.8125 a 2.20022,2.20022 0 0 0 -1.5312,-0.6875 l -10.9062,-0.3437 a 2.20022,2.20022 0 0 0 -0.2188,0 z"
         style="color:#000000;font-style:normal;font-variant:normal;font-weight:normal;font-stretch:normal;font-size:medium;line-height:normal;font-family:Sans;-inkscape-font-specification:Sans;text-indent:0;text-align:start;text-decoration:none;text-decoration-line:none;letter-spacing:normal;word-spacing:normal;text-transform:none;direction:ltr;block-progression:tb;writing-mode:lr-tb;baseline-shift:baseline;text-anchor:start;display:inline;overflow:visible;visibility:visible;fill:#ffffff;fill-opacity:1;fill-rule:nonzero;stroke:none;stroke-width:1px;marker:none;enable-background:accumulate" />
      <path
         inkscape:connector-curvature="0"
         id="path5285"
         d="m 1397.4375,3095.0625 a 2.20022,2.20022 0 0 0 -0.25,4.375 l 15.5,2.5 2.125,12.0937 a 2.2066945,2.2066945 0 0 0 4.3437,-0.7812 l -2.4062,-13.625 a 2.20022,2.20022 0 0 0 -1.8125,-1.7812 l -17.0625,-2.75 a 2.20022,2.20022 0 0 0 -0.4375,-0.031 z"
         style="color:#000000;font-style:normal;font-variant:normal;font-weight:normal;font-stretch:normal;font-size:medium;line-height:normal;font-family:Sans;-inkscape-font-specification:Sans;text-indent:0;text-align:start;text-decoration:none;text-decoration-line:none;letter-spacing:normal;word-spacing:normal;text-transform:none;direction:ltr;block-progression:tb;writing-mode:lr-tb;baseline-shift:baseline;text-anchor:start;display:inline;overflow:visible;visibility:visible;fill:#ffffff;fill-opacity:1;fill-rule:nonzero;stroke:none;stroke-width:1px;marker:none;enable-background:accumulate" />
      <path
         inkscape:connector-curvature="0"
         id="path5287"
         d="m 1397.875,3101.1875 a 2.20022,2.20022 0 0 0 -1.0312,4.1563 l 3.5937,1.9062 5.875,22.9688 a 2.2094076,2.2094076 0 1 0 4.2813,-1.0938 l -6.1563,-23.875 a 2.20022,2.20022 0 0 0 -1.0937,-1.375 l -4.4063,-2.4062 a 2.20022,2.20022 0 0 0 -1.0625,-0.2813 z"
         style="color:#000000;font-style:normal;font-variant:normal;font-weight:normal;font-stretch:normal;font-size:medium;line-height:normal;font-family:Sans;-inkscape-font-specification:Sans;text-indent:0;text-align:start;text-decoration:none;text-decoration-line:none;letter-spacing:normal;word-spacing:normal;text-transform:none;direction:ltr;block-progression:tb;writing-mode:lr-tb;baseline-shift:baseline;text-anchor:start;display:inline;overflow:visible;visibility:visible;fill:#ffffff;fill-opacity:1;fill-rule:nonzero;stroke:none;stroke-width:1px;marker:none;enable-background:accumulate" />
      <path
         inkscape:connector-curvature="0"
         id="path5289"
         d="m 1412.125,3144.4688 a 2.20022,2.20022 0 0 0 -2.0312,1.625 l -2.9688,10.1874 -3.875,5.5313 a 2.20022,2.20022 0 1 0 3.5938,2.5313 l 4.0937,-5.7813 a 2.20022,2.20022 0 0 0 0.3125,-0.6563 l 3.0625,-10.5937 a 2.20022,2.20022 0 0 0 -2.1875,-2.8437 z"
         style="color:#000000;font-style:normal;font-variant:normal;font-weight:normal;font-stretch:normal;font-size:medium;line-height:normal;font-family:Sans;-inkscape-font-specification:Sans;text-indent:0;text-align:start;text-decoration:none;text-decoration-line:none;letter-spacing:normal;word-spacing:normal;text-transform:none;direction:ltr;block-progression:tb;writing-mode:lr-tb;baseline-shift:baseline;text-anchor:start;display:inline;overflow:visible;visibility:visible;fill:#ffffff;fill-opacity:1;fill-rule:nonzero;stroke:none;stroke-width:1px;marker:none;enable-background:accumulate" />
      <path
         inkscape:connector-curvature="0"
         id="path5291"
         d="m 1417.4062,3142.0938 a 2.20022,2.20022 0 0 0 -1.9374,2 l -1,9.5624 -3.2813,7.9063 a 2.20022,2.20022 0 1 0 4.0625,1.6875 l 3.4062,-8.1875 a 2.20022,2.20022 0 0 0 0.1563,-0.625 l 1.0313,-9.875 a 2.20022,2.20022 0 0 0 -2.4376,-2.4687 z"
         style="color:#000000;font-style:normal;font-variant:normal;font-weight:normal;font-stretch:normal;font-size:medium;line-height:normal;font-family:Sans;-inkscape-font-specification:Sans;text-indent:0;text-align:start;text-decoration:none;text-decoration-line:none;letter-spacing:normal;word-spacing:normal;text-transform:none;direction:ltr;block-progression:tb;writing-mode:lr-tb;baseline-shift:baseline;text-anchor:start;display:inline;overflow:visible;visibility:visible;fill:#ffffff;fill-opacity:1;fill-rule:nonzero;stroke:none;stroke-width:1px;marker:none;enable-background:accumulate" />
      <path
         inkscape:connector-curvature="0"
         id="path5293"
         d="m 1390.3125,3173.8125 a 2.20022,2.20022 0 0 0 -1,0.2813 l -7.125,3.875 -7.3437,0.6562 a 2.20022,2.20022 0 1 0 0.375,4.375 l 7.8437,-0.6875 a 2.20022,2.20022 0 0 0 0.875,-0.25 l 7.5,-4.0937 a 2.20022,2.20022 0 0 0 -1.125,-4.1563 z"
         style="color:#000000;font-style:normal;font-variant:normal;font-weight:normal;font-stretch:normal;font-size:medium;line-height:normal;font-family:Sans;-inkscape-font-specification:Sans;text-indent:0;text-align:start;text-decoration:none;text-decoration-line:none;letter-spacing:normal;word-spacing:normal;text-transform:none;direction:ltr;block-progression:tb;writing-mode:lr-tb;baseline-shift:baseline;text-anchor:start;display:inline;overflow:visible;visibility:visible;fill:#ffffff;fill-opacity:1;fill-rule:nonzero;stroke:none;stroke-width:1px;marker:none;enable-background:accumulate" />
      <path
         inkscape:connector-curvature="0"
         id="path5295"
         d="m 1360.875,3185.4062 a 2.20022,2.20022 0 0 0 -1.4688,0.75 l -6.7812,7.6876 -12.2812,-1.1876 -8.0626,-5.5 a 2.205845,2.205845 0 1 0 -2.4687,3.6563 l 8.5313,5.7813 a 2.20022,2.20022 0 0 0 1.0312,0.375 l 13.9688,1.375 a 2.20022,2.20022 0 0 0 1.875,-0.75 l 7.5,-8.5313 a 2.20022,2.20022 0 0 0 -1.8438,-3.6563 z"
         style="color:#000000;font-style:normal;font-variant:normal;font-weight:normal;font-stretch:normal;font-size:medium;line-height:normal;font-family:Sans;-inkscape-font-specification:Sans;text-indent:0;text-align:start;text-decoration:none;text-decoration-line:none;letter-spacing:normal;word-spacing:normal;text-transform:none;direction:ltr;block-progression:tb;writing-mode:lr-tb;baseline-shift:baseline;text-anchor:start;display:inline;overflow:visible;visibility:visible;fill:#ffffff;fill-opacity:1;fill-rule:nonzero;stroke:none;stroke-width:1px;marker:none;enable-background:accumulate" />
      <path
         inkscape:connector-curvature="0"
         id="path5297"
         d="m 1299.0938,3181.6562 a 2.20022,2.20022 0 0 0 -1.125,3.9376 l 11.9374,9.5312 a 2.20022,2.20022 0 0 0 1.5,0.5 l 5.4688,-0.3438 a 2.20022,2.20022 0 0 0 1.5312,-0.75 l 2.375,-2.7187 a 2.2033255,2.2033255 0 1 0 -3.3124,-2.9063 l -1.7813,2.0313 -3.6875,0.2187 -11.2812,-9 a 2.20022,2.20022 0 0 0 -1.625,-0.5 z"
         style="color:#000000;font-style:normal;font-variant:normal;font-weight:normal;font-stretch:normal;font-size:medium;line-height:normal;font-family:Sans;-inkscape-font-specification:Sans;text-indent:0;text-align:start;text-decoration:none;text-decoration-line:none;letter-spacing:normal;word-spacing:normal;text-transform:none;direction:ltr;block-progression:tb;writing-mode:lr-tb;baseline-shift:baseline;text-anchor:start;display:inline;overflow:visible;visibility:visible;fill:#ffffff;fill-opacity:1;fill-rule:nonzero;stroke:none;stroke-width:1px;marker:none;enable-background:accumulate" />
      <path
         inkscape:connector-curvature="0"
         id="path5299"
         d="m 1243.5,3178.25 a 2.20022,2.20022 0 0 0 -0.75,4.1562 l 16.375,8.5313 a 2.20022,2.20022 0 0 0 0.2812,0.125 l 8.875,3.0625 a 2.20022,2.20022 0 0 0 1.5,0 l 8.5938,-3.3438 0.094,-0.031 7.0624,-1.6562 a 2.20022,2.20022 0 1 0 -1,-4.2813 l -7.1874,1.6875 a 2.20022,2.20022 0 0 0 -0.25,0.094 l -8.125,3.125 -7.8126,-2.6876 -0.094,-0.062 -16.2813,-8.4688 a 2.20022,2.20022 0 0 0 -1.2812,-0.25 z"
         style="color:#000000;font-style:normal;font-variant:normal;font-weight:normal;font-stretch:normal;font-size:medium;line-height:normal;font-family:Sans;-inkscape-font-specification:Sans;text-indent:0;text-align:start;text-decoration:none;text-decoration-line:none;letter-spacing:normal;word-spacing:normal;text-transform:none;direction:ltr;block-progression:tb;writing-mode:lr-tb;baseline-shift:baseline;text-anchor:start;display:inline;overflow:visible;visibility:visible;fill:#ffffff;fill-opacity:1;fill-rule:nonzero;stroke:none;stroke-width:1px;marker:none;enable-background:accumulate" />
      <path
         inkscape:connector-curvature="0"
         id="path5301"
         d="m 1229.0625,3164.9375 a 2.20022,2.20022 0 0 0 -1.3125,3.9375 l 3.4062,2.75 a 2.201074,2.201074 0 1 0 2.75,-3.4375 l -3.4062,-2.75 a 2.20022,2.20022 0 0 0 -1.4375,-0.5 z"
         style="color:#000000;font-style:normal;font-variant:normal;font-weight:normal;font-stretch:normal;font-size:medium;line-height:normal;font-family:Sans;-inkscape-font-specification:Sans;text-indent:0;text-align:start;text-decoration:none;text-decoration-line:none;letter-spacing:normal;word-spacing:normal;text-transform:none;direction:ltr;block-progression:tb;writing-mode:lr-tb;baseline-shift:baseline;text-anchor:start;display:inline;overflow:visible;visibility:visible;fill:#ffffff;fill-opacity:1;fill-rule:nonzero;stroke:none;stroke-width:1px;marker:none;enable-background:accumulate" />
    </g>
    <path
       style="color:#000000;display:inline;overflow:visible;visibility:visible;fill:#ffffff;fill-opacity:1;fill-rule:nonzero;stroke:none;stroke-width:1px;marker:none;enable-background:accumulate"
       d="m 479.13908,1907.2289 c -0.78413,0.291 -55.47626,32.5954 -71.9427,36.0878 37.24551,-0.8731 80.17595,-25.0286 80.17595,-25.0286 z"
       id="path5303"
       inkscape:connector-curvature="0" />
    <path
       style="color:#000000;display:inline;overflow:visible;visibility:visible;fill:#ffffff;fill-opacity:1;fill-rule:nonzero;stroke:none;stroke-width:1px;marker:none;enable-background:accumulate"
       d="m 469.35144,2457.605 c -1.65696,-53.0381 66.27922,-106.0763 178.954,-109.7341 112.67465,-3.6578 208.7796,38.407 218.72142,93.274 9.94193,54.8671 -60.66639,107.9053 -158.42831,109.7341 -97.76191,1.8289 -229.30529,-12.8023 -239.24711,-93.274 z"
       id="path3565"
       inkscape:connector-curvature="0"
       sodipodi:nodetypes="csssc" />
  </g>
  <g
     inkscape:groupmode="layer"
     id="layer1"
     inkscape:label="txt">
    <text
       xml:space="preserve"
       style="font-style:normal;font-variant:normal;font-weight:normal;font-stretch:normal;font-size:12px;line-height:125%;font-family:Lavi;-inkscape-font-specification:Lavi;text-align:center;letter-spacing:0px;word-spacing:0px;text-anchor:middle;fill:#000000;fill-opacity:1;stroke:none"
       x="1969.8505"
       y="974.62598"
       id="text4246"
       sodipodi:linespacing="125%"><tspan
         sodipodi:role="line"
         style="font-style:italic;font-variant:normal;font-weight:normal;font-stretch:normal;font-size:45px;font-family:Lavi;-inkscape-font-specification:'Lavi Italic'"
         x="1969.8505"
         y="974.62598"
         id="tspan4349">&quot;De beste toverdrankjes</tspan><tspan
         sodipodi:role="line"
         style="font-style:italic;font-variant:normal;font-weight:normal;font-stretch:normal;font-size:45px;font-family:Lavi;-inkscape-font-specification:'Lavi Italic'"
         x="1969.8505"
         y="1030.8761"
         id="tspan3393">tegen honger? Die vind je</tspan><tspan
         sodipodi:role="line"
         style="font-style:italic;font-variant:normal;font-weight:normal;font-stretch:normal;font-size:45px;font-family:Lavi;-inkscape-font-specification:'Lavi Italic'"
         x="1969.8505"
         y="1087.1261"
         id="tspan4391">kant-en-klaar in de natuur,</tspan><tspan
         sodipodi:role="line"
         style="font-style:italic;font-variant:normal;font-weight:normal;font-stretch:normal;font-size:45px;font-family:Lavi;-inkscape-font-specification:'Lavi Italic'"
         x="1969.8505"
         y="1143.3761"
         id="tspan4393">als je weet welke planten</tspan><tspan
         sodipodi:role="line"
         style="font-style:italic;font-variant:normal;font-weight:normal;font-stretch:normal;font-size:45px;font-family:Lavi;-inkscape-font-specification:'Lavi Italic'"
         x="1969.8505"
         y="1199.6261"
         id="tspan3405">eetbaar zijn!&quot;</tspan></text>
    <text
       xml:space="preserve"
       style="font-style:normal;font-variant:normal;font-weight:normal;font-stretch:normal;font-size:12px;line-height:125%;font-family:Lavi;-inkscape-font-specification:Lavi;text-align:center;letter-spacing:0px;word-spacing:0px;text-anchor:middle;fill:#000000;fill-opacity:1;stroke:none"
       x="948.99292"
       y="2549.5725"
       id="text4246-2"
       sodipodi:linespacing="125%"><tspan
         sodipodi:role="line"
         style="font-size:45px"
         x="948.99292"
         y="2549.5725"
         id="tspan4227">Heeft ze me</tspan><tspan
         sodipodi:role="line"
         style="font-size:45px"
         x="948.99292"
         y="2605.8225"
         id="tspan4229">er ook maar</tspan><tspan
         sodipodi:role="line"
         style="font-size:45px"
         x="948.99292"
         y="2662.0725"
         id="tspan4231">één geleerd?</tspan></text>
    <text
       xml:space="preserve"
       style="font-style:normal;font-variant:normal;font-weight:normal;font-stretch:normal;font-size:12px;line-height:125%;font-family:Lavi;-inkscape-font-specification:Lavi;text-align:center;letter-spacing:0px;word-spacing:0px;text-anchor:middle;fill:#000000;fill-opacity:1;stroke:none"
       x="1011.6969"
       y="1924.406"
       id="text4246-1-3"
       sodipodi:linespacing="125%"><tspan
         sodipodi:role="line"
         style="font-size:45px"
         x="1011.6969"
         y="1924.406"
         id="tspan4198-6">En we hebben</tspan><tspan
         sodipodi:role="line"
         style="font-size:45px"
         x="1011.6969"
         y="1980.656"
         id="tspan4230">al dagen niets</tspan><tspan
         sodipodi:role="line"
         style="font-size:45px"
         x="1011.6969"
         y="2036.906"
         id="tspan4202-4">gegeten.</tspan></text>
    <path
       style="fill:#ffffff;stroke:none"
       d="m 886.37305,1592.501 c 21.55989,22.9922 18.24044,32.1943 13.58315,42.3773 -4.65713,10.1831 -10.03352,18.9288 -7.28323,25.6442 2.75014,6.7151 9.98323,13.2537 16.01769,17.3966 6.03443,4.143 -1.01568,10.4266 -2.75149,17.9213 -1.73575,7.4949 3.84933,48.8396 3.84933,48.8396 0,0 19.75368,-24.4746 23.31609,-33.8003 3.56256,-9.3255 4.913,-12.7174 5.29836,-16.8203 0.38522,-4.103 -0.16581,-14.3412 -5.22225,-20.1838 -5.05644,-5.8427 -12.67159,-8.8811 -17.49774,-12.4365 -4.82629,-3.5553 -2.3259,-12.0013 -0.46383,-20.4619 1.86215,-8.4605 1.83118,-14.9098 -5.9524,-27.296 -6.67188,-10.6173 -22.89368,-21.1802 -22.89368,-21.1802 z"
       id="path3023-2"
       inkscape:connector-curvature="0"
       sodipodi:nodetypes="csssscssssssc" />
    <text
       xml:space="preserve"
       style="color:#000000;font-style:normal;font-variant:normal;font-weight:normal;font-stretch:normal;font-size:36.54381561px;line-height:125%;font-family:Arial;-inkscape-font-specification:Arial;letter-spacing:0px;word-spacing:0px;display:inline;overflow:visible;visibility:visible;opacity:1;fill:#000000;fill-opacity:1;fill-rule:nonzero;stroke:#000000;stroke-width:0.80183554;stroke-miterlimit:4;stroke-dasharray:none;stroke-opacity:1;marker:none;enable-background:accumulate"
       x="982.18042"
       y="1768.173"
       id="text4190-8"
       sodipodi:linespacing="125%"
       transform="matrix(0.89401021,-0.10429749,-0.1924975,1.1410127,0,0)"><tspan
         sodipodi:role="line"
         id="tspan4192-5"
         x="983.63165"
         y="1768.173"
         style="font-style:normal;font-variant:normal;font-weight:normal;font-stretch:normal;font-family:Lavi;-inkscape-font-specification:Lavi;text-align:center;letter-spacing:2.90244102px;text-anchor:middle;fill:#000000;stroke:#000000;stroke-width:0.80183554;stroke-miterlimit:4;stroke-dasharray:none">Rommel</tspan></text>
    <text
       sodipodi:linespacing="125%"
       id="text4395"
       y="2436.3259"
       x="675.19257"
       style="font-style:normal;font-variant:normal;font-weight:normal;font-stretch:normal;font-size:12px;line-height:125%;font-family:Lavi;-inkscape-font-specification:Lavi;text-align:center;letter-spacing:0px;word-spacing:0px;text-anchor:middle;fill:#000000;fill-opacity:1;stroke:none"
       xml:space="preserve"><tspan
         id="tspan4399"
         y="2436.3259"
         x="675.19257"
         style="font-size:45px"
         sodipodi:role="line">Maar echte</tspan><tspan
         id="tspan4405"
         y="2492.5759"
         x="675.19257"
         style="font-size:45px"
         sodipodi:role="line">toverdranken?</tspan></text>
    <text
       xml:space="preserve"
       style="font-style:normal;font-variant:normal;font-weight:normal;font-stretch:normal;font-size:12px;line-height:125%;font-family:Lavi;-inkscape-font-specification:Lavi;text-align:center;letter-spacing:0px;word-spacing:0px;text-anchor:middle;fill:#000000;fill-opacity:1;stroke:none"
       x="929.35284"
       y="1778.9626"
       id="text4246-1"
       sodipodi:linespacing="125%"><tspan
         sodipodi:role="line"
         style="font-size:45px"
         x="929.35284"
         y="1778.9626"
         id="tspan4198">Ik ben ook</tspan><tspan
         sodipodi:role="line"
         style="font-size:45px"
         x="929.35284"
         y="1835.2126"
         id="tspan4202">doodop …</tspan></text>
  </g>
</svg>
