<?xml version="1.0" encoding="UTF-8" standalone="no"?>
<!-- Created with Inkscape (http://www.inkscape.org/) -->

<svg
   xmlns:dc="http://purl.org/dc/elements/1.1/"
   xmlns:cc="http://creativecommons.org/ns#"
   xmlns:rdf="http://www.w3.org/1999/02/22-rdf-syntax-ns#"
   xmlns:svg="http://www.w3.org/2000/svg"
   xmlns="http://www.w3.org/2000/svg"
   xmlns:xlink="http://www.w3.org/1999/xlink"
   xmlns:sodipodi="http://sodipodi.sourceforge.net/DTD/sodipodi-0.dtd"
   xmlns:inkscape="http://www.inkscape.org/namespaces/inkscape"
   id="svg2"
   version="1.1"
   inkscape:version="0.91 r13725"
   width="2481"
   height="3503"
   sodipodi:docname="Pepper-and-Carrot_by-David-Revoy_E17P06.svg">
  <metadata
     id="metadata8">
    <rdf:RDF>
      <cc:Work
         rdf:about="">
        <dc:format>image/svg+xml</dc:format>
        <dc:type
           rdf:resource="http://purl.org/dc/dcmitype/StillImage" />
        <dc:title />
      </cc:Work>
    </rdf:RDF>
  </metadata>
  <defs
     id="defs6" />
  <sodipodi:namedview
     pagecolor="#ffffff"
     bordercolor="#666666"
     borderopacity="1"
     objecttolerance="10"
     gridtolerance="10"
     guidetolerance="10"
     inkscape:pageopacity="0"
     inkscape:pageshadow="2"
     inkscape:window-width="1366"
     inkscape:window-height="716"
     id="namedview4"
     showgrid="false"
     inkscape:zoom="0.36"
     inkscape:cx="1446.2302"
     inkscape:cy="1564.871"
     inkscape:window-x="0"
     inkscape:window-y="0"
     inkscape:window-maximized="1"
     inkscape:current-layer="layer1" />
  <g
     inkscape:groupmode="layer"
     id="layer2"
     inkscape:label="artwork"
     sodipodi:insensitive="true"
     style="display:inline">
    <image
       sodipodi:absref="/media/bonaditya/DATA/PEPPERCARROT/peppercarrot_ep17_translation-master/id/../gfx_Pepper-and-Carrot_by-David-Revoy_E17P06.png"
       xlink:href="../gfx_Pepper-and-Carrot_by-David-Revoy_E17P06.png"
       width="2481"
       height="3503"
       id="image10"
       x="0"
       y="0" />
  </g>
  <g
     inkscape:groupmode="layer"
     id="layer3"
     inkscape:label="speechbubbles">
    <path
       style="fill:#ffffff;stroke:none"
       d="m 1171.776,1451.4835 c -23.1605,-91.5539 -157.4792,-114.3577 -121.4585,-117.2114 27.9352,-2.2134 255.2639,-2.2635 331.7255,-4.0593 76.4616,-1.796 273.4025,2.6477 337.84,7.1499 69.0213,4.8223 89.6552,48.229 94.7513,97.486 6.6889,64.6552 -23.4469,77.8073 -72.1237,99.6199 -49.3855,22.13 -303.7045,30.52 -321.1381,28.7848 -17.4335,-1.7356 -378.776,5.2809 -394.079,-0.7946 -15.3033,-6.0755 150.6468,-63.9311 144.4825,-110.9753 z"
       id="path3278-7"
       inkscape:connector-curvature="0"
       sodipodi:nodetypes="csssssssc" />
    <path
       style="color:#000000;display:inline;overflow:visible;visibility:visible;fill:#ffffff;fill-opacity:1;fill-rule:nonzero;stroke:none;stroke-width:1px;marker:none;enable-background:accumulate"
       d="m 120.48015,2442.9501 c 3.79073,-57.048 68.64508,-99.0445 240.65668,-89.032 92.13866,5.3632 196.6857,8.6969 192.19966,92.2637 -4.48613,83.5668 -154.66339,82.0452 -185.59962,84.1281 -30.93627,2.0827 -192.58903,-6.0046 -221.60769,-34.3037 -18.16502,-17.7147 -25.66313,-35.3928 -25.64903,-53.0561 z"
       id="path4546-6"
       inkscape:connector-curvature="0"
       sodipodi:nodetypes="cssssc" />
    <path
       style="color:#000000;display:inline;overflow:visible;visibility:visible;fill:#ffffff;fill-opacity:1;fill-rule:nonzero;stroke:none;stroke-width:1px;marker:none;enable-background:accumulate"
       d="m 870.07243,2590.5972 c -23.62035,-34.1403 -42.50363,-36.5905 -55.96461,-39.6154 -1.87547,3.3952 -6.49852,8.7941 -6.49852,8.7941 0,0 -25.97688,-8.0908 -36.79234,-8.3139 -10.8154,-0.2233 -11.06323,11.4471 -11.06323,11.4471 0,0 50.13669,16.8309 59.91961,23.2139 4.71046,-9.5178 8.40315,-13.5624 8.49056,-17.6813 8.12621,-0.5191 33.14349,10.2991 41.90853,22.1555 z"
       id="path4456"
       inkscape:connector-curvature="0" />
    <path
       style="color:#000000;display:inline;overflow:visible;visibility:visible;fill:#ffffff;fill-opacity:1;fill-rule:nonzero;stroke:none;stroke-width:1px;marker:none;enable-background:accumulate"
       d="m 448.12172,2488.6542 c 32.25651,-42.3494 207.70264,-38.7341 266.07685,-20.3864 58.37393,18.3477 80.09451,49.9464 82.80955,61.159 2.71492,11.2124 -4.07256,63.1976 -33.9384,73.3908 -29.86573,10.1932 -115.39034,15.2897 -145.25618,15.2897 -29.86574,0 -125.20384,-6.4878 -149.329,-21.4057 -23.07813,-14.2704 -52.61947,-65.6983 -20.36282,-108.0474 z"
       id="path3330"
       inkscape:connector-curvature="0"
       sodipodi:nodetypes="zsssssz" />
    <path
       style="fill:#ffffff;stroke:none"
       d="m 1305.4599,1686.9052 c -61.4509,-16.3887 -30.8533,-65.2702 -45.5225,-67.9315 -14.6694,-2.6615 -27.8562,-6.807 -33.7712,-15.0125 -5.9149,-8.2051 -17.4337,-18.7558 -18.2822,-28.6243 -0.8487,-9.8684 -23.7836,-10.6121 -33.4878,-14.4455 -9.7043,-3.8334 -11.9428,-27.0084 -31.3844,-32.284 5.3237,-14.6209 97.6313,-19.5261 101.1522,-6.625 3.0581,11.2046 -31.3327,8.8903 -26.385,11.6146 4.9478,2.7247 15.8223,5.1341 19.2489,15.2244 3.4267,10.0904 1.9896,20.862 2.9452,28.9403 0.9559,8.0785 12.0525,14.9191 22.8341,19.6159 10.8918,4.7448 13.7129,2.9923 22.8729,15.641 10.2162,14.1071 -25.9903,41.4407 19.7798,73.8866 z"
       id="path3023-2"
       inkscape:connector-curvature="0"
       sodipodi:nodetypes="csssscssssssc" />
    <path
       style="color:#000000;display:inline;overflow:visible;visibility:visible;fill:#ffffff;fill-opacity:1;fill-rule:nonzero;stroke:none;stroke-width:1px;marker:none;enable-background:accumulate"
       d="m 1776.2588,1670.0557 c -2.5812,-50.914 72.293,-99.7619 291.7686,-90.2344 254.1845,11.0342 264.8843,16.1804 265.6574,113.1205 0.5866,73.5639 -74.455,94.4393 -106.7727,102.8167 -32.318,8.3775 -84.3709,13.2595 -178.9241,13.6088 -93.5992,0.3458 -177.435,-19.437 -216.2929,-40.5095 -31.5005,-17.0826 -55.3069,-40.4717 -55.4363,-98.8021 z"
       id="path3365"
       inkscape:connector-curvature="0"
       sodipodi:nodetypes="csssssc" />
    <path
       style="color:#000000;display:inline;overflow:visible;visibility:visible;fill:#ffffff;fill-opacity:1;fill-rule:nonzero;stroke:none;stroke-width:1px;marker:none;enable-background:accumulate"
       d="m 1773.6345,1852.6935 c 20.6585,1.8503 42.0221,4.0502 66.635,-2.9295 7.0191,-2.1076 14.3439,-4.6924 21.2622,-8.6072 6.8497,-5.1792 10.0657,-12.467 9.831,-17.98 0.3909,-8.2705 -3.5388,-15.3573 1.1997,-24.9485 3.6243,-6.9865 12.0808,-11.4315 19.0666,-15.6028 17.8952,-10.396 36.4648,-19.1971 53.5972,-31.4906 19.8044,-13.0719 40.1589,-27.7498 54.2823,-45.8251 5.4819,-7.1824 10.3168,-14.933 11.2221,-21.9705 3.3226,-18.3701 -5.898,-33.4735 -24.721,-35.5762 -12.7554,-0.1579 -31.116,10.8278 -37.1785,23.8071 -3.3077,6.857 -1.2679,12.4236 2.5712,15.9087 4.8396,8.3144 1.708,21.3756 -6.8119,33.2872 -6.8835,9.8609 -16.573,19.0871 -27.2529,26.4949 -13.0662,12.4722 -29.8055,18.2178 -44.9671,25.8816 -6.9126,3.5757 -14.194,7.7145 -19.8565,13.2749 -6.6316,8.8458 -4.9747,16.822 -2.4875,23.0116 2.3193,6.5328 6.0945,13.475 0.9017,22.8012 -2.7306,6.501 -11.3267,8.4182 -17.2848,11.3996 -19.5136,7.7854 -38.7819,10.7385 -55.5968,9.9195 -1.533,-0.1984 -2.9725,-0.5244 -4.412,-0.8559 z"
       id="path4496"
       inkscape:connector-curvature="0" />
  </g>
  <g
     inkscape:groupmode="layer"
     id="layer1"
     inkscape:label="txt">
    <text
       xml:space="preserve"
       style="font-style:normal;font-variant:normal;font-weight:normal;font-stretch:normal;font-size:12px;line-height:125%;font-family:Lavi;-inkscape-font-specification:Lavi;text-align:center;letter-spacing:0px;word-spacing:0px;text-anchor:middle;fill:#000000;fill-opacity:1;stroke:none"
       x="1408.0411"
       y="1401.4237"
       id="text4246-1"
       sodipodi:linespacing="125%"><tspan
         sodipodi:role="line"
         style="font-style:italic;font-variant:normal;font-weight:normal;font-stretch:normal;font-size:45px;font-family:Lavi;-inkscape-font-specification:'Lavi Italic'"
         x="1408.0411"
         y="1401.4237"
         id="tspan3463">&quot;Penyihir Chaosah tidak membutuhkan</tspan><tspan
         sodipodi:role="line"
         style="font-style:italic;font-variant:normal;font-weight:normal;font-stretch:normal;font-size:45px;font-family:Lavi;-inkscape-font-specification:'Lavi Italic'"
         x="1408.0411"
         y="1457.6737"
         id="tspan3364">kompas maupun peta.</tspan><tspan
         sodipodi:role="line"
         style="font-style:italic;font-variant:normal;font-weight:normal;font-stretch:normal;font-size:45px;font-family:Lavi;-inkscape-font-specification:'Lavi Italic'"
         x="1408.0411"
         y="1513.9237"
         id="tspan3380">Bintanglah yang jadi penentu arah&quot;</tspan></text>
    <text
       xml:space="preserve"
       style="font-style:normal;font-variant:normal;font-weight:normal;font-stretch:normal;font-size:12.30392742px;line-height:125%;font-family:Lavi;-inkscape-font-specification:Lavi;text-align:center;letter-spacing:0px;word-spacing:0px;text-anchor:middle;fill:#000000;fill-opacity:1;stroke:none"
       x="331.57767"
       y="2487.4597"
       id="text4246-2-5-8"
       sodipodi:linespacing="125%"
       transform="scale(1.0253273,0.97529833)"><tspan
         sodipodi:role="line"
         style="font-size:46.13972855px"
         x="331.57767"
         y="2487.4597"
         id="tspan4406-1">Bersemangatlah,</tspan><tspan
         sodipodi:role="line"
         style="font-size:46.13972855px"
         x="331.57767"
         y="2545.1343"
         id="tspan4487">Carrot!</tspan></text>
    <text
       xml:space="preserve"
       style="font-style:normal;font-variant:normal;font-weight:normal;font-stretch:normal;font-size:12px;line-height:125%;font-family:Lavi;-inkscape-font-specification:Lavi;text-align:center;letter-spacing:0px;word-spacing:0px;text-anchor:middle;fill:#000000;fill-opacity:1;stroke:none"
       x="615.03143"
       y="2517.978"
       id="text4246-2-5-8-5"
       sodipodi:linespacing="125%"><tspan
         sodipodi:role="line"
         style="font-size:45px"
         x="615.03143"
         y="2517.978"
         id="tspan3479">Kita sudah</tspan><tspan
         sodipodi:role="line"
         style="font-size:45px"
         x="615.03143"
         y="2574.228"
         id="tspan3360">sampai!</tspan></text>
    <text
       xml:space="preserve"
       style="font-style:normal;font-variant:normal;font-weight:normal;font-stretch:normal;font-size:12px;line-height:125%;font-family:Lavi;-inkscape-font-specification:Lavi;text-align:center;letter-spacing:0px;word-spacing:0px;text-anchor:middle;fill:#000000;fill-opacity:1;stroke:none"
       x="2055.9636"
       y="1658.4164"
       id="text4246-2-5-7"
       sodipodi:linespacing="125%"><tspan
         sodipodi:role="line"
         style="font-size:45px"
         x="2055.9636"
         y="1658.4164"
         id="tspan3475">... Harusnya aku belajar</tspan><tspan
         sodipodi:role="line"
         style="font-size:45px"
         x="2055.9636"
         y="1714.6664"
         id="tspan3378">sihir untuk mencari arah</tspan><tspan
         sodipodi:role="line"
         style="font-size:45px"
         x="2055.9636"
         y="1770.9164"
         id="tspan3383">dengan mudah!</tspan></text>
  </g>
</svg>
