<?xml version="1.0" encoding="UTF-8" standalone="no"?>
<!-- Created with Inkscape (http://www.inkscape.org/) -->

<svg
   xmlns:dc="http://purl.org/dc/elements/1.1/"
   xmlns:cc="http://creativecommons.org/ns#"
   xmlns:rdf="http://www.w3.org/1999/02/22-rdf-syntax-ns#"
   xmlns:svg="http://www.w3.org/2000/svg"
   xmlns="http://www.w3.org/2000/svg"
   xmlns:xlink="http://www.w3.org/1999/xlink"
   xmlns:sodipodi="http://sodipodi.sourceforge.net/DTD/sodipodi-0.dtd"
   xmlns:inkscape="http://www.inkscape.org/namespaces/inkscape"
   id="svg2"
   version="1.1"
   inkscape:version="0.91 r13725"
   width="2481"
   height="3503"
   sodipodi:docname="Pepper-and-Carrot_by-David-Revoy_E17P01.svg">
  <metadata
     id="metadata8">
    <rdf:RDF>
      <cc:Work
         rdf:about="">
        <dc:format>image/svg+xml</dc:format>
        <dc:type
           rdf:resource="http://purl.org/dc/dcmitype/StillImage" />
        <dc:title />
      </cc:Work>
    </rdf:RDF>
  </metadata>
  <defs
     id="defs6">
    <filter
       style="color-interpolation-filters:sRGB"
       id="filter4375-4-1-1-1"
       inkscape:label="deevad outline effect">
      <feFlood
         id="feFlood4377-7-9-0-8"
         flood-opacity="1"
         flood-color="rgb(0,0,0)"
         result="flood" />
      <feComposite
         id="feComposite4379-3-8-8-2"
         in2="SourceGraphic"
         in="flood"
         operator="in"
         result="composite1" />
      <feMorphology
         id="feMorphology4393-1-0-49-8"
         operator="dilate"
         radius="4"
         result="result3" />
      <feComposite
         id="feComposite4385-9-5-7-0"
         in2="result3"
         in="SourceGraphic"
         operator="over"
         result="composite2" />
    </filter>
  </defs>
  <sodipodi:namedview
     pagecolor="#ffffff"
     bordercolor="#666666"
     borderopacity="1"
     objecttolerance="10"
     gridtolerance="10"
     guidetolerance="10"
     inkscape:pageopacity="0"
     inkscape:pageshadow="2"
     inkscape:window-width="1024"
     inkscape:window-height="551"
     id="namedview4"
     showgrid="false"
     inkscape:zoom="0.31230374"
     inkscape:cx="1240.5"
     inkscape:cy="1197.525"
     inkscape:window-x="0"
     inkscape:window-y="24"
     inkscape:window-maximized="1"
     inkscape:current-layer="layer1" />
  <g
     inkscape:groupmode="layer"
     id="layer2"
     inkscape:label="artwork"
     sodipodi:insensitive="true">
    <image
       sodipodi:absref="/home/talime/peppercarrot_ep17_translation-master/sk/../gfx_Pepper-and-Carrot_by-David-Revoy_E17P01.png"
       xlink:href="../gfx_Pepper-and-Carrot_by-David-Revoy_E17P01.png"
       y="0"
       x="0"
       id="image10"
       height="3503"
       width="2481" />
  </g>
  <g
     inkscape:groupmode="layer"
     id="layer3"
     inkscape:label="speechbubbles">
    <path
       style="fill:#ffffff;stroke:none"
       d="m 1835.2719,2422.9569 c 5.8583,-60.7698 25.2286,-96.6636 78.237,-133.6004 45.538,-31.7313 288.6656,-29.0844 357.3749,-17.251 50.283,8.6601 149.5609,33.5604 153.6078,88.2142 3.8458,51.9379 16.5718,164.6333 -24.8922,198.1125 -43.7514,35.3264 -311.8796,24.888 -411.7225,13.7929 -133.4501,-14.8295 -147.6885,-102.9212 -152.605,-149.2682 z"
       id="path3021"
       inkscape:connector-curvature="0"
       sodipodi:nodetypes="csssssc" />
    <path
       style="color:#000000;display:inline;overflow:visible;visibility:visible;fill:#ffffff;fill-opacity:1;fill-rule:nonzero;stroke:none;stroke-width:1px;marker:none;enable-background:accumulate"
       d="m 1781.9829,2275.3363 c 43.0673,8.2854 66.1639,39.6775 70.6387,48.3686 4.4748,8.691 18.2521,35.9003 53.2109,40.6343 34.9589,4.7342 34.6065,23.736 34.6065,23.736 l -43.5145,10.2041 c 0,0 -39.462,-19.6878 -54.101,-39.0809 -14.6389,-19.3932 -22.7941,-50.3705 -31.7823,-59.1151 -8.9881,-8.7446 -15.6524,-19.837 -29.0583,-24.747 z"
       id="path4018"
       inkscape:connector-curvature="0"
       sodipodi:nodetypes="cssccssc" />
    <path
       style="fill:#ffffff;fill-rule:evenodd;stroke:none"
       d="m 908.249,1787.4862 c 36.10392,13.7152 68.73935,22.2423 57.64394,-34.6437 63.90626,77.2312 54.73916,24.3383 64.84946,5.7739 37.9946,54.5559 70.6859,46.7812 99.0756,-11.5477 16.0491,84.1367 49.6336,43.3718 79.2603,30.7944 -0.072,23.6605 -8.1615,50.7916 79.2605,36.5683 -24.9961,21.3695 -34.3199,40.7691 21.6164,51.9656 -38.8558,17.1817 -60.195,35.4645 -18.0137,57.7394 -22.4084,32.4494 -7.4208,51.7339 23.418,65.4382 -72.2062,1.8977 -54.8174,19.7499 -43.2331,36.5683 -61.4758,-34.5786 -70.0769,-20.7346 -64.8494,5.774 -28.6135,-15.2067 -49.7624,-51.149 -100.8769,-3.8493 -15.2019,-15.6979 -29.2149,-35.5247 -63.048,13.4725 -2.3867,-42.7389 -27.123,-41.1312 -63.04816,-17.3218 -9.47549,-40.0813 -45.05611,-19.7307 -82.86317,5.7741 30.85921,-39.1202 12.82122,-53.5317 -28.46876,-93.2695 43.77588,-32.2174 18.68617,-31.9987 12.18584,-54.9287 22.16015,-16.276 51.09038,-34.0058 -7.13493,-65.4382 34.04289,4.8867 70.29065,11.1867 34.22608,-28.8698 z"
       id="path4582"
       inkscape:connector-curvature="0"
       sodipodi:nodetypes="ccccccccccccccccccc" />
    <path
       style="color:#000000;display:inline;overflow:visible;visibility:visible;fill:#ffffff;fill-opacity:1;fill-rule:nonzero;stroke:none;stroke-width:1px;marker:none;enable-background:accumulate"
       d="m 1196.0761,1952.9058 c 23.7239,14.2255 61.9488,43.044 76.2655,59.624 3.0955,-13.8639 8.4416,-25.7793 12.4353,-35.1298 16.784,12.1296 90.9257,73.1169 100.8209,94.759 -22.0361,-54.5674 -74.3748,-104.9506 -103.7006,-122.6017 -7.5332,11.6229 -10.4968,19.4636 -14.6173,25.5024 -25.4071,-2.5419 -56.6177,-44.4327 -56.8452,-44.9452 z"
       id="path5066"
       inkscape:connector-curvature="0"
       sodipodi:nodetypes="cccccccc" />
    <path
       style="color:#000000;display:inline;overflow:visible;visibility:visible;fill:#ffffff;fill-opacity:1;fill-rule:nonzero;stroke:none;stroke-width:1px;marker:none;enable-background:accumulate"
       d="m 580.8868,2280.1636 c -30.11408,-18.4643 -40.65397,-35.6097 -37.64245,-46.1608 3.01138,-10.551 30.11393,-64.6251 63.23924,-71.2196 33.12545,-6.5944 118.95024,-14.5076 138.52442,-7.9132 19.57418,6.5943 75.28504,50.1175 75.28504,72.5384 0,22.421 -10.53989,65.944 -40.65397,79.1327 -30.11393,13.1889 -162.6156,21.1022 -198.75228,-26.3775 z"
       id="path3349"
       inkscape:connector-curvature="0" />
    <path
       style="fill:#ffffff;stroke:none"
       d="m 540.60159,2364.5645 c -0.79656,-19.319 24.91066,-72.7667 135.09246,-66.6175 110.18179,6.1493 144.18354,28.1557 146.58968,62.5181 3.80644,54.3602 -54.55512,67.5317 -137.95247,69.6481 -85.97366,2.1819 -139.02786,-16.6844 -143.72967,-65.5487 z"
       id="path3280"
       inkscape:connector-curvature="0"
       sodipodi:nodetypes="csssc" />
    <path
       style="fill:#ffffff;stroke:none"
       d="m 462.7487,2323.4218 c 19.54312,23.3799 27.8615,17.4813 37.10761,9.6978 9.24609,-7.7835 17.24434,-16.2258 23.0997,-13.9259 5.85539,2.3001 11.36723,10.3556 14.79931,17.3132 3.4321,6.9575 9.3438,2.994 16.07856,-0.5744 6.73479,-3.5684 43.2244,-10.0681 43.2244,-10.0681 0,0 -22.57858,29.6369 -31.0169,35.8681 -8.43834,6.2309 -11.50973,8.5673 -15.17309,9.7994 -3.66342,1.232 -12.74208,2.3755 -17.72582,-3.0266 -4.98374,-5.4019 -7.3681,-14.5768 -10.32818,-20.0976 -2.95996,-5.5207 -11.05253,-6.3898 -18.65118,-2.486 -7.59863,3.9039 -25.24054,9.1542 -32.47234,-0.9969 -7.2318,-10.1511 -8.94207,-21.503 -8.94207,-21.503 z"
       id="path3023"
       inkscape:connector-curvature="0"
       sodipodi:nodetypes="csssscssssssc" />
  </g>
  <g
     inkscape:groupmode="layer"
     id="layer1"
     inkscape:label="txt">
    <text
       xml:space="preserve"
       style="font-style:normal;font-variant:normal;font-weight:normal;font-stretch:normal;font-size:12px;line-height:125%;font-family:Lavi;-inkscape-font-specification:Lavi;text-align:center;letter-spacing:0px;word-spacing:0px;text-anchor:middle;fill:#000000;fill-opacity:1;stroke:none"
       x="684.38007"
       y="2212.8169"
       id="text4246"
       sodipodi:linespacing="125%"><tspan
         sodipodi:role="line"
         style="font-size:45px"
         x="684.38007"
         y="2212.8169"
         id="tspan4252">Ale,</tspan><tspan
         sodipodi:role="line"
         style="font-size:45px"
         x="684.38007"
         y="2269.0669"
         id="tspan4146">Pepper...</tspan><tspan
         sodipodi:role="line"
         style="font-size:45px"
         x="684.38007"
         y="2325.3169"
         id="tspan4152" /><tspan
         sodipodi:role="line"
         style="font-size:45px"
         x="684.38007"
         y="2381.5669"
         id="tspan3330">Vráť sa...</tspan></text>
    <text
       xml:space="preserve"
       style="font-style:normal;font-variant:normal;font-weight:normal;font-stretch:normal;font-size:11.91172695px;line-height:125%;font-family:Lavi;-inkscape-font-specification:Lavi;text-align:center;letter-spacing:0px;word-spacing:0px;text-anchor:middle;fill:#000000;fill-opacity:1;stroke:#000000;stroke-width:2.38234568;stroke-miterlimit:4;stroke-dasharray:none;stroke-opacity:1"
       x="1083.8468"
       y="1885.3058"
       id="text4246-7"
       sodipodi:linespacing="125%"><tspan
         sodipodi:role="line"
         style="font-style:normal;font-variant:normal;font-weight:bold;font-stretch:normal;font-size:58.31282425px;font-family:Lavi;-inkscape-font-specification:'Lavi Bold';stroke:#000000;stroke-width:2.38234568;stroke-miterlimit:4;stroke-dasharray:none;stroke-opacity:1"
         x="1083.8468"
         y="1885.3058"
         id="tspan4150-5">NIE!</tspan><tspan
         sodipodi:role="line"
         style="font-style:normal;font-variant:normal;font-weight:bold;font-stretch:normal;font-size:44.66897964px;font-family:Lavi;-inkscape-font-specification:'Lavi Bold';stroke:#000000;stroke-width:2.38234568;stroke-miterlimit:4;stroke-dasharray:none;stroke-opacity:1"
         x="1083.8468"
         y="1944.5973"
         id="tspan4190">ODCHÁDZAM!!</tspan></text>
    <text
       xml:space="preserve"
       style="font-style:normal;font-variant:normal;font-weight:normal;font-stretch:normal;font-size:12px;line-height:125%;font-family:Lavi;-inkscape-font-specification:Lavi;text-align:center;letter-spacing:0px;word-spacing:0px;text-anchor:middle;fill:#000000;fill-opacity:1;stroke:none"
       x="2126.7527"
       y="2348.5093"
       id="text4246-9"
       sodipodi:linespacing="125%"><tspan
         sodipodi:role="line"
         style="font-size:45px"
         x="2126.7527"
         y="2348.5093"
         id="tspan4228">Vy ma neučíte</tspan><tspan
         sodipodi:role="line"
         style="font-size:45px"
         x="2126.7527"
         y="2404.7593"
         id="tspan3336">ozajstnému čarovaniu!</tspan><tspan
         sodipodi:role="line"
         style="font-size:45px"
         x="2126.7527"
         y="2461.0093"
         id="tspan4232">Odchádzam -</tspan><tspan
         sodipodi:role="line"
         style="font-size:45px"
         x="2126.7527"
         y="2517.2593"
         id="tspan3342">k čarodejniciam Ahu!</tspan></text>
    <text
       xml:space="preserve"
       style="font-style:normal;font-variant:normal;font-weight:normal;font-stretch:normal;font-size:17.80657005px;line-height:125%;font-family:Lavi;-inkscape-font-specification:Lavi;letter-spacing:0px;word-spacing:0px;fill:#000000;fill-opacity:1;stroke:#000000;stroke-width:0.99236238;stroke-miterlimit:4;stroke-dasharray:none;stroke-opacity:1;filter:url(#filter4375-4-1-1-1)"
       x="787.65729"
       y="1584.5073"
       id="text4580"
       sodipodi:linespacing="125%"
       transform="matrix(0.64545612,-0.14502854,-0.28870948,0.70997447,753.86791,2340.5307)"><tspan
         sodipodi:role="line"
         id="tspan4582"
         x="787.65729"
         y="1584.5073"
         style="font-size:70px;fill:#ffffff"><tspan
           id="tspan4938"
           style="font-size:62.03222656px">Vuuuc</tspan><tspan
           id="tspan4942"
           style="font-size:100.29872894px">h</tspan><tspan
           id="tspan4940"
           style="font-size:123.25863647px"> !</tspan></tspan></text>
  </g>
</svg>
