<?xml version="1.0" encoding="UTF-8" standalone="no"?>
<!-- Created with Inkscape (http://www.inkscape.org/) -->

<svg
   xmlns:dc="http://purl.org/dc/elements/1.1/"
   xmlns:cc="http://creativecommons.org/ns#"
   xmlns:rdf="http://www.w3.org/1999/02/22-rdf-syntax-ns#"
   xmlns:svg="http://www.w3.org/2000/svg"
   xmlns="http://www.w3.org/2000/svg"
   xmlns:xlink="http://www.w3.org/1999/xlink"
   xmlns:sodipodi="http://sodipodi.sourceforge.net/DTD/sodipodi-0.dtd"
   xmlns:inkscape="http://www.inkscape.org/namespaces/inkscape"
   id="svg2"
   version="1.1"
   inkscape:version="0.91 r13725"
   width="2481"
   height="3503"
   sodipodi:docname="Pepper-and-Carrot_by-David-Revoy_E17P01.svg">
  <metadata
     id="metadata8">
    <rdf:RDF>
      <cc:Work
         rdf:about="">
        <dc:format>image/svg+xml</dc:format>
        <dc:type
           rdf:resource="http://purl.org/dc/dcmitype/StillImage" />
        <dc:title />
      </cc:Work>
    </rdf:RDF>
  </metadata>
  <defs
     id="defs6">
    <filter
       style="color-interpolation-filters:sRGB"
       id="filter4375-4-1-1-1"
       inkscape:label="deevad outline effect">
      <feFlood
         id="feFlood4377-7-9-0-8"
         flood-opacity="1"
         flood-color="rgb(0,0,0)"
         result="flood" />
      <feComposite
         id="feComposite4379-3-8-8-2"
         in2="SourceGraphic"
         in="flood"
         operator="in"
         result="composite1" />
      <feMorphology
         id="feMorphology4393-1-0-49-8"
         operator="dilate"
         radius="4"
         result="result3" />
      <feComposite
         id="feComposite4385-9-5-7-0"
         in2="result3"
         in="SourceGraphic"
         operator="over"
         result="composite2" />
    </filter>
  </defs>
  <sodipodi:namedview
     pagecolor="#ffffff"
     bordercolor="#666666"
     borderopacity="1"
     objecttolerance="10"
     gridtolerance="10"
     guidetolerance="10"
     inkscape:pageopacity="0"
     inkscape:pageshadow="2"
     inkscape:window-width="1680"
     inkscape:window-height="1033"
     id="namedview4"
     showgrid="false"
     inkscape:zoom="0.2630065"
     inkscape:cx="994.26559"
     inkscape:cy="1944.8206"
     inkscape:window-x="1920"
     inkscape:window-y="0"
     inkscape:window-maximized="1"
     inkscape:current-layer="layer1" />
  <g
     inkscape:groupmode="layer"
     id="layer2"
     inkscape:label="artwork"
     sodipodi:insensitive="true">
    <image
       sodipodi:absref="/home/deevad/peppercarrot/webcomics/New/lang/fr/../gfx_Pepper-and-Carrot_by-David-Revoy_E17P01.png"
       xlink:href="../gfx_Pepper-and-Carrot_by-David-Revoy_E17P01.png"
       width="2481"
       height="3503"
       id="image10"
       x="0"
       y="0" />
  </g>
  <g
     inkscape:groupmode="layer"
     id="layer3"
     inkscape:label="speechbubbles">
    <path
       style="fill:#ffffff;stroke:none"
       d="m 1854.484,2417.8139 c 5.6688,-58.8046 24.4127,-93.5377 75.7069,-129.28 44.0654,-30.7052 279.3306,-28.1439 345.8179,-16.6931 48.657,8.38 144.7244,32.4751 148.6404,85.3615 3.7214,50.2583 16.0359,159.3093 -24.0872,191.7058 -42.3366,34.184 -301.7939,24.0832 -398.408,13.3469 -129.1346,-14.35 -142.9125,-99.5929 -147.67,-144.4411 z"
       id="path3021"
       inkscape:connector-curvature="0"
       sodipodi:nodetypes="csssssc" />
    <path
       style="color:#000000;display:inline;overflow:visible;visibility:visible;fill:#ffffff;fill-opacity:1;fill-rule:nonzero;stroke:none;stroke-width:1px;marker:none;enable-background:accumulate"
       d="m 1781.9829,2275.3363 c 43.0673,8.2854 66.1639,39.6775 70.6387,48.3686 4.4748,8.691 18.2521,35.9003 53.2109,40.6343 34.9589,4.7342 34.6065,23.736 34.6065,23.736 l -43.5145,10.2041 c 0,0 -39.462,-19.6878 -54.101,-39.0809 -14.6389,-19.3932 -22.7941,-50.3705 -31.7823,-59.1151 -8.9881,-8.7446 -15.6524,-19.837 -29.0583,-24.747 z"
       id="path4018"
       inkscape:connector-curvature="0"
       sodipodi:nodetypes="cssccssc" />
    <path
       style="fill:#ffffff;fill-rule:evenodd;stroke:none;stroke-width:1px;stroke-linecap:butt;stroke-linejoin:miter;stroke-opacity:1"
       d="m 922.50292,1792.1323 c 30.67807,13.1186 58.4089,21.2748 48.98097,-33.1369 54.30221,73.872 46.51261,23.2797 55.10361,5.5228 32.2846,52.1829 60.0629,44.7464 84.186,-11.0455 13.6372,80.4772 42.1744,41.4854 67.3488,29.455 -0.061,22.6314 -6.935,48.5824 67.3489,34.9778 -21.2396,20.44 -29.1622,38.9958 18.3678,49.7053 -33.0164,16.4344 -51.1486,33.922 -15.3065,55.2281 -19.0408,31.038 -6.3056,49.4837 19.8985,62.5919 -61.3546,1.8152 -46.5791,18.8909 -36.7357,34.9778 -52.237,-33.0746 -59.5455,-19.8328 -55.1036,5.5228 -24.3133,-14.5452 -42.2839,-48.9242 -85.7167,-3.6818 -12.9173,-15.0152 -24.8243,-33.9796 -53.5729,12.8865 -2.028,-40.88 -23.0468,-39.3422 -53.57297,-16.5684 -8.05147,-38.338 -38.28488,-18.8725 -70.41013,5.5229 26.22155,-37.4186 28.12167,-68.6789 -22.95983,-86.5241 49.50225,-21.4062 40.48832,-38.6726 21.42917,-55.2282 18.82983,-15.568 31.1071,-32.5267 -18.36786,-62.5919 28.92678,4.6741 59.72708,10.7001 29.08244,-27.6141 z"
       id="path4582"
       inkscape:connector-curvature="0"
       sodipodi:nodetypes="ccccccccccccccccccc" />
    <path
       style="color:#000000;display:inline;overflow:visible;visibility:visible;fill:#ffffff;fill-opacity:1;fill-rule:nonzero;stroke:none;stroke-width:1px;marker:none;enable-background:accumulate"
       d="m 1196.0761,1952.9058 c 23.7239,14.2255 61.9488,43.044 76.2655,59.624 3.0955,-13.8639 8.4416,-25.7793 12.4353,-35.1298 16.784,12.1296 90.9257,73.1169 100.8209,94.759 -22.0361,-54.5674 -74.3748,-104.9506 -103.7006,-122.6017 -7.5332,11.6229 -10.4968,19.4636 -14.6173,25.5024 -25.4071,-2.5419 -56.6177,-44.4327 -56.8452,-44.9452 z"
       id="path5066"
       inkscape:connector-curvature="0"
       sodipodi:nodetypes="cccccccc" />
    <path
       style="color:#000000;display:inline;overflow:visible;visibility:visible;fill:#ffffff;fill-opacity:1;fill-rule:nonzero;stroke:none;stroke-width:1px;marker:none;enable-background:accumulate"
       d="m 580.8868,2280.1636 c -30.11408,-18.4643 -40.65397,-35.6097 -37.64245,-46.1608 3.01138,-10.551 30.11393,-64.6251 63.23924,-71.2196 33.12545,-6.5944 118.95024,-14.5076 138.52442,-7.9132 19.57418,6.5943 75.28504,50.1175 75.28504,72.5384 0,22.421 -10.53989,65.944 -40.65397,79.1327 -30.11393,13.1889 -162.6156,21.1022 -198.75228,-26.3775 z"
       id="path3349"
       inkscape:connector-curvature="0" />
    <path
       style="fill:#ffffff;stroke:none"
       d="m 540.60159,2364.5645 c -0.79656,-19.319 24.91066,-72.7667 135.09246,-66.6175 110.18179,6.1493 144.18354,28.1557 146.58968,62.5181 3.80644,54.3602 -54.55512,67.5317 -137.95247,69.6481 -85.97366,2.1819 -139.02786,-16.6844 -143.72967,-65.5487 z"
       id="path3280"
       inkscape:connector-curvature="0"
       sodipodi:nodetypes="csssc" />
    <path
       style="fill:#ffffff;stroke:none"
       d="m 462.7487,2323.4218 c 19.54312,23.3799 27.8615,17.4813 37.10761,9.6978 9.24609,-7.7835 17.24434,-16.2258 23.0997,-13.9259 5.85539,2.3001 11.36723,10.3556 14.79931,17.3132 3.4321,6.9575 9.3438,2.994 16.07856,-0.5744 6.73479,-3.5684 43.2244,-10.0681 43.2244,-10.0681 0,0 -22.57858,29.6369 -31.0169,35.8681 -8.43834,6.2309 -11.50973,8.5673 -15.17309,9.7994 -3.66342,1.232 -12.74208,2.3755 -17.72582,-3.0266 -4.98374,-5.4019 -7.3681,-14.5768 -10.32818,-20.0976 -2.95996,-5.5207 -11.05253,-6.3898 -18.65118,-2.486 -7.59863,3.9039 -25.24054,9.1542 -32.47234,-0.9969 -7.2318,-10.1511 -8.94207,-21.503 -8.94207,-21.503 z"
       id="path3023"
       inkscape:connector-curvature="0"
       sodipodi:nodetypes="csssscssssssc" />
  </g>
  <g
     inkscape:groupmode="layer"
     id="layer1"
     inkscape:label="txt">
    <text
       xml:space="preserve"
       style="font-style:normal;font-variant:normal;font-weight:normal;font-stretch:normal;font-size:12px;line-height:125%;font-family:Lavi;-inkscape-font-specification:Lavi;text-align:center;letter-spacing:0px;word-spacing:0px;text-anchor:middle;fill:#000000;fill-opacity:1;stroke:none"
       x="692.38007"
       y="2208.8169"
       id="text4246"
       sodipodi:linespacing="125%"><tspan
         sodipodi:role="line"
         style="font-size:45px"
         x="692.38007"
         y="2208.8169"
         id="tspan4252">Mais</tspan><tspan
         sodipodi:role="line"
         style="font-size:45px"
         x="692.38007"
         y="2265.0669"
         id="tspan4146">Pepper...</tspan><tspan
         sodipodi:role="line"
         style="font-size:45px"
         x="692.38007"
         y="2321.3169"
         id="tspan4152" /><tspan
         sodipodi:role="line"
         style="font-size:45px"
         x="692.38007"
         y="2377.5669"
         id="tspan4150">...Reviens...</tspan></text>
    <text
       xml:space="preserve"
       style="font-style:normal;font-variant:normal;font-weight:normal;font-stretch:normal;font-size:13.27773571px;line-height:125%;font-family:Lavi;-inkscape-font-specification:Lavi;text-align:center;letter-spacing:0px;word-spacing:0px;text-anchor:middle;fill:#000000;fill-opacity:1;stroke:#000000;stroke-width:2.65554738;stroke-miterlimit:4;stroke-dasharray:none;stroke-opacity:1"
       x="1078.8938"
       y="1890.3174"
       id="text4246-7"
       sodipodi:linespacing="125%"><tspan
         sodipodi:role="line"
         style="font-style:normal;font-variant:normal;font-weight:bold;font-stretch:normal;font-size:65px;font-family:Lavi;-inkscape-font-specification:'Lavi Bold';stroke:#000000;stroke-width:2.65554738;stroke-miterlimit:4;stroke-dasharray:none;stroke-opacity:1"
         x="1078.8938"
         y="1890.3174"
         id="tspan4150-5">NON!</tspan><tspan
         sodipodi:role="line"
         style="font-style:normal;font-variant:normal;font-weight:bold;font-stretch:normal;font-size:49.79151154px;font-family:Lavi;-inkscape-font-specification:'Lavi Bold';stroke:#000000;stroke-width:2.65554738;stroke-miterlimit:4;stroke-dasharray:none;stroke-opacity:1"
         x="1078.8938"
         y="1957.4141"
         id="tspan4190">JE PARS!!</tspan></text>
    <text
       xml:space="preserve"
       style="font-style:normal;font-variant:normal;font-weight:normal;font-stretch:normal;font-size:12px;line-height:125%;font-family:Lavi;-inkscape-font-specification:Lavi;text-align:center;letter-spacing:0px;word-spacing:0px;text-anchor:middle;fill:#000000;fill-opacity:1;stroke:none"
       x="2134.7527"
       y="2348.5093"
       id="text4246-9"
       sodipodi:linespacing="125%"><tspan
         sodipodi:role="line"
         style="font-size:45px"
         x="2134.7527"
         y="2348.5093"
         id="tspan4150-9">Vous n'enseignez pas</tspan><tspan
         sodipodi:role="line"
         style="font-size:45px"
         x="2134.7527"
         y="2404.7593"
         id="tspan4228">de vraie sorcellerie!</tspan><tspan
         sodipodi:role="line"
         style="font-size:45px"
         x="2134.7527"
         y="2461.0093"
         id="tspan4230">Je m'en vais!...chez</tspan><tspan
         sodipodi:role="line"
         style="font-size:45px"
         x="2134.7527"
         y="2517.2593"
         id="tspan4232"> les sorcières de Ah !</tspan></text>
    <text
       xml:space="preserve"
       style="font-style:normal;font-variant:normal;font-weight:normal;font-stretch:normal;font-size:17.80657005px;line-height:125%;font-family:Lavi;-inkscape-font-specification:Lavi;letter-spacing:0px;word-spacing:0px;fill:#000000;fill-opacity:1;stroke:#000000;stroke-width:0.99236238;stroke-miterlimit:4;stroke-dasharray:none;stroke-opacity:1;filter:url(#filter4375-4-1-1-1)"
       x="787.65729"
       y="1584.5073"
       id="text4580"
       sodipodi:linespacing="125%"
       transform="matrix(0.64545612,-0.14502854,-0.28870948,0.70997447,753.86791,2340.5307)"><tspan
         sodipodi:role="line"
         id="tspan4582"
         x="787.65729"
         y="1584.5073"
         style="font-size:70px;fill:#ffffff"><tspan
           id="tspan4938"
           style="font-size:62.03222656px">Zo</tspan><tspan
           style="font-size:80.40014648px"
           id="tspan4617">oo</tspan><tspan
           id="tspan4942"
           style="font-size:100.29872894px">sh</tspan><tspan
           id="tspan4940"
           style="font-size:123.25863647px"> !</tspan></tspan></text>
  </g>
</svg>
