<?xml version="1.0" encoding="UTF-8" standalone="no"?>
<!-- Created with Inkscape (http://www.inkscape.org/) -->

<svg
   xmlns:dc="http://purl.org/dc/elements/1.1/"
   xmlns:cc="http://creativecommons.org/ns#"
   xmlns:rdf="http://www.w3.org/1999/02/22-rdf-syntax-ns#"
   xmlns:svg="http://www.w3.org/2000/svg"
   xmlns="http://www.w3.org/2000/svg"
   xmlns:xlink="http://www.w3.org/1999/xlink"
   xmlns:sodipodi="http://sodipodi.sourceforge.net/DTD/sodipodi-0.dtd"
   xmlns:inkscape="http://www.inkscape.org/namespaces/inkscape"
   id="svg2"
   version="1.1"
   inkscape:version="0.91 r13725"
   width="2481"
   height="3503"
   sodipodi:docname="Pepper-and-Carrot_by-David-Revoy_E17P05.svg">
  <metadata
     id="metadata8">
    <rdf:RDF>
      <cc:Work
         rdf:about="">
        <dc:format>image/svg+xml</dc:format>
        <dc:type
           rdf:resource="http://purl.org/dc/dcmitype/StillImage" />
        <dc:title />
      </cc:Work>
    </rdf:RDF>
  </metadata>
  <defs
     id="defs6">
    <filter
       inkscape:label="Ripple"
       inkscape:menu="Distort"
       inkscape:menu-tooltip="Horizontal rippling of edges"
       style="color-interpolation-filters:sRGB;"
       id="filter4163">
      <feTurbulence
         numOctaves="1"
         baseFrequency="0.014 0.017999999999999999"
         id="feTurbulence4165" />
      <feColorMatrix
         values="2 0 0 0 0 0 0 0 0 0 0 0 0 0 0 0 0 0 0.5 0.5"
         result="result91"
         id="feColorMatrix4167" />
      <feDisplacementMap
         yChannelSelector="A"
         xChannelSelector="R"
         scale="14.3"
         in="SourceGraphic"
         in2="result91"
         id="feDisplacementMap4169" />
    </filter>
  </defs>
  <sodipodi:namedview
     pagecolor="#ffffff"
     bordercolor="#666666"
     borderopacity="1"
     objecttolerance="10"
     gridtolerance="10"
     guidetolerance="10"
     inkscape:pageopacity="0"
     inkscape:pageshadow="2"
     inkscape:window-width="1920"
     inkscape:window-height="1046"
     id="namedview4"
     showgrid="false"
     inkscape:zoom="0.529"
     inkscape:cx="1185.7451"
     inkscape:cy="899.83644"
     inkscape:window-x="0"
     inkscape:window-y="0"
     inkscape:window-maximized="1"
     inkscape:current-layer="layer3" />
  <g
     inkscape:groupmode="layer"
     id="layer2"
     inkscape:label="artwork"
     sodipodi:insensitive="true">
    <image
       sodipodi:absref="/home/rjq/Arts and Craft/Translation P&amp;C/GIT/peppercarrot_ep17_translation/mx/../gfx_Pepper-and-Carrot_by-David-Revoy_E17P05.png"
       xlink:href="../gfx_Pepper-and-Carrot_by-David-Revoy_E17P05.png"
       y="0"
       x="0"
       id="image10"
       height="3503"
       width="2481" />
  </g>
  <g
     inkscape:groupmode="layer"
     id="layer3"
     inkscape:label="speechbubbles"
     style="opacity:1">
    <path
       style="fill:#ffffff;stroke:none"
       d="m 1713.2618,1095.7904 c -15.2519,-116.27044 -80.4136,-166.98207 -45.8053,-169.51657 26.8397,-1.96558 217.0636,0.53088 290.2075,0.53088 73.144,0 255.6064,1.23111 285.4969,8.12396 85.0983,19.6239 115.6146,56.86648 117.9739,105.60943 2.3596,48.7428 -11.068,87.2014 -53.5385,116.9888 -42.4707,29.7875 -292.6352,44.5104 -309.1517,41.8024 -16.5161,-2.7079 -387.1786,6.9244 -401.3353,-1.1996 -14.1569,-8.1238 118.512,-42.7646 116.1525,-102.3393 z"
       id="path3278"
       inkscape:connector-curvature="0"
       sodipodi:nodetypes="csssssssc" />
    <path
       style="fill:#ffffff;stroke:none"
       d="m 1884.008,1338.6573 c 89.8965,-16.1397 129.811,-146.0647 92.9439,-194.4569 -55.0179,-72.2175 44.7436,-42.6509 44.7436,-42.6509 21.8217,14.6506 33.8742,203.1448 -137.6875,237.1078 z"
       id="path3067"
       inkscape:connector-curvature="0"
       sodipodi:nodetypes="cscc" />
    <path
       style="color:#000000;display:inline;overflow:visible;visibility:visible;fill:#ffffff;fill-opacity:1;fill-rule:nonzero;stroke:none;stroke-width:1px;marker:none;enable-background:accumulate"
       d="m 808.56659,2467.8158 c 30.89041,-32.4823 241.31711,-40.6051 298.56571,44.8808 57.2486,85.4859 -2.9462,168.2976 -49.2666,190.4794 -46.3202,22.1819 -172.68798,34.8743 -223.04647,2.0463 -50.35839,-32.8279 -86.2813,-75.8627 -74.95386,-150.9599 4.62317,-30.6502 17.81064,-53.964 48.70122,-86.4466 z"
       id="path4040"
       inkscape:connector-curvature="0"
       sodipodi:nodetypes="zssssz" />
    <path
       style="fill:#ffffff;stroke:none"
       d="m 1141.1877,2779.5367 c -71.8604,55.1445 -151.82289,-51.1501 -152.54949,-133.1711 -1.084,-122.4026 -56.8594,-37.4571 -56.8594,-37.4571 -7.25091,33.4378 70.53289,272.4536 209.40889,170.6282 z"
       id="path3067-2"
       inkscape:connector-curvature="0"
       sodipodi:nodetypes="cscc" />
    <path
       style="fill:#ffffff;fill-rule:evenodd;stroke:none;stroke-width:1px;stroke-linecap:butt;stroke-linejoin:miter;stroke-opacity:1"
       d="m 750.00427,1813.6962 c 8.74762,-44.7285 32.3041,-78.6653 57.94169,-101.3202 12.20079,-10.9375 26.14648,-18.9528 40.41709,-16.8445 14.17702,1.2599 28.02446,8.7809 42.35831,6.1685 17.42955,-0.8628 35.16509,-4.6273 52.39453,0.7519 15.31631,5.8694 31.0965,8.9093 46.90191,9.0856 11.1502,-3.7257 21.3534,6.2041 31.3112,12.1434 8.9395,6.4153 18.0705,13.146 25.5792,23.0696 6.9178,13.9305 15.2011,26.0499 22.1996,39.8563 4.5793,7.5479 4.1393,17.9737 3.9284,27.6224 -0.5948,19.7587 -1.602,39.8294 -5.3402,58.8652 -2.2371,12.0851 -10.5058,16.0845 -16.8594,21.6379 -15.0333,11.7231 -30.9968,20.6132 -45.3443,34.4089 -14.21414,7.0639 -29.31989,3.7598 -43.89723,2.6923 -12.21484,-2.1028 -24.5023,-5.0351 -36.8221,-2.5897 -15.68018,1.7894 -31.31274,6.4228 -47.04902,5.8293 -19.71324,-4.0726 -38.59315,-14.1002 -57.69695,-22.1441 -17.13955,-7.09 -32.76085,-20.4221 -47.74988,-34.684 -8.00658,-8.0989 -16.4825,-17.5125 -19.30815,-32.4377 -2.31633,-10.2773 -2.86212,-21.2817 -2.9647,-32.1111 z"
       id="path4365"
       inkscape:connector-curvature="0" />
    <path
       style="fill:#ffffff;fill-rule:evenodd;stroke:none;stroke-width:1px;stroke-linecap:butt;stroke-linejoin:miter;stroke-opacity:1"
       d="m 803.28997,2023.8489 c 10.49929,-45.3435 38.77282,-79.7469 69.54417,-102.7132 14.64392,-11.0879 31.38217,-19.2135 48.51037,-17.0761 17.0159,1.2772 33.63622,8.9016 50.84036,6.2533 20.91965,-0.8747 42.20663,-4.691 62.88613,0.7622 18.3833,5.9501 37.3234,9.0317 56.2937,9.2105 13.383,-3.7769 25.6294,6.2894 37.5812,12.3104 10.7295,6.5035 21.689,13.3268 30.7013,23.3868 8.303,14.1219 18.245,26.408 26.6449,40.4042 5.4963,7.6517 4.9682,18.2208 4.7151,28.0022 -0.714,20.0303 -1.9228,40.377 -6.4097,59.6745 -2.685,12.2513 -12.6095,16.3057 -20.2353,21.9354 -18.0437,11.8843 -37.2037,20.8967 -54.4242,34.8819 -17.0605,7.1611 -35.1911,3.8116 -52.6874,2.7293 -14.6608,-2.1317 -29.4089,-5.1042 -44.1955,-2.6252 -18.82008,1.8141 -37.58291,6.5111 -56.47034,5.9095 -23.66067,-4.1286 -46.32115,-14.2941 -69.25041,-22.4486 -20.57165,-7.1874 -39.32102,-20.703 -57.31151,-35.1609 -9.60986,-8.2103 -19.78303,-17.7533 -23.1745,-32.8836 -2.78016,-10.4186 -3.43524,-21.5744 -3.55837,-32.5526 z"
       id="path4365-3"
       inkscape:connector-curvature="0" />
    <g
       id="g5381"
       transform="matrix(0.78733775,0,0,0.96949033,-492.80698,-1135.7073)"
       style="fill:#ffffff">
      <path
         inkscape:connector-curvature="0"
         id="path5263"
         d="m 1225.2771,3157.962 c -4.7051,-6.6655 -4.7051,-15.2915 -4.7051,-16.8598 0,-1.5684 0.3921,-7.4497 0.3921,-7.4497 l -3.1367,-1.1763 2.7446,-5.0971 -3.1367,0.3921 c 0,0 7.4497,-9.0181 9.018,-11.7627 1.5684,-2.7446 4.313,-9.018 4.313,-9.018 0,0 14.5073,-1.9605 17.644,-3.1368 3.1367,-1.1762 12.5468,-11.3705 12.5468,-11.3705 0,0 11.3706,5.4892 15.6836,6.2734 4.3129,0.7842 24.3095,1.9604 27.8383,0 3.5288,-1.9605 7.0576,-4.7051 7.0576,-4.7051 0,0 9.018,-0.7841 11.3705,-1.9604 2.3526,-1.1763 6.6655,-3.9209 6.6655,-3.9209 0,0 7.4497,0.7842 10.5864,0.3921 3.1367,-0.3921 17.644,0 19.2124,0 1.5683,0 12.5468,6.6655 12.5468,6.6655 l 7.0576,6.6655 c 0,0 5.8813,-0.3921 8.626,-1.1763 2.7446,-0.7841 5.0971,3.1367 5.0971,3.1367 0,0 10.5864,23.9175 12.1548,28.6225 1.5683,4.7051 2.3525,14.1152 2.3525,14.1152 0,0 -4.313,7.4497 -6.6655,10.5864 -2.3525,3.1367 -9.018,10.5864 -12.5468,13.331 -3.5288,2.7446 -7.8418,7.0576 -12.1548,4.313 -4.313,-2.7446 -8.6259,-2.3525 -10.1943,-0.3921 -1.5684,1.9604 -12.9389,15.6836 -16.8598,14.1152 -3.9209,-1.5684 -17.2519,-3.9209 -21.1728,-7.4497 -3.9209,-3.5288 -10.1943,4.7051 -12.9389,2.3525 -2.7446,-2.3525 -6.6655,-6.6655 -9.4102,-6.6655 -2.7446,0 -35.68,9.8023 -39.6009,8.2339 -3.9209,-1.5684 -24.7016,-14.5073 -27.0541,-16.0756 -2.3526,-1.5684 -8.2339,-10.9785 -8.2339,-10.9785 z"
         style="color:#000000;display:inline;overflow:visible;visibility:visible;fill:#ffffff;fill-opacity:1;fill-rule:nonzero;stroke:none;stroke-width:1px;marker:none;enable-background:accumulate" />
      <path
         inkscape:connector-curvature="0"
         id="path5271"
         d="m 1236.8125,3095.4062 a 2.20022,2.20022 0 0 0 -0.1563,0.031 l -9.875,1.375 a 2.20022,2.20022 0 0 0 -1.4374,0.8125 l -12.9688,16.3438 a 2.2133161,2.2133161 0 1 0 3.4688,2.75 l 12.375,-15.6876 9.0312,-1.25 a 2.20022,2.20022 0 0 0 -0.4375,-4.375 z"
         style="color:#000000;font-style:normal;font-variant:normal;font-weight:normal;font-stretch:normal;font-size:medium;line-height:normal;font-family:Sans;-inkscape-font-specification:Sans;text-indent:0;text-align:start;text-decoration:none;text-decoration-line:none;letter-spacing:normal;word-spacing:normal;text-transform:none;direction:ltr;block-progression:tb;writing-mode:lr-tb;baseline-shift:baseline;text-anchor:start;display:inline;overflow:visible;visibility:visible;fill:#ffffff;fill-opacity:1;fill-rule:nonzero;stroke:none;stroke-width:1px;marker:none;enable-background:accumulate" />
      <path
         inkscape:connector-curvature="0"
         id="path5273"
         d="m 1252.1562,3077.3125 a 2.20022,2.20022 0 0 0 -1.625,0.9063 l -7.8124,10.5312 -11.3438,-5.0625 a 2.20022,2.20022 0 0 0 -2.3125,0.3125 l -14.6563,12.2812 a 2.20022,2.20022 0 1 0 2.8126,3.375 l 13.5937,-11.4062 11.7187,5.25 a 2.20022,2.20022 0 0 0 2.6563,-0.7188 l 8.875,-11.9374 a 2.20022,2.20022 0 0 0 -1.9063,-3.5313 z"
         style="color:#000000;font-style:normal;font-variant:normal;font-weight:normal;font-stretch:normal;font-size:medium;line-height:normal;font-family:Sans;-inkscape-font-specification:Sans;text-indent:0;text-align:start;text-decoration:none;text-decoration-line:none;letter-spacing:normal;word-spacing:normal;text-transform:none;direction:ltr;block-progression:tb;writing-mode:lr-tb;baseline-shift:baseline;text-anchor:start;display:inline;overflow:visible;visibility:visible;fill:#ffffff;fill-opacity:1;fill-rule:nonzero;stroke:none;stroke-width:1px;marker:none;enable-background:accumulate" />
      <path
         inkscape:connector-curvature="0"
         id="path5275"
         d="m 1267.9375,3079.7188 a 2.20022,2.20022 0 0 0 -1,0.2812 l -10.2187,5.4375 a 2.20022,2.20022 0 1 0 2.0624,3.875 l 8.8126,-4.6563 6.3437,6.3438 a 2.20022,2.20022 0 0 0 1.2187,0.625 l 2.4063,0.3125 a 2.20022,2.20022 0 1 0 0.625,-4.3437 l -1.6875,-0.25 -6.9688,-6.9688 a 2.20022,2.20022 0 0 0 -1.5937,-0.6562 z"
         style="color:#000000;font-style:normal;font-variant:normal;font-weight:normal;font-stretch:normal;font-size:medium;line-height:normal;font-family:Sans;-inkscape-font-specification:Sans;text-indent:0;text-align:start;text-decoration:none;text-decoration-line:none;letter-spacing:normal;word-spacing:normal;text-transform:none;direction:ltr;block-progression:tb;writing-mode:lr-tb;baseline-shift:baseline;text-anchor:start;display:inline;overflow:visible;visibility:visible;fill:#ffffff;fill-opacity:1;fill-rule:nonzero;stroke:none;stroke-width:1px;marker:none;enable-background:accumulate" />
      <path
         inkscape:connector-curvature="0"
         id="path5277"
         d="m 1265.2812,3072.9062 a 2.20022,2.20022 0 0 0 -0.25,4.3438 l 14.375,3.8438 4.6876,9.3124 a 2.2010735,2.2010735 0 0 0 3.9374,-1.9687 l -5.125,-10.2187 a 2.20022,2.20022 0 0 0 -1.4062,-1.1563 L 1266.1562,3073 a 2.20022,2.20022 0 0 0 -0.875,-0.094 z"
         style="color:#000000;font-style:normal;font-variant:normal;font-weight:normal;font-stretch:normal;font-size:medium;line-height:normal;font-family:Sans;-inkscape-font-specification:Sans;text-indent:0;text-align:start;text-decoration:none;text-decoration-line:none;letter-spacing:normal;word-spacing:normal;text-transform:none;direction:ltr;block-progression:tb;writing-mode:lr-tb;baseline-shift:baseline;text-anchor:start;display:inline;overflow:visible;visibility:visible;fill:#ffffff;fill-opacity:1;fill-rule:nonzero;stroke:none;stroke-width:1px;marker:none;enable-background:accumulate" />
      <path
         inkscape:connector-curvature="0"
         id="path5279"
         d="m 1343.875,3078.6875 a 2.20022,2.20022 0 0 0 -0.7812,0.2187 l -4.4376,2.0626 a 2.20022,2.20022 0 1 0 1.8438,3.9687 l 4.4375,-2.0313 a 2.20022,2.20022 0 0 0 -1.0625,-4.2187 z"
         style="color:#000000;font-style:normal;font-variant:normal;font-weight:normal;font-stretch:normal;font-size:medium;line-height:normal;font-family:Sans;-inkscape-font-specification:Sans;text-indent:0;text-align:start;text-decoration:none;text-decoration-line:none;letter-spacing:normal;word-spacing:normal;text-transform:none;direction:ltr;block-progression:tb;writing-mode:lr-tb;baseline-shift:baseline;text-anchor:start;display:inline;overflow:visible;visibility:visible;fill:#ffffff;fill-opacity:1;fill-rule:nonzero;stroke:none;stroke-width:1px;marker:none;enable-background:accumulate" />
      <path
         inkscape:connector-curvature="0"
         id="path5281"
         d="m 1353.5625,3079.375 a 2.2031,2.2031 0 1 0 0,4.4062 l 16.5313,0 8.9374,7.9688 a 2.2020313,2.2020313 0 1 0 2.9376,-3.2812 l -9.5626,-8.5313 a 2.20022,2.20022 0 0 0 -1.4687,-0.5625 l -17.375,0 z"
         style="color:#000000;font-style:normal;font-variant:normal;font-weight:normal;font-stretch:normal;font-size:medium;line-height:normal;font-family:Sans;-inkscape-font-specification:Sans;text-indent:0;text-align:start;text-decoration:none;text-decoration-line:none;letter-spacing:normal;word-spacing:normal;text-transform:none;direction:ltr;block-progression:tb;writing-mode:lr-tb;baseline-shift:baseline;text-anchor:start;display:inline;overflow:visible;visibility:visible;fill:#ffffff;fill-opacity:1;fill-rule:nonzero;stroke:none;stroke-width:1px;marker:none;enable-background:accumulate" />
      <path
         inkscape:connector-curvature="0"
         id="path5283"
         d="m 1365,3069.8438 a 2.2036013,2.2036013 0 1 0 0.094,4.4062 l 10,0.3125 4.8124,5.125 a 2.20022,2.20022 0 1 0 3.2188,-3 l -5.4688,-5.8125 a 2.20022,2.20022 0 0 0 -1.5312,-0.6875 l -10.9062,-0.3437 a 2.20022,2.20022 0 0 0 -0.2188,0 z"
         style="color:#000000;font-style:normal;font-variant:normal;font-weight:normal;font-stretch:normal;font-size:medium;line-height:normal;font-family:Sans;-inkscape-font-specification:Sans;text-indent:0;text-align:start;text-decoration:none;text-decoration-line:none;letter-spacing:normal;word-spacing:normal;text-transform:none;direction:ltr;block-progression:tb;writing-mode:lr-tb;baseline-shift:baseline;text-anchor:start;display:inline;overflow:visible;visibility:visible;fill:#ffffff;fill-opacity:1;fill-rule:nonzero;stroke:none;stroke-width:1px;marker:none;enable-background:accumulate" />
      <path
         inkscape:connector-curvature="0"
         id="path5285"
         d="m 1397.4375,3095.0625 a 2.20022,2.20022 0 0 0 -0.25,4.375 l 15.5,2.5 2.125,12.0937 a 2.2066945,2.2066945 0 0 0 4.3437,-0.7812 l -2.4062,-13.625 a 2.20022,2.20022 0 0 0 -1.8125,-1.7812 l -17.0625,-2.75 a 2.20022,2.20022 0 0 0 -0.4375,-0.031 z"
         style="color:#000000;font-style:normal;font-variant:normal;font-weight:normal;font-stretch:normal;font-size:medium;line-height:normal;font-family:Sans;-inkscape-font-specification:Sans;text-indent:0;text-align:start;text-decoration:none;text-decoration-line:none;letter-spacing:normal;word-spacing:normal;text-transform:none;direction:ltr;block-progression:tb;writing-mode:lr-tb;baseline-shift:baseline;text-anchor:start;display:inline;overflow:visible;visibility:visible;fill:#ffffff;fill-opacity:1;fill-rule:nonzero;stroke:none;stroke-width:1px;marker:none;enable-background:accumulate" />
      <path
         inkscape:connector-curvature="0"
         id="path5287"
         d="m 1397.875,3101.1875 a 2.20022,2.20022 0 0 0 -1.0312,4.1563 l 3.5937,1.9062 5.875,22.9688 a 2.2094076,2.2094076 0 1 0 4.2813,-1.0938 l -6.1563,-23.875 a 2.20022,2.20022 0 0 0 -1.0937,-1.375 l -4.4063,-2.4062 a 2.20022,2.20022 0 0 0 -1.0625,-0.2813 z"
         style="color:#000000;font-style:normal;font-variant:normal;font-weight:normal;font-stretch:normal;font-size:medium;line-height:normal;font-family:Sans;-inkscape-font-specification:Sans;text-indent:0;text-align:start;text-decoration:none;text-decoration-line:none;letter-spacing:normal;word-spacing:normal;text-transform:none;direction:ltr;block-progression:tb;writing-mode:lr-tb;baseline-shift:baseline;text-anchor:start;display:inline;overflow:visible;visibility:visible;fill:#ffffff;fill-opacity:1;fill-rule:nonzero;stroke:none;stroke-width:1px;marker:none;enable-background:accumulate" />
      <path
         inkscape:connector-curvature="0"
         id="path5289"
         d="m 1412.125,3144.4688 a 2.20022,2.20022 0 0 0 -2.0312,1.625 l -2.9688,10.1874 -3.875,5.5313 a 2.20022,2.20022 0 1 0 3.5938,2.5313 l 4.0937,-5.7813 a 2.20022,2.20022 0 0 0 0.3125,-0.6563 l 3.0625,-10.5937 a 2.20022,2.20022 0 0 0 -2.1875,-2.8437 z"
         style="color:#000000;font-style:normal;font-variant:normal;font-weight:normal;font-stretch:normal;font-size:medium;line-height:normal;font-family:Sans;-inkscape-font-specification:Sans;text-indent:0;text-align:start;text-decoration:none;text-decoration-line:none;letter-spacing:normal;word-spacing:normal;text-transform:none;direction:ltr;block-progression:tb;writing-mode:lr-tb;baseline-shift:baseline;text-anchor:start;display:inline;overflow:visible;visibility:visible;fill:#ffffff;fill-opacity:1;fill-rule:nonzero;stroke:none;stroke-width:1px;marker:none;enable-background:accumulate" />
      <path
         inkscape:connector-curvature="0"
         id="path5291"
         d="m 1417.4062,3142.0938 a 2.20022,2.20022 0 0 0 -1.9374,2 l -1,9.5624 -3.2813,7.9063 a 2.20022,2.20022 0 1 0 4.0625,1.6875 l 3.4062,-8.1875 a 2.20022,2.20022 0 0 0 0.1563,-0.625 l 1.0313,-9.875 a 2.20022,2.20022 0 0 0 -2.4376,-2.4687 z"
         style="color:#000000;font-style:normal;font-variant:normal;font-weight:normal;font-stretch:normal;font-size:medium;line-height:normal;font-family:Sans;-inkscape-font-specification:Sans;text-indent:0;text-align:start;text-decoration:none;text-decoration-line:none;letter-spacing:normal;word-spacing:normal;text-transform:none;direction:ltr;block-progression:tb;writing-mode:lr-tb;baseline-shift:baseline;text-anchor:start;display:inline;overflow:visible;visibility:visible;fill:#ffffff;fill-opacity:1;fill-rule:nonzero;stroke:none;stroke-width:1px;marker:none;enable-background:accumulate" />
      <path
         inkscape:connector-curvature="0"
         id="path5293"
         d="m 1390.3125,3173.8125 a 2.20022,2.20022 0 0 0 -1,0.2813 l -7.125,3.875 -7.3437,0.6562 a 2.20022,2.20022 0 1 0 0.375,4.375 l 7.8437,-0.6875 a 2.20022,2.20022 0 0 0 0.875,-0.25 l 7.5,-4.0937 a 2.20022,2.20022 0 0 0 -1.125,-4.1563 z"
         style="color:#000000;font-style:normal;font-variant:normal;font-weight:normal;font-stretch:normal;font-size:medium;line-height:normal;font-family:Sans;-inkscape-font-specification:Sans;text-indent:0;text-align:start;text-decoration:none;text-decoration-line:none;letter-spacing:normal;word-spacing:normal;text-transform:none;direction:ltr;block-progression:tb;writing-mode:lr-tb;baseline-shift:baseline;text-anchor:start;display:inline;overflow:visible;visibility:visible;fill:#ffffff;fill-opacity:1;fill-rule:nonzero;stroke:none;stroke-width:1px;marker:none;enable-background:accumulate" />
      <path
         inkscape:connector-curvature="0"
         id="path5295"
         d="m 1360.875,3185.4062 a 2.20022,2.20022 0 0 0 -1.4688,0.75 l -6.7812,7.6876 -12.2812,-1.1876 -8.0626,-5.5 a 2.205845,2.205845 0 1 0 -2.4687,3.6563 l 8.5313,5.7813 a 2.20022,2.20022 0 0 0 1.0312,0.375 l 13.9688,1.375 a 2.20022,2.20022 0 0 0 1.875,-0.75 l 7.5,-8.5313 a 2.20022,2.20022 0 0 0 -1.8438,-3.6563 z"
         style="color:#000000;font-style:normal;font-variant:normal;font-weight:normal;font-stretch:normal;font-size:medium;line-height:normal;font-family:Sans;-inkscape-font-specification:Sans;text-indent:0;text-align:start;text-decoration:none;text-decoration-line:none;letter-spacing:normal;word-spacing:normal;text-transform:none;direction:ltr;block-progression:tb;writing-mode:lr-tb;baseline-shift:baseline;text-anchor:start;display:inline;overflow:visible;visibility:visible;fill:#ffffff;fill-opacity:1;fill-rule:nonzero;stroke:none;stroke-width:1px;marker:none;enable-background:accumulate" />
      <path
         inkscape:connector-curvature="0"
         id="path5297"
         d="m 1299.0938,3181.6562 a 2.20022,2.20022 0 0 0 -1.125,3.9376 l 11.9374,9.5312 a 2.20022,2.20022 0 0 0 1.5,0.5 l 5.4688,-0.3438 a 2.20022,2.20022 0 0 0 1.5312,-0.75 l 2.375,-2.7187 a 2.2033255,2.2033255 0 1 0 -3.3124,-2.9063 l -1.7813,2.0313 -3.6875,0.2187 -11.2812,-9 a 2.20022,2.20022 0 0 0 -1.625,-0.5 z"
         style="color:#000000;font-style:normal;font-variant:normal;font-weight:normal;font-stretch:normal;font-size:medium;line-height:normal;font-family:Sans;-inkscape-font-specification:Sans;text-indent:0;text-align:start;text-decoration:none;text-decoration-line:none;letter-spacing:normal;word-spacing:normal;text-transform:none;direction:ltr;block-progression:tb;writing-mode:lr-tb;baseline-shift:baseline;text-anchor:start;display:inline;overflow:visible;visibility:visible;fill:#ffffff;fill-opacity:1;fill-rule:nonzero;stroke:none;stroke-width:1px;marker:none;enable-background:accumulate" />
      <path
         inkscape:connector-curvature="0"
         id="path5299"
         d="m 1243.5,3178.25 a 2.20022,2.20022 0 0 0 -0.75,4.1562 l 16.375,8.5313 a 2.20022,2.20022 0 0 0 0.2812,0.125 l 8.875,3.0625 a 2.20022,2.20022 0 0 0 1.5,0 l 8.5938,-3.3438 0.094,-0.031 7.0624,-1.6562 a 2.20022,2.20022 0 1 0 -1,-4.2813 l -7.1874,1.6875 a 2.20022,2.20022 0 0 0 -0.25,0.094 l -8.125,3.125 -7.8126,-2.6876 -0.094,-0.062 -16.2813,-8.4688 a 2.20022,2.20022 0 0 0 -1.2812,-0.25 z"
         style="color:#000000;font-style:normal;font-variant:normal;font-weight:normal;font-stretch:normal;font-size:medium;line-height:normal;font-family:Sans;-inkscape-font-specification:Sans;text-indent:0;text-align:start;text-decoration:none;text-decoration-line:none;letter-spacing:normal;word-spacing:normal;text-transform:none;direction:ltr;block-progression:tb;writing-mode:lr-tb;baseline-shift:baseline;text-anchor:start;display:inline;overflow:visible;visibility:visible;fill:#ffffff;fill-opacity:1;fill-rule:nonzero;stroke:none;stroke-width:1px;marker:none;enable-background:accumulate" />
      <path
         inkscape:connector-curvature="0"
         id="path5301"
         d="m 1229.0625,3164.9375 a 2.20022,2.20022 0 0 0 -1.3125,3.9375 l 3.4062,2.75 a 2.201074,2.201074 0 1 0 2.75,-3.4375 l -3.4062,-2.75 a 2.20022,2.20022 0 0 0 -1.4375,-0.5 z"
         style="color:#000000;font-style:normal;font-variant:normal;font-weight:normal;font-stretch:normal;font-size:medium;line-height:normal;font-family:Sans;-inkscape-font-specification:Sans;text-indent:0;text-align:start;text-decoration:none;text-decoration-line:none;letter-spacing:normal;word-spacing:normal;text-transform:none;direction:ltr;block-progression:tb;writing-mode:lr-tb;baseline-shift:baseline;text-anchor:start;display:inline;overflow:visible;visibility:visible;fill:#ffffff;fill-opacity:1;fill-rule:nonzero;stroke:none;stroke-width:1px;marker:none;enable-background:accumulate" />
    </g>
    <path
       style="color:#000000;display:inline;overflow:visible;visibility:visible;fill:#ffffff;fill-opacity:1;fill-rule:nonzero;stroke:none;stroke-width:1px;marker:none;enable-background:accumulate"
       d="m 479.13908,1907.2289 c -0.78413,0.291 -55.47626,32.5954 -71.9427,36.0878 37.24551,-0.8731 80.17595,-25.0286 80.17595,-25.0286 z"
       id="path5303"
       inkscape:connector-curvature="0" />
    <path
       style="color:#000000;display:inline;overflow:visible;visibility:visible;fill:#ffffff;fill-opacity:1;fill-rule:nonzero;stroke:none;stroke-width:1px;marker:none;enable-background:accumulate"
       d="m 435.55713,2461.2707 c -1.81423,-42.6853 72.56996,-85.3708 195.93901,-88.3146 123.36891,-2.9438 228.59545,30.9101 239.48087,75.0674 10.88555,44.1574 -108.85485,86.8428 -215.89562,88.3146 -107.04077,1.472 -208.63884,-10.3033 -219.52426,-75.0674 z"
       id="path3565"
       inkscape:connector-curvature="0" />
  </g>
  <g
     inkscape:groupmode="layer"
     id="layer1"
     inkscape:label="txt">
    <text
       xml:space="preserve"
       style="font-style:normal;font-variant:normal;font-weight:normal;font-stretch:normal;font-size:12px;line-height:125%;font-family:Lavi;-inkscape-font-specification:Lavi;text-align:center;letter-spacing:0px;word-spacing:0px;text-anchor:middle;fill:#000000;fill-opacity:1;stroke:none"
       x="1986.8636"
       y="996.36511"
       id="text4246"
       sodipodi:linespacing="125%"><tspan
         sodipodi:role="line"
         style="font-style:italic;font-variant:normal;font-weight:normal;font-stretch:normal;font-size:45px;font-family:Lavi;-inkscape-font-specification:'Lavi Italic'"
         x="1986.8636"
         y="996.36511"
         id="tspan4209">&quot;El conocimioento de las plantas</tspan><tspan
         sodipodi:role="line"
         style="font-style:italic;font-variant:normal;font-weight:normal;font-stretch:normal;font-size:45px;font-family:Lavi;-inkscape-font-specification:'Lavi Italic'"
         x="1986.8636"
         y="1052.6152"
         id="tspan4393">comestibles: es nada menos</tspan><tspan
         sodipodi:role="line"
         style="font-style:italic;font-variant:normal;font-weight:normal;font-stretch:normal;font-size:45px;font-family:Lavi;-inkscape-font-specification:'Lavi Italic'"
         x="1986.8636"
         y="1108.8652"
         id="tspan4219">que el conocimiento del</tspan><tspan
         sodipodi:role="line"
         style="font-style:italic;font-variant:normal;font-weight:normal;font-stretch:normal;font-size:45px;font-family:Lavi;-inkscape-font-specification:'Lavi Italic'"
         x="1994.7738"
         y="1165.1152"
         id="tspan4221">hechizo contra el hambre.&quot; </tspan></text>
    <text
       xml:space="preserve"
       style="font-style:normal;font-variant:normal;font-weight:normal;font-stretch:normal;font-size:12px;line-height:125%;font-family:Lavi;-inkscape-font-specification:Lavi;text-align:center;letter-spacing:0px;word-spacing:0px;text-anchor:middle;fill:#000000;fill-opacity:1;stroke:none"
       x="943.64618"
       y="2551.5776"
       id="text4246-2"
       sodipodi:linespacing="125%"><tspan
         sodipodi:role="line"
         style="font-size:45px"
         x="943.64618"
         y="2551.5776"
         id="tspan4231">...con ella no</tspan><tspan
         sodipodi:role="line"
         style="font-size:45px"
         x="943.64618"
         y="2607.8276"
         id="tspan4233">he aprendido</tspan><tspan
         sodipodi:role="line"
         style="font-size:45px"
         x="943.64618"
         y="2664.0776"
         id="tspan4235">ni uno solo.</tspan></text>
    <text
       xml:space="preserve"
       style="font-style:normal;font-variant:normal;font-weight:normal;font-stretch:normal;font-size:12px;line-height:125%;font-family:Lavi;-inkscape-font-specification:Lavi;text-align:center;letter-spacing:0px;word-spacing:0px;text-anchor:middle;fill:#000000;fill-opacity:1;stroke:none"
       x="916.27588"
       y="1772.6576"
       id="text4246-1"
       sodipodi:linespacing="125%"><tspan
         sodipodi:role="line"
         style="font-size:45px"
         x="916.27588"
         y="1772.6576"
         id="tspan4202">Yo también</tspan><tspan
         sodipodi:role="line"
         style="font-size:45px"
         x="916.27588"
         y="1828.9076"
         id="tspan4194">estoy muy</tspan><tspan
         sodipodi:role="line"
         style="font-size:45px"
         x="916.27588"
         y="1885.1576"
         id="tspan4196">agotada ...</tspan></text>
    <text
       xml:space="preserve"
       style="font-style:normal;font-variant:normal;font-weight:normal;font-stretch:normal;font-size:12px;line-height:125%;font-family:Lavi;-inkscape-font-specification:Lavi;text-align:center;letter-spacing:0px;word-spacing:0px;text-anchor:middle;fill:#000000;fill-opacity:1;stroke:none"
       x="1002.8398"
       y="1991.175"
       id="text4246-1-3"
       sodipodi:linespacing="125%"><tspan
         sodipodi:role="line"
         style="font-size:45px"
         x="1002.8398"
         y="1991.175"
         id="tspan4202-4">Ya son varios</tspan><tspan
         sodipodi:role="line"
         style="font-size:45px"
         x="1002.8398"
         y="2047.425"
         id="tspan4203">días que no</tspan><tspan
         sodipodi:role="line"
         style="font-size:45px"
         x="1002.8398"
         y="2103.675"
         id="tspan4205">hemos comido.</tspan></text>
    <path
       style="fill:#ffffff;stroke:none"
       d="m 895.82485,1600.0624 c 21.55989,22.9922 18.24044,32.1943 13.58315,42.3773 -4.65713,10.1831 -10.03352,18.9288 -7.28323,25.6442 2.75014,6.7151 9.98323,13.2537 16.01769,17.3966 6.03443,4.143 -1.01568,10.4266 -2.75149,17.9213 -1.73575,7.4949 3.84933,48.8396 3.84933,48.8396 0,0 19.75368,-24.4746 23.31609,-33.8003 3.56256,-9.3255 4.913,-12.7174 5.29836,-16.8203 0.38522,-4.103 -0.16581,-14.3412 -5.22225,-20.1838 -5.05644,-5.8427 -12.67159,-8.8811 -17.49774,-12.4365 -4.82629,-3.5553 -2.3259,-12.0013 -0.46383,-20.4619 1.86215,-8.4605 1.83118,-14.9098 -5.9524,-27.296 -6.67188,-10.6173 -22.89368,-21.1802 -22.89368,-21.1802 z"
       id="path3023-2"
       inkscape:connector-curvature="0"
       sodipodi:nodetypes="csssscssssssc" />
    <text
       xml:space="preserve"
       style="color:#000000;font-style:normal;font-variant:normal;font-weight:normal;font-stretch:normal;font-size:45.57519913px;line-height:125%;font-family:Arial;-inkscape-font-specification:Arial;letter-spacing:0px;word-spacing:0px;display:inline;overflow:visible;visibility:visible;opacity:1;fill:#000000;fill-opacity:1;fill-rule:nonzero;stroke:#000000;stroke-width:1;stroke-miterlimit:4;stroke-dasharray:none;stroke-opacity:1;marker:none;enable-background:accumulate"
       x="984.55341"
       y="1771.2749"
       id="text4190-8"
       sodipodi:linespacing="125%"
       transform="matrix(0.8940102,-0.10429749,-0.1924975,1.1410127,0,0)"><tspan
         sodipodi:role="line"
         id="tspan4192-5"
         x="986.36328"
         y="1771.2749"
         style="font-style:normal;font-variant:normal;font-weight:normal;font-stretch:normal;font-family:Lavi;-inkscape-font-specification:Lavi;text-align:center;letter-spacing:3.61974597px;text-anchor:middle;fill:#000000;stroke:#000000;stroke-width:1;stroke-miterlimit:4;stroke-dasharray:none">Grou</tspan></text>
    <text
       sodipodi:linespacing="125%"
       id="text4395"
       y="2441.5776"
       x="673.64618"
       style="font-style:normal;font-variant:normal;font-weight:normal;font-stretch:normal;font-size:12px;line-height:125%;font-family:Lavi;-inkscape-font-specification:Lavi;text-align:center;letter-spacing:0px;word-spacing:0px;text-anchor:middle;fill:#000000;fill-opacity:1;stroke:none"
       xml:space="preserve"><tspan
         id="tspan4405"
         y="2441.5776"
         x="673.64618"
         style="font-size:45px"
         sodipodi:role="line">Si pero de los</tspan><tspan
         y="2497.8276"
         x="673.64618"
         style="font-size:45px"
         sodipodi:role="line"
         id="tspan4225">hechizos de verdad...</tspan></text>
  </g>
</svg>
