<?xml version="1.0" encoding="UTF-8" standalone="no"?>
<!-- Created with Inkscape (http://www.inkscape.org/) -->

<svg
   xmlns:dc="http://purl.org/dc/elements/1.1/"
   xmlns:cc="http://creativecommons.org/ns#"
   xmlns:rdf="http://www.w3.org/1999/02/22-rdf-syntax-ns#"
   xmlns:svg="http://www.w3.org/2000/svg"
   xmlns="http://www.w3.org/2000/svg"
   xmlns:xlink="http://www.w3.org/1999/xlink"
   xmlns:sodipodi="http://sodipodi.sourceforge.net/DTD/sodipodi-0.dtd"
   xmlns:inkscape="http://www.inkscape.org/namespaces/inkscape"
   id="svg2"
   version="1.1"
   inkscape:version="0.91 r13725"
   width="2481"
   height="3503"
   sodipodi:docname="Pepper-and-Carrot_by-David-Revoy_E17P02.svg">
  <metadata
     id="metadata8">
    <rdf:RDF>
      <cc:Work
         rdf:about="">
        <dc:format>image/svg+xml</dc:format>
        <dc:type
           rdf:resource="http://purl.org/dc/dcmitype/StillImage" />
        <dc:title />
      </cc:Work>
    </rdf:RDF>
  </metadata>
  <defs
     id="defs6">
    <filter
       style="color-interpolation-filters:sRGB;"
       id="filter4375-4-1-1-1-9-5"
       inkscape:label="Drop Shadow">
      <feFlood
         id="feFlood4377-7-9-0-8-1-7"
         flood-opacity="1"
         flood-color="rgb(108,125,133)"
         result="flood" />
      <feComposite
         id="feComposite4379-3-8-8-2-77-4"
         in2="SourceGraphic"
         in="flood"
         operator="in"
         result="composite1" />
      <feMorphology
         id="feMorphology4393-1-0-49-8-9-3"
         operator="dilate"
         radius="6.2000000000000002"
         result="result3" />
      <feComposite
         id="feComposite4385-9-5-7-0-8-8"
         in2="result3"
         in="SourceGraphic"
         operator="over"
         result="fbSourceGraphic" />
      <feColorMatrix
         result="fbSourceGraphicAlpha"
         in="fbSourceGraphic"
         values="0 0 0 -1 0 0 0 0 -1 0 0 0 0 -1 0 0 0 0 1 0"
         id="feColorMatrix4544" />
      <feTurbulence
         id="feTurbulence4546"
         type="fractalNoise"
         numOctaves="3"
         seed="37"
         baseFrequency="0.129 0.0050000000000000001"
         result="turbulence"
         in="fbSourceGraphic" />
      <feDisplacementMap
         id="feDisplacementMap4548"
         in2="turbulence"
         in="fbSourceGraphic"
         scale="6.6"
         yChannelSelector="G"
         xChannelSelector="R"
         result="fbSourceGraphic" />
      <feColorMatrix
         result="fbSourceGraphicAlpha"
         in="fbSourceGraphic"
         values="0 0 0 -1 0 0 0 0 -1 0 0 0 0 -1 0 0 0 0 1 0"
         id="feColorMatrix4670" />
      <feFlood
         id="feFlood4672"
         flood-opacity="1"
         flood-color="rgb(17,52,65)"
         result="flood"
         in="fbSourceGraphic" />
      <feComposite
         id="feComposite4674"
         in2="fbSourceGraphic"
         in="flood"
         operator="in"
         result="composite1" />
      <feGaussianBlur
         id="feGaussianBlur4676"
         in="composite1"
         stdDeviation="0"
         result="blur" />
      <feOffset
         id="feOffset4678"
         dx="6"
         dy="6"
         result="offset" />
      <feComposite
         id="feComposite4680"
         in2="offset"
         in="fbSourceGraphic"
         operator="over"
         result="composite2" />
    </filter>
  </defs>
  <sodipodi:namedview
     pagecolor="#ffffff"
     bordercolor="#666666"
     borderopacity="1"
     objecttolerance="10"
     gridtolerance="10"
     guidetolerance="10"
     inkscape:pageopacity="0"
     inkscape:pageshadow="2"
     inkscape:window-width="1920"
     inkscape:window-height="1046"
     id="namedview4"
     showgrid="false"
     inkscape:zoom="0.526013"
     inkscape:cx="1345.658"
     inkscape:cy="537.30896"
     inkscape:window-x="0"
     inkscape:window-y="0"
     inkscape:window-maximized="1"
     inkscape:current-layer="layer1" />
  <g
     inkscape:groupmode="layer"
     id="layer2"
     inkscape:label="artwork"
     sodipodi:insensitive="true">
    <image
       sodipodi:absref="/home/rjq/Arts and Craft/Translation P&amp;C/GIT/peppercarrot_ep17_translation/mx/../gfx_Pepper-and-Carrot_by-David-Revoy_E17P02.png"
       xlink:href="../gfx_Pepper-and-Carrot_by-David-Revoy_E17P02.png"
       width="2481"
       height="3503"
       id="image10"
       x="0"
       y="0" />
  </g>
  <g
     inkscape:groupmode="layer"
     id="layer3"
     inkscape:label="speechbubbles">
    <path
       style="color:#000000;display:inline;overflow:visible;visibility:visible;fill:#ffffff;fill-opacity:1;fill-rule:nonzero;stroke:none;stroke-width:1px;marker:none;enable-background:accumulate"
       d="m 121.73886,1073.5847 c -8.28587,-122.67578 153.11084,-89.50111 232.82731,-87.94174 90.43715,5.43907 195.06977,1.73597 186.65169,117.21544 -7.27174,27.1631 -14.54362,55.9243 -40.72229,65.5113 -26.1788,9.5871 -212.33844,22.3698 -242.88026,15.9785 -30.54182,-6.3914 -79.99057,-7.9893 -106.1691,-27.1633 -26.53993,-19.4386 -28.25305,-44.4531 -29.70735,-83.6002 z"
       id="path3373"
       inkscape:connector-curvature="0"
       sodipodi:nodetypes="cccsssc" />
    <path
       style="color:#000000;display:inline;overflow:visible;visibility:visible;fill:#ffffff;fill-opacity:1;fill-rule:nonzero;stroke:none;stroke-width:1px;marker:none;enable-background:accumulate"
       d="m 177.36217,1281.1894 c 4.44725,-84.8744 72.7375,-148.0358 252.8487,-135.0319 96.47725,6.9655 205.97014,10.7773 200.57314,135.0941 -5.3971,124.3165 -162.7061,123.6997 -195.13149,127.1358 -32.42537,3.4364 -201.70102,-6.8184 -231.86398,-48.5824 -18.88132,-26.1432 -26.58861,-52.3494 -26.42637,-78.6156 z"
       id="path4546-6"
       inkscape:connector-curvature="0"
       sodipodi:nodetypes="cssssc" />
    <path
       style="color:#000000;display:inline;overflow:visible;visibility:visible;fill:#ffffff;fill-opacity:1;fill-rule:nonzero;stroke:none;stroke-width:1px;marker:none;enable-background:accumulate"
       d="m 587.23586,1174.1904 c 51.27116,-41.1633 149.8778,-85.2003 264.98554,-18.484 117.45563,-13.9265 159.1674,-5.368 226.1925,56.8954 -72.139,-47.9191 -116.24059,-67.2081 -241.86362,-37.1297 -45.09623,-48.2708 -163.72454,-46.4191 -206.10579,10.6331 -42.38126,57.0523 -17.46921,58.1114 -17.46921,58.1114 l -39.32225,-53.5754 z"
       id="path5074"
       inkscape:connector-curvature="0"
       sodipodi:nodetypes="ccccsccc" />
    <path
       style="color:#000000;display:inline;overflow:visible;visibility:visible;fill:#ffffff;fill-opacity:1;fill-rule:nonzero;stroke:none;stroke-width:1px;marker:none;enable-background:accumulate"
       d="m 1815.527,1690.6826 c -11.0647,-67.3358 18.4411,-246.196 245.2681,-231.4663 226.8268,14.7295 263.7094,98.899 269.2417,124.15 5.5323,25.2509 53.4795,168.3392 -123.5561,206.2156 -177.0357,37.8762 -335.63,-2.1044 -390.9537,-98.8993 z"
       id="path3525"
       inkscape:connector-curvature="0" />
    <path
       style="color:#000000;display:inline;overflow:visible;visibility:visible;fill:#ffffff;fill-opacity:1;fill-rule:nonzero;stroke:none;stroke-width:1px;marker:none;enable-background:accumulate"
       d="m 1598.781,1488.4356 c 103.1765,71.0884 211.139,127.9333 303.5843,70.4763 92.7461,-57.644 107.3574,-10.2915 107.3574,-10.2915 l -114.9117,66.5528 c -85.3574,-3.2446 -142.9698,20.7038 -296.03,-126.7376 z"
       id="path3072-1"
       inkscape:connector-curvature="0"
       sodipodi:nodetypes="csccc" />
    <path
       style="fill:#ffffff;fill-rule:evenodd;stroke:none;stroke-width:1px;stroke-linecap:butt;stroke-linejoin:miter;stroke-opacity:1"
       d="m 2030.9983,3027.9635 c -33.5231,-8.8446 -36.6118,-19.1954 -7.9661,-31.117 -31.63,-0.3537 -26.6086,-7.5288 -13.0384,-16.2951 -48.7814,-33.3859 -44.8466,-63.6391 -39.6718,-93.8186 -37.7987,23.0691 -45.339,-0.5425 -59.5058,-13.9312 -1.3462,34.3429 -10.7829,14.9738 -22.4772,-19.3825 0.6836,43.7411 -4.9525,48.6783 -16.3515,18.2301 -2.5044,28.4283 -11.466,41.3998 -27.8494,36.6044 -21.2683,31.3586 -39.4626,0.5515 -58.6507,-10.1626 -0.1259,29.0887 -12.3134,33.0944 -28.3465,29.1034 -4.1842,13.367 -5.5738,31.6068 -29.0722,11.3022 0.8401,23.773 -11.7542,10.0336 -20.2199,7.8218 12.024,10.5007 -3.1632,18.257 -49.6505,22.8565 18.8597,2.253 19.4374,11.4876 -1.5623,28.9626 28.7597,5.1995 31.5456,19.2875 20.6865,38.0447 34.7874,14.8671 9.585,44.3373 -0.6484,70.1638 28.0588,-18.2808 52.3366,-24.2698 64.9862,7.5432 40.4487,-37.8172 36.651,-21.8438 34.8706,-8.3228 21.8397,-38.5885 26.0714,-10.7477 35.5465,-2.6881 70.0598,-58.7628 75.6409,-18.7362 96.3058,-1.8206 -3.1596,-46.7053 16.996,-33.6847 37.2481,-20.4173 -8.7043,-37.8936 3.6157,-29.4619 15.4961,-21.9985 -2.2396,-16.7495 6.424,-24.0969 29.7885,-18.7673 -17.8911,-9.4802 -9.101,-14.2565 40.0824,-11.9111 z"
       id="path4289"
       inkscape:connector-curvature="0"
       sodipodi:nodetypes="cccccccccccccccccccccccc" />
    <path
       style="display:inline;fill:#ffffff;fill-rule:evenodd;stroke:none;stroke-width:1px;stroke-linecap:butt;stroke-linejoin:miter;stroke-opacity:1"
       d="m 946.09974,2941.6545 c 52.90278,27.161 83.03696,16.1158 82.12876,-47.0193 25.2396,68.2252 42.7548,83.4839 53.1423,49.8689 33.4156,28.8935 54.2864,20.7887 70.8564,0 6.176,26.7356 19.4207,15.9469 30.8831,14.6189 3.7753,6.0487 -9.1912,21.0765 43.1938,1.0542 3.3933,8.0062 7.9643,14.9008 38.6489,-2.8496 7.9494,32.496 33.4548,-1.801 59.5838,-38.4704 -16.2791,45.0819 -9.5288,51.4494 11.2726,34.1958 -9.5103,18.5651 -15.1984,32.9366 20.9347,1.4249 -12.3701,34.2673 20.083,10.7464 72.4667,-38.4702 -26.2032,36.3806 -95.688,97.6974 -49.9214,92.6136 -6.3824,10.7251 -29.1482,20.0696 38.6488,37.0455 -12.6567,7.2778 -51.2976,-3.3573 -19.0642,27.4573 4.3186,3.602 -10.1391,5.8016 17.4539,15.2874 -16.2884,-0.6453 -26.2777,1.6601 -11.2726,15.6731 -29.7324,-0.7577 -18.6079,13.9771 3.2208,32.7709 -43.0567,-24.107 -45.4262,-15.3455 -46.7009,-5.6992 -53.9626,-32.8662 -57.1303,-22.5185 -64.4147,-15.6731 -26.3027,0.2564 -52.6055,-3.8824 -78.9083,32.771 -6.8883,-22.7975 -20.6986,-40.3456 -78.9081,-24.222 25.5584,-29.0024 -10.8017,-10.5249 -38.6488,1.4248 15.2496,-36.2312 -23.4519,-12.4528 -72.4668,22.7972 27.4482,-40.0093 -3.7264,-25.5571 -49.92143,2.8497 17.45386,-39.3052 -10.97149,-58.3137 -78.90815,-59.8427 32.51657,-14.1779 51.47842,-32.0203 17.71416,-64.1172 38.06196,9.451 49.41531,0.6723 22.54512,-34.1958 41.51545,28.6194 22.63995,-12.8917 6.44154,-51.2937 z"
       id="path4508"
       inkscape:connector-curvature="0"
       sodipodi:nodetypes="cccccccccccccccccccccccccccc" />
    <path
       style="color:#000000;display:inline;overflow:visible;visibility:visible;fill:#ffffff;fill-opacity:1;fill-rule:nonzero;stroke:none;stroke-width:1px;marker:none;enable-background:accumulate"
       d="m 1050.2173,3024.7311 c 2.301,-31.9144 12.6148,-31.6409 48.1264,-2.7742 -9.3708,-56.9148 38.307,-59.6058 82.7419,-65.3788 -5.0962,-15.9918 -24.7705,-34.3582 7.1238,-44.3253 -17.1312,-9.5316 -17.1867,-22.2121 -2.0059,-37.7021 -35.4653,7.381 -48.8052,2.8369 -6.8589,-31.5062 -39.5898,19.5106 -77.5022,36.8796 -62.5712,-13.2198 -14.9915,6.8189 -23.3554,46.4829 -82.0713,-26.0698 -0.6649,33.4075 -59.58123,60.8928 -88.51465,17.7676 14.64763,35.9329 -33.36659,77.1682 -55.88098,48.3183 13.37478,20.1443 2.3205,39.8441 -14.53361,43.1439 47.85207,5.33 38.25239,17.5404 5.12831,37.7973 98.56045,3.1619 44.32019,23.2861 44.80321,36.9088 60.00014,-12.5291 56.14407,12.9248 64.73423,31.7943 57.13919,-57.5567 39.77989,-47.2761 59.77869,5.246 z"
       id="path3549-3"
       inkscape:connector-curvature="0"
       sodipodi:nodetypes="ccccccccccccccc" />
    <path
       style="color:#000000;display:inline;overflow:visible;visibility:visible;fill:#ffffff;fill-opacity:1;fill-rule:nonzero;stroke:none;stroke-width:1px;marker:none;enable-background:accumulate"
       d="m 1269.3957,2763.3018 c -26.1522,36.9012 -46.8971,78.302 -79.3319,109.9753 l 39.1635,-9.8688 c -5.4563,17.5055 -20.6662,29.6804 -32.5642,43.6655 l 25.2547,-1.9964 c -13.3891,41.1505 -40.934,70.0174 -61.6368,104.8213 l 43.7044,-7.0626 c 16.7451,-37.7274 27.0981,-77.8041 51.033,-112.8889 l -24.8923,-0.6188 c 6.5411,-13.3013 13.6301,-26.3553 23.1666,-38.3053 l -31.2879,2.0537 z"
       id="path4032"
       inkscape:connector-curvature="0"
       sodipodi:nodetypes="cccccccccccc" />
  </g>
  <g
     inkscape:groupmode="layer"
     id="layer1"
     inkscape:label="txt">
    <text
       xml:space="preserve"
       style="font-style:normal;font-variant:normal;font-weight:normal;font-stretch:normal;font-size:12px;line-height:125%;font-family:Lavi;-inkscape-font-specification:Lavi;text-align:center;letter-spacing:0px;word-spacing:0px;text-anchor:middle;fill:#000000;fill-opacity:1;stroke:none"
       x="332.59747"
       y="1039.3605"
       id="text4246"
       sodipodi:linespacing="125%"><tspan
         sodipodi:role="line"
         style="font-size:45px"
         x="332.59747"
         y="1039.3605"
         id="tspan4153">Bueno, vamonos</tspan><tspan
         sodipodi:role="line"
         style="font-size:45px"
         x="340.50763"
         y="1095.6105"
         id="tspan4175">al país de las </tspan><tspan
         sodipodi:role="line"
         style="font-size:45px"
         x="332.59747"
         y="1151.8605"
         id="tspan4191">lunas crecientes.</tspan></text>
    <text
       xml:space="preserve"
       style="font-style:normal;font-variant:normal;font-weight:normal;font-stretch:normal;font-size:12px;line-height:125%;font-family:Lavi;-inkscape-font-specification:Lavi;text-align:center;letter-spacing:0px;word-spacing:0px;text-anchor:middle;fill:#000000;fill-opacity:1;stroke:none"
       x="398.66898"
       y="1221.173"
       id="text4246-6"
       sodipodi:linespacing="125%"><tspan
         sodipodi:role="line"
         style="font-size:45px"
         x="398.66898"
         y="1221.173"
         id="tspan4218">Shichimi nos</tspan><tspan
         sodipodi:role="line"
         style="font-size:45px"
         x="398.66898"
         y="1277.423"
         id="tspan4198">dirá como unirnos a</tspan><tspan
         sodipodi:role="line"
         style="font-size:45px"
         x="398.66898"
         y="1333.673"
         id="tspan4200">las hechiceras de</tspan><tspan
         sodipodi:role="line"
         style="font-size:45px"
         x="406.57913"
         y="1389.923"
         id="tspan4220">Ah </tspan></text>
    <text
       xml:space="preserve"
       style="font-style:normal;font-variant:normal;font-weight:normal;font-stretch:normal;font-size:12px;line-height:125%;font-family:Lavi;-inkscape-font-specification:Lavi;text-align:center;letter-spacing:0px;word-spacing:0px;text-anchor:middle;fill:#000000;fill-opacity:1;stroke:none"
       x="2074.5127"
       y="1539.0598"
       id="text4246-6-9"
       sodipodi:linespacing="125%"><tspan
         sodipodi:role="line"
         style="font-size:45px"
         x="2074.5127"
         y="1539.0598"
         id="tspan4270">Carrot, saca el</tspan><tspan
         sodipodi:role="line"
         style="font-size:45px"
         x="2074.5127"
         y="1595.3098"
         id="tspan4204">mapa y la brújula:</tspan><tspan
         sodipodi:role="line"
         style="font-size:45px"
         x="2074.5127"
         y="1651.5598"
         id="tspan4305">con todas estas nubes</tspan><tspan
         sodipodi:role="line"
         style="font-size:45px"
         x="2074.5127"
         y="1707.8098"
         id="tspan4211">no se por cual</tspan><tspan
         sodipodi:role="line"
         style="font-size:45px"
         x="2074.5127"
         y="1764.0598"
         id="tspan4213">ruta debo ir.</tspan></text>
    <text
       xml:space="preserve"
       style="font-style:normal;font-variant:normal;font-weight:normal;font-stretch:normal;font-size:12px;line-height:125%;font-family:Lavi;-inkscape-font-specification:Lavi;text-align:center;letter-spacing:0px;word-spacing:0px;text-anchor:middle;fill:#000000;fill-opacity:1;stroke:none"
       x="1949.7035"
       y="1557.4618"
       id="text4246-6-9-6"
       sodipodi:linespacing="125%"><tspan
         sodipodi:role="line"
         style="font-size:45px"
         x="1949.7035"
         y="1557.4618"
         id="tspan4297" /></text>
    <text
       xml:space="preserve"
       style="font-style:normal;font-variant:normal;font-weight:normal;font-stretch:normal;font-size:15.92187119px;line-height:125%;font-family:Lavi;-inkscape-font-specification:Lavi;text-align:center;letter-spacing:0px;word-spacing:0px;text-anchor:middle;fill:#000000;fill-opacity:1;stroke:#000000;stroke-width:2.4000001;stroke-miterlimit:4;stroke-dasharray:none;stroke-opacity:1"
       x="1283.4001"
       y="2723.7588"
       id="text4246-6-9-0"
       sodipodi:linespacing="125%"
       transform="matrix(0.92763131,0,-0.05816983,1.0780145,0,0)"><tspan
         sodipodi:role="line"
         style="font-size:59.70701599px;stroke:#000000;stroke-width:2.4000001;stroke-miterlimit:4;stroke-dasharray:none;stroke-opacity:1"
         x="1283.4001"
         y="2723.7588"
         id="tspan4305-5">¡Diantres !</tspan></text>
    <text
       xml:space="preserve"
       style="font-style:normal;font-variant:normal;font-weight:normal;font-stretch:normal;font-size:12px;line-height:125%;font-family:Lavi;-inkscape-font-specification:Lavi;text-align:center;letter-spacing:0px;word-spacing:0px;text-anchor:middle;fill:#000000;fill-opacity:1;stroke:none"
       x="1159.3977"
       y="3033.4504"
       id="text4246-6-9-8"
       sodipodi:linespacing="125%"><tspan
         sodipodi:role="line"
         style="font-size:45px"
         x="1159.3977"
         y="3033.4504"
         id="tspan4395">¡Éstas turbulencias!</tspan></text>
    <text
       xml:space="preserve"
       style="font-style:normal;font-variant:normal;font-weight:normal;font-stretch:normal;font-size:11.45282078px;line-height:125%;font-family:Lavi;-inkscape-font-specification:Lavi;text-align:center;letter-spacing:0px;word-spacing:0px;text-anchor:middle;fill:#000000;fill-opacity:1;stroke:#000000;stroke-width:2.4000001;stroke-miterlimit:4;stroke-dasharray:none;stroke-opacity:1"
       x="2000.7388"
       y="2945.4189"
       id="text4246-6-9-8-8"
       sodipodi:linespacing="125%"
       transform="matrix(0.95440174,0,-0.25660426,1.0477768,0,0)"><tspan
         sodipodi:role="line"
         style="font-size:42.94808197px;stroke:#000000;stroke-width:2.4000001;stroke-miterlimit:4;stroke-dasharray:none;stroke-opacity:1"
         x="2000.7388"
         y="2945.4189"
         id="tspan4395-0">¡ME TUMBAN!</tspan></text>
    <path
       style="color:#000000;display:inline;overflow:visible;visibility:visible;fill:#ffffff;fill-opacity:1;fill-rule:nonzero;stroke:none;stroke-width:1px;marker:none;enable-background:accumulate"
       d="m 1981.554,2965.8845 c -2.8344,-2.7596 17.6625,-50.4745 17.6625,-50.4745 0,0 0.362,-14.576 1.0191,-17.668 7.9691,-5.303 20.5629,-9.8345 20.5629,-9.8345 l -1.9493,-38.8861 -7.2418,31.926 -20.2953,2.7706 -1.7964,23.9372 -36.789,19.3605 z"
       id="path4448"
       inkscape:connector-curvature="0"
       sodipodi:nodetypes="cccccccccc" />
    <text
       xml:space="preserve"
       style="font-style:normal;font-variant:normal;font-weight:normal;font-stretch:normal;font-size:15.92187119px;line-height:125%;font-family:Lavi;-inkscape-font-specification:Lavi;text-align:center;letter-spacing:0px;word-spacing:0px;text-anchor:middle;fill:#000000;fill-opacity:1;stroke:none;stroke-width:3.20000005;stroke-miterlimit:4;stroke-dasharray:none"
       x="1720.8666"
       y="3392.7578"
       id="text4246-6-9-0-4"
       sodipodi:linespacing="125%"
       transform="matrix(0.95609098,-0.27508698,0.05700764,1.0295233,0,0)"><tspan
         sodipodi:role="line"
         style="font-size:59.70701599px;stroke:#000000;stroke-width:4.24583244;stroke-miterlimit:4;stroke-dasharray:none;stroke-opacity:1"
         x="1720.8666"
         y="3392.7578"
         id="tspan4305-5-1">¡¡¡ Oh no !!!</tspan></text>
    <text
       xml:space="preserve"
       style="font-style:normal;font-variant:normal;font-weight:normal;font-stretch:normal;font-size:17.80657005px;line-height:125%;font-family:Lavi;-inkscape-font-specification:Lavi;letter-spacing:0px;word-spacing:0px;fill:#ffffff;fill-opacity:1;stroke:#98b9ca;stroke-width:0.99236238;stroke-miterlimit:4;stroke-dasharray:none;stroke-opacity:1;filter:url(#filter4375-4-1-1-1-9-5)"
       x="787.65729"
       y="1584.5073"
       id="text4580-6"
       sodipodi:linespacing="125%"
       transform="matrix(1.1141016,-0.30300864,-0.47939776,1.3924417,1531.8316,249.15336)"><tspan
         sodipodi:role="line"
         id="tspan4582-1"
         x="787.65729"
         y="1584.5073"
         style="font-size:70px;fill:#ffffff;fill-opacity:1;stroke:#98b9ca;stroke-opacity:1"><tspan
           style="font-size:93.14950562px;fill:#ffffff;fill-opacity:1;stroke:#98b9ca;stroke-opacity:1"
           id="tspan4315">¡FrrOoooOoo!</tspan><tspan
           style="font-size:114.73223114px;fill:#ffffff;fill-opacity:1;stroke:#98b9ca;stroke-opacity:1"
           id="tspan4313">!</tspan></tspan></text>
  </g>
</svg>
